<?xml version="1.0" encoding="utf-8"?>
<!-- Generator: Adobe Illustrator 27.6.1, SVG Export Plug-In . SVG Version: 6.00 Build 0)  -->
<svg version="1.0" id="Layer_1" xmlns="http://www.w3.org/2000/svg" xmlns:xlink="http://www.w3.org/1999/xlink" x="0px" y="0px"
	 viewBox="0 0 408 308.8" style="enable-background:new 0 0 408 308.8;" xml:space="preserve">
<style type="text/css">
	.st0{fill:#2396ED;}
</style>
<path class="st0" d="M385.2,122c-8.5-5.9-28-8.1-43.3-5.2c-1.8-14.8-9.9-27.7-24.1-39.1l-8.2-5.9l-5.7,8.5
	c-7.1,11.1-10.6,26.6-9.6,41.3c0.4,5.2,2.1,14.4,7.4,22.5c-5,3-15.3,6.6-28.7,6.6H16.7l-0.7,3c-2.5,14.8-2.5,60.9,26.6,96.3
	c22,26.9,54.6,40.6,97.5,40.6c92.9,0,161.7-44.7,194-125.5c12.8,0.4,40.1,0,53.9-27.7c0.4-0.7,1.1-2.2,3.5-7.8l1.4-3L385.2,122z
	 M221.7,17.9h-39v36.9h39V17.9z M221.7,62.2h-39v36.9h39V62.2z M175.6,62.2h-39v36.9h39V62.2z M129.5,62.2h-39v36.9h39V62.2z
	 M83.4,106.5h-39v36.9h39V106.5z M129.5,106.5h-39v36.9h39V106.5z M175.6,106.5h-39v36.9h39V106.5z M221.7,106.5h-39v36.9h39V106.5z
	 M267.8,106.5h-39v36.9h39V106.5z"/>
</svg>
