<?xml version="1.0" encoding="utf-8"?>
<!-- Generator: Adobe Illustrator 27.6.1, SVG Export Plug-In . SVG Version: 6.00 Build 0)  -->
<svg version="1.0" id="Layer_1" xmlns="http://www.w3.org/2000/svg" xmlns:xlink="http://www.w3.org/1999/xlink" x="0px" y="0px"
	 viewBox="0 0 138.9 133.3" style="enable-background:new 0 0 138.9 133.3;" xml:space="preserve">
<style type="text/css">
	.st0{fill:#FFFFFF;}
</style>
<g>
	<g>
		<path class="st0" d="M72.3,106.6c-1.3,0-2.7-0.2-4.1-0.6l-7.1-1.9l29.1-39l-27.7-36l7.9-1.5c4.6-0.9,10.5-1.1,15,5.5
			c4.1,5.9,8.4,11.6,12.9,17.6c0.5,0.7,1.1,1.4,1.6,2.2c0.4-0.6,0.9-1.2,1.3-1.8c4.7-6.1,9.1-11.9,13.4-18c3.8-5.4,8.6-7.2,14.8-5.4
			l7,2l-7.3,9.6c-2.3,3-4.6,6.1-6.8,9.1c-1.1,1.5-2.2,2.9-3.4,4.4c-3,4-6.2,8.2-9.4,12.2c6,7.8,11.8,15.6,17.9,23.7
			c2.3,3.1,4.6,6.2,7,9.3l4.5,6l-7.3,1.8c-6.6,1.7-11.6-0.2-15.3-5.8c-4.1-6.1-8.5-12.1-12.9-17.9c-1.2-1.6-2.4-3.2-3.6-4.8
			c-0.9,1.3-1.9,2.5-2.8,3.8c-4.9,6.5-9.6,12.7-14.1,19.2C80,104.5,76.5,106.6,72.3,106.6z M108.9,64.2L108.9,64.2L108.9,64.2z"/>
	</g>
	<g>
		<path class="st0" d="M134.4,98.2c-4.6,1.2-7.4,0.1-9.9-3.8c-5.7-8.5-11.9-16.6-18-24.9c-0.8-1.1-1.6-2.1-2.6-3.4
			c-7.2,9.7-14.3,18.9-21,28.4c-2.4,3.4-4.9,4.9-9.4,3.7l26.9-36.1L75.3,29.4c4.3-0.8,7.3-0.4,9.9,3.4c5.8,8.5,12.3,16.6,18.7,25.2
			c6.4-8.5,12.8-16.7,18.8-25.1c2.4-3.4,5-4.7,9.3-3.5c-3.3,4.3-6.5,8.6-9.7,12.9c-4.4,5.7-8.6,11.5-13.2,17.1
			c-1.6,2-1.3,3.3,0.1,5.2C117.6,75.7,125.9,86.8,134.4,98.2z"/>
	</g>
</g>
<g>
	<g>
		<path class="st0" d="M36.8,108c-9.9,0-19.7-3.6-26.1-10.4c-5.4-5.7-8.6-13-9.9-22.9c-0.1-0.6-0.2-1.3-0.4-2.1
			c-0.1-0.4-0.2-0.8-0.2-1.2L0,71l0-0.5c0-2,0-4,0-6V64l0.1-0.5c0.2-1.1,0.4-2.2,0.6-3.3c0.5-2.6,0.9-5.2,1.7-7.9
			c3.4-12,12.3-21.5,23.8-25.2c11-3.6,22.5-1.6,31.6,5.6C71,43,72,57.7,71.6,67.9l-0.2,4.8H15.9c0.7,7.3,3.7,13.3,8.5,16.9
			c5.3,4,12.6,4.8,20.3,2.1c5.1-1.7,8.4-5.5,10.3-11.7c1.1-3.5,4.1-8.9,12.4-6.4l4.3,1.3l-0.9,4.4c-2.2,11.3-7.4,19.2-15.9,24.1
			C49.5,106.5,43.1,108,36.8,108z M16.5,58h39.3c-1.9-10.5-9.1-17.5-18.5-17.6c-0.1,0-0.1,0-0.2,0C26.6,40.4,18.8,47.2,16.5,58z"/>
	</g>
	<g>
		<path class="st0" d="M5,64.5c0.7-3.6,1.2-7.3,2.2-10.8c6-21.4,30.6-30.3,47.5-17.1c9.9,7.8,12.4,18.8,11.9,31.2H10.8
			C10,89.9,26,103.3,46.3,96.5c7.2-2.4,11.4-8,13.5-15c1.1-3.5,2.8-4.1,6.1-3.1c-1.7,8.8-5.5,16.1-13.5,20.7
			c-12,6.9-29.1,4.6-38.1-4.9C9,88.6,6.7,81.6,5.7,74.1c-0.2-1.2-0.5-2.4-0.7-3.6C5,68.5,5,66.5,5,64.5z M10.9,63h50.4
			C61,46.9,51,35.5,37.3,35.4C22.3,35.3,11.6,46.4,10.9,63z"/>
	</g>
	<g>
		<path d="M134.4,98.2c-4.6,1.2-7.4,0.1-9.9-3.8c-5.7-8.5-11.9-16.6-18-24.9c-0.8-1.1-1.6-2.1-2.6-3.4c-7.2,9.7-14.3,18.9-21,28.4
			c-2.4,3.4-4.9,4.9-9.4,3.7l26.9-36.1L75.3,29.4c4.3-0.8,7.3-0.4,9.9,3.4c5.8,8.5,12.3,16.6,18.7,25.2c6.4-8.5,12.8-16.7,18.8-25.1
			c2.4-3.4,5-4.7,9.3-3.5c-3.3,4.3-6.5,8.6-9.7,12.9c-4.4,5.7-8.6,11.5-13.2,17.1c-1.6,2-1.3,3.3,0.1,5.2
			C117.6,75.7,125.9,86.8,134.4,98.2z"/>
	</g>
	<g>
		<path d="M9,61.5c0.7-3.6,1.2-7.3,2.2-10.8c6-21.4,30.6-30.3,47.5-17.1c9.9,7.8,12.4,18.8,11.9,31.2H14.8
			C14,86.9,30,100.3,50.3,93.5c7.2-2.4,11.4-8,13.5-15c1.1-3.5,2.8-4.1,6.1-3.1c-1.7,8.8-5.5,16.1-13.5,20.7
			c-12,6.9-29.1,4.6-38.1-4.9c-5.3-5.6-7.6-12.6-8.6-20.1c-0.1-1.2-0.5-2.4-0.7-3.6C9,65.5,9,63.5,9,61.5z M14.9,60h50.4
			C65,43.9,55,32.5,41.3,32.4C26.3,32.3,15.6,43.4,14.9,60z"/>
	</g>
</g>
</svg>
