<?xml version="1.0" encoding="utf-8"?>
<!-- Generator: Adobe Illustrator 27.6.1, SVG Export Plug-In . SVG Version: 6.00 Build 0)  -->
<svg version="1.1" id="Layer_1" xmlns="http://www.w3.org/2000/svg" xmlns:xlink="http://www.w3.org/1999/xlink" x="0px" y="0px"
	 viewBox="0 0 256 260" style="enable-background:new 0 0 256 260;" xml:space="preserve">
<style type="text/css">
	.st0{fill:#9EDCF2;}
	.st1{fill:#614368;}
	.st2{fill:#F5CCB3;}
	.st3{fill:#FFFFFF;}
	.st4{fill:#AF5C51;}
	.st5{fill:#C4E5D9;}
</style>
<path class="st0" d="M21.5,165.8l-2.8,9.5c0,0-0.7,3.4,2.5,4.1c3.4-0.1,3.2-3.3,2.9-4.2L21.5,165.8z"/>
<path class="st1" d="M295.8,126l0.3-1.2c-27.7-5.5-56.1-5.6-73.3-4.9c2.8-10.1,3.7-21.9,3.7-34.9c0-18.8-7.1-33.7-18.4-45
	c2-6.4,4.6-20.7-2.6-39c0,0-12.9-4.1-42.2,15.5c-11.4-2.9-23.6-4.3-35.9-4.3c-13.4,0-26.9,1.7-39.7,5.1C57.6-3.3,44.3,0.9,44.3,0.9
	c-8.7,21.7-3.3,37.8-1.7,41.8c-10.2,11-16.4,25.1-16.4,42.3c0,13,1.4,24.7,5.1,34.8c-17.3-0.7-44.6-0.4-71.4,5l0.3,1.2
	c26.8-5.4,54.4-5.5,71.6-4.9c0.8,2.1,1.7,4.2,2.6,6.2c-17.1,0.5-46.1,2.8-73.9,10.6l0.4,1.2c28.1-7.9,57.4-10,74.3-10.5
	c10.2,18.9,30.2,31.3,65.9,35.1c-5.1,3.4-10.2,9.2-12.3,19c-7,3.3-28.8,11.4-41.9-11.2c0,0-7.4-13.4-21.4-14.4c0,0-13.7-0.3-0.9,8.5
	c0,0,9.1,4.3,15.4,20.5c0,0,8.3,27.6,47.8,18.6v28.2c0,0-0.8,10.1-10.1,13.4c0,0-5.5,3.8,0.4,5.9c0,0,25.6,2.1,25.6-18.9v-31
	c0,0-1.1-12.3,5-16.5v51c0,0-0.4,12.2-6.7,16.8c0,0-4.2,7.5,5,5.5c0,0,17.6-2.5,18.4-23.1l0.4-51.6h4.2l0.4,51.6
	c0.8,20.5,18.4,23.1,18.4,23.1c9.2,2.1,5-5.5,5-5.5c-6.3-4.6-6.7-16.8-6.7-16.8v-50.6c6,4.7,5,16.2,5,16.2v31
	c0,21,25.6,18.9,25.6,18.9c5.9-2.1,0.4-5.9,0.4-5.9c-9.2-3.4-10.1-13.4-10.1-13.4v-40.7c0-15.9-6.7-24.3-13.3-28.6
	c38.1-3.8,56.3-16,64.7-35.2c16.7,0.4,46.7,2.5,75.4,10.6l0.4-1.2c-28.5-8-58.3-10.1-75.2-10.6c0.8-2,1.4-3.9,2.1-6
	C239.5,120.5,268,120.5,295.8,126L295.8,126z"/>
<path class="st2" d="M189.2,84.1c8.1,7.5,13,16.4,13,26c0,45.2-33.6,46.4-75.1,46.4S52,150.2,52,110.1c0-9.6,4.7-18.5,12.9-25.9
	c13.5-12.3,36.4-5.8,62.2-5.8S175.7,71.8,189.2,84.1z"/>
<path class="st3" d="M102.1,112.5c0,12.5-7,22.5-15.6,22.5s-15.6-10.1-15.6-22.5c0-12.5,7-22.5,15.6-22.5
	C95.2,89.9,102.1,100,102.1,112.5z"/>
<path class="st4" d="M97.1,112.7c0,8.3-4.7,15-10.4,15c-5.8,0-10.4-6.7-10.4-15s4.7-15,10.4-15C92.4,97.8,97.1,104.5,97.1,112.7z"/>
<path class="st3" d="M186,112.5c0,12.5-7,22.5-15.6,22.5c-8.7,0-15.6-10.1-15.6-22.5c0-12.5,7-22.5,15.6-22.5
	C179,89.9,186,100,186,112.5z"/>
<path class="st4" d="M180.9,112.7c0,8.3-4.7,15-10.4,15c-5.8,0-10.4-6.7-10.4-15s4.7-15,10.4-15C176.3,97.8,180.9,104.5,180.9,112.7
	z"/>
<path class="st4" d="M131.3,132.4c0,2.1-1.7,3.9-3.9,3.9c-2.1,0-3.9-1.7-3.9-3.9s1.7-3.9,3.9-3.9
	C129.4,128.5,131.3,130.2,131.3,132.4z"/>
<path class="st4" d="M118.3,142.3c-0.3-0.7,0.1-1.3,0.8-1.6s1.3,0.1,1.6,0.8c1.1,2.9,3.7,4.7,6.7,4.7c3,0,5.6-2,6.7-4.7
	c0.3-0.7,0.9-1.1,1.6-0.8c0.7,0.3,1.1,0.9,0.8,1.6c-1.3,3.8-5,6.4-9.1,6.4C123.3,148.7,119.6,146.1,118.3,142.3z"/>
<g>
	<path class="st5" d="M31.5,160.2c0,1.1-1.2,1.8-2.8,1.8c-1.4,0-2.8-0.8-2.8-1.8s1.2-1.8,2.8-1.8S31.5,159.1,31.5,160.2z"/>
	<path class="st5" d="M39.1,164.4c0,1.1-1.2,1.8-2.8,1.8c-1.4,0-2.8-0.8-2.8-1.8s1.2-1.8,2.8-1.8C37.9,162.5,39.1,163.3,39.1,164.4z
		"/>
	<path class="st5" d="M43.7,169.9c0,1.1-1.2,1.8-2.8,1.8c-1.4,0-2.8-0.8-2.8-1.8s1.2-1.8,2.8-1.8C42.5,167.9,43.7,168.8,43.7,169.9z
		"/>
	<path class="st5" d="M47.9,176.2c0,1.1-1.2,1.8-2.8,1.8c-1.4,0-2.8-0.8-2.8-1.8c0-1.1,1.2-1.8,2.8-1.8
		C46.7,174.2,47.9,175.1,47.9,176.2z"/>
	<path class="st5" d="M52.5,182c0,1.1-1.2,1.8-2.8,1.8c-1.4,0-2.8-0.8-2.8-1.8s1.2-1.8,2.8-1.8C51.3,180.1,52.5,180.9,52.5,182z"/>
	<path class="st5" d="M58.8,187.1c0,1.1-1.2,1.8-2.8,1.8c-1.4,0-2.8-0.8-2.8-1.8s1.2-1.8,2.8-1.8C57.6,185.1,58.8,186,58.8,187.1z"
		/>
	<path class="st5" d="M67.6,190.4c0,1.1-1.2,1.8-2.8,1.8c-1.4,0-2.8-0.8-2.8-1.8s1.2-1.8,2.8-1.8C66.4,188.5,67.6,189.3,67.6,190.4z
		"/>
	<path class="st5" d="M76.4,190.4c0,1.1-1.2,1.8-2.8,1.8c-1.4,0-2.8-0.8-2.8-1.8s1.2-1.8,2.8-1.8C75.2,188.5,76.4,189.3,76.4,190.4z
		"/>
	<path class="st5" d="M85.3,188.9c0,1.1-1.2,1.8-2.8,1.8c-1.4,0-2.8-0.8-2.8-1.8s1.2-1.8,2.8-1.8C84,187.1,85.3,187.9,85.3,188.9z"
		/>
</g>
</svg>
