<?xml version="1.0" encoding="utf-8"?>
<!-- Generator: Adobe Illustrator 27.6.1, SVG Export Plug-In . SVG Version: 6.00 Build 0)  -->
<svg version="1.1" id="Layer_1" xmlns="http://www.w3.org/2000/svg" xmlns:xlink="http://www.w3.org/1999/xlink" x="0px" y="0px"
	 viewBox="0 0 889.1 900" style="enable-background:new 0 0 889.1 900;" xml:space="preserve">
<style type="text/css">
	.st0{fill:#FFFFFF;}
</style>
<g>
	<rect x="375.8" y="389.7" class="st0" width="155.9" height="132.9"/>
</g>
<g>
	<path d="M485.4,875c-59.3,0-116.1-23.5-158-65c-11.1,1.7-22.3,2.5-33.5,2.5c-80.8,0-156.1-43.5-196.4-113.6
		c-30.2-51.6-38.4-112.9-23.2-170.4c-27-33.8-43.5-74.1-48-117.5c-5-48.1,5.1-95.6,29.4-137.4c29.6-52,78.7-89.8,136-105.4
		c12.9-32.4,33.2-61.6,59.2-85C292.7,45.7,346.6,25,402.7,25c59.6,0,116.9,23.5,159.2,65c11.1-1.7,22.3-2.5,33.5-2.5
		c80.8,0,156,43.5,196.3,113.6c30.2,51.6,38.5,113,23.4,170.4c26.8,33.7,43.2,73.9,47.8,117c5.1,47.9-5,95.3-29,137
		C804.3,677.5,755.3,715.3,698,731c-15.7,40.3-42.3,74.8-77.5,100.5c-39.1,28.5-85.3,43.6-133.7,43.6C486.8,875,485.4,875,485.4,875
		z M439.7,763.6c14.7,6,30.5,9.1,46.6,9.1h0.2c33.3-0.1,64.6-13.1,88.2-36.6s36.6-54.9,36.7-88.2V475.2l-18.6-10.8
		c0,0,0,181.3,0,181.4c-0.1,18.1-9.8,35-25.4,44.1C567.3,689.9,439.7,763.6,439.7,763.6z M170.7,602.4c2.2,15.8,7.4,31.2,15.5,45.2
		c22.3,38.5,63.8,62.5,108.3,62.5c21.7,0,43.3-5.8,62.2-16.7l149.9-86.5v-21.4l-157.2,90.6c-7.8,4.5-16.6,6.9-25.6,6.9
		c-9,0-17.8-2.4-25.6-6.9L170.7,602.4z M688.1,419.9c15.7,8.8,25.7,25.3,26.3,43.2c0,0.3,0,0.5,0,0.8v146.8
		c12.3-9.7,22.8-21.8,30.8-35.6c34.4-59.6,13.9-136.1-45.7-170.5l-149.7-86.5l-18.5,10.7L688.1,419.9z M142.1,328.9
		c-31.1,59-10.2,132.9,48,166.6l149.6,86.3l18.6-10.7l-156.3-90.2c-15.9-9.1-25.7-26.1-25.5-44.4V289.2c-13,9.9-23.9,22.3-32.2,36.6
		C143.6,326.8,142.8,327.9,142.1,328.9z M445.1,521l61.6-35.6v-71.1l-61.9-35.6l-61.7,35.6l0.1,71.1L445.1,521z M296.5,435.5
		c0,0,0.1-180.9,0.1-181c0.1-18.1,9.8-35,25.4-44.1c0,0,127.5-73.6,127.5-73.6c-14.7-5.9-30.5-9.1-46.6-9.1h-0.2
		c-68.8,0-124.9,56-125,124.8v172.3L296.5,435.5z M383.2,314.4l157-90.6c7.8-4.5,16.6-6.9,25.6-6.9c9,0,17.9,2.4,25.7,7l127.2,74.1
		c-2.2-15.9-7.4-31.3-15.5-45.4c-22.2-38.6-63.8-62.6-108.4-62.6c-21.7,0-43.3,5.8-62.2,16.7l-149.4,86.2V314.4z"/>
	<path class="st0" d="M402.7,50c55.4,0,110.5,22.6,150.4,67c14.1-3,28.3-4.5,42.3-4.5c71.1,0,138.3,37.7,174.7,101.2
		c29,49.5,35.3,109.2,17.2,163.7v0c58.4,64.9,68.5,160.1,24.9,235.8c-28.4,49.9-77,85.1-133.3,96.7C652.2,793.3,574.5,850,486.8,850
		c-0.1,0-0.1,0-0.2,0c-0.4,0-0.7,0-1.1,0c-57,0-111.3-24.4-149.2-67c-14.1,3-28.3,4.5-42.3,4.5c-71.1,0-138.3-37.7-174.8-101.2
		c-29-49.6-35.2-109.2-17-163.7c-58.9-65.1-68.9-160.7-24.8-236.6c28.4-49.9,77-85.1,133.3-96.7c11-33.7,30.7-63.9,57-87.6
		C306.2,67.1,354.6,50,402.7,50 M321.5,478.8l0.2-224.1c0.1-9.3,5-18,13.1-22.7L494,140l4.7-2.7C471.8,115,438,102.7,403,102.7
		c-0.1,0-0.1,0-0.2,0c-82.7,0-149.9,67-150,149.8v185.6c0.1,0.8,0.6,1.5,1.3,1.9L321.5,478.8 M358.2,357.7l194.6-112.3
		c4-2.4,8.6-3.6,13.1-3.6s9,1.2,13.1,3.6l159.1,92.7l4.7,2.8l0-0.6c5.9-34.5-0.4-69.9-17.9-100.2c-27.8-48.2-78.2-75.1-130.1-75.1
		c-25.4,0-51.1,6.5-74.7,20l-161,92.9c-0.7,0.5-1,1.2-0.9,2V357.7 M122.6,313.2v-0.8c-41.2,71.7-16.7,163.2,54.9,204.7l161,92.9
		c0.4,0.2,0.8,0.3,1.2,0.3s0.8-0.1,1.2-0.3l67.3-38.9L214.4,459.2c-8.1-4.6-13.1-13.2-12.9-22.6V247.4
		C168.2,259.4,140.3,282.6,122.6,313.2 M675.8,441.7L675.8,441.7c8.1,4.5,13.3,12.9,13.6,22.2v189.2c32.6-12.2,60-35.3,77.4-65.5
		c41.4-71.7,16.8-163.3-54.9-204.6l-161-93c-0.4-0.2-0.8-0.3-1.2-0.3c-0.4,0-0.8,0.1-1.2,0.3l-67.2,38.8L675.8,441.7 M445.1,549.9
		l86.6-50v-100l-86.9-50l-86.7,50l0.2,100L445.1,549.9 M486.3,797.6c0.1,0,0.2,0,0.2,0c82.7-0.2,149.6-67.1,149.8-149.8V461.7
		c-0.1-0.7-0.6-1.4-1.3-1.7l-67.3-39v224.6c-0.1,9.3-5,18-13.1,22.7l-159.3,91.9l-4.7,2.7C417.5,785.4,451.4,797.6,486.3,797.6
		 M323.9,658c-4.5,0-9-1.2-13-3.5l-159.4-91.9l-4.7-2.8c-6.1,34.5,0.2,70.1,17.8,100.5c27.8,48.1,78.2,74.9,130,74.9
		c25.4,0,51.1-6.5,74.7-20l161.3-93c0.7-0.5,1.1-1.2,1.1-2.1v-77.7L336.9,654.5C332.9,656.8,328.4,658,323.9,658 M402.7,0
		C402.7,0,402.7,0,402.7,0c-62.3,0-122.2,23-168.5,64.6c-25.8,23.2-46.5,51.5-60.9,83C114.7,166.7,64.9,207,34,261.1
		c-13.5,23.2-23.1,48.3-28.6,74.5c-5.4,25.7-6.8,51.9-4,78c2.7,26.1,9.5,51.5,20.1,75.5c7,15.9,15.7,31,25.8,45.1
		c-12.7,60.2-2.7,123.5,28.6,177.2c22.2,38.5,54.3,70.6,92.8,92.7c38.1,21.9,81.4,33.4,125.3,33.4c8.3,0,16.6-0.4,24.9-1.2
		C364.4,877,423.7,900,485.4,900c0.4,0,0.8,0,1.3,0h0c26.9,0,53.5-4.3,78.9-12.7c24.9-8.2,48.3-20.2,69.5-35.7
		c21.2-15.5,39.8-34.1,55.2-55.2c10.2-14.1,18.9-29.1,26.1-44.9C775,732.4,824.7,692.1,855.6,638c13.3-23.2,22.9-48.2,28.3-74.4
		c5.3-25.6,6.6-51.7,3.9-77.7s-9.5-51.3-20-75.2c-7-15.8-15.6-30.9-25.6-44.9c12.7-60.3,2.7-123.5-28.8-177.3
		c-22.2-38.5-54.2-70.5-92.7-92.7c-38.1-21.9-81.4-33.4-125.2-33.4c-8.3,0-16.7,0.4-25,1.2c-19.8-17.7-42.2-32-66.8-42.7
		C471.7,7.1,437.7,0,402.7,0L402.7,0z M408.1,428.8l36.7-21.2l36.9,21.2V471L445,492.2L408.2,471L408.1,428.8L408.1,428.8z"/>
</g>
</svg>
