<?xml version="1.0" encoding="utf-8"?>
<!-- Generator: Adobe Illustrator 27.6.1, SVG Export Plug-In . SVG Version: 6.00 Build 0)  -->
<svg version="1.1" id="Layer_1" xmlns="http://www.w3.org/2000/svg" xmlns:xlink="http://www.w3.org/1999/xlink" x="0px" y="0px"
	 viewBox="0 0 206.5 206.5" style="enable-background:new 0 0 206.5 206.5;" xml:space="preserve">
<style type="text/css">
	.st0{fill:#666766;}
	.st1{fill:#010101;}
</style>
<g>
	<path class="st0" d="M206.5,191.5c0,8.2-6.8,15-15,15H15c-8.2,0-15-6.8-15-15V15C0,6.8,6.8,0,15,0h176.5c8.2,0,15,6.8,15,15V191.5z
		"/>
</g>
<path class="st1" d="M161.7,44.5L119,1.8H76.6l63.9,63.9l-19.7,19.7L37.6,2.3v42.4l41.5,41.5l-19.5,19.5l-22-22v42.4l21.2,21.2
	l-20.6,20.6l36.6,36.6l0.4-0.4v0.6h80.9h12.3h0.3v-0.3l0.1-0.1V175l-0.1-0.1v-0.1h-0.1l-68.6-68.6l20.2-20.2l48.6,48.6V92.1
	l-27.4-27.4L161.7,44.5z M126.2,174.7H87.5l-28-28l19.4-19.4L126.2,174.7z"/>
</svg>
