<?xml version="1.0" encoding="utf-8"?>
<!-- Generator: Adobe Illustrator 27.6.1, SVG Export Plug-In . SVG Version: 6.00 Build 0)  -->
<svg version="1.1" id="Layer_1" xmlns="http://www.w3.org/2000/svg" xmlns:xlink="http://www.w3.org/1999/xlink" x="0px" y="0px"
	 viewBox="0 0 477 512" style="enable-background:new 0 0 477 512;" xml:space="preserve">
<style type="text/css">
	.st0{fill:#028EC8;}
</style>
<path class="st0" d="M201.9,54.1c0,0,21.4-65.1,41.2-52.4c6.1,4,28,52.8,28,52.8s23.4-13.7,26.1-8.6c30.5,93.1,2.4,158.7-37.9,211.1
	c53.6,50.1,63,101.4,52.6,166.4c50.5,0.1,76.4-49.1,140.8-52.1c28.9-0.5,30.3,33.3,8.6,38.6c-44.7,6.3-88.9,56.2-179.1,81.6
	c-11.6,17.7-81.1,15.7-135.9,20.6c-57.9,0.6-42.9-44.5-22.1-52.1c-13.6-7.4-14.1-14.8-16.8-14c-14.5,77.1-54,53.6-78.2,47
	c-18.6-9.9,1.3-33.1,1.3-33.1c-18.1,7.8-32.5-26.5-30.3-60.2c2-26.9,32-52.9,32-52.9c-1.8-67.1,17.8-110.8,69.9-147.4
	c-18.2-21.4-39.2-55.9-11.5-96.1C126.7,93,133.7,50.2,201.9,54.1z"/>
</svg>
