<?xml version="1.0" encoding="utf-8"?>
<!-- Generator: Adobe Illustrator 27.6.1, SVG Export Plug-In . SVG Version: 6.00 Build 0)  -->
<svg version="1.1" id="Layer_1" xmlns="http://www.w3.org/2000/svg" xmlns:xlink="http://www.w3.org/1999/xlink" x="0px" y="0px"
	 viewBox="0 0 420.94 128.7" style="enable-background:new 0 0 420.94 128.7;" xml:space="preserve">
<style type="text/css">
	.st0{fill:#FFFFFF;stroke:#FFFFFF;stroke-width:20;stroke-linejoin:round;stroke-miterlimit:10;}
</style>
<g>
	<g>
		<path class="st0" d="M113.23,52.81l-0.32-0.95l-0.16-0.47c-0.02-0.06-2.3-6.87-1.79-11.89c0.73-7.28-3.85-15.78-4.38-16.73
			l-1.39-2.51l-2.79-5.02l-2.45,5.2l-1.22,2.6c0,0-1.35,2.64-4.69,4.74c-2.95,1.86-4.97,4.03-6.24,5.69l-11.6-1.28l-0.9-0.1
			l-0.8,0.42l-9.44,4.97l-9.2-4.96l-0.81-0.44l-0.91,0.1L42.6,33.45c-1.62-2.32-4.19-5.25-7.52-6.57c-1.78-0.71-3.05-2.9-3.39-3.68
			l-0.92-2.24l-1.87-4.57l-3.13,3.82l-1.57,1.91c-0.63,0.77-6.15,7.83-4.8,17.55c0.88,6.37-1.5,11.02-1.52,11.06l-0.29,0.53
			l-0.63,1.14l0.42,1.23l5.33,15.71l-3.96,5.45l-1.2,1.65l1.12,1.7l0.56,0.85c0.31,0.46,3.12,4.6,7.62,7
			c0.75,0.4,1.54,0.75,2.36,1.06l-7.26,11.3l-3.93,6.11l7.07-1.65l10.73-2.51l13.29,3.98l-3.89,3.75l6.03,0.81l8.17,1.09l4.46,2.15
			l1.28,0.62l1.28-0.62l4.36-2.12l8.26-1.13l6-0.82l-3.86-3.73l13.29-3.98l10.73,2.51l7.07,1.65l-3.93-6.11l-7.42-11.54
			c0.62-0.24,1.25-0.5,1.89-0.78c6.12-2.71,8.32-7.1,8.55-7.59l0.37-0.79l0.74-1.57l-1.02-1.4l-3.87-5.33l5.28-15.57L113.23,52.81z
			 M66.52,58.28V43.31l9.81-5.16l14.44,1.59l0.45-0.93c0.02-0.03,1.7-3.43,5.83-6.03c2.5-1.57,4.21-3.07,5.29-4.15
			c1.2,2.3,3.02,6.52,2.64,10.3c-0.56,5.53,1.34,12.07,1.92,13.9l-5.94,17.52l4.57,6.3c-0.68,0.96-2.24,2.71-5.17,4.01
			c-1.96,0.87-3.46,1.33-4.54,1.59c-0.22,0.05-0.41,0.1-0.59,0.13c-0.36,0.07-0.66,0.12-0.88,0.15c-0.31,0.04-0.49,0.04-0.49,0.04
			l-0.39-0.01l-0.59-0.02l-1.83-0.07l0.55,0.86l0.49,0.77l0.49,0.77l0.29,0.45l0.3,0.47l0.29,0.45l0.2,0.32l0.49,0.77l0.18,0.28
			l0.88,1.37l0.59,0.92l3.57,5.55l-3.57-0.83l-1.47-0.34l-1.47-0.34l-0.66-0.15l-1.72-0.4l-1.72-0.4l-2.05-0.48l-1.72-0.4l-1.72-0.4
			l-2.05-0.48l-1.72-0.4l-1.72-0.4l-2.05-0.48l-1.53-0.36l0.51-0.26l4.59-2.29l13.54-6.76l0.59-0.3l0.88-0.44l0.88-0.44l0.59-0.3
			v-3.7V57.98l0.45-0.42l2.5-4.34l-2.57-1.43l-2.1,3.78l-3.25,3.03l0.07,0.07l1.94,2.08l0.02-0.02v3.5v2.93v2.93v2.93v2.04v1.47
			v0.41L69.75,88.48l-2.06,1.03l-1.88,0.94l-0.18,0.09l-0.58,0.29l-0.58-0.29l-0.18-0.09l-1.88-0.94l-2.06-1.03L37.22,76.93v-0.41
			v-1.47v-2.04v-2.93v-2.93v-2.93v-3.5l0.02,0.02l1.94-2.08l0.07-0.07L36,55.56l-2.1-3.77l-2.57,1.43l2.22,3.97l0.73,0.7v17.15v3.7
			l0.59,0.3l0.88,0.44l0.88,0.44l0.59,0.3l13.54,6.76l4.59,2.29l0.52,0.26l-1.53,0.36l-2.05,0.48l-1.72,0.4l-1.72,0.4l-2.05,0.48
			l-1.72,0.4l-1.72,0.4l-2.05,0.48l-1.72,0.4l-1.72,0.4l-0.66,0.15l-1.47,0.34l-1.47,0.34l-3.57,0.83l3.57-5.55l0.59-0.92l0.88-1.37
			l0.18-0.28l0.49-0.77l0.21-0.32l0.29-0.45l0.31-0.48l0.28-0.44l0.5-0.73l0.49-0.77l0.49-0.76h-1.76h-0.59h-0.34
			c-0.01,0-0.21,0-0.54-0.03c-0.23-0.02-0.52-0.04-0.88-0.09c-0.18-0.02-0.38-0.05-0.59-0.09c-1.31-0.21-3.07-0.64-4.77-1.55
			c-2.26-1.2-4.01-3.15-4.87-4.25l4.51-6.22l-5.9-17.4c0.8-1.74,2.85-7.03,1.88-14.07c-0.66-4.78,1.02-8.84,2.29-11.1
			c1.06,1.58,2.82,3.58,5.38,4.6c3.43,1.36,6.09,6.42,6.11,6.48l0.47,0.9l14.4-1.59l9.81,5.29v14.84L66.52,58.28L66.52,58.28z
			 M72.15,103.82l-2.59,0.35l-0.5-0.9l-0.55-0.98l-0.77,0.43l-0.77,0.43l0.36,0.64l0.58,1.03l0.16,0.28l0.11,0.19l-3.13,1.52
			l-3.22-1.55l0.11-0.19l0.19-0.33l0.57-0.98l0.35-0.61l-0.76-0.44l-0.76-0.44l-0.56,0.97l-0.54,0.94l-2.47-0.39l1.15-1.11
			l1.21-1.17l0.84-0.81l3.89,1.17l3.93-1.18l0.83,0.81l1.2,1.18L72.15,103.82z M49.03,94.15l11.19,3.35l1.45,0.43l1.41,0.42
			l1.97,0.59l1.93-0.58l1.45-0.43l1.45-0.43l11.19-3.35l2.05,0.48l-12.4,3.72l-1.62,0.48l-1.55,0.47l-2.5,0.75l-2.52-0.76L61,98.83
			l-1.62-0.48l-12.39-3.72L49.03,94.15z M54.51,92.87l7.15,2.14l1.45,0.43l1.44,0.43l0.5,0.15l0.49-0.15l1.45-0.43l1.45-0.43
			l7.15-2.14l2.05,0.48l-8.66,2.59l-1.45,0.43l-1.45,0.43l-1.03,0.31L64,96.81l-1.43-0.43l-1.45-0.43l-8.66-2.59L54.51,92.87z
			 M59.98,91.59l2.84,1.42l1.32,0.66l0.91,0.45l0.91-0.46L67.28,93l2.84-1.42l2.03,0.48l-4.61,1.38l-1.45,0.43l-1.04,0.31
			l-1.04-0.31l-1.45-0.43l-4.61-1.38L59.98,91.59z M73,100.56l-0.84-0.81l14.38-4.31l1.98,0.46L73,100.56z M43.54,95.44l14.38,4.31
			l-0.84,0.81L41.56,95.9L43.54,95.44z"/>
		<polygon class="st0" points="83.99,62.2 87.77,58.66 89.2,57.33 92.5,49.08 89.77,47.98 86.71,55.63 83.46,58.66 81.98,60.04 		
			"/>
		<polygon class="st0" points="74.24,62.2 78.02,58.66 79.45,57.33 82.76,49.08 80.02,47.98 76.96,55.63 73.71,58.66 72.23,60.04 		
			"/>
		<polygon class="st0" points="48.12,60.04 46.64,58.66 43.38,55.63 40.32,47.98 37.59,49.08 40.9,57.33 42.33,58.66 46.11,62.2 		
			"/>
		<polygon class="st0" points="52.07,58.66 55.86,62.2 57.86,60.04 56.39,58.66 53.13,55.63 50.07,47.98 47.34,49.08 50.65,57.33 		
			"/>
		<polygon class="st0" points="59.1,80.18 56.7,83.6 57.9,84.45 57.9,84.45 59.1,85.29 59.7,84.45 60.63,83.12 68.7,83.12 
			69.63,84.45 70.22,85.29 71.42,84.45 71.42,84.45 72.63,83.6 70.22,80.18 		"/>
		<polygon class="st0" points="64.78,76.52 64.68,76.56 64.58,76.52 62.15,75.59 61.79,76.52 61.09,78.34 64.69,79.71 68.24,78.34 
			67.53,76.52 67.17,75.59 		"/>
		<polygon class="st0" points="57.34,75.58 57.34,73.01 57.34,73 57.35,73.01 58.12,73.51 58.45,73.01 59.73,71.05 58.25,70.08 
			53.79,67.15 49.33,64.22 48.57,63.73 48.57,64.22 48.52,67.15 48.47,70.08 48.44,72.26 49.91,72.28 49.93,72.28 51.38,72.3 
			51.38,72.28 51.42,70.08 51.43,69.12 52.89,70.08 55.48,71.78 53.55,71.78 53.55,72.28 53.55,73.01 53.55,75.58 		"/>
		<polygon class="st0" points="79.99,64.22 75.53,67.15 71.07,70.08 69.6,71.05 70.4,72.28 70.4,72.28 70.88,73.01 71.21,73.51 
			71.98,73.01 71.98,73 71.98,73.01 71.98,75.58 75.78,75.58 75.78,73.01 75.78,72.28 75.78,71.78 73.85,71.78 76.44,70.08 
			77.89,69.12 77.91,70.08 77.94,72.28 77.94,72.3 79.39,72.28 79.41,72.28 80.88,72.26 80.85,70.08 80.8,67.15 80.76,64.22 
			80.75,63.73 		"/>
	</g>
	<g>
		<path class="st0" d="M128.14,30.34h12.9v51.32h28.38v11.33h-41.28V30.34z"/>
		<path class="st0" d="M176.53,76.41V53.74h12.44v21.84c0,4.42,2.12,7,6.54,7c4.97,0,7.74-2.85,7.74-7.83V53.74h12.44v39.25h-12.44
			l0.28-6.45c-2.4,4.7-6.91,7.28-12.35,7.28C182.61,93.82,176.53,87.56,176.53,76.41z"/>
		<path class="st0" d="M224.17,73.27c0-12.07,8.11-20.36,17.6-20.36c6.26,0,9.77,2.49,12.25,6.36v-32.8h12.44v66.52h-12.44
			l0.28-5.71c-2.21,4.15-6.36,6.54-12.35,6.54C232.37,93.82,224.17,85.35,224.17,73.27z M254.4,73.27c0-5.81-3.5-9.4-8.85-9.4
			c-5.25,0-8.57,3.59-8.57,9.4c0,6.18,3.32,9.67,8.57,9.67C250.9,82.95,254.4,79.45,254.4,73.27z"/>
		<path class="st0" d="M272.19,53.74h13.73l4.52,11.15c1.38,3.32,2.86,8.76,2.86,8.76s1.47-5.53,3.22-8.76l6.45-12.16h0.92
			l6.82,12.16c1.66,3.04,3.23,8.2,3.41,8.76c0.09-0.28,1.48-5.62,2.86-8.76l4.61-11.15h12.44L315.7,94.01h-1.11l-8.48-15.76
			c-1.47-2.58-2.58-7.09-2.76-7.74c-0.18,0.46-1.47,5.16-2.95,7.74l-9.03,15.76h-1.01L272.19,53.74z"/>
		<path class="st0" d="M338.55,39.37c0-4.52,3.69-7.74,7.93-7.74s7.83,3.23,7.83,7.74c0,4.6-3.59,7.83-7.83,7.83
			C342.23,47.2,338.55,43.97,338.55,39.37z M340.21,53.74h12.44v39.25h-12.44V53.74z"/>
		<path class="st0" d="M361.86,103.77l8.76-6.82c2.76,3.41,5.99,6.08,11.61,6.08c5.71,0,9.3-3.41,9.3-10.6v-4.7
			c-2.12,3.59-6.17,6.08-12.16,6.08c-9.58,0-17.78-8.48-17.78-20.55s8.11-20.36,17.6-20.36c6.26,0,10.32,2.76,12.62,6.91l-0.28-6.08
			h12.44V92.9c0,14.93-9.77,20.55-21.19,20.55C372.36,113.45,366.28,109.76,361.86,103.77z M391.81,73.27c0-5.81-3.5-9.4-8.85-9.4
			c-5.25,0-8.57,3.59-8.57,9.4c0,6.18,3.32,9.67,8.57,9.67C388.31,82.95,391.81,79.45,391.81,73.27z"/>
	</g>
</g>
<g>
	<g>
		<path d="M113.23,52.81l-0.32-0.95l-0.16-0.47c-0.02-0.06-2.3-6.87-1.79-11.89c0.73-7.28-3.85-15.78-4.38-16.73l-1.39-2.51
			l-2.79-5.02l-2.45,5.2l-1.22,2.6c0,0-1.35,2.64-4.69,4.74c-2.95,1.86-4.97,4.03-6.24,5.69l-11.6-1.28l-0.9-0.1l-0.8,0.42
			l-9.44,4.97l-9.2-4.96l-0.81-0.44l-0.91,0.1L42.6,33.45c-1.62-2.32-4.19-5.25-7.52-6.57c-1.78-0.71-3.05-2.9-3.39-3.68l-0.92-2.24
			l-1.87-4.57l-3.13,3.82l-1.57,1.91c-0.63,0.77-6.15,7.83-4.8,17.55c0.88,6.37-1.5,11.02-1.52,11.06l-0.29,0.53l-0.63,1.14
			l0.42,1.23l5.33,15.71l-3.96,5.45l-1.2,1.65l1.12,1.7l0.56,0.85c0.31,0.46,3.12,4.6,7.62,7c0.75,0.4,1.54,0.75,2.36,1.06
			l-7.26,11.3l-3.93,6.11l7.07-1.65l10.73-2.51l13.29,3.98l-3.89,3.75l6.03,0.81l8.17,1.09l4.46,2.15l1.28,0.62l1.28-0.62l4.36-2.12
			l8.26-1.13l6-0.82l-3.86-3.73l13.29-3.98l10.73,2.51l7.07,1.65l-3.93-6.11l-7.42-11.54c0.62-0.24,1.25-0.5,1.89-0.78
			c6.12-2.71,8.32-7.1,8.55-7.59l0.37-0.79l0.74-1.57l-1.02-1.4l-3.87-5.33l5.28-15.57L113.23,52.81z M66.52,58.28V43.31l9.81-5.16
			l14.44,1.59l0.45-0.93c0.02-0.03,1.7-3.43,5.83-6.03c2.5-1.57,4.21-3.07,5.29-4.15c1.2,2.3,3.02,6.52,2.64,10.3
			c-0.56,5.53,1.34,12.07,1.92,13.9l-5.94,17.52l4.57,6.3c-0.68,0.96-2.24,2.71-5.17,4.01c-1.96,0.87-3.46,1.33-4.54,1.59
			c-0.22,0.05-0.41,0.1-0.59,0.13c-0.36,0.07-0.66,0.12-0.88,0.15c-0.31,0.04-0.49,0.04-0.49,0.04l-0.39-0.01l-0.59-0.02l-1.83-0.07
			l0.55,0.86l0.49,0.77l0.49,0.77l0.29,0.45l0.3,0.47l0.29,0.45l0.2,0.32l0.49,0.77l0.18,0.28l0.88,1.37l0.59,0.92l3.57,5.55
			l-3.57-0.83l-1.47-0.34l-1.47-0.34l-0.66-0.15l-1.72-0.4l-1.72-0.4l-2.05-0.48l-1.72-0.4l-1.72-0.4l-2.05-0.48l-1.72-0.4
			l-1.72-0.4l-2.05-0.48l-1.53-0.36l0.51-0.26l4.59-2.29l13.54-6.76l0.59-0.3l0.88-0.44l0.88-0.44l0.59-0.3v-3.7V57.98l0.45-0.42
			l2.5-4.34l-2.57-1.43l-2.1,3.78l-3.25,3.03l0.07,0.07l1.94,2.08l0.02-0.02v3.5v2.93v2.93v2.93v2.04v1.47v0.41L69.75,88.48
			l-2.06,1.03l-1.88,0.94l-0.18,0.09l-0.58,0.29l-0.58-0.29l-0.18-0.09l-1.88-0.94l-2.06-1.03L37.22,76.93v-0.41v-1.47v-2.04v-2.93
			v-2.93v-2.93v-3.5l0.02,0.02l1.94-2.08l0.07-0.07L36,55.56l-2.1-3.77l-2.57,1.43l2.22,3.97l0.73,0.7v17.15v3.7l0.59,0.3l0.88,0.44
			l0.88,0.44l0.59,0.3l13.54,6.76l4.59,2.29l0.52,0.26l-1.53,0.36l-2.05,0.48l-1.72,0.4l-1.72,0.4l-2.05,0.48l-1.72,0.4l-1.72,0.4
			l-2.05,0.48l-1.72,0.4l-1.72,0.4l-0.66,0.15l-1.47,0.34l-1.47,0.34l-3.57,0.83l3.57-5.55l0.59-0.92l0.88-1.37l0.18-0.28l0.49-0.77
			l0.21-0.32l0.29-0.45l0.31-0.48l0.28-0.44l0.5-0.73l0.49-0.77l0.49-0.76h-1.76h-0.59h-0.34c-0.01,0-0.21,0-0.54-0.03
			c-0.23-0.02-0.52-0.04-0.88-0.09c-0.18-0.02-0.38-0.05-0.59-0.09c-1.31-0.21-3.07-0.64-4.77-1.55c-2.26-1.2-4.01-3.15-4.87-4.25
			l4.51-6.22l-5.9-17.4c0.8-1.74,2.85-7.03,1.88-14.07c-0.66-4.78,1.02-8.84,2.29-11.1c1.06,1.58,2.82,3.58,5.38,4.6
			c3.43,1.36,6.09,6.42,6.11,6.48l0.47,0.9l14.4-1.59l9.81,5.29v14.84L66.52,58.28L66.52,58.28z M72.15,103.82l-2.59,0.35l-0.5-0.9
			l-0.55-0.98l-0.77,0.43l-0.77,0.43l0.36,0.64l0.58,1.03l0.16,0.28l0.11,0.19l-3.13,1.52l-3.22-1.55l0.11-0.19l0.19-0.33l0.57-0.98
			l0.35-0.61l-0.76-0.44l-0.76-0.44l-0.56,0.97l-0.54,0.94l-2.47-0.39l1.15-1.11l1.21-1.17l0.84-0.81l3.89,1.17l3.93-1.18l0.83,0.81
			l1.2,1.18L72.15,103.82z M49.03,94.15l11.19,3.35l1.45,0.43l1.41,0.42l1.97,0.59l1.93-0.58l1.45-0.43l1.45-0.43l11.19-3.35
			l2.05,0.48l-12.4,3.72l-1.62,0.48l-1.55,0.47l-2.5,0.75l-2.52-0.76L61,98.83l-1.62-0.48l-12.39-3.72L49.03,94.15z M54.51,92.87
			l7.15,2.14l1.45,0.43l1.44,0.43l0.5,0.15l0.49-0.15l1.45-0.43l1.45-0.43l7.15-2.14l2.05,0.48l-8.66,2.59l-1.45,0.43l-1.45,0.43
			l-1.03,0.31L64,96.81l-1.43-0.43l-1.45-0.43l-8.66-2.59L54.51,92.87z M59.98,91.59l2.84,1.42l1.32,0.66l0.91,0.45l0.91-0.46
			L67.28,93l2.84-1.42l2.03,0.48l-4.61,1.38l-1.45,0.43l-1.04,0.31l-1.04-0.31l-1.45-0.43l-4.61-1.38L59.98,91.59z M73,100.56
			l-0.84-0.81l14.38-4.31l1.98,0.46L73,100.56z M43.54,95.44l14.38,4.31l-0.84,0.81L41.56,95.9L43.54,95.44z"/>
		<polygon points="83.99,62.2 87.77,58.66 89.2,57.33 92.5,49.08 89.77,47.98 86.71,55.63 83.46,58.66 81.98,60.04 		"/>
		<polygon points="74.24,62.2 78.02,58.66 79.45,57.33 82.76,49.08 80.02,47.98 76.96,55.63 73.71,58.66 72.23,60.04 		"/>
		<polygon points="48.12,60.04 46.64,58.66 43.38,55.63 40.32,47.98 37.59,49.08 40.9,57.33 42.33,58.66 46.11,62.2 		"/>
		<polygon points="52.07,58.66 55.86,62.2 57.86,60.04 56.39,58.66 53.13,55.63 50.07,47.98 47.34,49.08 50.65,57.33 		"/>
		<polygon points="59.1,80.18 56.7,83.6 57.9,84.45 57.9,84.45 59.1,85.29 59.7,84.45 60.63,83.12 68.7,83.12 69.63,84.45 
			70.22,85.29 71.42,84.45 71.42,84.45 72.63,83.6 70.22,80.18 		"/>
		<polygon points="64.78,76.52 64.68,76.56 64.58,76.52 62.15,75.59 61.79,76.52 61.09,78.34 64.69,79.71 68.24,78.34 67.53,76.52 
			67.17,75.59 		"/>
		<polygon points="57.34,75.58 57.34,73.01 57.34,73 57.35,73.01 58.12,73.51 58.45,73.01 59.73,71.05 58.25,70.08 53.79,67.15 
			49.33,64.22 48.57,63.73 48.57,64.22 48.52,67.15 48.47,70.08 48.44,72.26 49.91,72.28 49.93,72.28 51.38,72.3 51.38,72.28 
			51.42,70.08 51.43,69.12 52.89,70.08 55.48,71.78 53.55,71.78 53.55,72.28 53.55,73.01 53.55,75.58 		"/>
		<polygon points="79.99,64.22 75.53,67.15 71.07,70.08 69.6,71.05 70.4,72.28 70.4,72.28 70.88,73.01 71.21,73.51 71.98,73.01 
			71.98,73 71.98,73.01 71.98,75.58 75.78,75.58 75.78,73.01 75.78,72.28 75.78,71.78 73.85,71.78 76.44,70.08 77.89,69.12 
			77.91,70.08 77.94,72.28 77.94,72.3 79.39,72.28 79.41,72.28 80.88,72.26 80.85,70.08 80.8,67.15 80.76,64.22 80.75,63.73 		"/>
	</g>
	<g>
		<path d="M128.14,30.34h12.9v51.32h28.38v11.33h-41.28V30.34z"/>
		<path d="M176.53,76.41V53.74h12.44v21.84c0,4.42,2.12,7,6.54,7c4.97,0,7.74-2.85,7.74-7.83V53.74h12.44v39.25h-12.44l0.28-6.45
			c-2.4,4.7-6.91,7.28-12.35,7.28C182.61,93.82,176.53,87.56,176.53,76.41z"/>
		<path d="M224.17,73.27c0-12.07,8.11-20.36,17.6-20.36c6.26,0,9.77,2.49,12.25,6.36v-32.8h12.44v66.52h-12.44l0.28-5.71
			c-2.21,4.15-6.36,6.54-12.35,6.54C232.37,93.82,224.17,85.35,224.17,73.27z M254.4,73.27c0-5.81-3.5-9.4-8.85-9.4
			c-5.25,0-8.57,3.59-8.57,9.4c0,6.18,3.32,9.67,8.57,9.67C250.9,82.95,254.4,79.45,254.4,73.27z"/>
		<path d="M272.19,53.74h13.73l4.52,11.15c1.38,3.32,2.86,8.76,2.86,8.76s1.47-5.53,3.22-8.76l6.45-12.16h0.92l6.82,12.16
			c1.66,3.04,3.23,8.2,3.41,8.76c0.09-0.28,1.48-5.62,2.86-8.76l4.61-11.15h12.44L315.7,94.01h-1.11l-8.48-15.76
			c-1.47-2.58-2.58-7.09-2.76-7.74c-0.18,0.46-1.47,5.16-2.95,7.74l-9.03,15.76h-1.01L272.19,53.74z"/>
		<path d="M338.55,39.37c0-4.52,3.69-7.74,7.93-7.74s7.83,3.23,7.83,7.74c0,4.6-3.59,7.83-7.83,7.83
			C342.23,47.2,338.55,43.97,338.55,39.37z M340.21,53.74h12.44v39.25h-12.44V53.74z"/>
		<path d="M361.86,103.77l8.76-6.82c2.76,3.41,5.99,6.08,11.61,6.08c5.71,0,9.3-3.41,9.3-10.6v-4.7c-2.12,3.59-6.17,6.08-12.16,6.08
			c-9.58,0-17.78-8.48-17.78-20.55s8.11-20.36,17.6-20.36c6.26,0,10.32,2.76,12.62,6.91l-0.28-6.08h12.44V92.9
			c0,14.93-9.77,20.55-21.19,20.55C372.36,113.45,366.28,109.76,361.86,103.77z M391.81,73.27c0-5.81-3.5-9.4-8.85-9.4
			c-5.25,0-8.57,3.59-8.57,9.4c0,6.18,3.32,9.67,8.57,9.67C388.31,82.95,391.81,79.45,391.81,73.27z"/>
	</g>
</g>
</svg>
