<?xml version="1.0" encoding="utf-8"?>
<!-- Generator: Adobe Illustrator 27.6.1, SVG Export Plug-In . SVG Version: 6.00 Build 0)  -->
<svg version="1.1" id="Layer_1" xmlns="http://www.w3.org/2000/svg" xmlns:xlink="http://www.w3.org/1999/xlink" x="0px" y="0px"
	 viewBox="0 0 34 34" style="enable-background:new 0 0 34 34;" xml:space="preserve">
<style type="text/css">
	.st0{fill:#5BD000;}
</style>
<g>
	<g>
		<path class="st0" d="M4.2,0.7c-1.9,0-3.5,1.6-3.5,3.5v25.7c0,1.8,1.6,3.4,3.5,3.4h25.7c1.9,0,3.5-1.6,3.5-3.5V4.2
			c-0.1-1.9-1.8-3.5-3.7-3.5H4.2z M10,6.1c1.4,0,2.4,1.1,2.4,2.4c0,0.8-0.4,1.5-1,1.9v1.4c0.1,0,2.4-1.2,4.9-1.2
			c2.7,0,4.2,1.2,5.4,1.2c1.6,0,3.5-1.2,3.9-1.2s0.7,0.3,0.7,0.5v10.2c0,0.3-0.3,0.4-0.5,0.5c-1.2,0.5-2.6,1-3.9,1
			c-1.9,0-2.9-1.2-5.2-1.2c-1.6,0-3.5,0.5-4.9,1.2c-0.1,0-0.1,0-0.3,0.1v3.3c0,1-0.7,1.5-1.5,1.5c-0.8,0-1.5-0.7-1.5-1.5l0,0V10.5
			c-0.5-0.4-1-1.2-1-1.9C7.6,7.2,8.7,6.1,10,6.1z"/>
	</g>
</g>
</svg>
