<?xml version="1.0" encoding="utf-8"?>
<!-- Generator: Adobe Illustrator 27.6.1, SVG Export Plug-In . SVG Version: 6.00 Build 0)  -->
<svg version="1.1" id="Layer_1" xmlns="http://www.w3.org/2000/svg" xmlns:xlink="http://www.w3.org/1999/xlink" x="0px" y="0px"
	 viewBox="0 0 24 24" style="enable-background:new 0 0 24 24;" xml:space="preserve">
<style type="text/css">
	.st0{fill:#FF5500;}
</style>
<path class="st0" d="M13.5,0.1C7-0.7,0.9,3.9,0.1,10.5C-0.7,17,3.9,23.1,10.5,23.9c6.6,0.8,12.6-3.8,13.4-10.4
	C24.7,7,20.1,0.9,13.5,0.1z M16,7.6c-0.2,0-0.4,0.1-0.6,0.2L11,12.3L10.6,12L10,11.3C14.4,7,15.2,6.9,16,7.6z M11.1,12.4L15.6,8
	c0.2-0.2,0.6-0.3,0.9,0c0.2,0.2,0.3,0.6,0,0.9c0,0,0,0-0.1,0L11.7,13L11.1,12.4z M11.5,13.1l-1.1,0.2c0,0-0.1,0-0.1,0
	c0,0,0-0.1,0-0.1l0.6-0.6L11.5,13.1z M8.7,12.7l1.2-1.2l0.9,0.9l-2,0.4C8.7,12.8,8.7,12.8,8.7,12.7C8.6,12.7,8.6,12.7,8.7,12.7z
	 M5,18.7C5,18.7,4.9,18.7,5,18.7C4.9,18.7,4.9,18.7,5,18.7c-0.1-0.1-0.1-0.1,0-0.1h0l0.9-0.9l1.2,1.2L5,18.7z M7.4,17.5
	c-0.1,0-0.1,0.2-0.1,0.3l0.2,0.9c0,0.1,0,0.1-0.1,0.2c0,0-0.1,0-0.1,0h0l-0.9-0.9l-0.3-0.3l3.8-3.8l1.8-0.4l0.9,0.9
	C11.3,15.3,9.6,16.4,7.4,17.5z M12.7,14.1L12.7,14.1l-0.8-0.8l4.7-4.1c0,0,0.1-0.1,0.1-0.1C16.5,10.3,14.7,12.2,12.7,14.1z
	 M16.4,7.6L16.4,7.6c-0.7-0.7-0.7-1.9,0-2.6c0.7-0.7,1.7-0.7,2.5-0.1l-1.6,1.6c0,0,0,0.1,0,0.2c0,0,0,0,0,0l1.2,1.2
	C17.8,8.3,16.9,8.1,16.4,7.6z M19,7.6c-0.1,0.1-0.2,0.2-0.3,0.2h0l-1.2-1.2L19,5.1C19.7,5.8,19.6,6.9,19,7.6z M18.9,6.1
	c0,0-0.1,0.1-0.1,0.2c0.1,0.1,0.1,0.3-0.1,0.4c0,0.1,0,0.1,0,0.2c0,0,0,0,0,0c0,0,0.1,0,0.1,0c0,0,0.1,0,0.1-0.1
	c0.2-0.2,0.2-0.5,0.1-0.8C19,6,18.9,6,18.9,6.1C18.9,6,18.9,6,18.9,6.1z"/>
</svg>
