<?xml version="1.0" encoding="utf-8"?>
<!-- Generator: Adobe Illustrator 27.6.1, SVG Export Plug-In . SVG Version: 6.00 Build 0)  -->
<svg version="1.1" id="Layer_1" xmlns="http://www.w3.org/2000/svg" xmlns:xlink="http://www.w3.org/1999/xlink" x="0px" y="0px"
	 viewBox="0 0 360 360" style="enable-background:new 0 0 360 360;" xml:space="preserve">
<style type="text/css">
	.st0{fill:#FFFFFF;}
	.st2{fill:#6D6E71;}
</style>
<g>
	<g>
		<g>
			<path class="st0" d="M178.7,343.6c-81.2,0-147.2-58.1-147.2-129.5s66-129.5,147.2-129.5c81.2,0,147.2,58.1,147.2,129.5
				C325.9,285.6,259.9,343.6,178.7,343.6z"/>
		</g>
		<g>
			<path d="M178.7,90.2c78.2,0,141.7,55.5,141.7,124s-63.4,124-141.7,124c-78.2,0-141.7-55.5-141.7-124
				C37.1,145.7,100.5,90.2,178.7,90.2 M178.7,79.2c-40.5,0-78.7,13.9-107.4,39c-29.2,25.5-45.3,59.6-45.3,96s16.1,70.4,45.3,95.9
				c28.8,25.2,66.9,39,107.4,39c40.5,0,78.7-13.9,107.4-39c29.2-25.5,45.3-59.6,45.3-95.9c0-36.3-16.1-70.4-45.3-96
				C257.4,93,219.2,79.2,178.7,79.2L178.7,79.2z"/>
		</g>
	</g>
	<g>
		<g>
			<path class="st0" d="M197.9,313.7c-5.7,3.2-12.2,5.1-19.2,5.1c-6.9,0-13.4-1.8-19.1-5"/>
			<path d="M178.7,324.3c-7.6,0-15.2-2-21.8-5.7c-2.6-1.5-3.6-4.9-2.1-7.5c1.5-2.7,4.9-3.6,7.5-2.1c5,2.8,10.6,4.3,16.4,4.3
				c5.8,0,11.5-1.5,16.5-4.4c2.6-1.5,6-0.6,7.5,2.1c1.5,2.6,0.6,6-2.1,7.5C194,322.3,186.4,324.3,178.7,324.3z"/>
		</g>
		<g>
			<g>
				<path class="st0" d="M208.9,322.3c-3.1-2.5-5.9-5.6-8.2-9.1c-2.2-3.3-3.7-6.8-4.8-10.5"/>
				<path d="M208.9,327.8c-1.2,0-2.4-0.4-3.5-1.2c-3.6-2.9-6.8-6.4-9.4-10.4c-2.4-3.7-4.2-7.7-5.4-11.9c-0.8-2.9,0.9-6,3.8-6.8
					c2.9-0.8,6,0.9,6.8,3.8c0.9,3.2,2.3,6.2,4.1,9c1.9,3,4.3,5.6,7,7.8c2.4,1.9,2.7,5.4,0.8,7.8
					C212.1,327.1,210.5,327.8,208.9,327.8z"/>
			</g>
			<g>
				<path class="st0" d="M148.6,322.3c3.1-2.5,5.9-5.6,8.2-9.1c2.2-3.3,3.7-6.8,4.8-10.5"/>
				<path d="M148.6,327.8c-1.6,0-3.2-0.7-4.3-2.1c-1.9-2.4-1.5-5.8,0.8-7.8c2.7-2.2,5.1-4.8,7-7.8c1.8-2.8,3.2-5.8,4.1-9
					c0.8-2.9,3.9-4.6,6.8-3.8c2.9,0.8,4.6,3.9,3.8,6.8c-1.2,4.2-3,8.2-5.4,11.9c-2.6,4-5.7,7.4-9.4,10.4
					C151,327.4,149.8,327.8,148.6,327.8z"/>
			</g>
		</g>
	</g>
	<g>
		<path class="st0" d="M311.5,224.6c4.1,4.3,10.7,5.7,16.3,3c7.1-3.4,10.1-11.8,6.8-18.9c-3.4-7.1-11.8-10.1-18.9-6.8
			c-1.5,0.7-2.9,1.7-4,2.8"/>
		<path d="M321.7,234.5c-5.2,0-10.4-2.1-14.2-6.1c-2.1-2.2-2-5.7,0.1-7.8c2.2-2.1,5.7-2,7.8,0.1c2.6,2.7,6.6,3.4,10,1.8
			c4.3-2.1,6.2-7.3,4.2-11.6c-1-2.1-2.8-3.7-4.9-4.5c-2.2-0.8-4.6-0.7-6.7,0.3c-0.9,0.4-1.7,1-2.4,1.7c-2.1,2.2-5.6,2.2-7.8,0
			c-2.2-2.1-2.2-5.6,0-7.8c1.6-1.6,3.5-2.9,5.5-3.9c4.8-2.3,10.1-2.5,15.1-0.7c5,1.8,8.9,5.4,11.2,10.1c4.7,9.8,0.4,21.6-9.4,26.3
			C327.5,233.9,324.6,234.5,321.7,234.5z"/>
	</g>
	<g>
		<path class="st0" d="M47.5,224.6c-4.1,4.3-10.7,5.7-16.3,3c-7.1-3.4-10.1-11.8-6.8-18.9c3.4-7.1,11.8-10.1,18.9-6.8
			c1.5,0.7,2.9,1.7,4,2.8"/>
		<path d="M37.3,234.5c-2.9,0-5.7-0.6-8.4-1.9c-9.8-4.7-14.1-16.4-9.4-26.3c2.3-4.8,6.2-8.4,11.2-10.1c5-1.8,10.3-1.5,15.1,0.7
			c2.1,1,3.9,2.3,5.5,3.9c2.2,2.2,2.1,5.6,0,7.8c-2.2,2.2-5.6,2.1-7.8,0c-0.7-0.7-1.5-1.3-2.4-1.7c-2.1-1-4.5-1.1-6.7-0.3
			c-2.2,0.8-3.9,2.4-4.9,4.5c-2.1,4.3-0.2,9.6,4.2,11.6c3.4,1.6,7.4,0.9,10-1.8c2.1-2.2,5.6-2.3,7.8-0.1c2.2,2.1,2.3,5.6,0.1,7.8
			C47.7,232.4,42.5,234.5,37.3,234.5z"/>
	</g>
	<g>
		<path d="M313.1,64.6"/>
	</g>
</g>
<g>
	<g>
		<g>
			<path d="M134.9,295.6c2-6.9,3.6-13.4,4.8-19.5c-3.9,0.3-7.8,0.6-11.7,0.9C129.9,283.5,132.2,289.7,134.9,295.6z"/>
		</g>
		<g>
			<path d="M111.9,298c5.4-7.7,10-14.8,13.8-21.4c-3.8-0.5-7.5-1.1-11.1-1.8C113.7,282.6,112.8,290.3,111.9,298z"/>
		</g>
		<g>
			<path d="M89.1,291.6c9.1-6.4,17.2-12.1,24.3-17.3c-2.7-2.1-5.3-4.4-7.6-6.8C101,275.1,95.5,283.1,89.1,291.6z"/>
		</g>
		<g>
			<path d="M157.4,288.6c-1.5-5.3-3.1-10.6-4.7-15.8c-3.5,0.9-7.1,1.7-10.8,2.6C146.4,280.6,151.6,284.9,157.4,288.6z"/>
		</g>
	</g>
	<g>
		<path d="M57.4,251.4c14.4,5.7,29.9,8.1,45.3,7.1c-3.3-4.4-6.6-8.9-9.8-13.4C81.5,249.1,69.5,251.2,57.4,251.4z"/>
	</g>
	<g>
		<g>
			<path d="M81.8,189.3c4.8,10.3,10.4,19.7,16.7,28.3c1.1-5.2,2.6-10.2,4.6-15.1C96.1,198.7,89,194.4,81.8,189.3z"/>
		</g>
		<g>
			<path d="M68,210.6c7.7,8.2,16.3,15.1,25.4,20.8c-0.5-4.9-0.7-9.8-0.4-14.7C85,215.4,76.6,213.5,68,210.6z"/>
		</g>
		<g>
			<path d="M62.1,227.8c8.4,7.6,18.2,13.5,28.8,17.5c-1-4.1-1.8-8.3-2.4-12.5C79.8,232.2,70.9,230.6,62.1,227.8z"/>
		</g>
		<g>
			<path d="M160.8,223.3c4.7-4.5,8.7-9.7,11.8-15.5c-5.3,1.2-10.7,2-16.2,2.3C157.8,214.5,159.3,218.9,160.8,223.3z"/>
		</g>
		<g>
			<path d="M125.5,198.3c0.8-6.5,2.6-12.8,5.4-18.7c2.2,4.9,4.8,9.7,7.7,14.4C134.4,195.4,130,196.8,125.5,198.3z"/>
		</g>
		<g>
			<path d="M144.8,207.1c1.7-6.3,4.4-12.3,8.1-17.8c1.4,5.2,3.3,10.3,5.6,15.3C154,205.5,149.4,206.3,144.8,207.1z"/>
		</g>
		<g>
			<path d="M69.7,275.2c10.4-9.2,22.6-16,35.8-20c-1.4,4.7-2.8,9.5-4.1,14.3C90.7,269.7,80,271.5,69.7,275.2z"/>
		</g>
		<g>
			<path d="M100.9,179.1c9.3,5.5,17.7,11.5,25.3,17.7c-5.8,0.6-11.4,1.7-16.8,3.3C106.9,193.3,104.1,186.3,100.9,179.1z"/>
		</g>
	</g>
</g>
<g>
	<g>
		<path class="st0" d="M235.2,155.6c-3.8,5.3-8.9,9.8-15.3,12.7"/>
		<path d="M220,173.9c-2.1,0-4.1-1.2-5-3.2c-1.3-2.8-0.1-6,2.7-7.3c5.3-2.4,9.8-6.2,13.1-10.9c1.8-2.5,5.2-3.1,7.7-1.3
			c2.5,1.8,3.1,5.2,1.3,7.7c-4.4,6.3-10.5,11.3-17.4,14.5C221.5,173.7,220.7,173.9,220,173.9z"/>
	</g>
	<g>
		<path class="st0" d="M123.8,155.6c3.8,5.3,8.9,9.8,15.3,12.7"/>
		<path d="M139,173.9c-0.8,0-1.6-0.2-2.3-0.5c-7-3.3-13-8.3-17.4-14.5c-1.8-2.5-1.2-5.9,1.3-7.7c2.5-1.8,5.9-1.2,7.7,1.3
			c3.3,4.7,7.9,8.5,13.1,10.9c2.8,1.3,4,4.6,2.7,7.3C143.1,172.7,141.1,173.9,139,173.9z"/>
	</g>
</g>
<g>
	<g>
		<g>
			<g>
				<path class="st0" d="M238.5,282.7c-24,0-43.6-19.6-43.6-43.6c0-24,19.6-43.6,43.6-43.6c24,0,43.6,19.6,43.6,43.6
					C282.1,263.2,262.5,282.7,238.5,282.7z"/>
			</g>
			<g>
				<path d="M238.5,200.3c21.5,0,38.9,17.4,38.9,38.9c0,21.5-17.4,38.9-38.9,38.9c-21.5,0-38.9-17.4-38.9-38.9
					C199.6,217.7,217,200.3,238.5,200.3 M238.5,190.8c-26.7,0-48.3,21.7-48.3,48.3c0,26.7,21.7,48.3,48.3,48.3
					c26.7,0,48.3-21.7,48.3-48.3C286.9,212.5,265.2,190.8,238.5,190.8L238.5,190.8z"/>
			</g>
		</g>
		<g>
			<circle cx="238.5" cy="239.1" r="25.4"/>
		</g>
		<g>
			<g>
				<circle class="st2" cx="229.8" cy="247" r="7.4"/>
			</g>
			<g>
				<circle class="st2" cx="239.4" cy="250.5" r="4.1"/>
			</g>
		</g>
	</g>
	<g>
		<g>
			<g>
				<path class="st0" d="M124.8,282.7c-24,0-43.6-19.6-43.6-43.6c0-24,19.6-43.6,43.6-43.6c24,0,43.6,19.6,43.6,43.6
					C168.4,263.2,148.9,282.7,124.8,282.7z"/>
			</g>
			<g>
				<path d="M124.8,200.3c21.5,0,38.9,17.4,38.9,38.9c0,21.5-17.4,38.9-38.9,38.9c-21.5,0-38.9-17.4-38.9-38.9
					C86,217.7,103.4,200.3,124.8,200.3 M124.8,190.8c-26.7,0-48.3,21.7-48.3,48.3c0,26.7,21.7,48.3,48.3,48.3
					c26.7,0,48.3-21.7,48.3-48.3C173.2,212.5,151.5,190.8,124.8,190.8L124.8,190.8z"/>
			</g>
		</g>
		<g>
			
				<ellipse transform="matrix(5.530035e-02 -0.9985 0.9985 5.530035e-02 -120.8256 350.5464)" cx="124.8" cy="239.1" rx="25.4" ry="25.4"/>
		</g>
		<g>
			<g>
				<circle class="st2" cx="116.1" cy="247" r="7.4"/>
			</g>
			<g>
				<circle class="st2" cx="125.7" cy="250.5" r="4.1"/>
			</g>
		</g>
	</g>
</g>
<g>
	<g>
		<path d="M252.8,106.5c-8.4,12.8-30,29.7-72,29.7c-42,0-67.7-15.1-76.7-28.9c-4.7-7.2-8.7-20.5,3.4-28.4
			c12.1-7.9,69.2,11.4,69.2,11.4s49.7-7.5,69.2-11.4C265.6,74.9,261.2,93.7,252.8,106.5z"/>
	</g>
	<g>
		<path d="M238.1,95.2c0,0-29.6,17.1-58.4,17.1c-28.9,0-56.9-17.1-56.9-17.1s-8.8-45.2,0-63.6c8.8-18.4,37.7-22.8,57.7-22.8
			c20,0,51.4,6.6,57.7,22.8c6.2,16.2-2.1,36.4-2.1,46.8C236,88.8,238.1,95.2,238.1,95.2z"/>
	</g>
</g>
<g>
	<path class="st2" d="M149.6,17.5c-7.6,1-22.8,7.6-17.4,17.6c5,9.2,19.5,12.4,28.9,13.1c1,0.1,6.5,0.4,6.9-0.9
		c0.4-1.4-3-1.5-3.9-1.5c-6.9-0.5-16.3-4.2-20.4-10.2c-5.1-7.4,4.7-15.1,11.5-16c1.3-0.2,3.5-0.4,2-1.7
		C155.8,16.7,151.3,17.3,149.6,17.5L149.6,17.5z"/>
</g>
<g>
	<path class="st2" d="M124.4,97c3.8,4.3,10.2,6.2,15.3,8.3c6,2.4,12.1,4.5,18.5,5.9c12.8,2.9,26.3,4.4,39.3,3.4
		c15-1.1,45.7-7.6,40.6-28.3c-0.3-1.1-1.3-5.2-3-4.8c-1.7,0.4-0.9,4.7-0.7,5.6c-0.1-0.4-0.8,1.7-1.3,2.4c-0.9,1.4-2.2,2.6-3.5,3.6
		c-4,3.1-8.9,5.1-13.7,6.8c-8.9,3.2-18.1,4.6-27.6,4.6c-11.5,0.1-23.1-1.4-34.2-4.2c-5.1-1.3-10.1-3-15-5
		c-4.8-1.9-11.3-3.7-14.8-7.7c-1.6-1.8-2.1,1.4-2.1,2.4C122.1,92.4,122.8,95.2,124.4,97L124.4,97z"/>
</g>
<g>
	<g>
		<path d="M181.6,292.2c-1.3,0-2.6-0.3-3.6-0.9c-0.8-0.4-1.4-1.3-1.8-2c-0.5-0.9-0.3-1.3-0.2-1.4c0.1-0.2,0.3-0.3,0.5-0.3
			c0.1,0,0.3,0,0.5,0.1c0.7,0.4,1.6,0.6,2.6,0.6c1.5,0,3.1-0.5,4.2-1.4c1.7-1.3,2.8-4.7,1.7-6.4c-0.5-0.8-0.7-1.2-0.5-1.5
			c0.1-0.2,0.3-0.3,0.5-0.3c0.6,0,1.6,1,2,1.5c1.9,2.7,2.1,5.9,0.5,8.6C186.8,290.9,184.3,292.2,181.6,292.2L181.6,292.2z"/>
		<path d="M185.5,279.3c0.3,0,1.2,0.7,1.6,1.3c1.6,2.3,2.1,5.3,0.5,8c-1.2,2.1-3.7,3-6,3c-1.2,0-2.4-0.3-3.4-0.8
			c-0.7-0.4-1.2-1.1-1.6-1.8c-0.1-0.2-0.4-0.9-0.1-0.9c0.1,0,0.1,0,0.2,0.1c0.8,0.4,1.8,0.7,2.8,0.7c1.6,0,3.3-0.5,4.5-1.5
			c1.9-1.5,3.1-5.1,1.8-7C185.3,279.6,185.3,279.3,185.5,279.3 M185.5,278.3c-0.4,0-0.8,0.2-1,0.6c-0.4,0.7,0.1,1.4,0.5,2.1
			c1,1.4-0.1,4.5-1.6,5.7c-1,0.8-2.5,1.3-3.9,1.3c-0.9,0-1.7-0.2-2.3-0.5c-0.2-0.1-0.5-0.2-0.7-0.2c-0.4,0-0.8,0.2-1,0.5
			c-0.2,0.3-0.4,0.8,0.2,1.9c0.4,0.8,1.1,1.7,2,2.2c1.1,0.6,2.4,0.9,3.8,0.9c2.9,0,5.6-1.4,6.9-3.5c1.7-2.8,1.5-6.2-0.5-9.1
			C187.5,279.5,186.4,278.3,185.5,278.3L185.5,278.3C185.5,278.3,185.5,278.3,185.5,278.3L185.5,278.3z"/>
	</g>
</g>
</svg>
