<?xml version="1.0" encoding="utf-8"?>
<!-- Generator: Adobe Illustrator 27.6.1, SVG Export Plug-In . SVG Version: 6.00 Build 0)  -->
<svg version="1.1" xmlns="http://www.w3.org/2000/svg" xmlns:xlink="http://www.w3.org/1999/xlink" x="0px" y="0px"
	 viewBox="0 0 148 148" style="enable-background:new 0 0 148 148;" xml:space="preserve">
<g id="Layer_1">
	<g>
		<path d="M74,6c37.5,0,68,30.5,68,68s-30.5,68-68,68S6,111.5,6,74S36.5,6,74,6 M74,0C33.13,0,0,33.13,0,74s33.13,74,74,74
			s74-33.13,74-74S114.87,0,74,0L74,0z"/>
	</g>
	<g>
		<path d="M74,50c42.13,0,68,13.98,68,24s-25.87,24-68,24S6,84.02,6,74S31.87,50,74,50 M74,44C33.13,44,0,57.43,0,74s33.13,30,74,30
			s74-13.43,74-30S114.87,44,74,44L74,44z"/>
	</g>
	<g>
		<path d="M74,6c10.02,0,24,25.87,24,68s-13.98,68-24,68s-24-25.87-24-68S63.98,6,74,6 M74,0C57.43,0,44,33.13,44,74s13.43,74,30,74
			s30-33.13,30-74S90.57,0,74,0L74,0z"/>
	</g>
</g>
<g id="Layer_2">
	<g>
		<path d="M120,28v92H28V28H120 M126,22H22v104h104V22L126,22z"/>
	</g>
</g>
</svg>
