<?xml version="1.0" encoding="utf-8"?>
<!-- Generator: Adobe Illustrator 27.6.1, SVG Export Plug-In . SVG Version: 6.00 Build 0)  -->
<svg version="1.1" id="Layer_1" xmlns="http://www.w3.org/2000/svg" xmlns:xlink="http://www.w3.org/1999/xlink" x="0px" y="0px"
	 viewBox="0 0 300 300" style="enable-background:new 0 0 300 300;" xml:space="preserve">
<style type="text/css">
	.st0{fill:#FFFFFF;stroke:#000000;stroke-width:8.017;stroke-linecap:square;stroke-miterlimit:10;}
	.st1{fill:#FFFFFF;stroke:#000000;stroke-width:8.017;stroke-miterlimit:10;}
	.st2{fill:#FFFFFF;stroke:#000000;stroke-width:4.785;stroke-miterlimit:10;}
	.st3{fill:#FFFFFF;stroke:#000000;stroke-width:4.785;stroke-linecap:square;stroke-miterlimit:10;}
</style>
<g>
	<g>
		<path d="M135.84,267.38l-31.1-4.17l9.55-9.22l-43.8-13.13l-39.92,9.34l27.97-43.5c-3.31-0.9-7.05-2.23-10.73-4.19
			c-11.37-6.07-18.51-16.56-19.29-17.74l-3.05-4.63l13.63-18.78L23.34,114.9l1.71-3.1c0.05-0.09,7.16-13.75,4.55-32.51
			c-3.5-25.23,11.58-43.93,12.22-44.71l8.53-10.4l5.09,12.45c0.02,0.05,3.98,9.16,11.41,12.13c9.1,3.63,16.05,12.36,20,18.43
			l35.1-3.87l28.03,15.11l28.69-15.1l35.13,3.87c3.05-4.37,8.57-10.87,17.26-16.35c10.19-6.42,14.23-14.55,14.27-14.63l6.65-14.12
			l7.6,13.68c0.36,0.65,3.62,6.61,6.6,14.72c4.02,10.93,5.65,20.52,4.84,28.5c-1.47,14.58,5.02,33.9,5.08,34.09l0.88,2.58
			l-15.5,45.68l13.15,18.12l-2.01,4.28c-0.57,1.21-5.96,11.93-21.29,18.71c-3.36,1.49-6.58,2.72-9.64,3.7l28.31,44.04l-39.92-9.34
			l-43.8,13.13l9.51,9.18l-31.3,4.29l-14.2,6.89L135.84,267.38z"/>
		<path d="M252.28,30.88l3.8,6.84c0.52,0.94,12.74,23.17,10.96,40.87c-1.57,15.56,5.21,35.59,5.28,35.79l0.44,1.29l-15.72,46.35
			l12.98,17.88l-1,2.14c-0.2,0.42-5.02,10.44-19.28,16.75c-6.08,2.69-10.87,4.15-14.34,4.95l25.91,40.3l-31.33-7.33l-51.38,15.4
			l8.5,8.2l-23.75,3.25l-13.03,6.32l-13.3-6.4l-23.52-3.15l8.52-8.23l-51.38-15.4l-31.33,7.33l25.74-40.03
			c-4.23-0.7-9.86-2.13-15.34-5.05c-10.69-5.7-17.54-15.97-17.83-16.41l-1.53-2.31l13.22-18.21l-15.85-46.73l0.86-1.55
			c0.07-0.14,7.83-14.68,5.01-35c-3.26-23.5,10.75-40.89,11.35-41.62l4.27-5.2l2.54,6.22c0.04,0.1,4.53,10.7,13.64,14.33
			c9.42,3.76,16.55,14.19,19.42,18.97l36.36-4.01l28.81,15.53l29.49-15.53l36.34,4.01c2.37-3.81,7.81-11.17,17.4-17.21
			c11.36-7.15,15.7-16.2,15.75-16.29L252.28,30.88 M251.69,13.31l-6.66,14.16l-3.3,7c-0.23,0.45-3.95,7.42-12.8,12.99
			c-8.04,5.06-13.54,10.97-16.99,15.5l-31.6-3.48l-2.44-0.27l-2.17,1.14l-25.72,13.54l-25.05-13.5l-2.2-1.19l-2.48,0.27l-31.45,3.47
			c-4.41-6.32-11.42-14.29-20.49-17.91c-4.81-1.92-8.27-7.82-9.22-9.99l-2.51-6.15l-5.09-12.45l-8.53,10.4l-4.27,5.2
			c-1.73,2.1-16.76,21.32-13.09,47.8c2.35,16.94-3.79,29.42-4.14,30.11l-0.81,1.46l-1.71,3.1l1.14,3.35l14.52,42.81l-10.78,14.86
			l-3.26,4.49l3.05,4.63l1.53,2.31c0.83,1.26,8.5,12.54,20.75,19.07c2.04,1.09,4.19,2.05,6.42,2.89L32.55,239.7l-10.7,16.65
			l19.27-4.51l29.24-6.84l36.21,10.85l-10.59,10.22l16.43,2.2l22.26,2.98l12.15,5.85l3.49,1.68l3.49-1.69l11.88-5.77l22.49-3.08
			l16.36-2.24l-10.52-10.16l36.21-10.85l29.24,6.84l19.27,4.51l-10.7-16.65l-20.22-31.45c1.68-0.64,3.4-1.35,5.15-2.13
			c16.68-7.38,22.67-19.34,23.3-20.68l1-2.14l2.01-4.28l-2.78-3.83l-10.54-14.52l14.39-42.43l0.88-2.59l-0.88-2.58l-0.44-1.29
			c-0.06-0.17-6.27-18.71-4.89-32.39c2-19.82-10.5-42.99-11.93-45.57l-3.8-6.84L251.69,13.31L251.69,13.31z"/>
	</g>
	<g>
		<polyline class="st0" points="70.13,180.24 70.13,232.48 149.95,256.41 229.78,232.48 229.78,180.24 		"/>
		<g>
			<polygon class="st1" points="149.95,265.44 161.82,259.68 178.02,257.46 160,240.06 149.95,222.66 139.91,240.06 121.88,257.46 
				137.82,259.6 			"/>
			<polyline class="st2" points="142.43,251.62 137.82,259.6 149.95,265.44 161.82,259.68 157.28,251.63 			"/>
		</g>
		<polyline class="st3" points="70.13,170.67 70.13,222.91 149.95,246.84 229.78,222.91 229.78,170.67 		"/>
		<polyline class="st3" points="70.13,162.7 70.13,214.94 149.95,238.86 229.78,214.94 229.78,162.7 		"/>
		<g>
			<polyline class="st3" points="70.13,154.72 70.13,206.96 149.95,230.89 229.78,206.96 229.78,154.72 			"/>
			<polyline class="st3" points="70.13,146.75 70.13,198.99 149.95,222.91 229.78,198.99 229.78,146.75 			"/>
		</g>
		<path class="st1" d="M179.9,71.57l37.74,4.16c0,0,4.87-10.23,17.35-18.09c12.48-7.86,17.24-14.78,17.24-14.78
			s12.15,18.68,10.48,35.33c-1.68,16.65,5.47,37.49,5.47,37.49l-15.95,47.02l12.81,17.65c0,0-4.22,9.01-17.27,14.78
			c-13.05,5.78-19.46,5.54-19.46,5.54l23.93,37.21l-102.28-23.93L47.68,237.88l23.92-37.21c0,0-10.45,0.04-20.37-5.24
			c-9.91-5.29-16.36-15.08-16.36-15.08l12.81-17.65l-15.95-47.02c0,0,8.53-15.46,5.47-37.49c-3.06-22.03,10.48-38.52,10.48-38.52
			s4.99,12.2,15.87,16.54c10.88,4.34,18.73,19.52,18.73,19.52l37.74-4.16l29.59,15.95L179.9,71.57z"/>
		<g>
			<g>
				<polyline class="st0" points="70.13,131.59 70.13,183.84 149.95,223.71 229.78,183.84 229.78,131.59 				"/>
				<g>
					<g>
						<polyline class="st0" points="219.55,107.71 212.36,125.64 201.75,135.55 						"/>
						<polyline class="st0" points="236.37,118.31 232.28,125.64 225.91,131.59 						"/>
						<polyline class="st0" points="192.99,107.71 185.8,125.64 175.19,135.55 						"/>
					</g>
					<g>
						<polyline class="st0" points="80.36,107.71 87.55,125.64 98.16,135.55 						"/>
						<polyline class="st0" points="63.54,118.31 67.63,125.64 74,131.59 						"/>
						<polyline class="st0" points="106.92,107.71 114.11,125.64 124.72,135.55 						"/>
					</g>
				</g>
			</g>
			<line class="st0" x1="149.95" y1="86.16" x2="149.95" y2="126.53"/>
		</g>
		<polyline class="st1" points="130.48,201.84 135.83,194.21 161.98,194.21 167.33,201.84 		"/>
		<polyline class="st1" points="140.62,181.45 148.97,184.64 157.19,181.45 		"/>
		<polyline class="st1" points="133.27,168.69 108.97,152.74 108.72,168.69 		"/>
		<rect x="118.62" y="167.33" width="10.34" height="10.34"/>
		<g>
			<polyline class="st1" points="164.54,168.69 188.84,152.74 189.09,168.69 			"/>
			<rect x="168.84" y="167.33" width="10.34" height="10.34"/>
		</g>
	</g>
</g>
</svg>
