<?xml version="1.0" encoding="utf-8"?>
<!-- Generator: Adobe Illustrator 27.6.1, SVG Export Plug-In . SVG Version: 6.00 Build 0)  -->
<svg version="1.1" id="Layer_1" xmlns="http://www.w3.org/2000/svg" xmlns:xlink="http://www.w3.org/1999/xlink" x="0px" y="0px"
	 viewBox="0 0 300 300" style="enable-background:new 0 0 300 300;" xml:space="preserve">
<style type="text/css">
	.st0{fill:#BA9BFF;}
	.st1{fill:#5002FF;}
	.st2{fill:#7335FF;}
	.st3{fill:#9668FF;}
</style>
<polygon class="st0" points="221.28,185.25 149.72,228.68 78.17,185.25 61.13,220 149.72,277.9 238.32,220 "/>
<polygon class="st1" points="221.28,185.25 149.72,228.68 149.72,277.9 238.32,220 "/>
<polygon class="st2" points="238.99,116.44 275.98,192.57 278.85,126.74 260.41,101.91 238.99,73.1 "/>
<polygon class="st1" points="60.77,116.44 23.79,192.57 20.92,126.74 60.77,73.1 "/>
<polygon class="st3" points="238.99,73.1 149.72,48.71 60.45,73.1 60.45,116.44 149.72,170.62 238.99,116.44 "/>
<polygon class="st1" points="238.99,73.1 149.72,48.71 149.72,170.62 238.99,116.44 "/>
<polygon class="st1" points="149.72,21.36 112.42,59.62 131.07,108.38 149.72,121.37 168.37,108.38 187.03,59.62 "/>
<polygon class="st3" points="149.72,21.36 149.72,121.37 168.37,108.38 187.03,59.62 "/>
<polygon class="st3" points="266.59,65.93 231.07,71.69 219.78,88.8 238.99,116.44 247.84,106.11 256.07,96.08 "/>
<polygon class="st1" points="266.59,65.93 245.2,87.29 238.99,116.44 249.55,108.62 259.32,100.46 "/>
<polygon class="st1" points="33.27,65.93 68.79,71.69 80.08,88.8 60.87,116.44 52.02,106.11 43.79,96.08 "/>
<polygon class="st3" points="33.27,65.93 54.67,87.29 60.87,116.44 50.32,108.62 40.54,100.46 "/>
</svg>
