<?xml version="1.0" encoding="utf-8"?>
<!-- Generator: Adobe Illustrator 27.6.1, SVG Export Plug-In . SVG Version: 6.00 Build 0)  -->
<svg version="1.1" xmlns="http://www.w3.org/2000/svg" xmlns:xlink="http://www.w3.org/1999/xlink" x="0px" y="0px"
	 viewBox="0 0 1366 768" style="enable-background:new 0 0 1366 768;" xml:space="preserve">
<style type="text/css">
	.st0{fill:#CBC6CC;}
	.st1{fill:#AC9FAD;}
	.st2{fill:#EAE1E1;}
	.st3{fill:#FCF5F5;}
	.st4{fill:#6B686B;}
	.st5{fill:#212121;}
	.st6{fill:#BABABA;}
	.st7{fill:#EDEDED;}
	.st8{fill:#444344;}
	.st9{fill:#848484;}
	.st10{fill:#C5B0C6;}
	.st11{fill:#D8D8D8;}
	.st12{fill:#F79C9C;}
	.st13{display:none;}
	.st14{display:inline;}
	.st15{font-family:'Neutraface2Text-Bold';}
	.st16{font-size:164px;}
	.st17{display:inline;fill:#212121;}
	.st18{display:inline;fill:#848484;}
	.st19{display:inline;fill:#FCF5F5;}
	.st20{display:inline;fill:#AC9FAD;}
	.st21{display:inline;fill:#C5B0C6;}
	.st22{display:inline;opacity:0.2;fill:#48140F;}
	.st23{font-size:142px;}
	.st24{fill:#C2B392;}
	.st25{fill:#B5A586;}
	.st26{fill:#F6F5CA;}
	.st27{opacity:0.2;}
	.st28{fill:#F6F5CA;stroke:#C2B392;stroke-width:3.3685;stroke-miterlimit:10;}
	.st29{opacity:0.3;}
	.st30{opacity:0.7;fill:#676767;}
	.st31{opacity:0.8;fill:#676767;}
	.st32{fill:#EDE3C5;}
	.st33{fill:#E2D1BF;}
	.st34{fill:#F9ECDC;}
</style>
<g id="Layer_2">
	<rect x="0.89" y="-1.33" class="st0" width="1365.11" height="769.33"/>
</g>
<g id="Layer_4">
	<g id="Layer_3">
		<g>
			<path d="M690.5,118.27h41.33c22.8,0,41.49,10.66,41.49,36.74c0,16.89-8.86,27.55-21.81,32.64l25.42,42.15h-26.24l-22.63-38.7
				h-14.6v38.7H690.5V118.27z M731.17,171.73c11.32,0,18.53-4.43,18.53-16.73c0-12.46-7.54-16.56-18.53-16.56h-17.71v33.29H731.17z"
				/>
			<path d="M783.33,195.02c0-21.32,16.89-36.57,38.54-36.57s38.38,15.25,38.38,36.57c0,21.16-16.73,36.24-38.38,36.24
				S783.33,216.18,783.33,195.02z M837.61,195.02c0-10.5-5.9-17.55-15.74-17.55s-15.91,7.05-15.91,17.55
				c0,10.33,6.07,17.55,15.91,17.55S837.61,205.35,837.61,195.02z"/>
			<path d="M872.71,194.69c0-21.16,16.4-36.24,38.21-36.24c13.94,0,22.3,5.08,29.36,13.94l-15.74,12.79
				c-2.62-4.26-8.04-7.38-13.61-7.38c-10,0-15.58,7.05-15.58,16.89c0,10.17,5.58,17.38,15.58,17.38c7.05,0,10.82-3.28,14.1-6.56
				l14.92,13.12c-6.89,7.71-15.09,12.63-29.03,12.63C889.11,231.27,872.71,216.18,872.71,194.69z"/>
			<path d="M975.53,229.79h-22.14V111.38h22.14v60.35c0,5.25-0.49,10.66-1.15,15.09l22.96-26.9h24.6l-24.76,28.54l27.39,41.33
				h-25.75l-17.38-26.4l-5.9,6.23V229.79z"/>
			<path d="M1068.19,195.02c0-21.32,16.89-36.57,38.54-36.57s38.38,15.25,38.38,36.57c0,21.16-16.73,36.24-38.38,36.24
				S1068.19,216.18,1068.19,195.02z M1122.47,195.02c0-10.5-5.9-17.55-15.74-17.55s-15.91,7.05-15.91,17.55
				c0,10.33,6.07,17.55,15.91,17.55S1122.47,205.35,1122.47,195.02z"/>
			<path d="M1159.54,200.27v-40.34h22.14v38.87c0,7.87,3.77,12.46,11.64,12.46c8.86,0,13.78-5.08,13.78-13.94v-37.39h22.14v69.86
				h-22.14l0.49-11.48c-4.26,8.36-12.3,12.96-21.98,12.96C1170.36,231.27,1159.54,220.11,1159.54,200.27z"/>
			<path d="M1253.34,203.55v-25.26h-10.33v-18.37h10.33V135h21.98v24.93h17.88v18.37h-17.88v25.91c0,7.05,2.3,8.53,5.74,8.53
				c3.61,0,6.23-1.97,7.71-2.95l8.36,15.42c-3.44,2.79-9.35,6.4-19.52,6.4C1263.51,231.59,1253.34,224.54,1253.34,203.55z"/>
			<path d="M857.86,356.73h24.44l8.04,19.84c2.46,5.9,5.08,15.58,5.08,15.58s2.62-9.84,5.74-15.58l11.48-21.65h1.64l12.14,21.65
				c2.95,5.41,5.74,14.6,6.07,15.58c0.16-0.49,2.62-10,5.08-15.58l8.2-19.84h22.14l-32.64,71.67h-1.97l-15.09-28.04
				c-2.62-4.59-4.59-12.63-4.92-13.78c-0.33,0.82-2.62,9.18-5.25,13.78l-16.07,28.04h-1.8L857.86,356.73z"/>
			<path d="M975.94,331.14c0-8.04,6.56-13.78,14.1-13.78s13.94,5.74,13.94,13.78c0,8.2-6.4,13.94-13.94,13.94
				S975.94,339.34,975.94,331.14z M978.89,356.73h22.14v69.86h-22.14V356.73z"/>
			<path d="M1025.96,400.35v-25.26h-10.33v-18.37h10.33V331.8h21.98v24.93h17.88v18.37h-17.88v25.91c0,7.05,2.3,8.53,5.74,8.53
				c3.61,0,6.23-1.97,7.71-2.95l8.36,15.42c-3.44,2.79-9.35,6.4-19.52,6.4C1036.13,428.39,1025.96,421.34,1025.96,400.35z"/>
			<path d="M1081.06,308.18h22.14v59.53c4.26-8.04,11.97-12.46,21.65-12.46c15.25,0,26.24,11.15,26.24,31v40.34h-22.14v-38.87
				c0-7.87-3.77-12.3-11.64-12.3c-8.86,0-14.1,4.92-14.1,13.78v37.39h-22.14V308.18z"/>
			<path d="M709.28,597.15v-25.26h-10.33v-18.37h10.33V528.6h21.98v24.93h17.88v18.37h-17.88v25.91c0,7.05,2.3,8.53,5.74,8.53
				c3.61,0,6.23-1.97,7.71-2.95l8.36,15.42c-3.44,2.79-9.35,6.4-19.52,6.4C719.45,625.19,709.28,618.14,709.28,597.15z"/>
			<path d="M764.38,504.98h22.14v59.53c4.26-8.04,11.97-12.46,21.65-12.46c15.25,0,26.24,11.15,26.24,31v40.34h-22.14v-38.87
				c0-7.87-3.77-12.3-11.64-12.3c-8.86,0-14.1,4.92-14.1,13.78v37.39h-22.14V504.98z"/>
			<path d="M889.52,606.5c8.04,0,14.1-3.12,17.55-5.58l12.63,13.61c-6.72,5.9-15.25,10.33-29.85,10.33c-24.93,0-41-15.09-41-36.57
				c0-21.16,16.89-36.24,38.54-36.24c25.09,0,38.7,18.7,37.06,43.13h-52.97C873.61,602.4,879.51,606.5,889.52,606.5z M902.14,582.39
				c-0.98-7.71-5.9-12.3-14.6-12.3s-14.6,3.94-16.4,12.3H902.14z"/>
			<path d="M973.48,588.29c0-21.48,14.43-36.24,31.32-36.24c11.15,0,17.38,4.43,21.81,11.32v-58.38h22.14v118.41h-22.14l0.49-10.17
				c-3.94,7.38-11.32,11.64-21.98,11.64C988.08,624.87,973.48,609.78,973.48,588.29z M1027.27,588.29
				c0-10.33-6.23-16.73-15.74-16.73c-9.35,0-15.25,6.4-15.25,16.73c0,10.99,5.9,17.22,15.25,17.22
				C1021.04,605.51,1027.27,599.28,1027.27,588.29z"/>
			<path d="M1095.66,570.25c-8.36,0-12.79,3.61-15.91,6.4l-12.3-13.12c6.56-6.4,13.94-11.48,30.34-11.48
				c17.88,0,31.49,9.68,31.49,31.65v39.69h-21.98l0.49-9.68c-5.25,8.04-11.32,11.15-20.66,11.15c-12.79,0-24.6-5.74-24.6-21.98
				c0-14.92,11.32-20.99,28.54-20.99h16.24C1106.98,573.86,1103.04,570.25,1095.66,570.25z M1092.22,595.02
				c-5.58,0-8.04,2.46-8.04,6.4c0,3.94,3.28,6.23,9.51,6.23c9.02,0,13.61-3.94,13.61-9.84v-2.79H1092.22z"/>
			<path d="M1152.08,597.15v-25.26h-10.33v-18.37h10.33V528.6h21.98v24.93h17.88v18.37h-17.88v25.91c0,7.05,2.3,8.53,5.74,8.53
				c3.61,0,6.23-1.97,7.71-2.95l8.36,15.42c-3.44,2.79-9.35,6.4-19.52,6.4C1162.25,625.19,1152.08,618.14,1152.08,597.15z"/>
			<path d="M1239.16,570.25c-8.36,0-12.79,3.61-15.91,6.4l-12.3-13.12c6.56-6.4,13.94-11.48,30.34-11.48
				c17.88,0,31.49,9.68,31.49,31.65v39.69h-21.98l0.49-9.68c-5.25,8.04-11.32,11.15-20.66,11.15c-12.79,0-24.6-5.74-24.6-21.98
				c0-14.92,11.32-20.99,28.54-20.99h16.24C1250.47,573.86,1246.54,570.25,1239.16,570.25z M1235.71,595.02
				c-5.58,0-8.04,2.46-8.04,6.4c0,3.94,3.28,6.23,9.51,6.23c9.02,0,13.61-3.94,13.61-9.84v-2.79H1235.71z"/>
			<path d="M1287.54,610.43c0-8.04,6.4-13.78,13.94-13.78c7.38,0,13.78,5.74,13.78,13.78c0,8.2-6.4,13.94-13.78,13.94
				C1293.93,624.38,1287.54,618.63,1287.54,610.43z"/>
		</g>
	</g>
	<g id="Layer_1">
		<g>
			<g>
				<g>
					<g>
						<polygon class="st1" points="417.76,416.1 405.8,377.92 488.43,359.07 489.51,367.96 						"/>
						<g>
							<polygon class="st2" points="497.02,369.19 478.16,369.65 484.14,348.49 492.42,314.76 496.1,352.78 525.69,331.62 
								506.53,353.39 							"/>
							<polygon class="st3" points="492.27,363.97 478.16,369.65 482.61,354.77 							"/>
							<polygon class="st3" points="496.1,355.69 494.87,342.81 505.3,346.03 							"/>
						</g>
					</g>
					<g>
						<g>
							<polygon class="st1" points="389.85,556.23 370.23,578 346.92,555.16 346.16,542.89 364.71,545.81 							"/>
							<polygon class="st4" points="389.85,556.23 370.23,578 370.23,471.91 410.24,474.67 							"/>
						</g>
						<g>
							<polygon class="st1" points="350.75,598.86 328.68,623.39 302.61,597.63 301.69,583.83 322.54,587.2 							"/>
							<polygon class="st4" points="350.75,598.86 328.68,623.39 328.68,504.11 373.75,507.17 							"/>
						</g>
					</g>
					<g>
						<path class="st5" d="M477.86,629.21l-4.45,12.11c0,0,9.51,3.83,15.33,12.11c5.67,8.28,9.05,23.15,9.05,23.15
							s12.27-24.53,2.61-37.56C492.11,627.99,477.86,629.21,477.86,629.21z"/>
						<path class="st5" d="M503.92,556.85l0.46,6.9c0,0,8.89-0.15,13.95,2.76c5.06,2.91,9.81,10.73,9.81,10.73
							s2.45-14.87-6.13-20.08C514.5,552.55,503.92,556.85,503.92,556.85z"/>
						<path class="st4" d="M501.62,557.61c-7.21-35.26-41.7-57.95-76.97-50.75c-1.23-5.83-2.45-11.81-3.68-17.63
							c44.92-9.2,88.92,19.62,98.28,64.7c-2.91,2.15-5.67,3.68-8.74,4.29C507.6,558.84,504.38,558.69,501.62,557.61z"/>
						<path class="st4" d="M475.4,627.22c11.81-46.46-16.41-93.68-62.86-105.48c1.99-7.67,3.99-15.49,5.83-23.15
							c59.33,15.03,95.21,75.28,80.19,134.61c-4.45,1.07-8.89,1.69-13.03,0.77C481.84,632.89,478.32,630.44,475.4,627.22z"/>
					</g>
					<polygon class="st1" points="449.8,443.39 432.93,508.25 373.75,523.58 328.22,555.31 329.14,475.59 344.47,367.04 
						419.13,359.37 					"/>
					<polygon class="st6" points="432.93,506.71 350.6,370.11 416.07,370.11 					"/>
					<polygon class="st7" points="472.03,322.73 457.31,358.61 410.09,393.1 272.87,413.34 159.26,339.6 219.67,278.73 
						436.15,277.96 					"/>
					<g>
						<g>
							<polygon class="st5" points="435.39,612.96 425.88,550.87 347.38,560.07 423.89,484.63 433.85,455.5 447.04,486.78 
								485.37,489.54 453.32,518.67 							"/>
						</g>
						<g>
							<polygon class="st8" points="489.35,390.34 467.28,415.64 457.92,399.7 487.67,384.36 							"/>
							<polygon class="st8" points="469.58,408.74 443.51,506.25 433.85,494.6 464.98,400.31 							"/>
							<polygon class="st8" points="423.12,519.9 437.07,536.92 440.45,525.11 426.49,509.47 							"/>
						</g>
					</g>
					<g>
						<g>
							<polygon class="st2" points="406.1,530.78 401.2,509.16 426.8,511.16 467.43,512.69 424.65,525.72 455.78,555.01 
								426.49,537.99 							"/>
							<polygon class="st2" points="411.01,488.16 401.2,509.16 419.29,510.85 							"/>
							<polygon class="st2" points="421.28,526.49 435.69,522.04 434.16,534.92 							"/>
						</g>
						<polygon class="st9" points="344.47,479.42 339.26,461.64 373.91,436.95 405.8,528.94 						"/>
						<polygon class="st1" points="333.74,457.96 374.67,435.42 403.04,505.95 405.8,528.94 						"/>
					</g>
					<polygon class="st10" points="399.05,395.25 362.56,416.87 349.38,465.62 319.02,383.75 361.18,342.35 409.17,350.02 
						456.54,395.1 					"/>
					<polygon class="st7" points="435.23,328.56 427.57,379.46 409.78,420.09 334.66,386.51 324.08,336.84 405.8,361.98 					"/>
					<polygon class="st11" points="432.32,406.9 416.68,417.33 411.32,425.76 399.36,420.85 366.09,427.75 405.03,379.76 					"/>
					<polygon class="st7" points="432.32,406.9 416.68,417.33 411.32,425.76 399.36,420.85 366.09,427.75 408.1,398.16 					"/>
					<polygon class="st11" points="404.26,422.85 393.22,422.39 404.42,412.88 					"/>
					<polygon class="st11" points="414.69,419.47 421.59,413.95 413,412.11 					"/>
					<polygon class="st11" points="438.3,330.09 429.1,373.33 409.78,410.89 333.12,380.38 324.08,333.77 407.33,357.38 					"/>
					<polygon class="st7" points="408.4,373.94 267.96,324.72 152.36,251.28 137.8,52.12 245.89,128.78 321.01,85.7 359.49,101.03 
						383.72,93.21 415.92,108.24 460.68,66.08 500.39,162.36 476.94,285.17 					"/>
					<polygon class="st11" points="458.23,357.99 434.01,376.54 410.86,347.41 445.51,290.69 472.95,321.96 					"/>
					<polygon class="st7" points="438.3,322.42 429.1,368.73 409.78,401.69 331.59,372.71 322.54,324.57 407.33,349.71 					"/>
					<polygon class="st3" points="446.73,289.77 439.22,351.09 406.72,389.88 314.42,356.61 295.71,288.69 407.48,320.89 					"/>
					<g>
						<polygon class="st11" points="330.82,357.07 333.28,349.41 318.1,352.93 						"/>
						<g>
							<polygon class="st5" points="420.05,355.69 414.38,380.99 370.69,361.52 382.49,357.53 409.63,364.13 							"/>
							<polygon class="st12" points="416.68,367.96 419.9,389.88 390.77,369.19 411.01,373.02 							"/>
							<polygon class="st11" points="410.09,359.37 416.38,354.62 402.27,356.92 							"/>
							<polygon class="st5" points="416.53,342.51 411.32,349.56 417.91,349.41 							"/>
							<polygon class="st5" points="398.59,344.5 405.8,349.25 399.51,351.4 							"/>
							<polygon class="st11" points="375.59,327.94 405.95,349.41 374.98,341.74 360.87,347.57 							"/>
							<polygon class="st11" points="427.87,326.1 411.32,349.56 428.64,338.37 438.3,340.97 							"/>
						</g>
					</g>
					<polygon class="st7" points="328.98,292.22 336.65,341.43 271.64,323.5 263.98,273.82 					"/>
					<polygon class="st11" points="137.8,52.12 263.98,185.2 271.64,326.56 152.36,251.28 					"/>
					<polygon class="st11" points="321.01,85.7 429.25,191.8 245.89,128.78 					"/>
					<polygon class="st11" points="383.72,93.21 426.95,190.42 359.49,101.03 					"/>
					<polygon class="st11" points="415.92,108.24 485.21,158.07 460.68,66.08 					"/>
					<polygon class="st11" points="426.19,235.49 277.93,161.13 407.94,321.2 					"/>
					<polygon class="st11" points="484.3,155.61 446.73,291.45 459,308.16 476.78,286.39 					"/>
					<polygon class="st11" points="208.78,289.77 272.87,413.34 159.26,339.6 					"/>
					<polygon class="st11" points="330.06,298.66 301.69,284.55 333.74,322.12 					"/>
					<polygon class="st11" points="333.12,318.59 304.76,304.49 336.8,342.05 					"/>
					<polygon class="st11" points="426.19,235.49 473.56,175.54 407.94,321.2 					"/>
				</g>
			</g>
			<text transform="matrix(1 0 0 1 649.55 -92.6297)" style="font-family:'ArialMT'; font-size:64.3936px;"> </text>
		</g>
		<g>
			<g>
				<polygon class="st4" points="709.65,179.27 781.23,118.79 735.21,137.21 738.51,110.81 630.61,185.52 712.31,158.59 				"/>
			</g>
			<g>
				<polygon class="st4" points="620.33,264.12 664.1,238.24 637.72,243.89 641.99,230.16 577.25,260.26 623.49,253.32 				"/>
			</g>
			<g>
				<polygon class="st4" points="541.85,336.13 578.14,321.03 557.5,322.62 562.1,312.47 509.29,328.67 545.4,328.29 				"/>
			</g>
			<g>
				<polygon class="st4" points="703,79.27 750.1,14.99 715.78,39.13 713.42,16.61 638.74,99.72 701.11,61.46 				"/>
			</g>
		</g>
		<g>
			<g>
				<g>
					<polygon class="st4" points="70.14,241.77 11.75,146.9 50.26,180.08 48.76,143.7 137.86,264.06 68.92,213.2 					"/>
				</g>
				<g>
					<polygon class="st4" points="142.85,372.76 106.5,329.73 128.78,342.2 125.86,322.61 179.99,375.11 140.61,357.45 					"/>
				</g>
				<g>
					<polygon class="st4" points="214.77,499.88 184.35,472.93 202.01,478.71 198.53,464.11 243.12,495.22 212.02,488.32 					"/>
				</g>
				<g>
					<polygon class="st4" points="80.84,106.83 43.54,11.1 71.84,50.36 75.04,20.03 135.09,146.13 83.47,83.15 					"/>
				</g>
			</g>
		</g>
	</g>
</g>
<g id="Layer_3_copy" class="st13">
	<text transform="matrix(1 0 0 1 621.231 229.7905)" class="st14"><tspan x="0" y="0" class="st15 st16">Compose</tspan><tspan x="158.92" y="196.8" class="st15 st16">killer</tspan><tspan x="52.15" y="393.6" class="st15 st16">queries.</tspan></text>
	<g class="st14">
		<g>
			<polygon class="st5" points="353.12,501.49 344.84,495.55 356.77,490.01 375.29,480.65 360,495.33 375.98,496.6 364.27,498.94 
							"/>
			<polygon class="st5" points="358.73,496.41 363.88,491.42 366.97,495.97 			"/>
		</g>
		<polygon class="st5" points="375.29,480.65 356.62,492.96 344.84,495.55 355.1,489.21 		"/>
		<polygon class="st5" points="373.96,496.84 366.97,495.97 364.97,493.02 		"/>
		<polygon class="st5" points="293.29,550.86 329.69,511.7 354.58,505.19 357.12,497.6 345.99,489.94 313.24,487.21 247.24,525.6 		
			"/>
		<polygon class="st5" points="357.12,497.6 331.57,498.31 345.99,489.94 		"/>
	</g>
	<polygon class="st17" points="367.48,493.97 421.79,425.48 359.88,493.06 365.28,494.31 	"/>
	<polygon class="st18" points="412.17,488.7 570.8,419.04 409.48,504.69 406.32,493.72 	"/>
	<polygon class="st17" points="268.03,613.83 256.25,628.42 270.74,633.92 307.29,632.07 291.55,613.83 	"/>
	<g class="st14">
		<polygon class="st2" points="387.67,500.02 384,518.88 406.21,516.51 441.61,514.19 404.04,503.87 430.49,477.65 405.28,493.19 		
			"/>
		<polygon class="st2" points="401.08,503.27 413.79,506.81 412.36,495.67 		"/>
	</g>
	<polygon class="st19" points="441.61,514.19 402.47,511.48 384,518.88 405,519.61 	"/>
	<polygon class="st19" points="430.49,477.65 412.36,495.67 413.29,502.9 	"/>
	<g class="st14">
		<path class="st5" d="M260.92,713.62l5.44-2.81c0,0,1.45,8.78,4.65,12.54s10.05,4.69,10.05,4.69s-11.04,9.19-16.56,3.24
			C259.63,726.04,260.92,713.62,260.92,713.62z"/>
		<path class="st5" d="M293.08,615.85c-25.44,24.49-35.64,69.1-22.78,99.64c-4.23,4.07-8.47,8.15-12.7,12.22
			c-16.41-38.96-3.4-95.86,29.06-127.11c2.27,1.78,4,3.69,5.13,6.37C292.8,609.38,293.27,612.63,293.08,615.85z"/>
	</g>
	<polygon class="st20" points="250.35,473.88 357.03,523.69 385.12,492.03 397.56,502.81 392.23,527.57 352.81,565.61 
		220.63,565.06 	"/>
	<polygon class="st20" points="290.15,471.24 329.36,481.04 293.66,491.47 274.39,582.49 258.25,616.81 212.94,690.49 
		207.91,672.04 215.39,624.54 200.59,502.33 208.59,488.41 198.3,482.98 251.47,411.19 	"/>
	<g class="st14">
		<g>
			<g>
				<polygon class="st4" points="699.7,232.11 762.78,165.66 721.39,196.21 723.29,179.1 627.25,269.52 701.19,218.69 				"/>
			</g>
			<g>
				<polygon class="st4" points="621.05,320.72 660.25,286.59 636.31,301.22 639.56,291.21 581.35,336.78 623.59,312.87 				"/>
			</g>
			<g>
				<polygon class="st4" points="543.23,407.27 576.01,382.8 557.01,392.57 560.9,384.55 513.05,416.64 546.28,400.98 				"/>
			</g>
			<g>
				<polygon class="st4" points="727.73,144.48 768.36,86.12 737.83,115.25 734.56,102.87 669.5,184.17 725.17,134.78 				"/>
			</g>
		</g>
		<g>
			<g>
				<polygon class="st4" points="523.28,154.71 535.05,102.97 533.8,132.38 541.64,125.55 529.05,200.59 529.43,149.36 				"/>
			</g>
			<g>
				<polygon class="st4" points="505.76,221.23 509.52,191.57 510.3,207.52 514.17,202.56 511.12,244.82 508.8,217.34 				"/>
			</g>
			<g>
				<polygon class="st4" points="488.97,286.65 490.11,263.27 491.64,275.29 494.31,270.73 494.46,303.6 491.07,283.08 				"/>
			</g>
			<g>
				<polygon class="st4" points="554.91,139.7 570.2,100.96 566.01,124.94 573.24,122.11 554.78,179.92 560.58,137.48 				"/>
			</g>
		</g>
	</g>
	<polygon class="st18" points="242.18,647.26 239.15,621.93 212.98,689.43 	"/>
	<g class="st14">
		<polygon class="st11" points="360.92,352.8 281.49,361.19 401.15,462.83 232.5,480.54 144.07,461.36 67.55,386.07 110.45,352.47 
			79.8,307.7 89.54,101.07 150.43,128 187.89,97.26 231.17,108.44 264.08,94.32 329.62,114.41 379.95,59.47 		"/>
		<polygon class="st7" points="329.62,114.41 269.45,256.23 264.08,94.32 		"/>
		<polygon class="st7" points="231.17,108.44 204.42,233.48 187.89,97.26 		"/>
		<polygon class="st7" points="150.43,128 126.7,289.36 89.54,101.07 		"/>
		<polygon class="st7" points="67.55,386.07 170.72,366.17 110.45,352.47 		"/>
		<polygon class="st11" points="446.45,407.42 360.85,428.88 360.92,352.8 		"/>
		<polygon class="st7" points="360.92,352.8 401.15,462.83 172.61,365.77 		"/>
		<polygon class="st7" points="379.95,59.47 469.23,246.91 446.45,407.42 279.72,334.53 		"/>
	</g>
	<g class="st14">
		<path class="st5" d="M331.87,711.88l3.87-5.19c0,0,7.21,8.06,13,10.36c5.79,2.3,13.55,0.19,13.55,0.19s-5.58,13.99-15.2,10.55
			C338.58,724.75,331.87,711.88,331.87,711.88z"/>
		<path class="st4" d="M303.99,599.63c-10.7,35.54,7.58,84.24,40.84,108.78c-1.78,5.91-3.56,11.83-5.34,17.74
			c-42.42-31.31-65.74-93.43-52.09-138.77c3.53,0.75,6.57,1.88,9.49,4.03C299.49,593.35,302.09,596.35,303.99,599.63z"/>
	</g>
	<polygon class="st20" points="325.1,517.68 307.29,632.07 286.33,639.52 255.19,698.83 239.77,700.26 238.1,637.11 264.08,533.61 	
		"/>
	<polygon class="st21" points="321.07,557.69 299.14,584.06 297.61,612.81 307.29,632.07 320.57,594.88 	"/>
	<polygon class="st21" points="352.81,565.61 355.11,536.39 270.01,551.57 307.54,571.15 	"/>
	<polygon class="st21" points="397.56,502.81 363.39,527.48 392.23,527.57 	"/>
	<polygon class="st20" points="305.62,499.52 261.8,500.02 357.03,523.69 	"/>
	<polygon class="st21" points="329.36,481.04 321.07,502.51 258.52,500.48 	"/>
	<polygon class="st21" points="286.33,639.52 275.19,624.94 255.19,698.83 	"/>
	<polygon class="st22" points="372.48,497.3 354.98,497.3 356.04,500.82 	"/>
	<polygon class="st18" points="246.02,502.9 236.33,517.68 247.24,527.57 236.33,602.21 222.9,517.68 228.9,515.55 221.35,496.41 
		230.71,504.66 	"/>
</g>
<g id="Layer_6" class="st13">
	<text transform="matrix(1 0 0 1 436.188 191.7905)" class="st14"><tspan x="0" y="0" class="st15 st23">Craftsmenship</tspan><tspan x="392.2" y="148.4" class="st15 st23">in</tspan><tspan x="66.95" y="296.8" class="st15 st23">data science</tspan><tspan x="11.43" y="445.2" class="st15 st23">&amp; exploration.</tspan></text>
	<g class="st14">
		<g>
			<path class="st24" d="M398.24,710.99c0,0-38.34,40.42-134.14,40.42c-95.81,0-128.96-40.42-128.96-40.42L96.96,365.38
				c0,0,53.53-67.37,170.22-67.37c116.69,0,175.97,67.37,175.97,67.37L398.24,710.99z"/>
			<path class="st25" d="M148.59,635.46c-5.48,5.19-11.16,6.21-15.89,7.02c-9.48,1.61-86.26-46.82-86.26-46.82
				s-6.74-14.17,2.97-39.34c9.71-25.17,23.68-29.79,23.68-29.79l75.59,24.99c0,0,10.36,8.64,16.31,22.07
				C164.99,573.59,176.74,608.78,148.59,635.46z"/>
			<path class="st26" d="M445.13,362.69c0,44.27-78.23,58.82-174.74,58.82c-96.5,0-174.73-14.55-174.73-58.82
				c0-44.27,78.23-80.16,174.73-80.16C366.9,282.54,445.13,318.42,445.13,362.69z"/>
			<path class="st26" d="M76.7,568.81c-8.73,18.84-23.63,30.49-33.27,26.02c-9.64-4.47-10.38-23.37-1.64-42.21
				c8.73-18.84,23.63-30.49,33.27-26.02C84.69,531.07,85.43,549.97,76.7,568.81z"/>
			<g class="st27">
				<path class="st28" d="M70.48,565.93c-5.63,12.13-15.22,19.64-21.43,16.76c-6.21-2.88-6.68-15.05-1.06-27.18
					c5.62-12.13,15.22-19.64,21.43-16.76C75.63,541.62,76.11,553.79,70.48,565.93z"/>
				<path class="st28" d="M65.03,563.4c-2.9,6.25-7.84,10.12-11.04,8.63c-3.2-1.48-3.44-7.75-0.54-14
					c2.9-6.25,7.84-10.12,11.04-8.63C67.69,550.88,67.93,557.15,65.03,563.4z"/>
			</g>
			<g class="st29">
				<path class="st26" d="M288.36,398.07c-19.44,0-36.31-0.94-50.66-2.79l-3.16,4.88c11.68,0.76,24.75,1.17,39.37,1.17
					c33.84,0,59.41-2.21,78.58-5.82l-2.25-1.96C333.75,396.56,313.12,398.07,288.36,398.07z"/>
				<path class="st26" d="M406.22,359.03c0-32.46-59.35-58.87-132.31-58.87c-72.95,0-132.3,26.41-132.3,58.87
					c0,15.03,13.93,32.3,71.74,39.21l9.31-5.43c-29.88-6.12-44.98-17.56-44.98-34.23c0-29.5,48.62-52.6,110.69-52.6
					c62.07,0,110.69,23.11,110.69,52.6c0,12.17-8.05,21.56-24.02,28.12l3.45,1.76C399.97,380.16,406.22,369.09,406.22,359.03z"/>
				<path class="st24" d="M141.61,359.03c0-32.46,59.35-58.87,132.3-58.87c72.96,0,132.31,26.41,132.31,58.87
					c0,10.06-6.25,21.14-27.74,29.43l7.82,3.99c17.74-8.05,26.66-19.2,26.66-33.41c0-36.79-61.08-65.61-139.05-65.61
					c-77.97,0-139.04,28.82-139.04,65.61c0,22.9,23.2,37.84,69.09,44.69l9.39-5.48C155.54,391.33,141.61,374.06,141.61,359.03z"/>
				<path class="st24" d="M273.91,401.33c-14.62,0-27.69-0.41-39.37-1.17l-4.17,6.44c13.17,0.97,27.67,1.47,43.54,1.47
					c34.81,0,63.14-2.35,84.93-7.02l-6.35-5.53C333.32,399.12,307.76,401.33,273.91,401.33z"/>
				<path class="st26" d="M343.56,387.73l-2.44-2.13c-11.83,1.77-26.04,2.67-42.65,2.67c-21.9,0-39.64-1.55-53.22-4.63l-3.41,5.26
					c16.12,1.9,32.93,2.43,46.52,2.43C304.42,391.33,324.97,390.6,343.56,387.73z"/>
				<path class="st26" d="M212.44,357.07c0-23.15,37.79-41.28,86.02-41.28c48.24,0,86.03,18.13,86.03,41.28
					c0,10.37-7.26,18.18-21.69,23.39l3.93,2.01c15.07-4.92,25.57-12.45,25.57-23.89c0-24.86-47.6-45.86-103.95-45.86
					c-56.35,0-103.95,21-103.95,45.86c0,16.41,21.6,24.78,47.33,28.93l8.68-5.07C221.83,377.32,212.44,368.85,212.44,357.07z"/>
				<path class="st24" d="M288.36,391.33c-13.59,0-30.41-0.53-46.52-2.43l-4.13,6.37c14.35,1.85,31.22,2.79,50.66,2.79
					c24.76,0,45.39-1.52,61.88-4.52l-6.68-5.82C324.97,390.6,304.42,391.33,288.36,391.33z"/>
				<path class="st24" d="M184.41,358.58c0-24.86,47.6-45.86,103.95-45.86c56.35,0,103.95,21,103.95,45.86
					c0,11.44-10.5,18.97-25.57,23.89l8.29,4.23c15.97-6.56,24.02-15.94,24.02-28.12c0-29.5-48.62-52.6-110.69-52.6
					c-62.07,0-110.69,23.11-110.69,52.6c0,16.67,15.1,28.11,44.98,34.23l9.09-5.31C206.02,383.35,184.41,374.99,184.41,358.58z"/>
				<path class="st26" d="M377.76,357.07c0-18.73-36.31-34.55-79.29-34.55c-42.98,0-79.29,15.82-79.29,34.55
					c0,9.52,10.27,16.45,29.65,20.46l0.62-0.36l-0.28,0.43c12.68,2.58,29.21,3.93,49.3,3.93c13.63,0,25.61-0.62,35.88-1.83
					l-38.09-33.19l57.98,29.57C369.64,371.95,377.76,365.53,377.76,357.07z"/>
				<path class="st24" d="M298.47,381.53c-20.09,0-36.61-1.35-49.3-3.93l-3.92,6.04c13.57,3.07,31.31,4.63,53.22,4.63
					c16.61,0,30.83-0.9,42.65-2.67l-6.77-5.9C324.08,380.9,312.1,381.53,298.47,381.53z"/>
				<path class="st24" d="M219.18,357.07c0-18.73,36.31-34.55,79.29-34.55c42.98,0,79.29,15.82,79.29,34.55
					c0,8.46-8.11,14.88-23.52,19.02l8.57,4.37c14.42-5.21,21.69-13.02,21.69-23.39c0-23.15-37.79-41.28-86.03-41.28
					c-48.24,0-86.02,18.13-86.02,41.28c0,11.78,9.39,20.25,27.98,25.37l8.41-4.91C229.45,373.52,219.18,366.59,219.18,357.07z"/>
				<path class="st26" d="M222.66,392.81l-9.31,5.43c6.49,0.78,13.55,1.42,21.19,1.92l3.16-4.88
					C232.33,394.58,227.32,393.76,222.66,392.81z"/>
				<path class="st26" d="M240.42,382.44l-8.68,5.07c3.31,0.53,6.68,1,10.09,1.4l3.41-5.26
					C243.58,383.26,241.97,382.86,240.42,382.44z"/>
				<path class="st26" d="M248.83,377.53c0.11,0.02,0.23,0.05,0.34,0.07l0.28-0.43L248.83,377.53z"/>
				<path class="st30" d="M248.83,377.53c0.11,0.02,0.23,0.05,0.34,0.07l0.28-0.43L248.83,377.53z"/>
				<path class="st26" d="M350.24,393.55l2.25,1.96c10.47-1.97,19.03-4.37,25.99-7.05l-3.45-1.76
					C368.22,389.5,359.95,391.78,350.24,393.55z"/>
				<path class="st26" d="M341.12,385.6l2.44,2.13c8.31-1.28,16.23-3,23.18-5.26l-3.93-2.01
					C356.82,382.62,349.57,384.33,341.12,385.6z"/>
				<path class="st26" d="M334.35,379.7c7.58-0.89,14.23-2.1,19.89-3.61l-57.98-29.57L334.35,379.7z"/>
			</g>
			<polygon class="st31" points="249.45,377.17 187.32,413.44 201.49,555.11 221.89,419.67 			"/>
			<polygon class="st31" points="296.26,346.51 408.66,403.85 389.64,482.01 375.95,415.94 			"/>
		</g>
		<g>
			<g>
				<polygon class="st32" points="360.81,271.93 313.76,317.21 322.29,334.25 274.5,360.52 255.69,353.52 249.53,339.41 
					234.73,344.73 221.62,337.32 230.15,314.73 188.7,271.93 227.9,283.68 216.51,294.68 258.57,300.44 274.29,308.51 
					290.93,300.44 333,294.68 321.61,283.68 				"/>
				<path class="st32" d="M133.48,131.89l0.96-2.8l0.48-1.4c0.05-0.15,5.28-25.27,5.28-25.27l0.01-9.8l4.03-28.64l21.22-42.91
					l7.21,15.33l3.61,7.66c0,0,21.86,13.99,21.86,13.99l10.35,16.78l34.21-3.77l2.64-0.29l2.35,1.24l27.71,14.59v221.82l-0.2,0.1
					l-3.77-1.83l-12.87-6.24l-24.35-3.34l-17.71-2.43l11.39-11l-39.21-11.75l-31.66,7.41l-20.87,4.88l11.59-18.03l21.89-34.05
					l-22.35-10.39l-11.71-21.26l14.42-19.87l-15.58-45.93L133.48,131.89z"/>
				<path class="st32" d="M416.03,131.89l-0.96-2.8l-0.48-1.4c-0.05-0.15-5.28-25.27-5.28-25.27l-0.01-9.8l-4.03-28.64l-21.22-42.91
					l-7.21,15.33l-3.61,7.66c0,0-21.86,13.99-21.86,13.99l-10.35,16.78l-34.21-3.77l-2.64-0.29l-2.35,1.24L274.09,86.6v221.82
					l0.2,0.1l3.77-1.83l12.87-6.24l24.35-3.34l17.71-2.43l-11.39-11l39.21-11.75l31.66,7.41l20.87,4.88l-11.59-18.03l-21.89-34.05
					l22.35-10.39l11.71-21.26l-14.42-19.87l15.58-45.93L416.03,131.89z"/>
				<polygon class="st33" points="273.96,86.67 304.16,70.77 282.11,112.17 274.64,151.45 				"/>
				<polygon class="st26" points="275.54,151.45 272.32,111.72 245.35,70.76 274.86,86.67 278.23,112.08 				"/>
				<polygon class="st26" points="304.16,70.77 351.34,93.76 341.01,74.84 				"/>
				<polygon class="st26" points="405.27,63.99 401.41,108.45 416.03,131.89 410.25,104.21 				"/>
				<polygon class="st26" points="416.03,131.89 382.84,181.55 399.5,180.62 				"/>
				<polygon class="st26" points="379.86,232.14 385.1,268.52 413.34,284.22 				"/>
				<polygon class="st34" points="402.21,221.75 393.21,220.43 379.86,232.14 				"/>
				<polygon class="st26" points="413.92,200.49 396.6,200.49 402.21,221.75 				"/>
				<polygon class="st26" points="384.05,21.08 389.67,61.29 405.27,63.99 				"/>
				<polygon class="st26" points="399.5,180.62 394.66,186.99 413.92,200.49 				"/>
				<polygon class="st33" points="245.35,70.77 198.17,93.76 208.5,74.84 				"/>
				<polygon class="st33" points="144.24,63.99 148.1,108.45 133.48,131.89 139.25,104.21 				"/>
				<polygon class="st33" points="133.48,131.89 166.67,181.55 150.01,180.62 				"/>
				<polygon class="st33" points="169.65,232.14 164.41,268.52 136.17,284.22 				"/>
				<polygon class="st33" points="147.3,221.75 172.38,223.65 169.65,232.14 				"/>
				<polygon class="st33" points="135.59,200.49 152.91,200.49 147.3,221.75 				"/>
				<polygon class="st33" points="165.46,21.08 159.84,61.29 144.24,63.99 				"/>
				<polygon class="st33" points="150.01,180.62 154.85,186.99 135.59,200.49 				"/>
				<polygon class="st26" points="391.04,220.43 353.5,229.95 375.26,211.46 				"/>
				<polygon class="st26" points="379.86,232.14 372.27,262.57 360.81,271.93 				"/>
				<g>
					<polygon class="st33" points="331.51,150.89 343.19,139.99 351.1,120.25 353.67,144.76 					"/>
					<polygon class="st33" points="358.1,146.54 365.11,139.99 369.61,131.92 369.61,144.36 					"/>
					<polygon class="st33" points="302.27,150.89 313.95,139.99 321.86,120.25 324.66,145.16 					"/>
				</g>
				<polygon class="st26" points="293.62,223.85 287.73,215.46 298.94,220.71 				"/>
				<polygon class="st26" points="282.46,201.42 273.41,204.93 264.22,201.42 				"/>
				<g>
					<polyline class="st26" points="317.3,169.82 290.55,187.37 309.29,183.63 317.3,169.82 					"/>
				</g>
				<polygon class="st33" points="186.63,204.04 186.63,146.54 199.06,186.44 				"/>
				<polygon class="st33" points="274.5,247.93 186.63,204.04 247.36,221.91 				"/>
				<polygon class="st26" points="307.88,218.25 274.5,247.93 362.36,204.04 				"/>
				<polygon class="st26" points="362.36,204.04 353.53,167.53 362.36,149.19 				"/>
				<path class="st32" d="M317.3,169.82"/>
				<polygon class="st26" points="317.3,169.82 322.42,183.21 317.3,193.3 				"/>
				<polygon class="st33" points="317.3,169.82 309.29,183.63 317.3,193.3 				"/>
				<polygon class="st26" points="306.67,197.26 306.67,185.87 300.67,191.87 				"/>
				<polygon class="st33" points="295.28,197.26 300.67,191.87 295.28,185.87 				"/>
				<polygon class="st33" points="231.33,169.82 226.22,183.21 231.33,193.3 				"/>
				<polygon class="st26" points="231.33,169.82 239.34,183.63 231.33,193.3 				"/>
				<polygon class="st26" points="253.35,197.26 253.35,185.87 247.34,191.87 				"/>
				<polygon class="st33" points="241.96,197.26 247.34,191.87 241.96,185.87 				"/>
				<g>
					<polygon class="st33" points="239.34,183.63 258.08,187.37 231.33,169.82 					"/>
				</g>
				<polyline class="st26" points="258.95,215.46 253.06,223.85 258.95,223.85 258.95,215.46 				"/>
				<polygon class="st26" points="273.32,217.25 271.49,221.73 287.57,215.52 				"/>
				<polygon class="st33" points="287.57,215.52 287.73,215.46 258.95,215.46 271.42,221.75 271.49,221.73 273.32,217.25 				"/>
				<polygon class="st33" points="258.95,215.46 253.35,219.66 253.06,223.85 				"/>
				<polygon class="st26" points="199.06,186.44 199.06,198.6 186.63,204.04 				"/>
				<polygon class="st26" points="307.88,218.25 302.27,234.06 274.5,247.93 				"/>
				<polygon class="st33" points="247.36,221.91 229.64,225.53 274.5,247.93 				"/>
				<polygon class="st26" points="324.66,145.16 329.28,131.89 321.86,120.25 				"/>
				<polygon class="st26" points="353.67,144.76 357.94,131.89 351.1,120.25 				"/>
				<polygon class="st26" points="369.61,144.36 372.27,137.71 369.61,131.92 				"/>
				<g>
					<polygon class="st26" points="223.11,150.89 211.43,139.99 203.53,120.25 200.96,144.76 					"/>
					<polygon class="st26" points="196.53,146.54 189.51,139.99 185.01,131.92 185.01,144.36 					"/>
					<polygon class="st26" points="252.35,150.89 240.67,139.99 232.76,120.25 229.96,145.16 					"/>
				</g>
				<polygon class="st33" points="229.96,145.16 225.34,131.89 232.76,120.25 				"/>
				<polygon class="st33" points="200.96,144.76 196.68,131.89 203.53,120.25 				"/>
				<polygon class="st33" points="185.01,144.36 182.35,137.71 185.01,131.92 				"/>
				<polygon class="st26" points="359.72,233.91 295.85,245.24 274.56,259.44 				"/>
				<polygon class="st26" points="359.72,242.69 301.85,254.54 274.56,268.21 				"/>
				<polygon class="st26" points="359.72,251.47 302.07,262.07 274.56,276.99 				"/>
				<polygon class="st26" points="357.95,260.78 303.67,271.93 295.85,279.39 				"/>
				<polygon class="st33" points="273,259.01 247.83,243.59 189.27,233.91 				"/>
				<polygon class="st33" points="274.56,268.21 245.35,254.16 186.63,242.69 				"/>
				<polygon class="st33" points="189.27,251.47 253.6,265.88 274.56,276.99 				"/>
				<polygon class="st33" points="253.14,279.39 244.71,273 191.04,260.78 				"/>
				<polygon class="st26" points="360.81,271.93 313.76,317.21 274.5,360.52 280.81,330.35 274.29,308.51 290.93,300.44 333,294.68 
					321.61,283.68 				"/>
				<polygon class="st26" points="360.81,271.93 313.76,317.21 321.09,332.4 335.16,343.9 304.52,346.59 274.5,360.52 
					279.37,335.83 277.42,323.92 253.26,308.63 216.51,294.68 258.57,300.44 274.29,308.51 290.93,300.44 333,294.68 321.61,283.68 
									"/>
				<polygon class="st32" points="304.52,346.59 321.09,330.3 278.83,338.56 				"/>
				<polygon class="st26" points="249.53,339.41 279.37,335.83 277.42,323.92 230.44,315.17 				"/>
				<polygon class="st26" points="136.17,284.22 164.41,268.52 188.7,271.93 				"/>
				<polygon class="st26" points="274.29,308.51 274.5,282.09 290.93,300.44 				"/>
				<polygon class="st26" points="333,294.68 274.5,282.09 321.61,283.68 				"/>
				<polygon class="st32" points="321.61,283.68 360.81,271.93 333,294.68 				"/>
				<polygon class="st33" points="290.93,300.44 274.29,308.51 277.42,323.92 				"/>
				<polygon class="st32" points="277.42,323.92 314.22,316.62 290.93,300.44 				"/>
				<polygon class="st32" points="255.69,353.52 266.99,357.66 249.53,339.41 				"/>
				<polygon class="st32" points="221.62,337.32 230.44,315.17 234.73,344.73 				"/>
				<polygon class="st33" points="278.83,338.56 285.16,354.66 304.52,346.59 				"/>
				<polygon class="st32" points="285.16,354.66 302.23,357.66 304.52,346.59 				"/>
				<polygon class="st32" points="335.16,341.8 321.35,331.86 327.36,352.12 				"/>
				<polygon class="st32" points="221.62,337.32 204.45,344.73 234.73,344.73 				"/>
				<polygon class="st26" points="234.73,344.73 238.61,362.54 255.69,353.52 249.53,339.41 				"/>
				<polygon class="st26" points="328.42,303.11 321.09,332.4 313.76,317.21 				"/>
				<polygon class="st32" points="230.44,315.17 253.26,308.63 210.1,304.05 				"/>
				<polygon class="st33" points="205.69,289.48 214.59,316.22 185.6,338.65 221.62,337.32 230.44,315.17 				"/>
				<polygon class="st33" points="277.42,323.92 313.76,317.21 278.83,338.56 				"/>
			</g>
			<polygon class="st26" points="198.15,58.05 198.17,93.76 208.5,74.84 			"/>
			<polygon class="st26" points="165.46,21.08 176.28,44.07 172.38,58.05 			"/>
			<polygon class="st33" points="384.05,21.08 377.81,55.52 373.23,44.07 			"/>
			<polygon class="st33" points="351.36,58.05 351.34,93.76 341.01,74.84 			"/>
			<polygon class="st26" points="159.84,61.29 148.1,108.45 166.67,74.15 			"/>
			<polygon class="st26" points="148.1,108.45 166.67,181.55 169.65,132.7 			"/>
			<polygon class="st26" points="152.91,200.49 172.38,223.65 170.87,204.93 			"/>
			<polygon class="st33" points="317.3,169.82 297.98,177.8 290.55,187.37 			"/>
			<polygon class="st26" points="231.33,169.82 250.84,178.59 258.08,187.37 			"/>
			<polygon class="st33" points="360.81,271.93 385.1,268.52 413.34,284.22 			"/>
			<polygon class="st33" points="188.7,271.93 247.35,288.4 216.65,294.38 			"/>
			<polygon class="st33" points="259.52,299.51 274.5,282.09 245.51,288.4 			"/>
			<polygon class="st33" points="279.37,335.83 255.69,353.52 249.53,339.41 			"/>
			<polygon class="st32" points="230.44,315.17 214.59,316.22 221.62,337.32 			"/>
			<polygon class="st26" points="230.44,315.17 221.62,337.32 231.91,343.14 249.53,339.41 			"/>
			<polygon class="st32" points="279.37,335.83 230.44,315.17 249.53,339.41 			"/>
		</g>
	</g>
</g>
</svg>
