<?xml version="1.0" encoding="utf-8"?>
<!-- Generator: Adobe Illustrator 27.6.1, SVG Export Plug-In . SVG Version: 6.00 Build 0)  -->
<svg version="1.1" xmlns="http://www.w3.org/2000/svg" xmlns:xlink="http://www.w3.org/1999/xlink" x="0px" y="0px"
	 viewBox="0 0 1366 768" style="enable-background:new 0 0 1366 768;" xml:space="preserve">
<style type="text/css">
	.st0{fill:#CBC6CC;}
	.st1{display:none;}
	.st2{display:inline;}
	.st3{font-family:'Neutraface2Text-Bold';}
	.st4{font-size:164px;}
	.st5{fill:#6B686B;}
	.st6{fill:#AC9FAD;}
	.st7{fill:#EAE1E1;}
	.st8{fill:#FCF5F5;}
	.st9{fill:#212121;}
	.st10{fill:#BABABA;}
	.st11{fill:#EDEDED;}
	.st12{fill:#444344;}
	.st13{fill:#848484;}
	.st14{fill:#C5B0C6;}
	.st15{fill:#D8D8D8;}
	.st16{fill:#F79C9C;}
	.st17{display:inline;fill:#212121;}
	.st18{display:inline;fill:#848484;}
	.st19{display:inline;fill:#FCF5F5;}
	.st20{display:inline;fill:#AC9FAD;}
	.st21{display:inline;fill:#C5B0C6;}
	.st22{display:inline;opacity:0.2;fill:#48140F;}
	.st23{fill:#C2B392;}
	.st24{fill:#B5A586;}
	.st25{fill:#F6F5CA;}
	.st26{opacity:0.2;}
	.st27{fill:#F6F5CA;stroke:#C2B392;stroke-width:3.3685;stroke-miterlimit:10;}
	.st28{opacity:0.3;}
	.st29{opacity:0.7;fill:#676767;}
	.st30{opacity:0.8;fill:#676767;}
	.st31{fill:#EDE3C5;}
	.st32{fill:#E2D1BF;}
	.st33{fill:#F9ECDC;}
</style>
<g id="Layer_2">
	<rect x="0.89" y="-1.33" class="st0" width="1365.11" height="769.33"/>
</g>
<g id="Layer_4" class="st1">
	<g id="Layer_3" class="st2">
		<text transform="matrix(1 0 0 1 676.3984 229.7905)"><tspan x="0" y="0" class="st3 st4">Rock out </tspan><tspan x="179.58" y="196.8" class="st3 st4">with</tspan><tspan x="17.47" y="393.6" class="st3 st4">the data.</tspan></text>
	</g>
	<g id="Layer_1" class="st2">
		<g>
			<g>
				<ellipse class="st5" cx="552.08" cy="701.58" rx="85.55" ry="21"/>
				<g>
					<g>
						<g>
							<polygon class="st5" points="113.75,236.57 52.57,162.97 95.35,189.65 96.57,162.51 191.94,256.65 114.67,215.25 							"/>
						</g>
						<g>
							<polygon class="st5" points="188.87,337.76 149.47,303.87 174.77,314.3 172.93,299.58 232.57,341.43 187.49,326.26 							
								"/>
						</g>
						<g>
							<polygon class="st5" points="263.38,436.03 229.65,414.41 250.05,419.63 247.13,408.59 297.27,434.04 261.08,427.29 							
								"/>
						</g>
						<g>
							<polygon class="st5" points="137.51,136.76 101.33,63.62 131.53,94.29 137.82,71.9 198.38,168.8 142.57,119.28 							"/>
						</g>
					</g>
					<g>
						<g>
							<polygon class="st5" points="779.09,167.22 816.78,87.95 784.64,121.45 777.25,97.66 714.07,203.1 773.37,148.55 							"/>
						</g>
						<g>
							<polygon class="st5" points="735.69,274.13 763.02,235.14 742.7,250.15 741.04,236.78 697.45,287.49 734.21,263.7 							"/>
						</g>
						<g>
							<polygon class="st5" points="691.91,378.29 717.03,351.38 700.04,360.72 700.04,350.28 661.24,384.52 691.91,370.24 							
								"/>
						</g>
						<g>
							<polygon class="st5" points="734.76,84.48 750.09,11.43 730.14,45.3 719.43,26.99 687.84,126.76 726.26,70.01 							"/>
						</g>
					</g>
				</g>
				<g>
					<g>
						<polygon class="st6" points="557.76,416.1 545.8,377.92 628.43,359.07 629.51,367.96 						"/>
						<g>
							<polygon class="st7" points="637.02,369.19 618.16,369.65 624.14,348.49 632.42,314.76 636.1,352.78 665.69,331.62 
								646.53,353.39 							"/>
							<polygon class="st8" points="632.27,363.97 618.16,369.65 622.61,354.77 							"/>
							<polygon class="st8" points="636.1,355.69 634.87,342.81 645.3,346.03 							"/>
						</g>
					</g>
					<g>
						<g>
							<polygon class="st6" points="529.85,556.23 510.23,578 486.92,555.16 486.16,542.89 504.71,545.81 							"/>
							<polygon class="st5" points="529.85,556.23 510.23,578 510.23,471.91 550.24,474.67 							"/>
						</g>
						<g>
							<polygon class="st6" points="490.75,598.86 468.68,623.39 442.61,597.63 441.69,583.83 462.54,587.2 							"/>
							<polygon class="st5" points="490.75,598.86 468.68,623.39 468.68,504.11 513.75,507.17 							"/>
						</g>
					</g>
					<g>
						<path class="st9" d="M617.86,629.21l-4.45,12.11c0,0,9.51,3.83,15.33,12.11c5.67,8.28,9.05,23.15,9.05,23.15
							s12.27-24.53,2.61-37.56C632.11,627.99,617.86,629.21,617.86,629.21z"/>
						<path class="st9" d="M643.92,556.85l0.46,6.9c0,0,8.89-0.15,13.95,2.76c5.06,2.91,9.81,10.73,9.81,10.73
							s2.45-14.87-6.13-20.08C654.5,552.55,643.92,556.85,643.92,556.85z"/>
						<path class="st5" d="M641.62,557.61c-7.21-35.26-41.7-57.95-76.97-50.75c-1.23-5.83-2.45-11.81-3.68-17.63
							c44.92-9.2,88.92,19.62,98.28,64.7c-2.91,2.15-5.67,3.68-8.74,4.29C647.6,558.84,644.38,558.69,641.62,557.61z"/>
						<path class="st5" d="M615.4,627.22c11.81-46.46-16.41-93.68-62.86-105.48c1.99-7.67,3.99-15.49,5.83-23.15
							c59.33,15.03,95.21,75.28,80.19,134.61c-4.45,1.07-8.89,1.69-13.03,0.77C621.84,632.89,618.32,630.44,615.4,627.22z"/>
					</g>
					<polygon class="st6" points="589.8,443.39 572.93,508.25 513.75,523.58 468.22,555.31 469.14,475.59 484.47,367.04 
						559.13,359.37 					"/>
					<polygon class="st10" points="572.93,506.71 490.6,370.11 556.07,370.11 					"/>
					<polygon class="st11" points="612.03,322.73 597.31,358.61 550.09,393.1 412.87,413.34 299.26,339.6 359.67,278.73 
						576.15,277.96 					"/>
					<g>
						<g>
							<polygon class="st9" points="575.39,612.96 565.88,550.87 487.38,560.07 563.89,484.63 573.85,455.5 587.04,486.78 
								625.37,489.54 593.32,518.67 							"/>
						</g>
						<g>
							<polygon class="st12" points="629.35,390.34 607.28,415.64 597.92,399.7 627.67,384.36 							"/>
							<polygon class="st12" points="609.58,408.74 583.51,506.25 573.85,494.6 604.98,400.31 							"/>
							<polygon class="st12" points="563.12,519.9 577.07,536.92 580.45,525.11 566.49,509.47 							"/>
						</g>
					</g>
					<g>
						<g>
							<polygon class="st7" points="546.1,530.78 541.2,509.16 566.8,511.16 607.43,512.69 564.65,525.72 595.78,555.01 
								566.49,537.99 							"/>
							<polygon class="st7" points="551.01,488.16 541.2,509.16 559.29,510.85 							"/>
							<polygon class="st7" points="561.28,526.49 575.69,522.04 574.16,534.92 							"/>
						</g>
						<polygon class="st13" points="484.47,479.42 479.26,461.64 513.91,436.95 545.8,528.94 						"/>
						<polygon class="st6" points="473.74,457.96 514.67,435.42 543.04,505.95 545.8,528.94 						"/>
					</g>
					<polygon class="st14" points="539.05,395.25 502.56,416.87 489.38,465.62 459.02,383.75 501.18,342.35 549.17,350.02 
						596.54,395.1 					"/>
					<polygon class="st11" points="575.23,328.56 567.57,379.46 549.78,420.09 474.66,386.51 464.08,336.84 545.8,361.98 					"/>
					<polygon class="st15" points="572.32,406.9 556.68,417.33 551.32,425.76 539.36,420.85 506.09,427.75 545.03,379.76 					"/>
					<polygon class="st11" points="572.32,406.9 556.68,417.33 551.32,425.76 539.36,420.85 506.09,427.75 548.1,398.16 					"/>
					<polygon class="st15" points="544.26,422.85 533.22,422.39 544.42,412.88 					"/>
					<polygon class="st15" points="554.69,419.47 561.59,413.95 553,412.11 					"/>
					<polygon class="st15" points="578.3,330.09 569.1,373.33 549.78,410.89 473.12,380.38 464.08,333.77 547.33,357.38 					"/>
					<polygon class="st11" points="548.4,373.94 407.96,324.72 292.36,251.28 277.8,52.12 385.89,128.78 461.01,85.7 499.49,101.03 
						523.72,93.21 555.92,108.24 600.68,66.08 640.39,162.36 616.94,285.17 					"/>
					<polygon class="st15" points="598.23,357.99 574.01,376.54 550.86,347.41 585.51,290.69 612.95,321.96 					"/>
					<polygon class="st11" points="578.3,322.42 569.1,368.73 549.78,401.69 471.59,372.71 462.54,324.57 547.33,349.71 					"/>
					<polygon class="st8" points="586.73,289.77 579.22,351.09 546.72,389.88 454.42,356.61 435.71,288.69 547.48,320.89 					"/>
					<g>
						<polygon class="st15" points="470.82,357.07 473.28,349.41 458.1,352.93 						"/>
						<g>
							<polygon class="st9" points="560.05,355.69 554.38,380.99 510.69,361.52 522.49,357.53 549.63,364.13 							"/>
							<polygon class="st16" points="556.68,367.96 559.9,389.88 530.77,369.19 551.01,373.02 							"/>
							<polygon class="st15" points="550.09,359.37 556.38,354.62 542.27,356.92 							"/>
							<polygon class="st9" points="556.53,342.51 551.32,349.56 557.91,349.41 							"/>
							<polygon class="st9" points="538.59,344.5 545.8,349.25 539.51,351.4 							"/>
							<polygon class="st15" points="515.59,327.94 545.95,349.41 514.98,341.74 500.87,347.57 							"/>
							<polygon class="st15" points="567.87,326.1 551.32,349.56 568.64,338.37 578.3,340.97 							"/>
						</g>
					</g>
					<polygon class="st11" points="468.98,292.22 476.65,341.43 411.64,323.5 403.98,273.82 					"/>
					<polygon class="st15" points="277.8,52.12 403.98,185.2 411.64,326.56 292.36,251.28 					"/>
					<polygon class="st15" points="461.01,85.7 569.25,191.8 385.89,128.78 					"/>
					<polygon class="st15" points="523.72,93.21 566.95,190.42 499.49,101.03 					"/>
					<polygon class="st15" points="555.92,108.24 625.22,158.07 600.68,66.08 					"/>
					<polygon class="st15" points="566.19,235.49 417.93,161.13 547.94,321.2 					"/>
					<polygon class="st15" points="624.3,155.61 586.73,291.45 599,308.16 616.78,286.39 					"/>
					<polygon class="st15" points="348.78,289.77 412.87,413.34 299.26,339.6 					"/>
					<polygon class="st15" points="470.06,298.66 441.69,284.55 473.74,322.12 					"/>
					<polygon class="st15" points="473.12,318.59 444.76,304.49 476.8,342.05 					"/>
					<polygon class="st15" points="566.19,235.49 613.56,175.54 547.94,321.2 					"/>
				</g>
			</g>
			<text transform="matrix(1 0 0 1 789.55 -92.6297)" style="font-family:'ArialMT'; font-size:64.3936px;"> </text>
		</g>
	</g>
</g>
<g id="Layer_3_copy" class="st1">
	<text transform="matrix(1 0 0 1 621.231 229.7905)" class="st2"><tspan x="0" y="0" class="st3 st4">Compose</tspan><tspan x="158.92" y="196.8" class="st3 st4">killer</tspan><tspan x="52.15" y="393.6" class="st3 st4">queries.</tspan></text>
	<g class="st2">
		<g>
			<polygon class="st9" points="353.12,501.49 344.84,495.55 356.77,490.01 375.29,480.65 360,495.33 375.98,496.6 364.27,498.94 
							"/>
			<polygon class="st9" points="358.73,496.41 363.88,491.42 366.97,495.97 			"/>
		</g>
		<polygon class="st9" points="375.29,480.65 356.62,492.96 344.84,495.55 355.1,489.21 		"/>
		<polygon class="st9" points="373.96,496.84 366.97,495.97 364.97,493.02 		"/>
		<polygon class="st9" points="293.29,550.86 329.69,511.7 354.58,505.19 357.12,497.6 345.99,489.94 313.24,487.21 247.24,525.6 		
			"/>
		<polygon class="st9" points="357.12,497.6 331.57,498.31 345.99,489.94 		"/>
	</g>
	<polygon class="st17" points="367.48,493.97 421.79,425.48 359.88,493.06 365.28,494.31 	"/>
	<polygon class="st18" points="412.17,488.7 570.8,419.04 409.48,504.69 406.32,493.72 	"/>
	<polygon class="st17" points="268.03,613.83 256.25,628.42 270.74,633.92 307.29,632.07 291.55,613.83 	"/>
	<g class="st2">
		<polygon class="st7" points="387.67,500.02 384,518.88 406.21,516.51 441.61,514.19 404.04,503.87 430.49,477.65 405.28,493.19 		
			"/>
		<polygon class="st7" points="401.08,503.27 413.79,506.81 412.36,495.67 		"/>
	</g>
	<polygon class="st19" points="441.61,514.19 402.47,511.48 384,518.88 405,519.61 	"/>
	<polygon class="st19" points="430.49,477.65 412.36,495.67 413.29,502.9 	"/>
	<g class="st2">
		<path class="st9" d="M260.92,713.62l5.44-2.81c0,0,1.45,8.78,4.65,12.54s10.05,4.69,10.05,4.69s-11.04,9.19-16.56,3.24
			C259.63,726.04,260.92,713.62,260.92,713.62z"/>
		<path class="st9" d="M293.08,615.85c-25.44,24.49-35.64,69.1-22.78,99.64c-4.23,4.07-8.47,8.15-12.7,12.22
			c-16.41-38.96-3.4-95.86,29.06-127.11c2.27,1.78,4,3.69,5.13,6.37C292.8,609.38,293.27,612.63,293.08,615.85z"/>
	</g>
	<polygon class="st20" points="250.35,473.88 357.03,523.69 385.12,492.03 397.56,502.81 392.23,527.57 352.81,565.61 
		220.63,565.06 	"/>
	<polygon class="st20" points="290.15,471.24 329.36,481.04 293.66,491.47 274.39,582.49 258.25,616.81 212.94,690.49 
		207.91,672.04 215.39,624.54 200.59,502.33 208.59,488.41 198.3,482.98 251.47,411.19 	"/>
	<g class="st2">
		<g>
			<g>
				<polygon class="st5" points="699.7,232.11 762.78,165.66 721.39,196.21 723.29,179.1 627.25,269.52 701.19,218.69 				"/>
			</g>
			<g>
				<polygon class="st5" points="621.05,320.72 660.25,286.59 636.31,301.22 639.56,291.21 581.35,336.78 623.59,312.87 				"/>
			</g>
			<g>
				<polygon class="st5" points="543.23,407.27 576.01,382.8 557.01,392.57 560.9,384.55 513.05,416.64 546.28,400.98 				"/>
			</g>
			<g>
				<polygon class="st5" points="727.73,144.48 768.36,86.12 737.83,115.25 734.56,102.87 669.5,184.17 725.17,134.78 				"/>
			</g>
		</g>
		<g>
			<g>
				<polygon class="st5" points="523.28,154.71 535.05,102.97 533.8,132.38 541.64,125.55 529.05,200.59 529.43,149.36 				"/>
			</g>
			<g>
				<polygon class="st5" points="505.76,221.23 509.52,191.57 510.3,207.52 514.17,202.56 511.12,244.82 508.8,217.34 				"/>
			</g>
			<g>
				<polygon class="st5" points="488.97,286.65 490.11,263.27 491.64,275.29 494.31,270.73 494.46,303.6 491.07,283.08 				"/>
			</g>
			<g>
				<polygon class="st5" points="554.91,139.7 570.2,100.96 566.01,124.94 573.24,122.11 554.78,179.92 560.58,137.48 				"/>
			</g>
		</g>
	</g>
	<polygon class="st18" points="242.18,647.26 239.15,621.93 212.98,689.43 	"/>
	<g class="st2">
		<polygon class="st15" points="360.92,352.8 281.49,361.19 401.15,462.83 232.5,480.54 144.07,461.36 67.55,386.07 110.45,352.47 
			79.8,307.7 89.54,101.07 150.43,128 187.89,97.26 231.17,108.44 264.08,94.32 329.62,114.41 379.95,59.47 		"/>
		<polygon class="st11" points="329.62,114.41 269.45,256.23 264.08,94.32 		"/>
		<polygon class="st11" points="231.17,108.44 204.42,233.48 187.89,97.26 		"/>
		<polygon class="st11" points="150.43,128 126.7,289.36 89.54,101.07 		"/>
		<polygon class="st11" points="67.55,386.07 170.72,366.17 110.45,352.47 		"/>
		<polygon class="st15" points="446.45,407.42 360.85,428.88 360.92,352.8 		"/>
		<polygon class="st11" points="360.92,352.8 401.15,462.83 172.61,365.77 		"/>
		<polygon class="st11" points="379.95,59.47 469.23,246.91 446.45,407.42 279.72,334.53 		"/>
	</g>
	<g class="st2">
		<path class="st9" d="M331.87,711.88l3.87-5.19c0,0,7.21,8.06,13,10.36c5.79,2.3,13.55,0.19,13.55,0.19s-5.58,13.99-15.2,10.55
			C338.58,724.75,331.87,711.88,331.87,711.88z"/>
		<path class="st5" d="M303.99,599.63c-10.7,35.54,7.58,84.24,40.84,108.78c-1.78,5.91-3.56,11.83-5.34,17.74
			c-42.42-31.31-65.74-93.43-52.09-138.77c3.53,0.75,6.57,1.88,9.49,4.03C299.49,593.35,302.09,596.35,303.99,599.63z"/>
	</g>
	<polygon class="st20" points="325.1,517.68 307.29,632.07 286.33,639.52 255.19,698.83 239.77,700.26 238.1,637.11 264.08,533.61 	
		"/>
	<polygon class="st21" points="321.07,557.69 299.14,584.06 297.61,612.81 307.29,632.07 320.57,594.88 	"/>
	<polygon class="st21" points="352.81,565.61 355.11,536.39 270.01,551.57 307.54,571.15 	"/>
	<polygon class="st21" points="397.56,502.81 363.39,527.48 392.23,527.57 	"/>
	<polygon class="st20" points="305.62,499.52 261.8,500.02 357.03,523.69 	"/>
	<polygon class="st21" points="329.36,481.04 321.07,502.51 258.52,500.48 	"/>
	<polygon class="st21" points="286.33,639.52 275.19,624.94 255.19,698.83 	"/>
	<polygon class="st22" points="372.48,497.3 354.98,497.3 356.04,500.82 	"/>
	<polygon class="st18" points="246.02,502.9 236.33,517.68 247.24,527.57 236.33,602.21 222.9,517.68 228.9,515.55 221.35,496.41 
		230.71,504.66 	"/>
</g>
<g id="Layer_6">
	<g>
		<path d="M444.78,143.51c0-28.54,22.01-49.42,49.7-49.42c17.47,0,29.96,6.25,38.62,19.74l-15.19,10.79
			c-4.54-7.38-12.35-12.64-23.43-12.64c-17.47,0-29.25,13.49-29.25,31.52s11.79,31.81,29.25,31.81c12.5,0,19.45-5.96,24.85-14.2
			l15.48,10.65c-8.38,13.06-21.73,21.3-40.33,21.3C466.79,193.07,444.78,172.05,444.78,143.51z"/>
		<path d="M547.02,131.3h19.17l-0.28,10.93c4.4-9.94,11.5-12.21,17.75-12.21c3.98,0,6.96,1.14,9.37,2.41l-6.11,17.47
			c-2.41-1.14-4.69-1.85-7.38-1.85c-8.66,0-13.35,3.98-13.35,16.9v26.84h-19.17V131.3z"/>
		<path d="M625.4,145.78c-7.24,0-11.08,3.12-13.77,5.54l-10.65-11.36c5.68-5.54,12.07-9.94,26.27-9.94
			c15.48,0,27.26,8.38,27.26,27.41v34.36h-19.03l0.43-8.38c-4.54,6.96-9.8,9.66-17.89,9.66c-11.08,0-21.3-4.97-21.3-19.03
			c0-12.92,9.8-18.18,24.71-18.18h14.06C635.2,148.91,631.79,145.78,625.4,145.78z M622.42,167.22c-4.83,0-6.96,2.13-6.96,5.54
			c0,3.41,2.84,5.4,8.24,5.4c7.81,0,11.79-3.41,11.79-8.52v-2.41H622.42z"/>
		<path d="M716.28,169.07V147.2h-21.73v44.59h-19.17V147.2H665.3v-15.9h10.08v-20.31c0-15.62,7.53-23.57,22.29-23.57
			c7.53,0,11.79,1.99,15.9,5.54l-8.95,13.49c-1.14-0.99-2.84-1.85-5.11-1.85c-2.98,0-4.97,1.85-4.97,6.11v20.59h21.73v-21.58h19.03
			v21.58h15.48v15.9h-15.48v22.44c0,6.11,1.99,7.38,4.97,7.38c3.12,0,5.4-1.7,6.67-2.56l7.24,13.35c-2.98,2.41-8.09,5.54-16.9,5.54
			C725.09,193.35,716.28,187.25,716.28,169.07z"/>
		<path d="M760.3,181.57l11.22-9.94c4.12,3.98,9.37,6.39,15.05,6.39c6.25,0,8.24-1.14,8.24-3.69c0-3.27-3.83-3.27-13.63-5.82
			c-8.24-2.13-17.47-6.67-17.47-19.31c0-13.63,10.51-19.17,23.43-19.17c9.94,0,17.04,3.27,22.01,8.38l-10.22,10.93
			c-2.84-2.41-7.1-4.54-11.64-4.54c-4.4,0-6.53,1.14-6.53,3.55c0,3.41,3.83,3.83,12.07,5.68c8.8,1.99,19.88,6.11,19.88,18.89
			c0,11.08-5.82,20.16-24.85,20.16C773.79,193.07,765.56,187.81,760.3,181.57z"/>
		<path d="M824.48,131.3h19.17l-0.43,9.37c4.26-7.38,9.94-10.65,17.18-10.65c7.81,0,13.35,3.27,17.04,10.37
			c4.97-6.25,11.64-10.37,20.59-10.37c15.19,0,24,10.08,24,26.7v35.07h-19.03v-33.37c0-7.1-2.27-10.93-9.51-10.93
			c-7.38,0-10.65,3.69-10.65,11.93v32.38h-19.03v-33.37c0-7.1-2.13-10.93-9.37-10.93c-7.38,0-10.79,3.69-10.79,11.93v32.38h-19.17
			V131.3z"/>
		<path d="M969.75,177.16c6.96,0,12.21-2.7,15.19-4.83l10.93,11.79c-5.82,5.11-13.21,8.95-25.84,8.95
			c-21.58,0-35.5-13.06-35.5-31.67c0-18.32,14.63-31.38,33.37-31.38c21.73,0,33.51,16.19,32.09,37.35h-45.87
			C955.97,173.61,961.09,177.16,969.75,177.16z M980.68,156.29c-0.85-6.67-5.11-10.65-12.64-10.65c-7.53,0-12.64,3.41-14.2,10.65
			H980.68z"/>
		<path d="M1013.06,131.3h19.17l-0.43,9.94c3.69-7.24,10.79-11.22,19.17-11.22c13.21,0,22.72,9.66,22.72,26.84v34.93h-19.17v-33.65
			c0-6.82-3.27-10.65-10.08-10.65c-7.67,0-12.21,4.26-12.21,11.93v32.38h-19.17V131.3z"/>
		<path d="M1083.92,181.57l11.22-9.94c4.12,3.98,9.37,6.39,15.05,6.39c6.25,0,8.24-1.14,8.24-3.69c0-3.27-3.83-3.27-13.63-5.82
			c-8.24-2.13-17.47-6.67-17.47-19.31c0-13.63,10.51-19.17,23.43-19.17c9.94,0,17.04,3.27,22.01,8.38l-10.22,10.93
			c-2.84-2.41-7.1-4.54-11.64-4.54c-4.4,0-6.53,1.14-6.53,3.55c0,3.41,3.83,3.83,12.07,5.68c8.8,1.99,19.88,6.11,19.88,18.89
			c0,11.08-5.82,20.16-24.85,20.16C1097.41,193.07,1089.17,187.81,1083.92,181.57z"/>
		<path d="M1148.1,89.27h19.17v51.55c3.69-6.96,10.37-10.79,18.74-10.79c13.21,0,22.72,9.66,22.72,26.84v34.93h-19.17v-33.65
			c0-6.82-3.27-10.65-10.08-10.65c-7.67,0-12.21,4.26-12.21,11.93v32.38h-19.17V89.27z"/>
		<path d="M1221.51,109.15c0-6.96,5.68-11.93,12.21-11.93c6.53,0,12.07,4.97,12.07,11.93c0,7.1-5.54,12.07-12.07,12.07
			C1227.19,121.22,1221.51,116.25,1221.51,109.15z M1224.07,131.3h19.17v60.49h-19.17V131.3z"/>
		<path d="M1259,131.3h19.17l-0.43,9.37c3.69-6.53,10.08-10.65,19.45-10.65c14.63,0,26.98,12.78,26.98,31.38
			c0,18.6-12.64,31.67-27.41,31.67c-9.23,0-15.48-3.83-18.6-9.37v38.2H1259V131.3z M1304.44,161.4c0-8.95-5.11-14.48-13.21-14.48
			c-8.24,0-13.63,5.54-13.63,14.48c0,9.51,5.4,14.91,13.63,14.91C1299.33,176.31,1304.44,170.92,1304.44,161.4z"/>
		<path d="M834.07,257.55c0-6.96,5.68-11.93,12.21-11.93c6.53,0,12.07,4.97,12.07,11.93c0,7.1-5.54,12.07-12.07,12.07
			C839.75,269.62,834.07,264.65,834.07,257.55z M836.62,279.7h19.17v60.49h-19.17V279.7z"/>
		<path d="M871.55,279.7h19.17l-0.43,9.94c3.69-7.24,10.79-11.22,19.17-11.22c13.21,0,22.72,9.66,22.72,26.84v34.93h-19.17v-33.65
			c0-6.82-3.27-10.65-10.08-10.65c-7.67,0-12.21,4.26-12.21,11.93v32.38h-19.17V279.7z"/>
		<path d="M509.03,458.2c0-18.6,12.5-31.38,27.12-31.38c9.66,0,15.05,3.83,18.89,9.8v-50.55h19.17v102.52h-19.17l0.43-8.8
			c-3.41,6.39-9.8,10.08-19.03,10.08C521.67,489.87,509.03,476.8,509.03,458.2z M555.61,458.2c0-8.95-5.4-14.48-13.63-14.48
			c-8.09,0-13.21,5.54-13.21,14.48c0,9.51,5.11,14.91,13.21,14.91C550.21,473.11,555.61,467.72,555.61,458.2z"/>
		<path d="M614.82,442.58c-7.24,0-11.08,3.12-13.77,5.54l-10.65-11.36c5.68-5.54,12.07-9.94,26.27-9.94
			c15.48,0,27.26,8.38,27.26,27.41v34.36h-19.03l0.43-8.38c-4.54,6.96-9.8,9.66-17.89,9.66c-11.08,0-21.3-4.97-21.3-19.03
			c0-12.92,9.8-18.18,24.71-18.18h14.06C624.62,445.71,621.21,442.58,614.82,442.58z M611.84,464.03c-4.83,0-6.96,2.13-6.96,5.54
			c0,3.41,2.84,5.4,8.24,5.4c7.81,0,11.79-3.41,11.79-8.52v-2.41H611.84z"/>
		<path d="M663.67,465.87V444h-8.95v-15.9h8.95v-21.58h19.03v21.58h15.48V444H682.7v22.44c0,6.11,1.99,7.38,4.97,7.38
			c3.12,0,5.4-1.7,6.67-2.56l7.24,13.35c-2.98,2.41-8.09,5.54-16.9,5.54C672.48,490.15,663.67,484.05,663.67,465.87z"/>
		<path d="M739.07,442.58c-7.24,0-11.08,3.12-13.77,5.54l-10.65-11.36c5.68-5.54,12.07-9.94,26.27-9.94
			c15.48,0,27.26,8.38,27.26,27.41v34.36h-19.03l0.43-8.38c-4.54,6.96-9.8,9.66-17.89,9.66c-11.08,0-21.3-4.97-21.3-19.03
			c0-12.92,9.8-18.18,24.71-18.18h14.06C748.87,445.71,745.46,442.58,739.07,442.58z M736.09,464.03c-4.83,0-6.96,2.13-6.96,5.54
			c0,3.41,2.84,5.4,8.24,5.4c7.81,0,11.79-3.41,11.79-8.52v-2.41H736.09z"/>
		<path d="M809.79,478.37l11.22-9.94c4.12,3.98,9.37,6.39,15.05,6.39c6.25,0,8.24-1.14,8.24-3.69c0-3.27-3.83-3.27-13.63-5.82
			c-8.24-2.13-17.47-6.67-17.47-19.31c0-13.63,10.51-19.17,23.43-19.17c9.94,0,17.04,3.27,22.01,8.38l-10.22,10.93
			c-2.84-2.41-7.1-4.54-11.64-4.54c-4.4,0-6.53,1.14-6.53,3.55c0,3.41,3.83,3.83,12.07,5.68c8.8,1.99,19.88,6.11,19.88,18.89
			c0,11.08-5.82,20.16-24.85,20.16C823.28,489.87,815.04,484.62,809.79,478.37z"/>
		<path d="M871.84,458.2c0-18.32,14.2-31.38,33.09-31.38c12.07,0,19.31,4.4,25.42,12.07l-13.63,11.08
			c-2.27-3.69-6.96-6.39-11.79-6.39c-8.66,0-13.49,6.11-13.49,14.63c0,8.8,4.83,15.05,13.49,15.05c6.11,0,9.37-2.84,12.21-5.68
			l12.92,11.36c-5.96,6.67-13.06,10.93-25.13,10.93C886.04,489.87,871.84,476.8,871.84,458.2z"/>
		<path d="M939.85,405.95c0-6.96,5.68-11.93,12.21-11.93c6.53,0,12.07,4.97,12.07,11.93c0,7.1-5.54,12.07-12.07,12.07
			C945.54,418.02,939.85,413.05,939.85,405.95z M942.41,428.1h19.17v60.49h-19.17V428.1z"/>
		<path d="M1010.43,473.96c6.96,0,12.21-2.7,15.19-4.83l10.93,11.79c-5.82,5.11-13.21,8.95-25.84,8.95
			c-21.58,0-35.5-13.06-35.5-31.67c0-18.32,14.63-31.38,33.37-31.38c21.73,0,33.51,16.19,32.09,37.35h-45.87
			C996.65,470.42,1001.76,473.96,1010.43,473.96z M1021.36,453.09c-0.85-6.67-5.11-10.65-12.64-10.65c-7.53,0-12.64,3.41-14.2,10.65
			H1021.36z"/>
		<path d="M1053.74,428.1h19.17l-0.43,9.94c3.69-7.24,10.79-11.22,19.17-11.22c13.21,0,22.72,9.66,22.72,26.84v34.93h-19.17v-33.65
			c0-6.82-3.27-10.65-10.08-10.65c-7.67,0-12.21,4.26-12.21,11.93v32.38h-19.17V428.1z"/>
		<path d="M1126.87,458.2c0-18.32,14.2-31.38,33.09-31.38c12.07,0,19.31,4.4,25.42,12.07l-13.63,11.08
			c-2.27-3.69-6.96-6.39-11.79-6.39c-8.66,0-13.49,6.11-13.49,14.63c0,8.8,4.83,15.05,13.49,15.05c6.11,0,9.37-2.84,12.21-5.68
			l12.92,11.36c-5.96,6.67-13.06,10.93-25.13,10.93C1141.07,489.87,1126.87,476.8,1126.87,458.2z"/>
		<path d="M1228.4,473.96c6.96,0,12.21-2.7,15.19-4.83l10.93,11.79c-5.82,5.11-13.21,8.95-25.84,8.95
			c-21.58,0-35.5-13.06-35.5-31.67c0-18.32,14.63-31.38,33.37-31.38c21.73,0,33.51,16.19,32.09,37.35h-45.87
			C1214.62,470.42,1219.73,473.96,1228.4,473.96z M1239.33,453.09c-0.85-6.67-5.11-10.65-12.64-10.65c-7.53,0-12.64,3.41-14.2,10.65
			H1239.33z"/>
		<path d="M521.1,603.76c2.13-4.97,3.41-10.93,3.41-18.03h17.89c0,12.92-3.55,24-9.51,32.66l15.05,18.6h-23.43l-4.83-5.96
			c-7.24,4.69-15.76,7.24-24.85,7.24c-24,0-37.49-11.93-37.49-28.4c0-13.92,7.1-21.02,22.29-28.54c-4.83-6.53-6.67-12.64-6.67-19.17
			c0-12.5,9.51-22.86,25.56-22.86c15.34,0,24.99,8.95,24.99,22.44c0,9.23-5.4,16.76-17.61,23.15L521.1,603.76z M488.58,592.54
			c-8.38,4.54-10.51,9.51-10.51,15.76c0,8.09,5.11,12.78,16.76,12.78c5.11,0,9.8-1.14,14.06-3.41L488.58,592.54z M506.19,561.59
			c0-4.4-2.98-6.96-7.38-6.96c-4.4,0-7.67,2.98-7.67,7.24c0,4.97,2.41,7.67,5.11,11.08l0.28,0.43
			C503.64,569.4,506.19,565.99,506.19,561.59z"/>
		<path d="M622.91,622.36c6.96,0,12.21-2.7,15.19-4.83l10.93,11.79c-5.82,5.11-13.21,8.95-25.84,8.95
			c-21.58,0-35.5-13.06-35.5-31.67c0-18.32,14.63-31.38,33.37-31.38c21.73,0,33.51,16.19,32.09,37.35h-45.87
			C609.14,618.81,614.25,622.36,622.91,622.36z M633.85,601.49c-0.85-6.67-5.11-10.65-12.64-10.65c-7.53,0-12.64,3.41-14.2,10.65
			H633.85z"/>
		<path d="M679.29,605.32l-20.31-28.83h22.58l4.97,7.53c1.99,3.12,4.26,8.8,4.54,9.37c0.14-0.28,2.27-6.11,4.4-9.37l4.83-7.53h20.45
			l-20.02,27.26l23.29,33.23H701.3l-6.96-10.37c-2.41-3.55-5.25-10.08-5.54-10.65c-0.14,0.28-3.12,6.96-5.54,10.65l-6.82,10.37H656
			L679.29,605.32z"/>
		<path d="M733.82,576.5h19.17l-0.43,9.37c3.69-6.53,10.08-10.65,19.45-10.65c14.63,0,26.98,12.78,26.98,31.38
			s-12.64,31.67-27.41,31.67c-9.23,0-15.48-3.83-18.6-9.37v38.2h-19.17V576.5z M779.25,606.6c0-8.95-5.11-14.48-13.21-14.48
			c-8.24,0-13.63,5.54-13.63,14.48c0,9.51,5.4,14.91,13.63,14.91C774.14,621.51,779.25,616.12,779.25,606.6z"/>
		<path d="M812.48,534.47h19.03v102.52h-19.03V534.47z"/>
		<path d="M844.86,606.89c0-18.46,14.63-31.67,33.37-31.67s33.23,13.21,33.23,31.67c0,18.32-14.48,31.38-33.23,31.38
			S844.86,625.2,844.86,606.89z M891.86,606.89c0-9.09-5.11-15.19-13.63-15.19s-13.77,6.11-13.77,15.19
			c0,8.95,5.25,15.19,13.77,15.19S891.86,615.83,891.86,606.89z"/>
		<path d="M924.38,576.5h19.17l-0.28,10.93c4.4-9.94,11.5-12.21,17.75-12.21c3.98,0,6.96,1.14,9.37,2.41l-6.11,17.47
			c-2.41-1.14-4.69-1.85-7.38-1.85c-8.66,0-13.35,3.98-13.35,16.9v26.84h-19.17V576.5z"/>
		<path d="M1002.76,590.98c-7.24,0-11.08,3.12-13.77,5.54l-10.65-11.36c5.68-5.54,12.07-9.94,26.27-9.94
			c15.48,0,27.26,8.38,27.26,27.41v34.36h-19.03l0.43-8.38c-4.54,6.96-9.8,9.66-17.89,9.66c-11.08,0-21.3-4.97-21.3-19.03
			c0-12.92,9.8-18.18,24.71-18.18h14.06C1012.56,594.11,1009.15,590.98,1002.76,590.98z M999.78,612.42c-4.83,0-6.96,2.13-6.96,5.54
			c0,3.41,2.84,5.4,8.24,5.4c7.81,0,11.79-3.41,11.79-8.52v-2.41H999.78z"/>
		<path d="M1051.61,614.27V592.4h-8.95v-15.9h8.95v-21.58h19.03v21.58h15.48v15.9h-15.48v22.44c0,6.11,1.99,7.38,4.97,7.38
			c3.12,0,5.4-1.7,6.67-2.56l7.24,13.35c-2.98,2.41-8.09,5.54-16.9,5.54C1060.41,638.55,1051.61,632.45,1051.61,614.27z"/>
		<path d="M1097.48,554.35c0-6.96,5.68-11.93,12.21-11.93c6.53,0,12.07,4.97,12.07,11.93c0,7.1-5.54,12.07-12.07,12.07
			C1103.16,566.42,1097.48,561.45,1097.48,554.35z M1100.03,576.5h19.17v60.49h-19.17V576.5z"/>
		<path d="M1132.83,606.89c0-18.46,14.63-31.67,33.37-31.67s33.23,13.21,33.23,31.67c0,18.32-14.48,31.38-33.23,31.38
			S1132.83,625.2,1132.83,606.89z M1179.83,606.89c0-9.09-5.11-15.19-13.63-15.19s-13.77,6.11-13.77,15.19
			c0,8.95,5.25,15.19,13.77,15.19S1179.83,615.83,1179.83,606.89z"/>
		<path d="M1212.35,576.5h19.17l-0.43,9.94c3.69-7.24,10.79-11.22,19.17-11.22c13.21,0,22.72,9.66,22.72,26.84v34.93h-19.17v-33.65
			c0-6.82-3.27-10.65-10.08-10.65c-7.67,0-12.21,4.26-12.21,11.93v32.38h-19.17V576.5z"/>
		<path d="M1285.77,625.77c0-6.96,5.54-11.93,12.07-11.93c6.39,0,11.93,4.97,11.93,11.93c0,7.1-5.54,12.07-11.93,12.07
			C1291.3,637.84,1285.77,632.87,1285.77,625.77z"/>
	</g>
	<g>
		<g>
			<path class="st23" d="M398.24,710.99c0,0-38.34,40.42-134.14,40.42c-95.81,0-128.96-40.42-128.96-40.42L96.96,365.38
				c0,0,53.53-67.37,170.22-67.37c116.69,0,175.97,67.37,175.97,67.37L398.24,710.99z"/>
			<path class="st24" d="M148.59,635.46c-5.48,5.19-11.16,6.21-15.89,7.02c-9.48,1.61-86.26-46.82-86.26-46.82
				s-6.74-14.17,2.97-39.34c9.71-25.17,23.68-29.79,23.68-29.79l75.59,24.99c0,0,10.36,8.64,16.31,22.07
				C164.99,573.59,176.74,608.78,148.59,635.46z"/>
			<path class="st25" d="M445.13,362.69c0,44.27-78.23,58.82-174.74,58.82c-96.5,0-174.73-14.55-174.73-58.82
				c0-44.27,78.23-80.16,174.73-80.16C366.9,282.54,445.13,318.42,445.13,362.69z"/>
			<path class="st25" d="M76.7,568.81c-8.73,18.84-23.63,30.49-33.27,26.02c-9.64-4.47-10.38-23.37-1.64-42.21
				c8.73-18.84,23.63-30.49,33.27-26.02C84.69,531.07,85.43,549.97,76.7,568.81z"/>
			<g class="st26">
				<path class="st27" d="M70.48,565.93c-5.63,12.13-15.22,19.64-21.43,16.76c-6.21-2.88-6.68-15.05-1.06-27.18
					c5.62-12.13,15.22-19.64,21.43-16.76C75.63,541.62,76.11,553.79,70.48,565.93z"/>
				<path class="st27" d="M65.03,563.4c-2.9,6.25-7.84,10.12-11.04,8.63c-3.2-1.48-3.44-7.75-0.54-14
					c2.9-6.25,7.84-10.12,11.04-8.63C67.69,550.88,67.93,557.15,65.03,563.4z"/>
			</g>
			<g class="st28">
				<path class="st25" d="M288.36,398.07c-19.44,0-36.31-0.94-50.66-2.79l-3.16,4.88c11.68,0.76,24.75,1.17,39.37,1.17
					c33.84,0,59.41-2.21,78.58-5.82l-2.25-1.96C333.75,396.56,313.12,398.07,288.36,398.07z"/>
				<path class="st25" d="M406.22,359.03c0-32.46-59.35-58.87-132.31-58.87c-72.95,0-132.3,26.41-132.3,58.87
					c0,15.03,13.93,32.3,71.74,39.21l9.31-5.43c-29.88-6.12-44.98-17.56-44.98-34.23c0-29.5,48.62-52.6,110.69-52.6
					c62.07,0,110.69,23.11,110.69,52.6c0,12.17-8.05,21.56-24.02,28.12l3.45,1.76C399.97,380.16,406.22,369.09,406.22,359.03z"/>
				<path class="st23" d="M141.61,359.03c0-32.46,59.35-58.87,132.3-58.87c72.96,0,132.31,26.41,132.31,58.87
					c0,10.06-6.25,21.14-27.74,29.43l7.82,3.99c17.74-8.05,26.66-19.2,26.66-33.41c0-36.79-61.08-65.61-139.05-65.61
					c-77.97,0-139.04,28.82-139.04,65.61c0,22.9,23.2,37.84,69.09,44.69l9.39-5.48C155.54,391.33,141.61,374.06,141.61,359.03z"/>
				<path class="st23" d="M273.91,401.33c-14.62,0-27.69-0.41-39.37-1.17l-4.17,6.44c13.17,0.97,27.67,1.47,43.54,1.47
					c34.81,0,63.14-2.35,84.93-7.02l-6.35-5.53C333.32,399.12,307.76,401.33,273.91,401.33z"/>
				<path class="st25" d="M343.56,387.73l-2.44-2.13c-11.83,1.77-26.04,2.67-42.65,2.67c-21.9,0-39.64-1.55-53.22-4.63l-3.41,5.26
					c16.12,1.9,32.93,2.43,46.52,2.43C304.42,391.33,324.97,390.6,343.56,387.73z"/>
				<path class="st25" d="M212.44,357.07c0-23.15,37.79-41.28,86.02-41.28c48.24,0,86.03,18.13,86.03,41.28
					c0,10.37-7.26,18.18-21.69,23.39l3.93,2.01c15.07-4.92,25.57-12.45,25.57-23.89c0-24.86-47.6-45.86-103.95-45.86
					c-56.35,0-103.95,21-103.95,45.86c0,16.41,21.6,24.78,47.33,28.93l8.68-5.07C221.83,377.32,212.44,368.85,212.44,357.07z"/>
				<path class="st23" d="M288.36,391.33c-13.59,0-30.41-0.53-46.52-2.43l-4.13,6.37c14.35,1.85,31.22,2.79,50.66,2.79
					c24.76,0,45.39-1.52,61.88-4.52l-6.68-5.82C324.97,390.6,304.42,391.33,288.36,391.33z"/>
				<path class="st23" d="M184.41,358.58c0-24.86,47.6-45.86,103.95-45.86c56.35,0,103.95,21,103.95,45.86
					c0,11.44-10.5,18.97-25.57,23.89l8.29,4.23c15.97-6.56,24.02-15.94,24.02-28.12c0-29.5-48.62-52.6-110.69-52.6
					c-62.07,0-110.69,23.11-110.69,52.6c0,16.67,15.1,28.11,44.98,34.23l9.09-5.31C206.02,383.35,184.41,374.99,184.41,358.58z"/>
				<path class="st25" d="M377.76,357.07c0-18.73-36.31-34.55-79.29-34.55c-42.98,0-79.29,15.82-79.29,34.55
					c0,9.52,10.27,16.45,29.65,20.46l0.62-0.36l-0.28,0.43c12.68,2.58,29.21,3.93,49.3,3.93c13.63,0,25.61-0.62,35.88-1.83
					l-38.09-33.19l57.98,29.57C369.64,371.95,377.76,365.53,377.76,357.07z"/>
				<path class="st23" d="M298.47,381.53c-20.09,0-36.61-1.35-49.3-3.93l-3.92,6.04c13.57,3.07,31.31,4.63,53.22,4.63
					c16.61,0,30.83-0.9,42.65-2.67l-6.77-5.9C324.08,380.9,312.1,381.53,298.47,381.53z"/>
				<path class="st23" d="M219.18,357.07c0-18.73,36.31-34.55,79.29-34.55c42.98,0,79.29,15.82,79.29,34.55
					c0,8.46-8.11,14.88-23.52,19.02l8.57,4.37c14.42-5.21,21.69-13.02,21.69-23.39c0-23.15-37.79-41.28-86.03-41.28
					c-48.24,0-86.02,18.13-86.02,41.28c0,11.78,9.39,20.25,27.98,25.37l8.41-4.91C229.45,373.52,219.18,366.59,219.18,357.07z"/>
				<path class="st25" d="M222.66,392.81l-9.31,5.43c6.49,0.78,13.55,1.42,21.19,1.92l3.16-4.88
					C232.33,394.58,227.32,393.76,222.66,392.81z"/>
				<path class="st25" d="M240.42,382.44l-8.68,5.07c3.31,0.53,6.68,1,10.09,1.4l3.41-5.26
					C243.58,383.26,241.97,382.86,240.42,382.44z"/>
				<path class="st25" d="M248.83,377.53c0.11,0.02,0.23,0.05,0.34,0.07l0.28-0.43L248.83,377.53z"/>
				<path class="st29" d="M248.83,377.53c0.11,0.02,0.23,0.05,0.34,0.07l0.28-0.43L248.83,377.53z"/>
				<path class="st25" d="M350.24,393.55l2.25,1.96c10.47-1.97,19.03-4.37,25.99-7.05l-3.45-1.76
					C368.22,389.5,359.95,391.78,350.24,393.55z"/>
				<path class="st25" d="M341.12,385.6l2.44,2.13c8.31-1.28,16.23-3,23.18-5.26l-3.93-2.01
					C356.82,382.62,349.57,384.33,341.12,385.6z"/>
				<path class="st25" d="M334.35,379.7c7.58-0.89,14.23-2.1,19.89-3.61l-57.98-29.57L334.35,379.7z"/>
			</g>
			<polygon class="st30" points="249.45,377.17 187.32,413.44 201.49,555.11 221.89,419.67 			"/>
			<polygon class="st30" points="296.26,346.51 408.66,403.85 389.64,482.01 375.95,415.94 			"/>
		</g>
		<g>
			<g>
				<polygon class="st31" points="360.81,271.93 313.76,317.21 322.29,334.25 274.5,360.52 255.69,353.52 249.53,339.41 
					234.73,344.73 221.62,337.32 230.15,314.73 188.7,271.93 227.9,283.68 216.51,294.68 258.57,300.44 274.29,308.51 
					290.93,300.44 333,294.68 321.61,283.68 				"/>
				<path class="st31" d="M133.48,131.89l0.96-2.8l0.48-1.4c0.05-0.15,5.28-25.27,5.28-25.27l0.01-9.8l4.03-28.64l21.22-42.91
					l7.21,15.33l3.61,7.66c0,0,21.86,13.99,21.86,13.99l10.35,16.78l34.21-3.77l2.64-0.29l2.35,1.24l27.71,14.59v221.82l-0.2,0.1
					l-3.77-1.83l-12.87-6.24l-24.35-3.34l-17.71-2.43l11.39-11l-39.21-11.75l-31.66,7.41l-20.87,4.88l11.59-18.03l21.89-34.05
					l-22.35-10.39l-11.71-21.26l14.42-19.87l-15.58-45.93L133.48,131.89z"/>
				<path class="st31" d="M416.03,131.89l-0.96-2.8l-0.48-1.4c-0.05-0.15-5.28-25.27-5.28-25.27l-0.01-9.8l-4.03-28.64l-21.22-42.91
					l-7.21,15.33l-3.61,7.66c0,0-21.86,13.99-21.86,13.99l-10.35,16.78l-34.21-3.77l-2.64-0.29l-2.35,1.24L274.09,86.6v221.82
					l0.2,0.1l3.77-1.83l12.87-6.24l24.35-3.34l17.71-2.43l-11.39-11l39.21-11.75l31.66,7.41l20.87,4.88l-11.59-18.03l-21.89-34.05
					l22.35-10.39l11.71-21.26l-14.42-19.87l15.58-45.93L416.03,131.89z"/>
				<polygon class="st32" points="273.96,86.67 304.16,70.77 282.11,112.17 274.64,151.45 				"/>
				<polygon class="st25" points="275.54,151.45 272.32,111.72 245.35,70.76 274.86,86.67 278.23,112.08 				"/>
				<polygon class="st25" points="304.16,70.77 351.34,93.76 341.01,74.84 				"/>
				<polygon class="st25" points="405.27,63.99 401.41,108.45 416.03,131.89 410.25,104.21 				"/>
				<polygon class="st25" points="416.03,131.89 382.84,181.55 399.5,180.62 				"/>
				<polygon class="st25" points="379.86,232.14 385.1,268.52 413.34,284.22 				"/>
				<polygon class="st33" points="402.21,221.75 393.21,220.43 379.86,232.14 				"/>
				<polygon class="st25" points="413.92,200.49 396.6,200.49 402.21,221.75 				"/>
				<polygon class="st25" points="384.05,21.08 389.67,61.29 405.27,63.99 				"/>
				<polygon class="st25" points="399.5,180.62 394.66,186.99 413.92,200.49 				"/>
				<polygon class="st32" points="245.35,70.77 198.17,93.76 208.5,74.84 				"/>
				<polygon class="st32" points="144.24,63.99 148.1,108.45 133.48,131.89 139.25,104.21 				"/>
				<polygon class="st32" points="133.48,131.89 166.67,181.55 150.01,180.62 				"/>
				<polygon class="st32" points="169.65,232.14 164.41,268.52 136.17,284.22 				"/>
				<polygon class="st32" points="147.3,221.75 172.38,223.65 169.65,232.14 				"/>
				<polygon class="st32" points="135.59,200.49 152.91,200.49 147.3,221.75 				"/>
				<polygon class="st32" points="165.46,21.08 159.84,61.29 144.24,63.99 				"/>
				<polygon class="st32" points="150.01,180.62 154.85,186.99 135.59,200.49 				"/>
				<polygon class="st25" points="391.04,220.43 353.5,229.95 375.26,211.46 				"/>
				<polygon class="st25" points="379.86,232.14 372.27,262.57 360.81,271.93 				"/>
				<g>
					<polygon class="st32" points="331.51,150.89 343.19,139.99 351.1,120.25 353.67,144.76 					"/>
					<polygon class="st32" points="358.1,146.54 365.11,139.99 369.61,131.92 369.61,144.36 					"/>
					<polygon class="st32" points="302.27,150.89 313.95,139.99 321.86,120.25 324.66,145.16 					"/>
				</g>
				<polygon class="st25" points="293.62,223.85 287.73,215.46 298.94,220.71 				"/>
				<polygon class="st25" points="282.46,201.42 273.41,204.93 264.22,201.42 				"/>
				<g>
					<polyline class="st25" points="317.3,169.82 290.55,187.37 309.29,183.63 317.3,169.82 					"/>
				</g>
				<polygon class="st32" points="186.63,204.04 186.63,146.54 199.06,186.44 				"/>
				<polygon class="st32" points="274.5,247.93 186.63,204.04 247.36,221.91 				"/>
				<polygon class="st25" points="307.88,218.25 274.5,247.93 362.36,204.04 				"/>
				<polygon class="st25" points="362.36,204.04 353.53,167.53 362.36,149.19 				"/>
				<path class="st31" d="M317.3,169.82"/>
				<polygon class="st25" points="317.3,169.82 322.42,183.21 317.3,193.3 				"/>
				<polygon class="st32" points="317.3,169.82 309.29,183.63 317.3,193.3 				"/>
				<polygon class="st25" points="306.67,197.26 306.67,185.87 300.67,191.87 				"/>
				<polygon class="st32" points="295.28,197.26 300.67,191.87 295.28,185.87 				"/>
				<polygon class="st32" points="231.33,169.82 226.22,183.21 231.33,193.3 				"/>
				<polygon class="st25" points="231.33,169.82 239.34,183.63 231.33,193.3 				"/>
				<polygon class="st25" points="253.35,197.26 253.35,185.87 247.34,191.87 				"/>
				<polygon class="st32" points="241.96,197.26 247.34,191.87 241.96,185.87 				"/>
				<g>
					<polygon class="st32" points="239.34,183.63 258.08,187.37 231.33,169.82 					"/>
				</g>
				<polyline class="st25" points="258.95,215.46 253.06,223.85 258.95,223.85 258.95,215.46 				"/>
				<polygon class="st25" points="273.32,217.25 271.49,221.73 287.57,215.52 				"/>
				<polygon class="st32" points="287.57,215.52 287.73,215.46 258.95,215.46 271.42,221.75 271.49,221.73 273.32,217.25 				"/>
				<polygon class="st32" points="258.95,215.46 253.35,219.66 253.06,223.85 				"/>
				<polygon class="st25" points="199.06,186.44 199.06,198.6 186.63,204.04 				"/>
				<polygon class="st25" points="307.88,218.25 302.27,234.06 274.5,247.93 				"/>
				<polygon class="st32" points="247.36,221.91 229.64,225.53 274.5,247.93 				"/>
				<polygon class="st25" points="324.66,145.16 329.28,131.89 321.86,120.25 				"/>
				<polygon class="st25" points="353.67,144.76 357.94,131.89 351.1,120.25 				"/>
				<polygon class="st25" points="369.61,144.36 372.27,137.71 369.61,131.92 				"/>
				<g>
					<polygon class="st25" points="223.11,150.89 211.43,139.99 203.53,120.25 200.96,144.76 					"/>
					<polygon class="st25" points="196.53,146.54 189.51,139.99 185.01,131.92 185.01,144.36 					"/>
					<polygon class="st25" points="252.35,150.89 240.67,139.99 232.76,120.25 229.96,145.16 					"/>
				</g>
				<polygon class="st32" points="229.96,145.16 225.34,131.89 232.76,120.25 				"/>
				<polygon class="st32" points="200.96,144.76 196.68,131.89 203.53,120.25 				"/>
				<polygon class="st32" points="185.01,144.36 182.35,137.71 185.01,131.92 				"/>
				<polygon class="st25" points="359.72,233.91 295.85,245.24 274.56,259.44 				"/>
				<polygon class="st25" points="359.72,242.69 301.85,254.54 274.56,268.21 				"/>
				<polygon class="st25" points="359.72,251.47 302.07,262.07 274.56,276.99 				"/>
				<polygon class="st25" points="357.95,260.78 303.67,271.93 295.85,279.39 				"/>
				<polygon class="st32" points="273,259.01 247.83,243.59 189.27,233.91 				"/>
				<polygon class="st32" points="274.56,268.21 245.35,254.16 186.63,242.69 				"/>
				<polygon class="st32" points="189.27,251.47 253.6,265.88 274.56,276.99 				"/>
				<polygon class="st32" points="253.14,279.39 244.71,273 191.04,260.78 				"/>
				<polygon class="st25" points="360.81,271.93 313.76,317.21 274.5,360.52 280.81,330.35 274.29,308.51 290.93,300.44 333,294.68 
					321.61,283.68 				"/>
				<polygon class="st25" points="360.81,271.93 313.76,317.21 321.09,332.4 335.16,343.9 304.52,346.59 274.5,360.52 
					279.37,335.83 277.42,323.92 253.26,308.63 216.51,294.68 258.57,300.44 274.29,308.51 290.93,300.44 333,294.68 321.61,283.68 
									"/>
				<polygon class="st31" points="304.52,346.59 321.09,330.3 278.83,338.56 				"/>
				<polygon class="st25" points="249.53,339.41 279.37,335.83 277.42,323.92 230.44,315.17 				"/>
				<polygon class="st25" points="136.17,284.22 164.41,268.52 188.7,271.93 				"/>
				<polygon class="st25" points="274.29,308.51 274.5,282.09 290.93,300.44 				"/>
				<polygon class="st25" points="333,294.68 274.5,282.09 321.61,283.68 				"/>
				<polygon class="st31" points="321.61,283.68 360.81,271.93 333,294.68 				"/>
				<polygon class="st32" points="290.93,300.44 274.29,308.51 277.42,323.92 				"/>
				<polygon class="st31" points="277.42,323.92 314.22,316.62 290.93,300.44 				"/>
				<polygon class="st31" points="255.69,353.52 266.99,357.66 249.53,339.41 				"/>
				<polygon class="st31" points="221.62,337.32 230.44,315.17 234.73,344.73 				"/>
				<polygon class="st32" points="278.83,338.56 285.16,354.66 304.52,346.59 				"/>
				<polygon class="st31" points="285.16,354.66 302.23,357.66 304.52,346.59 				"/>
				<polygon class="st31" points="335.16,341.8 321.35,331.86 327.36,352.12 				"/>
				<polygon class="st31" points="221.62,337.32 204.45,344.73 234.73,344.73 				"/>
				<polygon class="st25" points="234.73,344.73 238.61,362.54 255.69,353.52 249.53,339.41 				"/>
				<polygon class="st25" points="328.42,303.11 321.09,332.4 313.76,317.21 				"/>
				<polygon class="st31" points="230.44,315.17 253.26,308.63 210.1,304.05 				"/>
				<polygon class="st32" points="205.69,289.48 214.59,316.22 185.6,338.65 221.62,337.32 230.44,315.17 				"/>
				<polygon class="st32" points="277.42,323.92 313.76,317.21 278.83,338.56 				"/>
			</g>
			<polygon class="st25" points="198.15,58.05 198.17,93.76 208.5,74.84 			"/>
			<polygon class="st25" points="165.46,21.08 176.28,44.07 172.38,58.05 			"/>
			<polygon class="st32" points="384.05,21.08 377.81,55.52 373.23,44.07 			"/>
			<polygon class="st32" points="351.36,58.05 351.34,93.76 341.01,74.84 			"/>
			<polygon class="st25" points="159.84,61.29 148.1,108.45 166.67,74.15 			"/>
			<polygon class="st25" points="148.1,108.45 166.67,181.55 169.65,132.7 			"/>
			<polygon class="st25" points="152.91,200.49 172.38,223.65 170.87,204.93 			"/>
			<polygon class="st32" points="317.3,169.82 297.98,177.8 290.55,187.37 			"/>
			<polygon class="st25" points="231.33,169.82 250.84,178.59 258.08,187.37 			"/>
			<polygon class="st32" points="360.81,271.93 385.1,268.52 413.34,284.22 			"/>
			<polygon class="st32" points="188.7,271.93 247.35,288.4 216.65,294.38 			"/>
			<polygon class="st32" points="259.52,299.51 274.5,282.09 245.51,288.4 			"/>
			<polygon class="st32" points="279.37,335.83 255.69,353.52 249.53,339.41 			"/>
			<polygon class="st31" points="230.44,315.17 214.59,316.22 221.62,337.32 			"/>
			<polygon class="st25" points="230.44,315.17 221.62,337.32 231.91,343.14 249.53,339.41 			"/>
			<polygon class="st31" points="279.37,335.83 230.44,315.17 249.53,339.41 			"/>
		</g>
	</g>
</g>
</svg>
