<?xml version="1.0" encoding="utf-8"?>
<!-- Generator: Adobe Illustrator 27.6.1, SVG Export Plug-In . SVG Version: 6.00 Build 0)  -->
<svg version="1.1" xmlns="http://www.w3.org/2000/svg" xmlns:xlink="http://www.w3.org/1999/xlink" x="0px" y="0px"
	 viewBox="0 0 1366 768" style="enable-background:new 0 0 1366 768;" xml:space="preserve">
<style type="text/css">
	.st0{fill:#CBC6CC;}
	.st1{display:none;}
	.st2{display:inline;}
	.st3{font-family:'Neutraface2Text-Bold';}
	.st4{font-size:164px;}
	.st5{fill:#AC9FAD;}
	.st6{fill:#EAE1E1;}
	.st7{fill:#FCF5F5;}
	.st8{fill:#6B686B;}
	.st9{fill:#212121;}
	.st10{fill:#BABABA;}
	.st11{fill:#EDEDED;}
	.st12{fill:#444344;}
	.st13{fill:#848484;}
	.st14{fill:#C5B0C6;}
	.st15{fill:#D8D8D8;}
	.st16{fill:#F79C9C;}
	.st17{display:inline;fill:#212121;}
	.st18{display:inline;fill:#848484;}
	.st19{display:inline;fill:#FCF5F5;}
	.st20{display:inline;fill:#AC9FAD;}
	.st21{display:inline;fill:#C5B0C6;}
	.st22{display:inline;opacity:0.2;fill:#48140F;}
	.st23{font-size:142px;}
	.st24{fill:#C2B392;}
	.st25{fill:#B5A586;}
	.st26{fill:#F6F5CA;}
	.st27{opacity:0.2;}
	.st28{fill:#F6F5CA;stroke:#C2B392;stroke-width:3.3685;stroke-miterlimit:10;}
	.st29{opacity:0.3;}
	.st30{opacity:0.7;fill:#676767;}
	.st31{opacity:0.8;fill:#676767;}
	.st32{fill:#EDE3C5;}
	.st33{fill:#E2D1BF;}
	.st34{fill:#F9ECDC;}
	.st35{font-size:146px;}
	.st36{display:inline;stroke:#000000;stroke-width:8.017;stroke-miterlimit:10;}
	.st37{display:inline;fill:#FFFFFF;stroke:#000000;stroke-width:8.017;stroke-miterlimit:10;}
	.st38{fill:#FFFFFF;stroke:#000000;stroke-width:8.017;stroke-linecap:square;stroke-miterlimit:10;}
	.st39{fill:#FFFFFF;stroke:#000000;stroke-width:8.017;stroke-miterlimit:10;}
	.st40{fill:#FFFFFF;stroke:#000000;stroke-width:4.785;stroke-miterlimit:10;}
	.st41{fill:#FFFFFF;stroke:#000000;stroke-width:4.785;stroke-linecap:square;stroke-miterlimit:10;}
	.st42{fill:none;stroke:#000000;stroke-width:8.017;stroke-linecap:square;stroke-miterlimit:10;}
	.st43{fill:none;stroke:#000000;stroke-width:8.017;stroke-miterlimit:10;}
	.st44{fill:#FFFFFF;}
	.st45{fill:none;stroke:#000000;stroke-width:8.017;stroke-linejoin:round;stroke-miterlimit:10;}
	.st46{stroke:#000000;stroke-width:5.7663;stroke-miterlimit:10;}
	.st47{fill:#6D6E71;}
	.st48{fill:none;stroke:#000000;stroke-width:77.2968;stroke-miterlimit:10;}
	.st49{font-size:76px;}
	.st50{font-size:92px;}
	.st51{font-size:84px;}
	.st52{fill:#A9AAAA;}
	.st53{fill:#DCD9D8;}
	.st54{fill:#2D2D2D;}
	.st55{fill:#999999;}
	.st56{fill:#474646;}
	.st57{fill:#8E8E8E;}
	.st58{fill:#AAAAAA;}
	.st59{opacity:0.5;fill:#474646;}
</style>
<g id="Layer_2">
	<rect x="0.89" y="-1.33" class="st0" width="1365.11" height="769.33"/>
</g>
<g id="Layer_4" class="st1">
	<g id="Layer_3" class="st2">
		<text transform="matrix(1 0 0 1 676.3984 229.7905)"><tspan x="0" y="0" class="st3 st4">Rock out </tspan><tspan x="179.58" y="196.8" class="st3 st4">with</tspan><tspan x="17.47" y="393.6" class="st3 st4">the data.</tspan></text>
	</g>
	<g id="Layer_1" class="st2">
		<g>
			<g>
				<g>
					<g>
						<polygon class="st5" points="417.76,416.1 405.8,377.92 488.43,359.07 489.51,367.96 						"/>
						<g>
							<polygon class="st6" points="497.02,369.19 478.16,369.65 484.14,348.49 492.42,314.76 496.1,352.78 525.69,331.62 
								506.53,353.39 							"/>
							<polygon class="st7" points="492.27,363.97 478.16,369.65 482.61,354.77 							"/>
							<polygon class="st7" points="496.1,355.69 494.87,342.81 505.3,346.03 							"/>
						</g>
					</g>
					<g>
						<g>
							<polygon class="st5" points="389.85,556.23 370.23,578 346.92,555.16 346.16,542.89 364.71,545.81 							"/>
							<polygon class="st8" points="389.85,556.23 370.23,578 370.23,471.91 410.24,474.67 							"/>
						</g>
						<g>
							<polygon class="st5" points="350.75,598.86 328.68,623.39 302.61,597.63 301.69,583.83 322.54,587.2 							"/>
							<polygon class="st8" points="350.75,598.86 328.68,623.39 328.68,504.11 373.75,507.17 							"/>
						</g>
					</g>
					<g>
						<path class="st9" d="M477.86,629.21l-4.45,12.11c0,0,9.51,3.83,15.33,12.11c5.67,8.28,9.05,23.15,9.05,23.15
							s12.27-24.53,2.61-37.56C492.11,627.99,477.86,629.21,477.86,629.21z"/>
						<path class="st9" d="M503.92,556.85l0.46,6.9c0,0,8.89-0.15,13.95,2.76c5.06,2.91,9.81,10.73,9.81,10.73
							s2.45-14.87-6.13-20.08C514.5,552.55,503.92,556.85,503.92,556.85z"/>
						<path class="st8" d="M501.62,557.61c-7.21-35.26-41.7-57.95-76.97-50.75c-1.23-5.83-2.45-11.81-3.68-17.63
							c44.92-9.2,88.92,19.62,98.28,64.7c-2.91,2.15-5.67,3.68-8.74,4.29C507.6,558.84,504.38,558.69,501.62,557.61z"/>
						<path class="st8" d="M475.4,627.22c11.81-46.46-16.41-93.68-62.86-105.48c1.99-7.67,3.99-15.49,5.83-23.15
							c59.33,15.03,95.21,75.28,80.19,134.61c-4.45,1.07-8.89,1.69-13.03,0.77C481.84,632.89,478.32,630.44,475.4,627.22z"/>
					</g>
					<polygon class="st5" points="449.8,443.39 432.93,508.25 373.75,523.58 328.22,555.31 329.14,475.59 344.47,367.04 
						419.13,359.37 					"/>
					<polygon class="st10" points="432.93,506.71 350.6,370.11 416.07,370.11 					"/>
					<polygon class="st11" points="472.03,322.73 457.31,358.61 410.09,393.1 272.87,413.34 159.26,339.6 219.67,278.73 
						436.15,277.96 					"/>
					<g>
						<g>
							<polygon class="st9" points="435.39,612.96 425.88,550.87 347.38,560.07 423.89,484.63 433.85,455.5 447.04,486.78 
								485.37,489.54 453.32,518.67 							"/>
						</g>
						<g>
							<polygon class="st12" points="489.35,390.34 467.28,415.64 457.92,399.7 487.67,384.36 							"/>
							<polygon class="st12" points="469.58,408.74 443.51,506.25 433.85,494.6 464.98,400.31 							"/>
							<polygon class="st12" points="423.12,519.9 437.07,536.92 440.45,525.11 426.49,509.47 							"/>
						</g>
					</g>
					<g>
						<g>
							<polygon class="st6" points="406.1,530.78 401.2,509.16 426.8,511.16 467.43,512.69 424.65,525.72 455.78,555.01 
								426.49,537.99 							"/>
							<polygon class="st6" points="411.01,488.16 401.2,509.16 419.29,510.85 							"/>
							<polygon class="st6" points="421.28,526.49 435.69,522.04 434.16,534.92 							"/>
						</g>
						<polygon class="st13" points="344.47,479.42 339.26,461.64 373.91,436.95 405.8,528.94 						"/>
						<polygon class="st5" points="333.74,457.96 374.67,435.42 403.04,505.95 405.8,528.94 						"/>
					</g>
					<polygon class="st14" points="399.05,395.25 362.56,416.87 349.38,465.62 319.02,383.75 361.18,342.35 409.17,350.02 
						456.54,395.1 					"/>
					<polygon class="st11" points="435.23,328.56 427.57,379.46 409.78,420.09 334.66,386.51 324.08,336.84 405.8,361.98 					"/>
					<polygon class="st15" points="432.32,406.9 416.68,417.33 411.32,425.76 399.36,420.85 366.09,427.75 405.03,379.76 					"/>
					<polygon class="st11" points="432.32,406.9 416.68,417.33 411.32,425.76 399.36,420.85 366.09,427.75 408.1,398.16 					"/>
					<polygon class="st15" points="404.26,422.85 393.22,422.39 404.42,412.88 					"/>
					<polygon class="st15" points="414.69,419.47 421.59,413.95 413,412.11 					"/>
					<polygon class="st15" points="438.3,330.09 429.1,373.33 409.78,410.89 333.12,380.38 324.08,333.77 407.33,357.38 					"/>
					<polygon class="st11" points="408.4,373.94 267.96,324.72 152.36,251.28 137.8,52.12 245.89,128.78 321.01,85.7 359.49,101.03 
						383.72,93.21 415.92,108.24 460.68,66.08 500.39,162.36 476.94,285.17 					"/>
					<polygon class="st15" points="458.23,357.99 434.01,376.54 410.86,347.41 445.51,290.69 472.95,321.96 					"/>
					<polygon class="st11" points="438.3,322.42 429.1,368.73 409.78,401.69 331.59,372.71 322.54,324.57 407.33,349.71 					"/>
					<polygon class="st7" points="446.73,289.77 439.22,351.09 406.72,389.88 314.42,356.61 295.71,288.69 407.48,320.89 					"/>
					<g>
						<polygon class="st15" points="330.82,357.07 333.28,349.41 318.1,352.93 						"/>
						<g>
							<polygon class="st9" points="420.05,355.69 414.38,380.99 370.69,361.52 382.49,357.53 409.63,364.13 							"/>
							<polygon class="st16" points="416.68,367.96 419.9,389.88 390.77,369.19 411.01,373.02 							"/>
							<polygon class="st15" points="410.09,359.37 416.38,354.62 402.27,356.92 							"/>
							<polygon class="st9" points="416.53,342.51 411.32,349.56 417.91,349.41 							"/>
							<polygon class="st9" points="398.59,344.5 405.8,349.25 399.51,351.4 							"/>
							<polygon class="st15" points="375.59,327.94 405.95,349.41 374.98,341.74 360.87,347.57 							"/>
							<polygon class="st15" points="427.87,326.1 411.32,349.56 428.64,338.37 438.3,340.97 							"/>
						</g>
					</g>
					<polygon class="st11" points="328.98,292.22 336.65,341.43 271.64,323.5 263.98,273.82 					"/>
					<polygon class="st15" points="137.8,52.12 263.98,185.2 271.64,326.56 152.36,251.28 					"/>
					<polygon class="st15" points="321.01,85.7 429.25,191.8 245.89,128.78 					"/>
					<polygon class="st15" points="383.72,93.21 426.95,190.42 359.49,101.03 					"/>
					<polygon class="st15" points="415.92,108.24 485.21,158.07 460.68,66.08 					"/>
					<polygon class="st15" points="426.19,235.49 277.93,161.13 407.94,321.2 					"/>
					<polygon class="st15" points="484.3,155.61 446.73,291.45 459,308.16 476.78,286.39 					"/>
					<polygon class="st15" points="208.78,289.77 272.87,413.34 159.26,339.6 					"/>
					<polygon class="st15" points="330.06,298.66 301.69,284.55 333.74,322.12 					"/>
					<polygon class="st15" points="333.12,318.59 304.76,304.49 336.8,342.05 					"/>
					<polygon class="st15" points="426.19,235.49 473.56,175.54 407.94,321.2 					"/>
				</g>
			</g>
			<text transform="matrix(1 0 0 1 649.55 -92.6297)" style="font-family:'ArialMT'; font-size:64.3936px;"> </text>
		</g>
		<g>
			<g>
				<polygon class="st8" points="709.65,179.27 781.23,118.79 735.21,137.21 738.51,110.81 630.61,185.52 712.31,158.59 				"/>
			</g>
			<g>
				<polygon class="st8" points="620.33,264.12 664.1,238.24 637.72,243.89 641.99,230.16 577.25,260.26 623.49,253.32 				"/>
			</g>
			<g>
				<polygon class="st8" points="541.85,336.13 578.14,321.03 557.5,322.62 562.1,312.47 509.29,328.67 545.4,328.29 				"/>
			</g>
			<g>
				<polygon class="st8" points="703,79.27 750.1,14.99 715.78,39.13 713.42,16.61 638.74,99.72 701.11,61.46 				"/>
			</g>
		</g>
		<g>
			<g>
				<g>
					<polygon class="st8" points="70.14,241.77 11.75,146.9 50.26,180.08 48.76,143.7 137.86,264.06 68.92,213.2 					"/>
				</g>
				<g>
					<polygon class="st8" points="142.85,372.76 106.5,329.73 128.78,342.2 125.86,322.61 179.99,375.11 140.61,357.45 					"/>
				</g>
				<g>
					<polygon class="st8" points="214.77,499.88 184.35,472.93 202.01,478.71 198.53,464.11 243.12,495.22 212.02,488.32 					"/>
				</g>
				<g>
					<polygon class="st8" points="80.84,106.83 43.54,11.1 71.84,50.36 75.04,20.03 135.09,146.13 83.47,83.15 					"/>
				</g>
			</g>
		</g>
	</g>
</g>
<g id="Layer_3_copy" class="st1">
	<text transform="matrix(1 0 0 1 621.231 229.7905)" class="st2"><tspan x="0" y="0" class="st3 st4">Compose</tspan><tspan x="158.92" y="196.8" class="st3 st4">killer</tspan><tspan x="52.15" y="393.6" class="st3 st4">queries.</tspan></text>
	<g class="st2">
		<g>
			<polygon class="st9" points="353.12,501.49 344.84,495.55 356.77,490.01 375.29,480.65 360,495.33 375.98,496.6 364.27,498.94 
							"/>
			<polygon class="st9" points="358.73,496.41 363.88,491.42 366.97,495.97 			"/>
		</g>
		<polygon class="st9" points="375.29,480.65 356.62,492.96 344.84,495.55 355.1,489.21 		"/>
		<polygon class="st9" points="373.96,496.84 366.97,495.97 364.97,493.02 		"/>
		<polygon class="st9" points="293.29,550.86 329.69,511.7 354.58,505.19 357.12,497.6 345.99,489.94 313.24,487.21 247.24,525.6 		
			"/>
		<polygon class="st9" points="357.12,497.6 331.57,498.31 345.99,489.94 		"/>
	</g>
	<polygon class="st17" points="367.48,493.97 421.79,425.48 359.88,493.06 365.28,494.31 	"/>
	<polygon class="st18" points="412.17,488.7 570.8,419.04 409.48,504.69 406.32,493.72 	"/>
	<polygon class="st17" points="268.03,613.83 256.25,628.42 270.74,633.92 307.29,632.07 291.55,613.83 	"/>
	<g class="st2">
		<polygon class="st6" points="387.67,500.02 384,518.88 406.21,516.51 441.61,514.19 404.04,503.87 430.49,477.65 405.28,493.19 		
			"/>
		<polygon class="st6" points="401.08,503.27 413.79,506.81 412.36,495.67 		"/>
	</g>
	<polygon class="st19" points="441.61,514.19 402.47,511.48 384,518.88 405,519.61 	"/>
	<polygon class="st19" points="430.49,477.65 412.36,495.67 413.29,502.9 	"/>
	<g class="st2">
		<path class="st9" d="M260.92,713.62l5.44-2.81c0,0,1.45,8.78,4.65,12.54s10.05,4.69,10.05,4.69s-11.04,9.19-16.56,3.24
			C259.63,726.04,260.92,713.62,260.92,713.62z"/>
		<path class="st9" d="M293.08,615.85c-25.44,24.49-35.64,69.1-22.78,99.64c-4.23,4.07-8.47,8.15-12.7,12.22
			c-16.41-38.96-3.4-95.86,29.06-127.11c2.27,1.78,4,3.69,5.13,6.37C292.8,609.38,293.27,612.63,293.08,615.85z"/>
	</g>
	<polygon class="st20" points="250.35,473.88 357.03,523.69 385.12,492.03 397.56,502.81 392.23,527.57 352.81,565.61 
		220.63,565.06 	"/>
	<polygon class="st20" points="290.15,471.24 329.36,481.04 293.66,491.47 274.39,582.49 258.25,616.81 212.94,690.49 
		207.91,672.04 215.39,624.54 200.59,502.33 208.59,488.41 198.3,482.98 251.47,411.19 	"/>
	<g class="st2">
		<g>
			<g>
				<polygon class="st8" points="699.7,232.11 762.78,165.66 721.39,196.21 723.29,179.1 627.25,269.52 701.19,218.69 				"/>
			</g>
			<g>
				<polygon class="st8" points="621.05,320.72 660.25,286.59 636.31,301.22 639.56,291.21 581.35,336.78 623.59,312.87 				"/>
			</g>
			<g>
				<polygon class="st8" points="543.23,407.27 576.01,382.8 557.01,392.57 560.9,384.55 513.05,416.64 546.28,400.98 				"/>
			</g>
			<g>
				<polygon class="st8" points="727.73,144.48 768.36,86.12 737.83,115.25 734.56,102.87 669.5,184.17 725.17,134.78 				"/>
			</g>
		</g>
		<g>
			<g>
				<polygon class="st8" points="523.28,154.71 535.05,102.97 533.8,132.38 541.64,125.55 529.05,200.59 529.43,149.36 				"/>
			</g>
			<g>
				<polygon class="st8" points="505.76,221.23 509.52,191.57 510.3,207.52 514.17,202.56 511.12,244.82 508.8,217.34 				"/>
			</g>
			<g>
				<polygon class="st8" points="488.97,286.65 490.11,263.27 491.64,275.29 494.31,270.73 494.46,303.6 491.07,283.08 				"/>
			</g>
			<g>
				<polygon class="st8" points="554.91,139.7 570.2,100.96 566.01,124.94 573.24,122.11 554.78,179.92 560.58,137.48 				"/>
			</g>
		</g>
	</g>
	<polygon class="st18" points="242.18,647.26 239.15,621.93 212.98,689.43 	"/>
	<g class="st2">
		<polygon class="st15" points="360.92,352.8 281.49,361.19 401.15,462.83 232.5,480.54 144.07,461.36 67.55,386.07 110.45,352.47 
			79.8,307.7 89.54,101.07 150.43,128 187.89,97.26 231.17,108.44 264.08,94.32 329.62,114.41 379.95,59.47 		"/>
		<polygon class="st11" points="329.62,114.41 269.45,256.23 264.08,94.32 		"/>
		<polygon class="st11" points="231.17,108.44 204.42,233.48 187.89,97.26 		"/>
		<polygon class="st11" points="150.43,128 126.7,289.36 89.54,101.07 		"/>
		<polygon class="st11" points="67.55,386.07 170.72,366.17 110.45,352.47 		"/>
		<polygon class="st15" points="446.45,407.42 360.85,428.88 360.92,352.8 		"/>
		<polygon class="st11" points="360.92,352.8 401.15,462.83 172.61,365.77 		"/>
		<polygon class="st11" points="379.95,59.47 469.23,246.91 446.45,407.42 279.72,334.53 		"/>
	</g>
	<g class="st2">
		<path class="st9" d="M331.87,711.88l3.87-5.19c0,0,7.21,8.06,13,10.36c5.79,2.3,13.55,0.19,13.55,0.19s-5.58,13.99-15.2,10.55
			C338.58,724.75,331.87,711.88,331.87,711.88z"/>
		<path class="st8" d="M303.99,599.63c-10.7,35.54,7.58,84.24,40.84,108.78c-1.78,5.91-3.56,11.83-5.34,17.74
			c-42.42-31.31-65.74-93.43-52.09-138.77c3.53,0.75,6.57,1.88,9.49,4.03C299.49,593.35,302.09,596.35,303.99,599.63z"/>
	</g>
	<polygon class="st20" points="325.1,517.68 307.29,632.07 286.33,639.52 255.19,698.83 239.77,700.26 238.1,637.11 264.08,533.61 	
		"/>
	<polygon class="st21" points="321.07,557.69 299.14,584.06 297.61,612.81 307.29,632.07 320.57,594.88 	"/>
	<polygon class="st21" points="352.81,565.61 355.11,536.39 270.01,551.57 307.54,571.15 	"/>
	<polygon class="st21" points="397.56,502.81 363.39,527.48 392.23,527.57 	"/>
	<polygon class="st20" points="305.62,499.52 261.8,500.02 357.03,523.69 	"/>
	<polygon class="st21" points="329.36,481.04 321.07,502.51 258.52,500.48 	"/>
	<polygon class="st21" points="286.33,639.52 275.19,624.94 255.19,698.83 	"/>
	<polygon class="st22" points="372.48,497.3 354.98,497.3 356.04,500.82 	"/>
	<polygon class="st18" points="246.02,502.9 236.33,517.68 247.24,527.57 236.33,602.21 222.9,517.68 228.9,515.55 221.35,496.41 
		230.71,504.66 	"/>
</g>
<g id="Layer_6" class="st1">
	<text transform="matrix(1 0 0 1 436.188 191.7905)" class="st2"><tspan x="0" y="0" class="st3 st23">Craftsmenship</tspan><tspan x="392.2" y="148.4" class="st3 st23">in</tspan><tspan x="66.95" y="296.8" class="st3 st23">data science</tspan><tspan x="11.43" y="445.2" class="st3 st23">&amp; exploration.</tspan></text>
	<g class="st2">
		<g>
			<path class="st24" d="M398.24,710.99c0,0-38.34,40.42-134.14,40.42c-95.81,0-128.96-40.42-128.96-40.42L96.96,365.38
				c0,0,53.53-67.37,170.22-67.37c116.69,0,175.97,67.37,175.97,67.37L398.24,710.99z"/>
			<path class="st25" d="M148.59,635.46c-5.48,5.19-11.16,6.21-15.89,7.02c-9.48,1.61-86.26-46.82-86.26-46.82
				s-6.74-14.17,2.97-39.34c9.71-25.17,23.68-29.79,23.68-29.79l75.59,24.99c0,0,10.36,8.64,16.31,22.07
				C164.99,573.59,176.74,608.78,148.59,635.46z"/>
			<path class="st26" d="M445.13,362.69c0,44.27-78.23,58.82-174.74,58.82c-96.5,0-174.73-14.55-174.73-58.82
				c0-44.27,78.23-80.16,174.73-80.16C366.9,282.54,445.13,318.42,445.13,362.69z"/>
			<path class="st26" d="M76.7,568.81c-8.73,18.84-23.63,30.49-33.27,26.02c-9.64-4.47-10.38-23.37-1.64-42.21
				c8.73-18.84,23.63-30.49,33.27-26.02C84.69,531.07,85.43,549.97,76.7,568.81z"/>
			<g class="st27">
				<path class="st28" d="M70.48,565.93c-5.63,12.13-15.22,19.64-21.43,16.76c-6.21-2.88-6.68-15.05-1.06-27.18
					c5.62-12.13,15.22-19.64,21.43-16.76C75.63,541.62,76.11,553.79,70.48,565.93z"/>
				<path class="st28" d="M65.03,563.4c-2.9,6.25-7.84,10.12-11.04,8.63c-3.2-1.48-3.44-7.75-0.54-14
					c2.9-6.25,7.84-10.12,11.04-8.63C67.69,550.88,67.93,557.15,65.03,563.4z"/>
			</g>
			<g class="st29">
				<path class="st26" d="M288.36,398.07c-19.44,0-36.31-0.94-50.66-2.79l-3.16,4.88c11.68,0.76,24.75,1.17,39.37,1.17
					c33.84,0,59.41-2.21,78.58-5.82l-2.25-1.96C333.75,396.56,313.12,398.07,288.36,398.07z"/>
				<path class="st26" d="M406.22,359.03c0-32.46-59.35-58.87-132.31-58.87c-72.95,0-132.3,26.41-132.3,58.87
					c0,15.03,13.93,32.3,71.74,39.21l9.31-5.43c-29.88-6.12-44.98-17.56-44.98-34.23c0-29.5,48.62-52.6,110.69-52.6
					c62.07,0,110.69,23.11,110.69,52.6c0,12.17-8.05,21.56-24.02,28.12l3.45,1.76C399.97,380.16,406.22,369.09,406.22,359.03z"/>
				<path class="st24" d="M141.61,359.03c0-32.46,59.35-58.87,132.3-58.87c72.96,0,132.31,26.41,132.31,58.87
					c0,10.06-6.25,21.14-27.74,29.43l7.82,3.99c17.74-8.05,26.66-19.2,26.66-33.41c0-36.79-61.08-65.61-139.05-65.61
					c-77.97,0-139.04,28.82-139.04,65.61c0,22.9,23.2,37.84,69.09,44.69l9.39-5.48C155.54,391.33,141.61,374.06,141.61,359.03z"/>
				<path class="st24" d="M273.91,401.33c-14.62,0-27.69-0.41-39.37-1.17l-4.17,6.44c13.17,0.97,27.67,1.47,43.54,1.47
					c34.81,0,63.14-2.35,84.93-7.02l-6.35-5.53C333.32,399.12,307.76,401.33,273.91,401.33z"/>
				<path class="st26" d="M343.56,387.73l-2.44-2.13c-11.83,1.77-26.04,2.67-42.65,2.67c-21.9,0-39.64-1.55-53.22-4.63l-3.41,5.26
					c16.12,1.9,32.93,2.43,46.52,2.43C304.42,391.33,324.97,390.6,343.56,387.73z"/>
				<path class="st26" d="M212.44,357.07c0-23.15,37.79-41.28,86.02-41.28c48.24,0,86.03,18.13,86.03,41.28
					c0,10.37-7.26,18.18-21.69,23.39l3.93,2.01c15.07-4.92,25.57-12.45,25.57-23.89c0-24.86-47.6-45.86-103.95-45.86
					c-56.35,0-103.95,21-103.95,45.86c0,16.41,21.6,24.78,47.33,28.93l8.68-5.07C221.83,377.32,212.44,368.85,212.44,357.07z"/>
				<path class="st24" d="M288.36,391.33c-13.59,0-30.41-0.53-46.52-2.43l-4.13,6.37c14.35,1.85,31.22,2.79,50.66,2.79
					c24.76,0,45.39-1.52,61.88-4.52l-6.68-5.82C324.97,390.6,304.42,391.33,288.36,391.33z"/>
				<path class="st24" d="M184.41,358.58c0-24.86,47.6-45.86,103.95-45.86c56.35,0,103.95,21,103.95,45.86
					c0,11.44-10.5,18.97-25.57,23.89l8.29,4.23c15.97-6.56,24.02-15.94,24.02-28.12c0-29.5-48.62-52.6-110.69-52.6
					c-62.07,0-110.69,23.11-110.69,52.6c0,16.67,15.1,28.11,44.98,34.23l9.09-5.31C206.02,383.35,184.41,374.99,184.41,358.58z"/>
				<path class="st26" d="M377.76,357.07c0-18.73-36.31-34.55-79.29-34.55c-42.98,0-79.29,15.82-79.29,34.55
					c0,9.52,10.27,16.45,29.65,20.46l0.62-0.36l-0.28,0.43c12.68,2.58,29.21,3.93,49.3,3.93c13.63,0,25.61-0.62,35.88-1.83
					l-38.09-33.19l57.98,29.57C369.64,371.95,377.76,365.53,377.76,357.07z"/>
				<path class="st24" d="M298.47,381.53c-20.09,0-36.61-1.35-49.3-3.93l-3.92,6.04c13.57,3.07,31.31,4.63,53.22,4.63
					c16.61,0,30.83-0.9,42.65-2.67l-6.77-5.9C324.08,380.9,312.1,381.53,298.47,381.53z"/>
				<path class="st24" d="M219.18,357.07c0-18.73,36.31-34.55,79.29-34.55c42.98,0,79.29,15.82,79.29,34.55
					c0,8.46-8.11,14.88-23.52,19.02l8.57,4.37c14.42-5.21,21.69-13.02,21.69-23.39c0-23.15-37.79-41.28-86.03-41.28
					c-48.24,0-86.02,18.13-86.02,41.28c0,11.78,9.39,20.25,27.98,25.37l8.41-4.91C229.45,373.52,219.18,366.59,219.18,357.07z"/>
				<path class="st26" d="M222.66,392.81l-9.31,5.43c6.49,0.78,13.55,1.42,21.19,1.92l3.16-4.88
					C232.33,394.58,227.32,393.76,222.66,392.81z"/>
				<path class="st26" d="M240.42,382.44l-8.68,5.07c3.31,0.53,6.68,1,10.09,1.4l3.41-5.26
					C243.58,383.26,241.97,382.86,240.42,382.44z"/>
				<path class="st26" d="M248.83,377.53c0.11,0.02,0.23,0.05,0.34,0.07l0.28-0.43L248.83,377.53z"/>
				<path class="st30" d="M248.83,377.53c0.11,0.02,0.23,0.05,0.34,0.07l0.28-0.43L248.83,377.53z"/>
				<path class="st26" d="M350.24,393.55l2.25,1.96c10.47-1.97,19.03-4.37,25.99-7.05l-3.45-1.76
					C368.22,389.5,359.95,391.78,350.24,393.55z"/>
				<path class="st26" d="M341.12,385.6l2.44,2.13c8.31-1.28,16.23-3,23.18-5.26l-3.93-2.01
					C356.82,382.62,349.57,384.33,341.12,385.6z"/>
				<path class="st26" d="M334.35,379.7c7.58-0.89,14.23-2.1,19.89-3.61l-57.98-29.57L334.35,379.7z"/>
			</g>
			<polygon class="st31" points="249.45,377.17 187.32,413.44 201.49,555.11 221.89,419.67 			"/>
			<polygon class="st31" points="296.26,346.51 408.66,403.85 389.64,482.01 375.95,415.94 			"/>
		</g>
		<g>
			<g>
				<polygon class="st32" points="360.81,271.93 313.76,317.21 322.29,334.25 274.5,360.52 255.69,353.52 249.53,339.41 
					234.73,344.73 221.62,337.32 230.15,314.73 188.7,271.93 227.9,283.68 216.51,294.68 258.57,300.44 274.29,308.51 
					290.93,300.44 333,294.68 321.61,283.68 				"/>
				<path class="st32" d="M133.48,131.89l0.96-2.8l0.48-1.4c0.05-0.15,5.28-25.27,5.28-25.27l0.01-9.8l4.03-28.64l21.22-42.91
					l7.21,15.33l3.61,7.66c0,0,21.86,13.99,21.86,13.99l10.35,16.78l34.21-3.77l2.64-0.29l2.35,1.24l27.71,14.59v221.82l-0.2,0.1
					l-3.77-1.83l-12.87-6.24l-24.35-3.34l-17.71-2.43l11.39-11l-39.21-11.75l-31.66,7.41l-20.87,4.88l11.59-18.03l21.89-34.05
					l-22.35-10.39l-11.71-21.26l14.42-19.87l-15.58-45.93L133.48,131.89z"/>
				<path class="st32" d="M416.03,131.89l-0.96-2.8l-0.48-1.4c-0.05-0.15-5.28-25.27-5.28-25.27l-0.01-9.8l-4.03-28.64l-21.22-42.91
					l-7.21,15.33l-3.61,7.66c0,0-21.86,13.99-21.86,13.99l-10.35,16.78l-34.21-3.77l-2.64-0.29l-2.35,1.24L274.09,86.6v221.82
					l0.2,0.1l3.77-1.83l12.87-6.24l24.35-3.34l17.71-2.43l-11.39-11l39.21-11.75l31.66,7.41l20.87,4.88l-11.59-18.03l-21.89-34.05
					l22.35-10.39l11.71-21.26l-14.42-19.87l15.58-45.93L416.03,131.89z"/>
				<polygon class="st33" points="273.96,86.67 304.16,70.77 282.11,112.17 274.64,151.45 				"/>
				<polygon class="st26" points="275.54,151.45 272.32,111.72 245.35,70.76 274.86,86.67 278.23,112.08 				"/>
				<polygon class="st26" points="304.16,70.77 351.34,93.76 341.01,74.84 				"/>
				<polygon class="st26" points="405.27,63.99 401.41,108.45 416.03,131.89 410.25,104.21 				"/>
				<polygon class="st26" points="416.03,131.89 382.84,181.55 399.5,180.62 				"/>
				<polygon class="st26" points="379.86,232.14 385.1,268.52 413.34,284.22 				"/>
				<polygon class="st34" points="402.21,221.75 393.21,220.43 379.86,232.14 				"/>
				<polygon class="st26" points="413.92,200.49 396.6,200.49 402.21,221.75 				"/>
				<polygon class="st26" points="384.05,21.08 389.67,61.29 405.27,63.99 				"/>
				<polygon class="st26" points="399.5,180.62 394.66,186.99 413.92,200.49 				"/>
				<polygon class="st33" points="245.35,70.77 198.17,93.76 208.5,74.84 				"/>
				<polygon class="st33" points="144.24,63.99 148.1,108.45 133.48,131.89 139.25,104.21 				"/>
				<polygon class="st33" points="133.48,131.89 166.67,181.55 150.01,180.62 				"/>
				<polygon class="st33" points="169.65,232.14 164.41,268.52 136.17,284.22 				"/>
				<polygon class="st33" points="147.3,221.75 172.38,223.65 169.65,232.14 				"/>
				<polygon class="st33" points="135.59,200.49 152.91,200.49 147.3,221.75 				"/>
				<polygon class="st33" points="165.46,21.08 159.84,61.29 144.24,63.99 				"/>
				<polygon class="st33" points="150.01,180.62 154.85,186.99 135.59,200.49 				"/>
				<polygon class="st26" points="391.04,220.43 353.5,229.95 375.26,211.46 				"/>
				<polygon class="st26" points="379.86,232.14 372.27,262.57 360.81,271.93 				"/>
				<g>
					<polygon class="st33" points="331.51,150.89 343.19,139.99 351.1,120.25 353.67,144.76 					"/>
					<polygon class="st33" points="358.1,146.54 365.11,139.99 369.61,131.92 369.61,144.36 					"/>
					<polygon class="st33" points="302.27,150.89 313.95,139.99 321.86,120.25 324.66,145.16 					"/>
				</g>
				<polygon class="st26" points="293.62,223.85 287.73,215.46 298.94,220.71 				"/>
				<polygon class="st26" points="282.46,201.42 273.41,204.93 264.22,201.42 				"/>
				<g>
					<polyline class="st26" points="317.3,169.82 290.55,187.37 309.29,183.63 317.3,169.82 					"/>
				</g>
				<polygon class="st33" points="186.63,204.04 186.63,146.54 199.06,186.44 				"/>
				<polygon class="st33" points="274.5,247.93 186.63,204.04 247.36,221.91 				"/>
				<polygon class="st26" points="307.88,218.25 274.5,247.93 362.36,204.04 				"/>
				<polygon class="st26" points="362.36,204.04 353.53,167.53 362.36,149.19 				"/>
				<path class="st32" d="M317.3,169.82"/>
				<polygon class="st26" points="317.3,169.82 322.42,183.21 317.3,193.3 				"/>
				<polygon class="st33" points="317.3,169.82 309.29,183.63 317.3,193.3 				"/>
				<polygon class="st26" points="306.67,197.26 306.67,185.87 300.67,191.87 				"/>
				<polygon class="st33" points="295.28,197.26 300.67,191.87 295.28,185.87 				"/>
				<polygon class="st33" points="231.33,169.82 226.22,183.21 231.33,193.3 				"/>
				<polygon class="st26" points="231.33,169.82 239.34,183.63 231.33,193.3 				"/>
				<polygon class="st26" points="253.35,197.26 253.35,185.87 247.34,191.87 				"/>
				<polygon class="st33" points="241.96,197.26 247.34,191.87 241.96,185.87 				"/>
				<g>
					<polygon class="st33" points="239.34,183.63 258.08,187.37 231.33,169.82 					"/>
				</g>
				<polyline class="st26" points="258.95,215.46 253.06,223.85 258.95,223.85 258.95,215.46 				"/>
				<polygon class="st26" points="273.32,217.25 271.49,221.73 287.57,215.52 				"/>
				<polygon class="st33" points="287.57,215.52 287.73,215.46 258.95,215.46 271.42,221.75 271.49,221.73 273.32,217.25 				"/>
				<polygon class="st33" points="258.95,215.46 253.35,219.66 253.06,223.85 				"/>
				<polygon class="st26" points="199.06,186.44 199.06,198.6 186.63,204.04 				"/>
				<polygon class="st26" points="307.88,218.25 302.27,234.06 274.5,247.93 				"/>
				<polygon class="st33" points="247.36,221.91 229.64,225.53 274.5,247.93 				"/>
				<polygon class="st26" points="324.66,145.16 329.28,131.89 321.86,120.25 				"/>
				<polygon class="st26" points="353.67,144.76 357.94,131.89 351.1,120.25 				"/>
				<polygon class="st26" points="369.61,144.36 372.27,137.71 369.61,131.92 				"/>
				<g>
					<polygon class="st26" points="223.11,150.89 211.43,139.99 203.53,120.25 200.96,144.76 					"/>
					<polygon class="st26" points="196.53,146.54 189.51,139.99 185.01,131.92 185.01,144.36 					"/>
					<polygon class="st26" points="252.35,150.89 240.67,139.99 232.76,120.25 229.96,145.16 					"/>
				</g>
				<polygon class="st33" points="229.96,145.16 225.34,131.89 232.76,120.25 				"/>
				<polygon class="st33" points="200.96,144.76 196.68,131.89 203.53,120.25 				"/>
				<polygon class="st33" points="185.01,144.36 182.35,137.71 185.01,131.92 				"/>
				<polygon class="st26" points="359.72,233.91 295.85,245.24 274.56,259.44 				"/>
				<polygon class="st26" points="359.72,242.69 301.85,254.54 274.56,268.21 				"/>
				<polygon class="st26" points="359.72,251.47 302.07,262.07 274.56,276.99 				"/>
				<polygon class="st26" points="357.95,260.78 303.67,271.93 295.85,279.39 				"/>
				<polygon class="st33" points="273,259.01 247.83,243.59 189.27,233.91 				"/>
				<polygon class="st33" points="274.56,268.21 245.35,254.16 186.63,242.69 				"/>
				<polygon class="st33" points="189.27,251.47 253.6,265.88 274.56,276.99 				"/>
				<polygon class="st33" points="253.14,279.39 244.71,273 191.04,260.78 				"/>
				<polygon class="st26" points="360.81,271.93 313.76,317.21 274.5,360.52 280.81,330.35 274.29,308.51 290.93,300.44 333,294.68 
					321.61,283.68 				"/>
				<polygon class="st26" points="360.81,271.93 313.76,317.21 321.09,332.4 335.16,343.9 304.52,346.59 274.5,360.52 
					279.37,335.83 277.42,323.92 253.26,308.63 216.51,294.68 258.57,300.44 274.29,308.51 290.93,300.44 333,294.68 321.61,283.68 
									"/>
				<polygon class="st32" points="304.52,346.59 321.09,330.3 278.83,338.56 				"/>
				<polygon class="st26" points="249.53,339.41 279.37,335.83 277.42,323.92 230.44,315.17 				"/>
				<polygon class="st26" points="136.17,284.22 164.41,268.52 188.7,271.93 				"/>
				<polygon class="st26" points="274.29,308.51 274.5,282.09 290.93,300.44 				"/>
				<polygon class="st26" points="333,294.68 274.5,282.09 321.61,283.68 				"/>
				<polygon class="st32" points="321.61,283.68 360.81,271.93 333,294.68 				"/>
				<polygon class="st33" points="290.93,300.44 274.29,308.51 277.42,323.92 				"/>
				<polygon class="st32" points="277.42,323.92 314.22,316.62 290.93,300.44 				"/>
				<polygon class="st32" points="255.69,353.52 266.99,357.66 249.53,339.41 				"/>
				<polygon class="st32" points="221.62,337.32 230.44,315.17 234.73,344.73 				"/>
				<polygon class="st33" points="278.83,338.56 285.16,354.66 304.52,346.59 				"/>
				<polygon class="st32" points="285.16,354.66 302.23,357.66 304.52,346.59 				"/>
				<polygon class="st32" points="335.16,341.8 321.35,331.86 327.36,352.12 				"/>
				<polygon class="st32" points="221.62,337.32 204.45,344.73 234.73,344.73 				"/>
				<polygon class="st26" points="234.73,344.73 238.61,362.54 255.69,353.52 249.53,339.41 				"/>
				<polygon class="st26" points="328.42,303.11 321.09,332.4 313.76,317.21 				"/>
				<polygon class="st32" points="230.44,315.17 253.26,308.63 210.1,304.05 				"/>
				<polygon class="st33" points="205.69,289.48 214.59,316.22 185.6,338.65 221.62,337.32 230.44,315.17 				"/>
				<polygon class="st33" points="277.42,323.92 313.76,317.21 278.83,338.56 				"/>
			</g>
			<polygon class="st26" points="198.15,58.05 198.17,93.76 208.5,74.84 			"/>
			<polygon class="st26" points="165.46,21.08 176.28,44.07 172.38,58.05 			"/>
			<polygon class="st33" points="384.05,21.08 377.81,55.52 373.23,44.07 			"/>
			<polygon class="st33" points="351.36,58.05 351.34,93.76 341.01,74.84 			"/>
			<polygon class="st26" points="159.84,61.29 148.1,108.45 166.67,74.15 			"/>
			<polygon class="st26" points="148.1,108.45 166.67,181.55 169.65,132.7 			"/>
			<polygon class="st26" points="152.91,200.49 172.38,223.65 170.87,204.93 			"/>
			<polygon class="st33" points="317.3,169.82 297.98,177.8 290.55,187.37 			"/>
			<polygon class="st26" points="231.33,169.82 250.84,178.59 258.08,187.37 			"/>
			<polygon class="st33" points="360.81,271.93 385.1,268.52 413.34,284.22 			"/>
			<polygon class="st33" points="188.7,271.93 247.35,288.4 216.65,294.38 			"/>
			<polygon class="st33" points="259.52,299.51 274.5,282.09 245.51,288.4 			"/>
			<polygon class="st33" points="279.37,335.83 255.69,353.52 249.53,339.41 			"/>
			<polygon class="st32" points="230.44,315.17 214.59,316.22 221.62,337.32 			"/>
			<polygon class="st26" points="230.44,315.17 221.62,337.32 231.91,343.14 249.53,339.41 			"/>
			<polygon class="st32" points="279.37,335.83 230.44,315.17 249.53,339.41 			"/>
		</g>
	</g>
</g>
<g id="Layer_6_copy_2" class="st1">
	<text transform="matrix(1 0 0 1 836.0306 318.2559)" class="st2"><tspan x="0" y="0" class="st3 st35">Hallo. </tspan><tspan x="-323.09" y="210.4" class="st3 st35">I’m Ludwig.</tspan></text>
	<g class="st2">
		<polygon points="187.38,601.77 189.59,575.59 180.5,574.97 183.07,601.48 		"/>
	</g>
	<g class="st2">
		<polygon points="359.64,601.77 357.43,575.59 366.52,574.97 363.95,601.48 		"/>
	</g>
	<polygon class="st2" points="186.02,463.57 174.79,585.08 182.09,585.62 185.76,582.83 188.73,586.12 200,586.96 211.22,465.46 	
		"/>
	<polygon class="st2" points="361.25,463.57 372.47,585.08 365.17,585.62 361.5,582.83 358.54,586.12 347.26,586.96 336.04,465.46 	
		"/>
	<polygon class="st36" points="335.74,604.06 211.11,604.06 184.35,346.17 362.5,346.17 	"/>
	<polygon class="st2" points="300.65,665.62 279.59,666.74 273.33,631.74 266.97,666.76 246.02,665.62 250.16,649.41 241.04,633.04 
		219.37,600.72 327.47,600.39 305.47,634.05 296.38,649.72 	"/>
	<polygon class="st37" points="315.39,596.97 231.46,596.97 199.21,315.16 347.64,315.16 	"/>
	<polygon class="st37" points="291.36,606.99 255.49,606.99 223.24,329.05 323.61,329.05 	"/>
	<g class="st2">
		<polygon points="235.22,678.27 264.49,678.27 264.49,661.73 235.22,670.43 		"/>
		<polygon points="282.36,661.73 282.36,678.27 311.63,678.27 311.63,670.43 		"/>
	</g>
	<rect x="266.2" y="531.6" class="st2" width="12.56" height="11.29"/>
	<rect x="266.2" y="552.62" class="st2" width="12.56" height="11.29"/>
	<rect x="266.2" y="573.65" class="st2" width="12.56" height="11.29"/>
	<g class="st2">
		<g>
			<path d="M254.66,524.42l-40.16-5.39l12.33-11.91l-56.57-16.96l-51.56,12.06l36.12-56.18c-4.27-1.16-9.1-2.88-13.86-5.41
				c-14.68-7.84-23.91-21.39-24.91-22.91l-3.94-5.98l17.6-24.25l-20.35-60l2.21-4c0.06-0.12,9.25-17.76,5.88-41.99
				c-4.52-32.58,14.96-56.73,15.78-57.74l11.02-13.43l6.57,16.08c0.03,0.06,5.14,11.83,14.74,15.67
				c11.75,4.69,20.73,15.96,25.83,23.8l45.33-5l36.2,19.51l37.05-19.5l45.37,5c3.94-5.64,11.07-14.04,22.29-21.12
				c13.16-8.29,18.38-18.79,18.43-18.89l8.59-18.24l9.82,17.67c0.46,0.84,4.68,8.54,8.52,19.01c5.19,14.12,7.3,26.5,6.25,36.81
				c-1.9,18.83,6.48,43.78,6.56,44.03l1.14,3.33l-20.02,58.99l16.98,23.4l-2.6,5.53c-0.74,1.56-7.7,15.41-27.5,24.16
				c-4.34,1.92-8.5,3.51-12.45,4.78l36.56,56.88l-51.56-12.06l-56.57,16.96l12.28,11.86l-40.42,5.54l-18.34,8.9L254.66,524.42z"/>
			<path d="M405.04,218.99l4.91,8.83c0.67,1.21,16.45,29.92,14.15,52.78c-2.03,20.1,6.73,45.96,6.82,46.22l0.57,1.67l-20.3,59.86
				l16.76,23.09l-1.29,2.76c-0.26,0.54-6.48,13.48-24.9,21.63c-7.85,3.47-14.04,5.36-18.52,6.39l33.46,52.05l-40.46-9.47
				l-66.36,19.89l10.98,10.59l-30.67,4.2l-16.83,8.16l-17.18-8.27l-30.38-4.07l11-10.63l-66.36-19.89l-40.46,9.47l33.24-51.7
				c-5.46-0.9-12.73-2.75-19.81-6.52c-13.81-7.36-22.65-20.62-23.03-21.19l-1.98-2.98l17.07-23.52L115.02,328l1.11-2
				c0.09-0.18,10.11-18.96,6.47-45.2c-4.21-30.35,13.88-52.81,14.66-53.75l5.51-6.72l3.28,8.03c0.05,0.13,5.85,13.82,17.62,18.51
				c12.17,4.86,21.37,18.33,25.08,24.5l46.96-5.18l37.21,20.06L311,266.19l46.93,5.18c3.06-4.92,10.09-14.43,22.47-22.23
				c14.67-9.23,20.28-20.92,20.34-21.04L405.04,218.99 M404.27,196.29l-8.6,18.29l-4.26,9.04c-0.3,0.58-5.1,9.58-16.53,16.78
				c-10.38,6.53-17.49,14.17-21.94,20.02l-40.81-4.49l-3.15-0.35l-2.8,1.47l-33.22,17.49l-32.35-17.43l-2.84-1.54l-3.2,0.35
				l-40.62,4.48c-5.7-8.16-14.75-18.46-26.46-23.13c-6.21-2.48-10.68-10.1-11.91-12.9l-3.24-7.94l-6.57-16.08l-11.02,13.43
				l-5.51,6.72c-2.23,2.71-21.65,27.53-16.91,61.73c3.03,21.88-4.89,38-5.35,38.89l-1.05,1.89l-2.21,4l1.47,4.33l18.75,55.29
				l-13.92,19.19l-4.21,5.8l3.94,5.98l1.98,2.98c1.07,1.63,10.98,16.2,26.8,24.63c2.63,1.41,5.41,2.65,8.29,3.73l-25.56,39.75
				l-13.82,21.5l24.89-5.82l37.76-8.83l46.76,14.01l-13.68,13.2l21.22,2.84l28.75,3.85l15.69,7.56l4.51,2.17l4.51-2.18l15.34-7.45
				l29.05-3.98l21.13-2.89l-13.59-13.12l46.76-14.01l37.76,8.83l24.89,5.82l-13.82-21.5l-26.11-40.62c2.17-0.83,4.39-1.74,6.65-2.75
				c21.54-9.53,29.28-24.98,30.09-26.71l1.29-2.76l2.6-5.53l-3.59-4.95l-13.61-18.75l18.58-54.8l1.14-3.34l-1.14-3.33l-0.57-1.67
				c-0.08-0.22-8.1-24.16-6.32-41.83c2.58-25.6-13.56-55.52-15.41-58.85l-4.91-8.83L404.27,196.29L404.27,196.29z"/>
		</g>
		<polyline class="st38" points="169.79,411.88 169.79,479.35 272.88,510.25 375.98,479.35 375.98,411.88 		"/>
		<polygon class="st39" points="272.88,521.91 288.21,514.47 309.13,511.61 285.86,489.14 272.88,466.66 259.91,489.14 
			236.63,511.61 257.21,514.37 		"/>
		<polyline class="st40" points="263.17,504.07 257.21,514.37 272.88,521.91 288.21,514.47 282.35,504.08 		"/>
		<polyline class="st41" points="169.79,399.52 169.79,466.99 272.88,497.89 375.98,466.99 375.98,399.52 		"/>
		<polyline class="st41" points="169.79,389.23 169.79,456.69 272.88,487.59 375.98,456.69 375.98,389.23 		"/>
		<polyline class="st41" points="169.79,378.92 169.79,446.39 272.88,477.29 375.98,446.39 375.98,378.92 		"/>
		<polyline class="st41" points="169.79,368.63 169.79,436.1 272.88,466.99 375.98,436.1 375.98,368.63 		"/>
		<path class="st39" d="M311.56,271.54l48.74,5.37c0,0,6.29-13.21,22.41-23.36c16.12-10.15,22.26-19.09,22.26-19.09
			s15.69,24.12,13.53,45.63c-2.17,21.5,7.06,48.42,7.06,48.42l-20.6,60.72l16.54,22.79c0,0-5.45,11.64-22.3,19.09
			c-16.85,7.46-25.13,7.15-25.13,7.15l30.9,48.06l-132.09-30.9l-132.09,30.9l30.89-48.06c0,0-13.5,0.05-26.31-6.77
			c-12.8-6.83-21.13-19.48-21.13-19.48l16.54-22.79l-20.6-60.72c0,0,11.02-19.97,7.06-48.42c-3.95-28.45,13.53-49.75,13.53-49.75
			s6.44,15.76,20.5,21.36c14.05,5.6,24.19,25.21,24.19,25.21l48.74-5.37l38.21,20.6L311.56,271.54z"/>
		<g>
			<polyline class="st38" points="169.79,349.05 169.79,416.53 272.88,468.02 375.98,416.53 375.98,349.05 			"/>
			<g>
				<g>
					<polyline class="st38" points="362.77,318.21 353.48,341.37 339.78,354.16 					"/>
					<polyline class="st38" points="384.49,331.9 379.21,341.37 370.98,349.05 					"/>
					<polyline class="st38" points="328.46,318.21 319.18,341.37 305.48,354.16 					"/>
				</g>
				<g>
					<polyline class="st38" points="183.01,318.21 192.29,341.37 205.99,354.16 					"/>
					<polyline class="st38" points="161.28,331.9 166.57,341.37 174.79,349.05 					"/>
					<polyline class="st38" points="217.31,318.21 226.59,341.37 240.3,354.16 					"/>
				</g>
			</g>
		</g>
		<line class="st42" x1="272.88" y1="290.38" x2="272.88" y2="342.52"/>
		<polyline class="st43" points="255.48,435.9 271.43,444.13 271.63,444.13 287.58,435.9 		"/>
		<polyline class="st39" points="260.83,413.44 271.61,416.27 282.23,413.44 		"/>
		<polyline class="st39" points="251.34,404.71 226.41,384.11 226.09,394.38 		"/>
		<polygon points="232.42,395.21 245.77,401.66 245.77,408.56 232.42,408.56 		"/>
		<polyline class="st39" points="291.72,404.71 316.65,384.11 316.97,394.38 		"/>
		<polygon points="297.28,401.66 310.63,395.21 310.63,408.56 297.28,408.56 		"/>
	</g>
</g>
<g id="Layer_6_copy_3">
	<g>
		<path d="M739.82,218.98h20.44v42.05h42.48v-42.05h20.44v99.28h-20.44v-38.98h-42.48v38.98h-20.44V218.98z"/>
		<path d="M839.39,233.29c0-7.15,5.84-12.26,12.56-12.26s12.41,5.11,12.41,12.26c0,7.3-5.69,12.41-12.41,12.41
			S839.39,240.59,839.39,233.29z M842.02,256.06h19.71v62.19h-19.71V256.06z"/>
		<path d="M910.2,212.85h19.71v53c3.79-7.15,10.66-11.1,19.27-11.1c13.58,0,23.36,9.93,23.36,27.59v35.92h-19.71v-34.6
			c0-7.01-3.36-10.95-10.37-10.95c-7.88,0-12.55,4.38-12.55,12.26v33.29H910.2V212.85z"/>
		<path d="M985.68,233.29c0-7.15,5.84-12.26,12.56-12.26s12.41,5.11,12.41,12.26c0,7.3-5.69,12.41-12.41,12.41
			S985.68,240.59,985.68,233.29z M988.31,256.06h19.71v62.19h-19.71V256.06z"/>
		<path d="M1056.49,212.85h19.71v53c3.8-7.15,10.66-11.1,19.27-11.1c13.58,0,23.36,9.93,23.36,27.59v35.92h-19.71v-34.6
			c0-7.01-3.36-10.95-10.37-10.95c-7.88,0-12.56,4.38-12.56,12.26v33.29h-19.71V212.85z"/>
		<path d="M1131.97,233.29c0-7.15,5.84-12.26,12.56-12.26s12.41,5.11,12.41,12.26c0,7.3-5.69,12.41-12.41,12.41
			S1131.97,240.59,1131.97,233.29z M1134.6,256.06h19.71v62.19h-19.71V256.06z"/>
		<path d="M1168.61,306.72c0-7.15,5.69-12.26,12.41-12.26c6.57,0,12.26,5.11,12.26,12.26c0,7.3-5.69,12.41-12.26,12.41
			C1174.31,319.13,1168.61,314.02,1168.61,306.72z"/>
		<path d="M589.88,429.38h20.44v99.28h-20.44V429.38z"/>
		<path d="M633.38,450.69c-3.5-1.61-6.57-5.55-6.57-10.66c0-6.72,5.55-11.68,11.68-11.68c6.42,0,11.97,4.96,11.97,11.53
			c0,4.53-1.75,8.03-4.38,12.56l-8.76,14.89h-9.49L633.38,450.69z"/>
		<path d="M660.39,466.46h19.71l-0.44,9.64c4.38-7.59,10.22-10.95,17.67-10.95c8.03,0,13.72,3.36,17.52,10.66
			c5.11-6.42,11.97-10.66,21.17-10.66c15.62,0,24.67,10.37,24.67,27.45v36.06h-19.56v-34.31c0-7.3-2.34-11.24-9.78-11.24
			c-7.59,0-10.95,3.8-10.95,12.26v33.29h-19.56v-34.31c0-7.3-2.19-11.24-9.64-11.24c-7.59,0-11.1,3.8-11.1,12.26v33.29h-19.71
			V466.46z"/>
		<path d="M810.62,429.38h30.51c30.51,0,52.27,20.29,52.27,49.64c0,29.34-21.61,49.64-52.27,49.64h-30.51V429.38z M840.11,510.7
			c22.04,0,32.12-13.14,32.12-31.68s-10.07-31.68-32.12-31.68h-9.05v63.36H840.11z"/>
		<path d="M908,466.46h19.71l-0.29,11.24c4.53-10.22,11.83-12.56,18.25-12.56c4.09,0,7.15,1.17,9.63,2.48l-6.28,17.96
			c-2.48-1.17-4.82-1.9-7.59-1.9c-8.91,0-13.72,4.09-13.72,17.37v27.59H908V466.46z"/>
		<path d="M960.86,497.71c0-18.98,15.04-32.56,34.31-32.56s34.16,13.58,34.16,32.56c0,18.83-14.89,32.26-34.16,32.26
			S960.86,516.54,960.86,497.71z M1009.18,497.71c0-9.34-5.26-15.62-14.02-15.62S981,488.36,981,497.71c0,9.2,5.4,15.62,14.16,15.62
			S1009.18,506.9,1009.18,497.71z"/>
		<path d="M1040.43,497.71c0-18.98,15.04-32.56,34.31-32.56s34.16,13.58,34.16,32.56c0,18.83-14.89,32.26-34.16,32.26
			S1040.43,516.54,1040.43,497.71z M1088.75,497.71c0-9.34-5.26-15.62-14.02-15.62s-14.16,6.28-14.16,15.62
			c0,9.2,5.4,15.62,14.16,15.62S1088.75,506.9,1088.75,497.71z"/>
		<path d="M1120.58,545.74l13.87-10.8c4.38,5.4,9.49,9.63,18.39,9.63c9.05,0,14.75-5.4,14.75-16.79v-7.45
			c-3.36,5.69-9.78,9.63-19.27,9.63c-15.18,0-28.18-13.43-28.18-32.56s12.85-32.27,27.89-32.27c9.93,0,16.35,4.38,20,10.95
			l-0.44-9.64h19.71v62.05c0,23.65-15.47,32.56-33.58,32.56C1137.22,561.07,1127.59,555.23,1120.58,545.74z M1168.03,497.41
			c0-9.2-5.55-14.89-14.02-14.89c-8.32,0-13.58,5.69-13.58,14.89c0,9.78,5.26,15.33,13.58,15.33
			C1162.48,512.74,1168.03,507.19,1168.03,497.41z"/>
		<path d="M1200.88,517.12c0-7.15,5.69-12.26,12.41-12.26c6.57,0,12.26,5.11,12.26,12.26c0,7.3-5.69,12.41-12.26,12.41
			C1206.57,529.53,1200.88,524.42,1200.88,517.12z"/>
	</g>
	<g>
		<g>
			<g>
				<path d="M360.86,612.22c-2.13,0.15-4.46-6.28-5.18-14.29c-0.72-8.01,2.37-14.83,6.87-15.15s6.83,6.11,5.18,14.29
					C366.08,605.26,362.99,612.07,360.86,612.22z"/>
			</g>
		</g>
	</g>
	<g>
		<g>
			<g>
				<path d="M185.23,612.22c2.13,0.15,4.46-6.28,5.18-14.29c0.72-8.01-2.37-14.83-6.87-15.15s-6.83,6.11-5.18,14.29
					C180.01,605.26,183.1,612.07,185.23,612.22z"/>
			</g>
		</g>
	</g>
	<g>
		<g>
			<polygon class="st44" points="361.25,463.57 350.23,464.4 362.5,346.17 184.35,346.17 196.62,464.37 186.02,463.57 
				174.79,585.08 182.09,585.62 185.76,582.83 188.73,586.12 200,586.96 204.4,539.36 211.11,604.06 335.74,604.06 342.67,537.24 
				347.26,586.96 358.54,586.12 361.5,582.83 365.17,585.62 372.47,585.08 			"/>
		</g>
		<g>
			<polygon class="st45" points="361.25,463.57 350.23,464.4 362.5,346.17 184.35,346.17 196.62,464.37 186.02,463.57 
				174.79,585.08 182.09,585.62 185.76,582.83 188.73,586.12 200,586.96 204.4,539.36 211.11,604.06 335.74,604.06 342.67,537.24 
				347.26,586.96 358.54,586.12 361.5,582.83 365.17,585.62 372.47,585.08 			"/>
		</g>
	</g>
	<polygon class="st39" points="300.65,665.62 279.59,666.74 273.33,631.74 266.97,666.76 246.02,665.62 250.16,649.41 
		241.04,633.04 219.37,600.72 327.47,600.39 305.47,634.05 296.38,649.72 	"/>
	<polygon class="st39" points="315.39,596.97 231.46,596.97 199.21,315.16 347.64,315.16 	"/>
	<g>
		<path class="st44" d="M323.02,616.75c-11.39,8.65-32.41,15.72-46.71,15.72h-5.78c-14.3,0-35.32-7.07-46.71-15.72l-10.53-7.99
			c-11.39-8.65-9.01-15.72,5.29-15.72h109.66c14.3,0,16.68,7.07,5.29,15.72L323.02,616.75z"/>
		<path class="st43" d="M323.02,616.75c-11.39,8.65-32.41,15.72-46.71,15.72h-5.78c-14.3,0-35.32-7.07-46.71-15.72l-10.53-7.99
			c-11.39-8.65-9.01-15.72,5.29-15.72h109.66c14.3,0,16.68,7.07,5.29,15.72L323.02,616.75z"/>
	</g>
	<g>
		<g>
			<g>
				<path d="M235.22,674.35c0,2.15,6.59,3.92,14.63,3.92s14.63-3.72,14.63-8.27c0-4.55-6.59-6.31-14.63-3.92
					S235.22,672.19,235.22,674.35z"/>
			</g>
			<g>
				<path d="M296.99,666.08c-8.05-2.39-14.63-0.63-14.63,3.92c0,4.55,6.59,8.27,14.63,8.27s14.63-1.76,14.63-3.92
					C311.63,672.19,305.04,668.47,296.99,666.08z"/>
			</g>
		</g>
	</g>
	<rect x="266.2" y="531.6" width="12.56" height="11.29"/>
	<rect x="266.2" y="552.62" width="12.56" height="11.29"/>
	<rect x="266.2" y="573.65" width="12.56" height="11.29"/>
	<g>
		<path class="st44" d="M275.97,513.56c-39.2,0-76.2-12.3-104-34.6c-28.5-22.8-44.2-53.4-44.2-86c0-32.6,15.7-63.2,44.2-86
			c27.9-22.3,64.8-34.6,104-34.6s76.2,12.3,104,34.6c28.5,22.8,44.2,53.4,44.2,86c0,32.6-15.7,63.2-44.2,86
			C352.17,501.26,315.17,513.56,275.97,513.56z"/>
		<path d="M275.97,281.76c76.6,0,138.7,49.8,138.7,111.1s-62,111.2-138.7,111.2s-138.7-49.8-138.7-111.2
			S199.37,281.76,275.97,281.76 M275.97,262.76c-41.4,0-80.4,13-110,36.7c-14.8,11.8-26.4,25.7-34.7,41.3
			c-8.7,16.5-13.1,34-13.1,52.1c0,18.1,4.4,35.7,13.1,52.1c8.2,15.5,19.9,29.4,34.7,41.3c29.6,23.7,68.6,36.7,110,36.7
			s80.4-13,110-36.7c14.8-11.8,26.4-25.7,34.7-41.3c8.7-16.5,13.1-34,13.1-52.1c0-18.1-4.4-35.7-13.1-52.1
			c-8.2-15.5-19.9-29.4-34.7-41.3C356.47,275.86,317.37,262.76,275.97,262.76L275.97,262.76z"/>
	</g>
	<g>
		<g>
			<path class="st44" d="M290.37,482.96c-4.5,2.6-9.7,4-15.3,4c-5.5,0-10.7-1.4-15.2-4"/>
			<path d="M275.07,491.36c-6.1,0-12.1-1.6-17.3-4.5c-2.1-1.2-2.8-3.9-1.7-6c1.2-2.1,3.9-2.9,6-1.7c3.9,2.2,8.4,3.4,13,3.4
				s9.1-1.2,13.1-3.5c2.1-1.2,4.8-0.5,6,1.6c1.2,2.1,0.5,4.8-1.6,6C287.27,489.76,281.17,491.36,275.07,491.36z"/>
		</g>
		<g>
			<g>
				<path class="st44" d="M299.17,489.76c-2.5-2-4.7-4.4-6.5-7.2c-1.7-2.6-3-5.4-3.8-8.3"/>
				<path d="M299.17,494.16c-1,0-1.9-0.3-2.7-1c-2.9-2.3-5.4-5.1-7.4-8.3c-1.9-2.9-3.4-6.1-4.3-9.5c-0.7-2.3,0.7-4.8,3-5.4
					c2.3-0.7,4.8,0.7,5.4,3c0.7,2.5,1.8,4.9,3.3,7.1c1.5,2.4,3.4,4.5,5.6,6.2c1.9,1.5,2.2,4.3,0.7,6.2
					C301.67,493.56,300.37,494.16,299.17,494.16z"/>
			</g>
			<g>
				<path class="st44" d="M251.17,489.76c2.5-2,4.7-4.4,6.5-7.2c1.7-2.6,3-5.4,3.8-8.3"/>
				<path d="M251.17,494.16c-1.3,0-2.5-0.6-3.4-1.6c-1.5-1.9-1.2-4.6,0.7-6.2c2.2-1.8,4.1-3.8,5.6-6.2c1.4-2.2,2.5-4.6,3.3-7.1
					c0.7-2.3,3.1-3.7,5.4-3c2.3,0.7,3.7,3.1,3,5.4c-1,3.3-2.4,6.5-4.3,9.5c-2,3.1-4.5,5.9-7.4,8.3
					C253.07,493.76,252.07,494.16,251.17,494.16z"/>
			</g>
		</g>
	</g>
	<g>
		<path class="st44" d="M405.87,435.06c4.1,4.3,10.7,5.7,16.3,3c7.1-3.4,10.1-11.8,6.8-18.9c-3.4-7.1-11.8-10.1-18.9-6.8
			c-1.5,0.7-2.9,1.7-4,2.8"/>
		<path d="M416.17,444.96c-5.2,0-10.4-2.1-14.2-6.1c-2.1-2.2-2-5.7,0.1-7.8c2.2-2.1,5.7-2,7.8,0.1c2.6,2.7,6.6,3.4,10,1.8
			c4.3-2.1,6.2-7.3,4.2-11.6c-1-2.1-2.8-3.7-4.9-4.5c-2.2-0.8-4.6-0.7-6.7,0.3c-0.9,0.4-1.7,1-2.4,1.7c-2.1,2.2-5.6,2.2-7.8,0
			c-2.2-2.1-2.2-5.6,0-7.8c1.6-1.6,3.5-2.9,5.5-3.9c4.8-2.3,10.1-2.5,15.1-0.7c5,1.8,8.9,5.4,11.2,10.1c4.7,9.8,0.4,21.6-9.4,26.3
			C421.87,444.36,418.97,444.96,416.17,444.96z"/>
	</g>
	<g>
		<path class="st44" d="M145.87,435.06c-4.1,4.3-10.7,5.7-16.3,3c-7.1-3.4-10.1-11.8-6.8-18.9c3.4-7.1,11.8-10.1,18.9-6.8
			c1.5,0.7,2.9,1.7,4,2.8"/>
		<path d="M135.67,444.96c-2.9,0-5.7-0.6-8.4-1.9c-9.8-4.7-14.1-16.4-9.4-26.3c2.3-4.8,6.2-8.4,11.2-10.1c5-1.8,10.3-1.5,15.1,0.7
			c2.1,1,3.9,2.3,5.5,3.9c2.2,2.2,2.1,5.6,0,7.8c-2.2,2.2-5.6,2.1-7.8,0c-0.7-0.7-1.5-1.3-2.4-1.7c-2.1-1-4.5-1.1-6.7-0.3
			c-2.2,0.8-3.9,2.4-4.9,4.5c-2.1,4.3-0.2,9.6,4.2,11.6c3.4,1.6,7.4,0.9,10-1.8c2.1-2.2,5.6-2.3,7.8-0.1c2.2,2.1,2.3,5.6,0.1,7.8
			C146.07,442.86,140.87,444.96,135.67,444.96z"/>
	</g>
	<g>
		<path d="M409.57,244.06"/>
	</g>
	<g>
		<g>
			<g>
				<path class="st46" d="M231.67,449.96c2-7.3,3.6-14.3,4.8-20.9c-3.8,0.4-7.7,0.7-11.6,0.9
					C226.67,437.06,228.97,443.66,231.67,449.96z"/>
			</g>
			<g>
				<path class="st46" d="M208.87,452.56c5.3-8.2,9.9-15.9,13.7-22.9c-3.7-0.5-7.4-1.1-11-1.9
					C210.67,436.06,209.77,444.26,208.87,452.56z"/>
			</g>
			<g>
				<path class="st46" d="M186.37,445.76c9-6.8,17.1-13,24.1-18.5c-2.7-2.2-5.2-4.7-7.5-7.3
					C198.17,427.96,192.67,436.56,186.37,445.76z"/>
			</g>
			<g>
				<path class="st46" d="M250.97,438.16c-1.5-5.7-3-11.3-4.6-16.9c-3.5,0.9-7.1,1.9-10.7,2.8
					C240.07,429.56,245.17,434.26,250.97,438.16z"/>
			</g>
		</g>
		<g>
			<path class="st46" d="M154.97,402.56c14.3,6.1,29.6,8.6,44.8,7.6c-3.3-4.7-6.5-9.5-9.7-14.4
				C178.87,400.16,166.97,402.46,154.97,402.56z"/>
		</g>
		<g>
			<g>
				<path class="st46" d="M180.07,337.96c4.7,11,10.3,21.1,16.5,30.3c1-5.6,2.6-11,4.6-16.2
					C194.27,348.06,187.17,343.36,180.07,337.96z"/>
			</g>
			<g>
				<path class="st46" d="M165.47,358.96c7.6,8.8,16.1,16.2,25.1,22.3c-0.5-5.2-0.7-10.5-0.4-15.8
					C182.27,364.06,173.97,361.96,165.47,358.96z"/>
			</g>
			<g>
				<path class="st46" d="M159.67,377.26c8.3,8.2,18,14.5,28.5,18.8c-0.9-4.4-1.8-8.9-2.4-13.4
					C177.07,382.06,168.37,380.36,159.67,377.26z"/>
			</g>
			<g>
				<path class="st46" d="M257.17,375.66c4.7-4.8,8.6-10.4,11.7-16.6c-5.2,1.3-10.5,2.1-16,2.5
					C254.27,366.26,255.67,370.96,257.17,375.66z"/>
			</g>
			<g>
				<path class="st46" d="M227.27,355.86c0.8-6.9,2.6-13.7,5.4-20.1c2.1,5.3,4.7,10.4,7.7,15.4
					C235.97,352.76,231.67,354.26,227.27,355.86z"/>
			</g>
			<g>
				<path class="st46" d="M239.87,361.16c1.7-6.7,4.4-13.1,8-19c1.4,5.6,3.3,11.1,5.6,16.4
					C248.97,359.46,244.47,360.26,239.87,361.16z"/>
			</g>
			<g>
				<path class="st46" d="M167.17,428.06c10.3-9.9,22.4-17.2,35.4-21.4c-1.4,5.1-2.8,10.2-4.1,15.3
					C187.97,422.16,177.37,424.16,167.17,428.06z"/>
			</g>
			<g>
				<path class="st46" d="M198.57,330.16c9.2,5.9,17.5,12.3,25,19c-5.7,0.6-11.3,1.8-16.7,3.6
					C204.47,345.26,201.67,337.76,198.57,330.16z"/>
			</g>
		</g>
	</g>
	<g>
		<g>
			<g>
				<g>
					<g>
						<path class="st44" d="M218.27,446.46c-26.5,0-48-21.5-48-48s21.5-48,48-48s48,21.5,48,48S244.77,446.46,218.27,446.46z"/>
						<path d="M218.27,355.96c23.4,0,42.5,19.1,42.5,42.5c0,23.4-19.1,42.5-42.5,42.5s-42.5-19.1-42.5-42.5
							C175.77,375.06,194.87,355.96,218.27,355.96 M218.27,344.96c-29.5,0-53.5,24-53.5,53.5s24,53.5,53.5,53.5
							c14.3,0,27.7-5.6,37.8-15.7c10.1-10.1,15.7-23.6,15.7-37.8C271.87,368.96,247.87,344.96,218.27,344.96L218.27,344.96z"/>
					</g>
				</g>
			</g>
			<g>
				<ellipse cx="218.32" cy="398.49" rx="20.5" ry="20.5"/>
			</g>
			<g>
				<g>
					<ellipse class="st44" cx="206.08" cy="405.15" rx="10.7" ry="10.7"/>
				</g>
				<g>
					<circle class="st44" cx="220.57" cy="408.46" r="6"/>
				</g>
			</g>
		</g>
	</g>
	<g>
		<g>
			<path d="M349.17,285.96c-8.4,12.8-30,29.7-72,29.7s-67.7-15.1-76.7-28.9c-4.7-7.2-8.7-20.5,3.4-28.4
				c12.1-7.9,69.2,11.4,69.2,11.4s49.7-7.5,69.2-11.4C361.97,254.36,357.57,273.16,349.17,285.96z"/>
		</g>
		<g>
			<path d="M334.47,274.66c0,0-29.6,17.1-58.4,17.1c-28.9,0-56.9-17.1-56.9-17.1s-8.8-45.2,0-63.6c8.8-18.4,37.7-22.8,57.7-22.8
				s51.4,6.6,57.7,22.8c6.2,16.2-2.1,36.4-2.1,46.8C332.37,268.26,334.47,274.66,334.47,274.66z"/>
		</g>
	</g>
	<g>
		<g>
			<g>
				<g>
					<path class="st44" d="M336.17,446.46c-26.5,0-48-21.5-48-48s21.5-48,48-48s48,21.5,48,48S362.57,446.46,336.17,446.46z"/>
					<path d="M336.17,355.96c23.4,0,42.5,19.1,42.5,42.5c0,23.4-19.1,42.5-42.5,42.5s-42.5-19.1-42.5-42.5
						C293.57,375.06,312.67,355.96,336.17,355.96 M336.17,344.96c-29.5,0-53.5,24-53.5,53.5s24,53.5,53.5,53.5
						c14.3,0,27.7-5.6,37.8-15.7c10.1-10.1,15.7-23.6,15.7-37.8C389.67,368.96,365.67,344.96,336.17,344.96L336.17,344.96z"/>
				</g>
			</g>
		</g>
		<g>
			<ellipse cx="336.15" cy="398.42" rx="20.5" ry="20.5"/>
		</g>
		<g>
			<g>
				<ellipse class="st44" cx="323.88" cy="405.15" rx="10.7" ry="10.7"/>
			</g>
			<g>
				<circle class="st44" cx="338.47" cy="408.46" r="6"/>
			</g>
		</g>
	</g>
	<g>
		<g>
			<path class="st47" d="M249.27,195.56c-8.1,1-27.7,7.9-20.8,19.5c6.3,10.6,23,13.4,34.1,14.3c3.3,0.2,6.8,0.2,10-0.3
				c0.9-0.1,5.2-0.6,6-1.7c2-3-8.1-3.5-9.1-3.6c-4.9-0.4-12.5-4.8-15.2-9c-1.9-3-1.4-6.7,1-9.4c1-1.1,2.2-1.9,3.4-2.7
				c0.8-0.5,1.7-1,2.6-1.4c1.5-0.4,1.9-0.6,1.1-0.7c1.9-0.2,9.4-1.6,4.7-4C262.37,194.16,254.27,194.86,249.27,195.56L249.27,195.56
				z"/>
		</g>
	</g>
	<g>
		<g>
			<path class="st47" d="M219.87,273.06c3.9,4.4,10.4,6.5,15.8,8.6c6,2.4,12.1,4.5,18.5,5.9c12.9,3,26.5,4.4,39.8,3.5
				c10.9-0.8,22.4-3.7,31.9-9.4c8.9-5.4,11.8-13,9.3-23.2c-0.5-1.9-2.2-9.1-5.4-8.4c-3,0.7-1.6,8.2-1.2,9.9c-0.2-1-0.3-2-0.2-3
				c0.1-0.7,0.1-0.8-0.1-0.2c-0.2,0.1-0.7,1.3-0.8,1.5c-0.9,1.4-2.3,2.6-3.5,3.6c-3.9,3-8.7,5-13.3,6.6c-8.9,3.2-18.1,4.6-27.6,4.6
				c-11.3,0.1-22.8-1.3-33.8-4.2c-5.1-1.3-10.1-3-15-5c-4.6-1.8-11-3.5-14.4-7.4c-2.8-3.2-3.7,2.5-3.8,4.3
				C215.87,264.86,217.07,269.86,219.87,273.06L219.87,273.06z"/>
		</g>
	</g>
	<g>
		<g>
			<path d="M277.17,464.16c-1.9,0-3.8-0.4-5.3-1.3c-1.2-0.6-2.1-1.9-2.6-2.9c-0.7-1.4-0.4-1.8-0.3-2c0.2-0.3,0.5-0.4,0.8-0.4
				c0.2,0,0.4,0.1,0.7,0.2c1,0.6,2.3,0.9,3.8,0.9c2.3,0,4.6-0.7,6.2-2c2.5-1.9,4.1-6.9,2.4-9.3c-0.8-1.2-1-1.8-0.7-2.3
				c0.2-0.3,0.5-0.5,0.8-0.5c0.9,0,2.4,1.4,3,2.2c2.7,4,3,8.7,0.7,12.6C284.87,462.36,281.27,464.16,277.17,464.16L277.17,464.16z"
				/>
			<path d="M282.97,445.36c0.5,0,1.7,1,2.3,1.9c2.3,3.3,3.1,7.8,0.7,11.8c-1.8,3-5.4,4.5-8.8,4.5c-1.8,0-3.5-0.4-4.9-1.2
				c-1-0.5-1.8-1.7-2.3-2.6c-0.1-0.2-0.6-1.4-0.2-1.4c0.1,0,0.2,0,0.3,0.1c1.2,0.7,2.6,1,4.1,1c2.4,0,4.8-0.8,6.6-2.2
				c2.8-2.2,4.5-7.5,2.6-10.3C282.67,445.76,282.67,445.36,282.97,445.36 M282.97,443.86c-0.6,0-1.2,0.3-1.5,0.9c-0.5,1,0.1,2,0.8,3
				c1.5,2.1-0.1,6.6-2.3,8.3c-1.5,1.2-3.6,1.8-5.7,1.8c-1.3,0-2.5-0.3-3.4-0.8c-0.4-0.2-0.7-0.3-1-0.3c-0.6,0-1.1,0.3-1.4,0.8
				c-0.3,0.4-0.5,1.2,0.3,2.7c0.5,1.1,1.6,2.5,2.9,3.3c1.6,0.9,3.5,1.3,5.6,1.3c4.3,0,8.2-2,10.1-5.2c2.4-4.1,2.2-9.1-0.8-13.4
				C285.97,445.56,284.27,443.86,282.97,443.86L282.97,443.86L282.97,443.86L282.97,443.86z"/>
		</g>
	</g>
</g>
<g id="Layer_6_copy_4" class="st1">
	<g class="st2">
		<g>
			<polygon points="340.69,278.26 443.53,381.41 337.81,484.21 			"/>
			<path d="M378.05,370.47l10.48,10.51l-10.77,10.48L378.05,370.47 M303.32,186.05l-5.46,390.92l200.67-195.14L303.32,186.05
				L303.32,186.05z"/>
		</g>
		<polyline class="st48" points="133.04,410.83 300.58,578.37 300.58,187.41 186.82,301.17 		"/>
	</g>
	<text transform="matrix(1 0 0 1 841.2484 348.2559)" class="st2"><tspan x="0" y="0" class="st3 st49">Created by</tspan><tspan x="369.81" y="0" class="st3 st50"> </tspan><tspan x="-230.61" y="102.4" class="st3 st51">Jonny Dungeons.</tspan></text>
</g>
<g id="Layer_6_copy" class="st1">
	<text transform="matrix(1 0 0 1 770.5244 191.7905)" class="st2"><tspan x="0" y="0" class="st3 st23">Monkey</tspan><tspan x="27.9" y="148.4" class="st3 st23">around</tspan><tspan x="111.82" y="296.8" class="st3 st23">with</tspan><tspan x="75.76" y="445.2" class="st3 st23">code.</tspan></text>
	<g class="st2">
		<polygon class="st52" points="642.89,567.46 472.55,413.92 544.53,252.3 756.74,314.25 		"/>
		<polygon class="st53" points="612.36,519.7 475.82,407.38 543.88,268.17 547.94,267.7 718.57,327.77 618.9,519.7 		"/>
		<polygon class="st54" points="618.9,519.7 482.37,407.38 548.02,268.44 725.12,327.77 		"/>
		<polyline class="st52" points="472.55,413.92 642.89,567.46 389.67,628.75 305.05,411.08 		"/>
		<polygon class="st54" points="391.42,454.49 433.95,533.22 369.83,539.76 333.4,453.18 		"/>
		<polygon class="st55" points="625.44,543.69 642.89,567.46 389.67,628.75 		"/>
		<polygon class="st55" points="642.89,567.46 625.44,543.69 756.74,314.25 		"/>
		<g>
			<polygon class="st53" points="480.62,438.56 468.63,427.88 451.4,427.22 462.3,438.35 			"/>
			<polygon class="st53" points="465.35,441.18 476.48,452.3 496.11,452.09 484.11,441.4 			"/>
			<polygon class="st53" points="479.53,455.36 490.65,466.48 511.59,465.83 499.38,455.14 			"/>
			<polygon class="st53" points="526.86,479.35 514.86,468.66 493.49,469.32 504.61,480.44 			"/>
			<polygon class="st53" points="542.35,492.87 530.13,482.18 507.67,483.49 518.79,494.62 			"/>
			<polygon class="st53" points="557.61,506.61 545.62,495.93 521.84,497.45 532.75,508.58 			"/>
			<polygon class="st53" points="535.8,511.63 546.93,522.75 573.1,520.14 560.88,509.45 			"/>
			<polygon class="st53" points="588.37,533.66 576.37,522.97 549.98,525.59 561.1,536.71 			"/>
			<polygon class="st53" points="591.64,536.49 563.94,539.76 575.06,550.89 603.85,547.18 			"/>
			<polygon class="st53" points="427.84,426.13 449.87,452.52 469.5,452.3 445.07,427 			"/>
			<polygon class="st53" points="452.49,455.58 462.3,467.14 483.02,466.7 472.33,455.36 			"/>
			<polygon class="st53" points="496.76,480.88 486.07,469.53 464.92,470.41 474.52,481.97 			"/>
			<polygon class="st53" points="510.28,495.05 499.6,483.93 477.13,485.02 486.95,496.58 			"/>
			<polygon class="st53" points="524.02,509.23 513.34,498.11 489.56,499.85 499.16,511.41 			"/>
			<polygon class="st53" points="501.78,514.46 511.59,526.02 537.55,523.62 526.86,512.28 			"/>
			<polygon class="st53" points="514.21,529.3 536.24,555.47 564.81,551.98 540.6,526.68 			"/>
			<polygon class="st53" points="404.29,425.26 423.26,452.74 442.89,452.52 421.73,425.91 			"/>
			<polygon class="st53" points="425.44,456.01 433.73,468.01 454.67,467.35 445.51,455.79 			"/>
			<polygon class="st53" points="466.66,482.4 457.28,470.63 436.13,471.28 444.42,483.49 			"/>
			<polygon class="st53" points="478.44,497.23 469.06,485.46 446.6,486.77 454.89,498.76 			"/>
			<polygon class="st53" points="490.44,512.07 481.06,500.51 457.28,502.03 465.57,514.25 			"/>
			<polygon class="st53" points="467.75,517.52 476.04,529.51 502.21,527.11 492.84,515.34 			"/>
			<polygon class="st53" points="478.44,532.79 497.2,560.27 525.99,556.78 504.83,530.17 			"/>
			<polygon class="st53" points="380.95,424.39 387.93,436.82 406.25,437.26 398.18,425.04 			"/>
			<polygon class="st53" points="389.67,440.31 396.65,452.96 416.28,452.74 408.21,440.53 			"/>
			<polygon class="st53" points="398.62,456.45 405.38,468.88 426.31,468.23 418.46,456.01 			"/>
			<polygon class="st53" points="402.1,462.56 440.71,533 466.88,530.39 422.39,462.12 			"/>
			<polygon class="st53" points="442.67,536.49 449.65,549.14 476.91,546.09 469.06,533.88 			"/>
			<polygon class="st53" points="451.4,552.41 458.38,565.06 487.17,561.57 479.1,549.36 			"/>
		</g>
		<g>
			<polygon class="st54" points="482.8,436.38 470.81,425.7 453.58,425.04 464.48,436.17 			"/>
			<polygon class="st54" points="467.54,439 478.66,450.12 498.29,449.91 486.29,439.22 			"/>
			<polygon class="st54" points="481.71,453.18 492.84,464.3 513.77,463.65 501.56,452.96 			"/>
			<polygon class="st54" points="529.04,477.17 517.05,466.48 495.67,467.14 506.79,478.26 			"/>
			<polygon class="st54" points="544.53,490.69 532.31,480 509.85,481.31 520.97,492.44 			"/>
			<polygon class="st54" points="559.79,504.43 547.8,493.74 524.02,495.27 534.93,506.39 			"/>
			<polygon class="st54" points="537.98,509.45 549.11,520.57 575.28,517.95 563.07,507.27 			"/>
			<polygon class="st54" points="590.55,531.48 578.55,520.79 552.16,523.41 563.28,534.53 			"/>
			<polygon class="st54" points="593.82,534.31 566.12,537.58 577.24,548.71 606.03,545 			"/>
			<polygon class="st54" points="430.02,423.95 452.05,450.34 471.68,450.12 447.25,424.82 			"/>
			<polygon class="st54" points="454.67,453.4 464.48,464.95 485.2,464.52 474.52,453.18 			"/>
			<polygon class="st54" points="498.94,478.7 488.26,467.35 467.1,468.23 476.7,479.79 			"/>
			<polygon class="st54" points="512.47,492.87 501.78,481.75 479.31,482.84 489.13,494.4 			"/>
			<polygon class="st54" points="526.21,507.05 515.52,495.93 491.75,497.67 501.34,509.23 			"/>
			<polygon class="st54" points="503.96,512.28 513.77,523.84 539.73,521.44 529.04,510.1 			"/>
			<polygon class="st54" points="516.39,527.11 538.42,553.29 566.99,549.8 542.78,524.5 			"/>
			<polygon class="st54" points="406.47,423.08 425.44,450.56 445.07,450.34 423.92,423.73 			"/>
			<polygon class="st54" points="427.62,453.83 435.91,465.83 456.85,465.17 447.69,453.61 			"/>
			<polygon class="st54" points="468.84,480.22 459.47,468.44 438.31,469.1 446.6,481.31 			"/>
			<polygon class="st54" points="480.62,495.05 471.24,483.28 448.78,484.58 457.07,496.58 			"/>
			<polygon class="st54" points="492.62,509.88 483.24,498.32 459.47,499.85 467.75,512.07 			"/>
			<polygon class="st54" points="469.93,515.34 478.22,527.33 504.4,524.93 495.02,513.16 			"/>
			<polygon class="st54" points="480.62,530.6 499.38,558.09 528.17,554.6 507.01,527.99 			"/>
			<polygon class="st54" points="383.13,422.21 390.11,434.64 408.43,435.07 400.36,422.86 			"/>
			<polygon class="st54" points="391.85,438.13 398.83,450.78 418.46,450.56 410.39,438.35 			"/>
			<polygon class="st54" points="400.8,454.27 407.56,466.7 428.5,466.05 420.64,453.83 			"/>
			<polygon class="st54" points="404.29,460.37 442.89,530.82 469.06,528.2 424.57,459.94 			"/>
			<polygon class="st54" points="444.85,534.31 451.83,546.96 479.1,543.91 471.24,531.69 			"/>
			<polygon class="st54" points="453.58,550.23 460.56,562.88 489.35,559.39 481.28,547.18 			"/>
		</g>
	</g>
	<g class="st2">
		<path class="st52" d="M539.55,356.57c0.27-1.13,0.69-2.43,1.26-3.91c1.72-4.44,3.95-8.05,6.71-10.86
			c1.32-1.34,2.67-2.44,4.03-3.31c0.98-0.63,1.98-1.14,3.01-1.52c1.03-0.39,1.73-0.52,2.1-0.4c0.41,0.13,0.52,0.46,0.31,0.97
			c-0.13,0.34-0.47,0.6-1.01,0.81c-2.5,0.96-4.97,2.86-7.42,5.7c-2.17,2.53-3.91,5.47-5.22,8.84c-1.57,4.03-2.3,7.9-2.22,11.65
			c0.07,3.1,0.59,5.86,1.56,8.25c0.11,0.27,0.12,0.51,0.04,0.72c-0.19,0.49-0.48,0.64-0.86,0.46c-0.46-0.22-0.98-1.06-1.57-2.52
			c-0.48-1.19-0.82-2.25-1.02-3.2c-0.33-1.6-0.46-3.51-0.4-5.73C538.9,360.31,539.13,358.32,539.55,356.57z"/>
		<path class="st52" d="M561.61,354.22c-0.46,1.78-1.13,3.75-1.99,5.89c-1.4,3.46-3.3,6.55-5.66,9.26
			c-1.48,1.67-2.83,2.92-4.05,3.77c-0.79,0.55-1.75,1.05-2.88,1.48c-1.37,0.57-2.3,0.73-2.79,0.49c-0.36-0.17-0.44-0.5-0.25-0.99
			c0.11-0.27,0.35-0.47,0.73-0.58c2.03-0.69,4.19-2.21,6.47-4.56c2.63-2.73,4.81-6.22,6.51-10.44c1.42-3.53,2.23-7,2.41-10.4
			c0.1-1.88,0.01-3.58-0.27-5.1c-0.29-1.51-0.73-2.8-1.33-3.87c-0.28-0.47-0.35-0.87-0.21-1.21c0.21-0.52,0.52-0.71,0.93-0.58
			c0.37,0.12,0.81,0.63,1.33,1.54c0.51,0.92,0.93,1.9,1.24,2.95c0.49,1.64,0.71,3.61,0.67,5.89
			C562.39,350.05,562.12,352.2,561.61,354.22z"/>
		<path class="st52" d="M572.11,357.74l1.19-2.87l13.8,4.98l-1.27,3L572.11,357.74z M569.06,365.1l1.19-2.87l13.59,5.29l-1.27,3
			L569.06,365.1z"/>
		<path class="st52" d="M599.58,373.39l-17.95,4.94l1.44-3.37l14.95-4.02l-7.77-12.71l1.41-3.38l9.3,15.42L599.58,373.39z"/>
		<path class="st52" d="M618.47,376.8c-0.8,1.78-1.55,3.07-2.23,3.87c-0.69,0.8-1.55,1.39-2.57,1.76c0.43,0.96,0.56,1.97,0.41,3.05
			c-0.15,1.08-0.62,2.49-1.41,4.24l-4.15,9.25c-0.93,2.08-1.37,3.54-1.29,4.38c0.07,0.85,0.67,1.56,1.81,2.15l-1.42,3.15
			c-0.25-0.08-0.49-0.17-0.71-0.27c-1.51-0.73-2.29-1.88-2.35-3.44c-0.06-1.56,0.56-3.81,1.89-6.77l4.11-9.2
			c0.73-1.62,1.13-2.88,1.22-3.76c0.09-0.88-0.13-1.62-0.64-2.22l1.3-2.92c1.43-0.09,2.77-1.52,4.01-4.29l4.41-9.86
			c1.21-2.7,2.42-4.52,3.66-5.47c1.23-0.96,2.66-1.19,4.26-0.67l0.75,0.24l-1.44,3.2c-1.25-0.37-2.23-0.28-2.94,0.25
			c-0.71,0.53-1.5,1.77-2.36,3.7L618.47,376.8z"/>
		<path class="st52" d="M634.78,398.83c0.87-1.89,1.67-3.26,2.38-4.12c0.72-0.86,1.61-1.49,2.69-1.91c-0.4-1-0.5-2.07-0.31-3.2
			c0.19-1.13,0.72-2.63,1.57-4.48l4.56-9.87c1-2.17,1.46-3.67,1.38-4.52c-0.08-0.84-0.73-1.49-1.94-1.93l1.54-3.34l0.75,0.24
			c1.63,0.52,2.48,1.56,2.55,3.12c0.07,1.57-0.63,3.94-2.1,7.11l-4.57,9.86c-0.81,1.74-1.27,3.08-1.38,4.02
			c-0.12,0.94,0.08,1.69,0.57,2.27l-1.47,3.16c-1.49,0.2-2.91,1.74-4.25,4.63l-4.93,10.63c-1.32,2.85-2.61,4.76-3.86,5.73
			c-1.25,0.97-2.6,1.1-4.05,0.4c-0.22-0.11-0.43-0.24-0.66-0.39l1.51-3.28c1.15,0.5,2.09,0.49,2.79-0.04
			c0.71-0.53,1.53-1.82,2.48-3.87L634.78,398.83z"/>
	</g>
	<g class="st2">
		<polygon class="st56" points="330.98,341.89 312.43,336.84 321.79,330.9 276.24,327.3 284.88,320.28 237.88,316.86 276.24,333.96 
			324.13,350.17 		"/>
		<polygon class="st57" points="252.47,606.76 246.17,566.96 281.46,542.84 351.86,593.79 321.25,609.46 328.27,647.99 
			318.19,678.42 281.28,655.38 		"/>
		<polygon class="st56" points="312.43,553.28 283.08,598.66 240.76,600.64 164.06,423.27 211.23,388.52 		"/>
		<polygon class="st56" points="214.84,310.74 223.12,354.85 320.35,399.33 356.54,374.66 330.98,341.89 		"/>
		<polygon class="st54" points="214.84,310.74 223.12,354.85 320.35,399.33 		"/>
		<polygon class="st56" points="266.15,195.67 121.2,251.49 93.29,418.77 171.08,472.25 259.31,404.91 		"/>
		<polygon class="st54" points="210.51,279.22 163.7,228.09 121.2,251.49 93.29,418.77 171.08,472.25 		"/>
		<polygon class="st54" points="206.91,519.61 156.67,532.39 93.29,418.77 165.68,387.8 		"/>
		<polygon class="st56" points="266.15,293.45 252.83,339.91 162.98,293.45 107.16,140.04 169.28,70.35 310.81,125.99 		"/>
		<polygon class="st54" points="162.98,293.45 120.66,237.63 107.16,140.04 169.28,70.35 258.59,123.29 252.83,339.91 		"/>
		<polygon class="st58" points="287.76,140.04 255.71,154.08 146.95,140.04 169.28,209.72 161,256.36 252.83,339.91 296.04,256.36 
			280.74,209.72 		"/>
		<polygon class="st57" points="255.71,154.08 146.95,140.04 169.28,209.72 161,256.36 252.83,339.91 266.87,256.36 254.27,209.72 
					"/>
		<polygon class="st56" points="261.29,258.52 216.64,244.65 260.57,274.54 		"/>
		<polygon class="st56" points="284.88,244.65 268.31,258.52 267.59,274.54 267.59,274.54 		"/>
		<polygon class="st56" points="253.01,326.04 223.48,300.29 253.37,314.34 264.53,300.29 		"/>
		<polygon class="st59" points="271.01,200.72 254.45,186.67 204.03,214.58 183.14,153.18 254.99,164.7 276.6,154.62 		"/>
		<polygon class="st54" points="169.28,70.35 150.01,79.89 157.58,83.5 122.46,113.57 130.75,113.57 100.14,140.04 107.16,140.04 
			105,181.99 111.3,170.83 110.04,228.09 118.32,220.34 115.26,244.65 120.66,237.63 134.89,145.26 		"/>
		<g>
			<polygon class="st57" points="374.91,362.59 328.46,354.49 310.63,382.4 341.78,404.91 392.92,407.25 388.6,385.46 
				395.62,373.58 412,355.03 			"/>
			<polygon class="st57" points="375.09,446.5 368.07,406.17 392.92,407.25 			"/>
			<polygon class="st57" points="340.34,429.58 333.32,389.06 358.17,390.14 			"/>
		</g>
		<g>
			<polygon class="st57" points="141.73,204.68 130.21,232.59 108.6,195.13 126.96,172.45 			"/>
			<polygon class="st58" points="141.73,204.68 130.21,232.59 126.96,172.45 			"/>
		</g>
		<polygon class="st54" points="121.2,251.49 103.74,282.47 116.7,278.5 98.69,327.84 108.6,326.58 88.61,399.33 97.43,393.74 
			81.95,426.34 93.29,418.77 107.16,465.41 111.12,450.82 126.96,502.14 132.55,489 150.01,542.84 156.67,532.39 192.33,532.39 
			185.85,525.55 209.97,529.33 206.91,519.61 137.59,424.54 		"/>
		<polygon class="st54" points="260.39,371.96 276.24,387.8 277.68,379.88 296.04,397.17 297.84,387.26 		"/>
		<polygon class="st56" points="209.97,529.33 216.64,565.7 221.5,559.58 229.78,600.64 240.04,590.91 		"/>
		<polygon class="st56" points="169.28,70.35 209.07,79.35 204.39,84.22 276.6,101.86 264.53,107.8 305.77,115.91 298.92,126.71 		
			"/>
		<polygon class="st56" points="310.81,125.99 311.17,165.6 303.07,155.34 301.09,195.67 294.06,189.19 291.18,218.9 283.62,214.58 
					"/>
		<polygon class="st56" points="275.88,493.86 296.04,517.63 291.36,519.07 312.43,539.78 305.95,542.84 		"/>
		<g>
			<polygon class="st56" points="191.61,371.24 179.9,430.84 301.09,501.78 351.86,473.51 323.23,427.24 			"/>
			<polygon class="st54" points="191.61,371.24 179.9,430.84 301.09,501.78 			"/>
			<polygon class="st57" points="349.34,520.87 303.07,486.84 305.23,437.86 360.15,448.66 378.33,471.53 405.34,493.32 
				382.83,508.08 376.53,529.69 374.01,559.58 			"/>
			<polygon class="st54" points="179.9,430.84 197.91,451.9 197.91,440.92 240.4,473.69 240.4,466.31 285.78,499.8 282.36,490.8 
				206.91,433 			"/>
			<polygon class="st56" points="252.47,397.17 276.24,399.33 273.72,406.17 320.35,414.63 308.83,424.72 			"/>
		</g>
	</g>
</g>
</svg>
