<?xml version="1.0" encoding="utf-8"?>
<!-- Generator: Adobe Illustrator 27.6.1, SVG Export Plug-In . SVG Version: 6.00 Build 0)  -->
<svg version="1.1" xmlns="http://www.w3.org/2000/svg" xmlns:xlink="http://www.w3.org/1999/xlink" x="0px" y="0px"
	 viewBox="0 0 1366 768" style="enable-background:new 0 0 1366 768;" xml:space="preserve">
<style type="text/css">
	.st0{fill:#CBC6CC;}
	.st1{display:none;}
	.st2{display:inline;}
	.st3{font-family:'Neutraface2Text-Bold';}
	.st4{font-size:164px;}
	.st5{fill:#6B686B;}
	.st6{fill:#AC9FAD;}
	.st7{fill:#EAE1E1;}
	.st8{fill:#FCF5F5;}
	.st9{fill:#212121;}
	.st10{fill:#BABABA;}
	.st11{fill:#EDEDED;}
	.st12{fill:#444344;}
	.st13{fill:#848484;}
	.st14{fill:#C5B0C6;}
	.st15{fill:#D8D8D8;}
	.st16{fill:#F79C9C;}
	.st17{opacity:0.2;fill:#48140F;}
</style>
<g id="Layer_2">
	<rect x="0.89" y="-1.33" class="st0" width="1365.11" height="769.33"/>
</g>
<g id="Layer_4" class="st1">
	<g id="Layer_3" class="st2">
		<text transform="matrix(1 0 0 1 676.3984 229.7905)"><tspan x="0" y="0" class="st3 st4">Rock out </tspan><tspan x="179.58" y="196.8" class="st3 st4">with</tspan><tspan x="17.47" y="393.6" class="st3 st4">the data.</tspan></text>
	</g>
	<g id="Layer_1" class="st2">
		<g>
			<g>
				<ellipse class="st5" cx="552.08" cy="701.58" rx="85.55" ry="21"/>
				<g>
					<g>
						<g>
							<polygon class="st5" points="113.75,236.57 52.57,162.97 95.35,189.65 96.57,162.51 191.94,256.65 114.67,215.25 							"/>
						</g>
						<g>
							<polygon class="st5" points="188.87,337.76 149.47,303.87 174.77,314.3 172.93,299.58 232.57,341.43 187.49,326.26 							
								"/>
						</g>
						<g>
							<polygon class="st5" points="263.38,436.03 229.65,414.41 250.05,419.63 247.13,408.59 297.27,434.04 261.08,427.29 							
								"/>
						</g>
						<g>
							<polygon class="st5" points="137.51,136.76 101.33,63.62 131.53,94.29 137.82,71.9 198.38,168.8 142.57,119.28 							"/>
						</g>
					</g>
					<g>
						<g>
							<polygon class="st5" points="779.09,167.22 816.78,87.95 784.64,121.45 777.25,97.66 714.07,203.1 773.37,148.55 							"/>
						</g>
						<g>
							<polygon class="st5" points="735.69,274.13 763.02,235.14 742.7,250.15 741.04,236.78 697.45,287.49 734.21,263.7 							"/>
						</g>
						<g>
							<polygon class="st5" points="691.91,378.29 717.03,351.38 700.04,360.72 700.04,350.28 661.24,384.52 691.91,370.24 							
								"/>
						</g>
						<g>
							<polygon class="st5" points="734.76,84.48 750.09,11.43 730.14,45.3 719.43,26.99 687.84,126.76 726.26,70.01 							"/>
						</g>
					</g>
				</g>
				<g>
					<g>
						<polygon class="st6" points="557.76,416.1 545.8,377.92 628.43,359.07 629.51,367.96 						"/>
						<g>
							<polygon class="st7" points="637.02,369.19 618.16,369.65 624.14,348.49 632.42,314.76 636.1,352.78 665.69,331.62 
								646.53,353.39 							"/>
							<polygon class="st8" points="632.27,363.97 618.16,369.65 622.61,354.77 							"/>
							<polygon class="st8" points="636.1,355.69 634.87,342.81 645.3,346.03 							"/>
						</g>
					</g>
					<g>
						<g>
							<polygon class="st6" points="529.85,556.23 510.23,578 486.92,555.16 486.16,542.89 504.71,545.81 							"/>
							<polygon class="st5" points="529.85,556.23 510.23,578 510.23,471.91 550.24,474.67 							"/>
						</g>
						<g>
							<polygon class="st6" points="490.75,598.86 468.68,623.39 442.61,597.63 441.69,583.83 462.54,587.2 							"/>
							<polygon class="st5" points="490.75,598.86 468.68,623.39 468.68,504.11 513.75,507.17 							"/>
						</g>
					</g>
					<g>
						<path class="st9" d="M617.86,629.21l-4.45,12.11c0,0,9.51,3.83,15.33,12.11c5.67,8.28,9.05,23.15,9.05,23.15
							s12.27-24.53,2.61-37.56C632.11,627.99,617.86,629.21,617.86,629.21z"/>
						<path class="st9" d="M643.92,556.85l0.46,6.9c0,0,8.89-0.15,13.95,2.76c5.06,2.91,9.81,10.73,9.81,10.73
							s2.45-14.87-6.13-20.08C654.5,552.55,643.92,556.85,643.92,556.85z"/>
						<path class="st5" d="M641.62,557.61c-7.21-35.26-41.7-57.95-76.97-50.75c-1.23-5.83-2.45-11.81-3.68-17.63
							c44.92-9.2,88.92,19.62,98.28,64.7c-2.91,2.15-5.67,3.68-8.74,4.29C647.6,558.84,644.38,558.69,641.62,557.61z"/>
						<path class="st5" d="M615.4,627.22c11.81-46.46-16.41-93.68-62.86-105.48c1.99-7.67,3.99-15.49,5.83-23.15
							c59.33,15.03,95.21,75.28,80.19,134.61c-4.45,1.07-8.89,1.69-13.03,0.77C621.84,632.89,618.32,630.44,615.4,627.22z"/>
					</g>
					<polygon class="st6" points="589.8,443.39 572.93,508.25 513.75,523.58 468.22,555.31 469.14,475.59 484.47,367.04 
						559.13,359.37 					"/>
					<polygon class="st10" points="572.93,506.71 490.6,370.11 556.07,370.11 					"/>
					<polygon class="st11" points="612.03,322.73 597.31,358.61 550.09,393.1 412.87,413.34 299.26,339.6 359.67,278.73 
						576.15,277.96 					"/>
					<g>
						<g>
							<polygon class="st9" points="575.39,612.96 565.88,550.87 487.38,560.07 563.89,484.63 573.85,455.5 587.04,486.78 
								625.37,489.54 593.32,518.67 							"/>
						</g>
						<g>
							<polygon class="st12" points="629.35,390.34 607.28,415.64 597.92,399.7 627.67,384.36 							"/>
							<polygon class="st12" points="609.58,408.74 583.51,506.25 573.85,494.6 604.98,400.31 							"/>
							<polygon class="st12" points="563.12,519.9 577.07,536.92 580.45,525.11 566.49,509.47 							"/>
						</g>
					</g>
					<g>
						<g>
							<polygon class="st7" points="546.1,530.78 541.2,509.16 566.8,511.16 607.43,512.69 564.65,525.72 595.78,555.01 
								566.49,537.99 							"/>
							<polygon class="st7" points="551.01,488.16 541.2,509.16 559.29,510.85 							"/>
							<polygon class="st7" points="561.28,526.49 575.69,522.04 574.16,534.92 							"/>
						</g>
						<polygon class="st13" points="484.47,479.42 479.26,461.64 513.91,436.95 545.8,528.94 						"/>
						<polygon class="st6" points="473.74,457.96 514.67,435.42 543.04,505.95 545.8,528.94 						"/>
					</g>
					<polygon class="st14" points="539.05,395.25 502.56,416.87 489.38,465.62 459.02,383.75 501.18,342.35 549.17,350.02 
						596.54,395.1 					"/>
					<polygon class="st11" points="575.23,328.56 567.57,379.46 549.78,420.09 474.66,386.51 464.08,336.84 545.8,361.98 					"/>
					<polygon class="st15" points="572.32,406.9 556.68,417.33 551.32,425.76 539.36,420.85 506.09,427.75 545.03,379.76 					"/>
					<polygon class="st11" points="572.32,406.9 556.68,417.33 551.32,425.76 539.36,420.85 506.09,427.75 548.1,398.16 					"/>
					<polygon class="st15" points="544.26,422.85 533.22,422.39 544.42,412.88 					"/>
					<polygon class="st15" points="554.69,419.47 561.59,413.95 553,412.11 					"/>
					<polygon class="st15" points="578.3,330.09 569.1,373.33 549.78,410.89 473.12,380.38 464.08,333.77 547.33,357.38 					"/>
					<polygon class="st11" points="548.4,373.94 407.96,324.72 292.36,251.28 277.8,52.12 385.89,128.78 461.01,85.7 499.49,101.03 
						523.72,93.21 555.92,108.24 600.68,66.08 640.39,162.36 616.94,285.17 					"/>
					<polygon class="st15" points="598.23,357.99 574.01,376.54 550.86,347.41 585.51,290.69 612.95,321.96 					"/>
					<polygon class="st11" points="578.3,322.42 569.1,368.73 549.78,401.69 471.59,372.71 462.54,324.57 547.33,349.71 					"/>
					<polygon class="st8" points="586.73,289.77 579.22,351.09 546.72,389.88 454.42,356.61 435.71,288.69 547.48,320.89 					"/>
					<g>
						<polygon class="st15" points="470.82,357.07 473.28,349.41 458.1,352.93 						"/>
						<g>
							<polygon class="st9" points="560.05,355.69 554.38,380.99 510.69,361.52 522.49,357.53 549.63,364.13 							"/>
							<polygon class="st16" points="556.68,367.96 559.9,389.88 530.77,369.19 551.01,373.02 							"/>
							<polygon class="st15" points="550.09,359.37 556.38,354.62 542.27,356.92 							"/>
							<polygon class="st9" points="556.53,342.51 551.32,349.56 557.91,349.41 							"/>
							<polygon class="st9" points="538.59,344.5 545.8,349.25 539.51,351.4 							"/>
							<polygon class="st15" points="515.59,327.94 545.95,349.41 514.98,341.74 500.87,347.57 							"/>
							<polygon class="st15" points="567.87,326.1 551.32,349.56 568.64,338.37 578.3,340.97 							"/>
						</g>
					</g>
					<polygon class="st11" points="468.98,292.22 476.65,341.43 411.64,323.5 403.98,273.82 					"/>
					<polygon class="st15" points="277.8,52.12 403.98,185.2 411.64,326.56 292.36,251.28 					"/>
					<polygon class="st15" points="461.01,85.7 569.25,191.8 385.89,128.78 					"/>
					<polygon class="st15" points="523.72,93.21 566.95,190.42 499.49,101.03 					"/>
					<polygon class="st15" points="555.92,108.24 625.22,158.07 600.68,66.08 					"/>
					<polygon class="st15" points="566.19,235.49 417.93,161.13 547.94,321.2 					"/>
					<polygon class="st15" points="624.3,155.61 586.73,291.45 599,308.16 616.78,286.39 					"/>
					<polygon class="st15" points="348.78,289.77 412.87,413.34 299.26,339.6 					"/>
					<polygon class="st15" points="470.06,298.66 441.69,284.55 473.74,322.12 					"/>
					<polygon class="st15" points="473.12,318.59 444.76,304.49 476.8,342.05 					"/>
					<polygon class="st15" points="566.19,235.49 613.56,175.54 547.94,321.2 					"/>
				</g>
			</g>
			<text transform="matrix(1 0 0 1 789.55 -92.6297)" style="font-family:'ArialMT'; font-size:64.3936px;"> </text>
		</g>
	</g>
</g>
<g id="Layer_3_copy">
	<g>
		<path d="M630.33,174.03c0-32.96,25.42-57.07,57.4-57.07c20.17,0,34.6,7.22,44.61,22.8l-17.55,12.46
			c-5.25-8.53-14.27-14.6-27.06-14.6c-20.17,0-33.79,15.58-33.79,36.41c0,20.83,13.61,36.74,33.79,36.74
			c14.43,0,22.47-6.89,28.7-16.4l17.88,12.3c-9.68,15.09-25.09,24.6-46.58,24.6C655.75,231.27,630.33,206.99,630.33,174.03z"/>
		<path d="M744.31,195.02c0-21.32,16.89-36.57,38.54-36.57s38.38,15.25,38.38,36.57c0,21.16-16.73,36.24-38.38,36.24
			S744.31,216.18,744.31,195.02z M798.6,195.02c0-10.5-5.9-17.55-15.74-17.55s-15.91,7.05-15.91,17.55
			c0,10.33,6.07,17.55,15.91,17.55S798.6,205.35,798.6,195.02z"/>
		<path d="M836.15,159.93h22.14l-0.49,10.82c4.92-8.53,11.48-12.3,19.84-12.3c9.02,0,15.42,3.77,19.68,11.97
			c5.74-7.22,13.45-11.97,23.78-11.97c17.55,0,27.72,11.64,27.72,30.83v40.51h-21.98v-38.54c0-8.2-2.62-12.63-10.99-12.63
			c-8.53,0-12.3,4.26-12.3,13.78v37.39h-21.98v-38.54c0-8.2-2.46-12.63-10.82-12.63c-8.53,0-12.46,4.26-12.46,13.78v37.39h-22.14
			V159.93z"/>
		<path d="M965.71,159.93h22.14l-0.49,10.82c4.26-7.54,11.64-12.3,22.47-12.3c16.89,0,31.16,14.76,31.16,36.24
			c0,21.48-14.6,36.57-31.65,36.57c-10.66,0-17.88-4.43-21.48-10.82v44.12h-22.14V159.93z M1018.19,194.69
			c0-10.33-5.9-16.73-15.25-16.73c-9.51,0-15.74,6.4-15.74,16.73c0,10.99,6.23,17.22,15.74,17.22
			C1012.29,211.91,1018.19,205.68,1018.19,194.69z"/>
		<path d="M1053.61,195.02c0-21.32,16.89-36.57,38.54-36.57s38.38,15.25,38.38,36.57c0,21.16-16.73,36.24-38.38,36.24
			S1053.61,216.18,1053.61,195.02z M1107.9,195.02c0-10.5-5.9-17.55-15.74-17.55s-15.91,7.05-15.91,17.55
			c0,10.33,6.07,17.55,15.91,17.55S1107.9,205.35,1107.9,195.02z"/>
		<path d="M1139.55,217.98l12.96-11.48c4.76,4.59,10.82,7.38,17.38,7.38c7.22,0,9.51-1.31,9.51-4.26c0-3.77-4.43-3.77-15.74-6.72
			c-9.51-2.46-20.17-7.71-20.17-22.3c0-15.74,12.14-22.14,27.06-22.14c11.48,0,19.68,3.77,25.42,9.68l-11.81,12.63
			c-3.28-2.79-8.2-5.25-13.45-5.25c-5.08,0-7.54,1.31-7.54,4.1c0,3.94,4.43,4.43,13.94,6.56c10.17,2.3,22.96,7.05,22.96,21.81
			c0,12.79-6.72,23.29-28.7,23.29C1155.13,231.27,1145.62,225.2,1139.55,217.98z"/>
		<path d="M1251.89,212.9c8.04,0,14.1-3.12,17.55-5.58l12.63,13.61c-6.72,5.9-15.25,10.33-29.85,10.33c-24.93,0-41-15.09-41-36.57
			c0-21.16,16.89-36.24,38.54-36.24c25.09,0,38.7,18.7,37.06,43.13h-52.97C1235.98,208.8,1241.89,212.9,1251.89,212.9z
			 M1264.52,188.79c-0.98-7.71-5.9-12.3-14.6-12.3s-14.6,3.94-16.4,12.3H1264.52z"/>
		<path d="M810.98,426.59h-22.14V308.18h22.14v60.35c0,5.25-0.49,10.66-1.15,15.09l22.96-26.9h24.6l-24.76,28.54l27.39,41.33h-25.75
			l-17.38-26.4l-5.9,6.23V426.59z"/>
		<path d="M867.72,331.14c0-8.04,6.56-13.78,14.1-13.78s13.94,5.74,13.94,13.78c0,8.2-6.4,13.94-13.94,13.94
			S867.72,339.34,867.72,331.14z M870.67,356.73h22.14v69.86h-22.14V356.73z"/>
		<path d="M911.51,308.18h21.98v118.41h-21.98V308.18z"/>
		<path d="M951.85,308.18h21.98v118.41h-21.98V308.18z"/>
		<path d="M1029.91,409.7c8.04,0,14.1-3.12,17.55-5.58l12.63,13.61c-6.72,5.9-15.25,10.33-29.85,10.33c-24.93,0-41-15.09-41-36.57
			c0-21.16,16.89-36.24,38.54-36.24c25.09,0,38.7,18.7,37.06,43.13h-52.97C1014,405.6,1019.91,409.7,1029.91,409.7z M1042.54,385.59
			c-0.98-7.71-5.9-12.3-14.6-12.3s-14.6,3.94-16.4,12.3H1042.54z"/>
		<path d="M1079.93,356.73h22.14l-0.33,12.63c5.08-11.48,13.28-14.1,20.5-14.1c4.59,0,8.04,1.31,10.82,2.79l-7.05,20.17
			c-2.79-1.31-5.41-2.13-8.53-2.13c-10,0-15.42,4.59-15.42,19.52v31h-22.14V356.73z"/>
		<path d="M733.08,614.04c-3.77,6.4-10.99,10.82-21.65,10.82c-17.06,0-31.65-15.09-31.65-36.57c0-21.48,14.43-36.24,31.32-36.24
			c11.15,0,18.37,4.92,22.47,12.3l-0.49-10.82h22.14v104.63h-22.14V614.04z M733.57,588.29c0-10.33-6.23-16.73-15.74-16.73
			c-9.35,0-15.25,6.4-15.25,16.73c0,10.99,5.9,17.22,15.25,17.22C727.34,605.51,733.57,599.28,733.57,588.29z"/>
		<path d="M772.11,593.87v-40.34h22.14v38.87c0,7.87,3.77,12.46,11.64,12.46c8.86,0,13.78-5.08,13.78-13.94v-37.39h22.14v69.86
			h-22.14l0.49-11.48c-4.26,8.36-12.3,12.96-21.98,12.96C782.93,624.87,772.11,613.71,772.11,593.87z"/>
		<path d="M897.41,606.5c8.04,0,14.1-3.12,17.55-5.58l12.63,13.61c-6.72,5.9-15.25,10.33-29.85,10.33c-24.93,0-41-15.09-41-36.57
			c0-21.16,16.89-36.24,38.54-36.24c25.09,0,38.7,18.7,37.06,43.13h-52.97C881.5,602.4,887.4,606.5,897.41,606.5z M910.03,582.39
			c-0.98-7.71-5.9-12.3-14.6-12.3s-14.6,3.94-16.4,12.3H910.03z"/>
		<path d="M947.42,553.53h22.14l-0.33,12.63c5.08-11.48,13.28-14.1,20.5-14.1c4.59,0,8.04,1.31,10.82,2.79l-7.05,20.17
			c-2.79-1.31-5.41-2.13-8.53-2.13c-10,0-15.42,4.59-15.42,19.52v31h-22.14V553.53z"/>
		<path d="M1009.58,527.94c0-8.04,6.56-13.78,14.1-13.78s13.94,5.74,13.94,13.78c0,8.2-6.4,13.94-13.94,13.94
			S1009.58,536.14,1009.58,527.94z M1012.53,553.53h22.14v69.86h-22.14V553.53z"/>
		<path d="M1091.09,606.5c8.04,0,14.1-3.12,17.55-5.58l12.63,13.61c-6.72,5.9-15.25,10.33-29.85,10.33c-24.93,0-41-15.09-41-36.57
			c0-21.16,16.89-36.24,38.54-36.24c25.09,0,38.7,18.7,37.06,43.13h-52.97C1075.18,602.4,1081.08,606.5,1091.09,606.5z
			 M1103.71,582.39c-0.98-7.71-5.9-12.3-14.6-12.3s-14.6,3.94-16.4,12.3H1103.71z"/>
		<path d="M1135.2,611.58l12.96-11.48c4.76,4.59,10.82,7.38,17.38,7.38c7.22,0,9.51-1.31,9.51-4.26c0-3.77-4.43-3.77-15.74-6.72
			c-9.51-2.46-20.17-7.71-20.17-22.3c0-15.74,12.14-22.14,27.06-22.14c11.48,0,19.68,3.77,25.42,9.68l-11.81,12.63
			c-3.28-2.79-8.2-5.25-13.45-5.25c-5.08,0-7.54,1.31-7.54,4.1c0,3.94,4.43,4.43,13.94,6.56c10.17,2.3,22.96,7.05,22.96,21.81
			c0,12.79-6.72,23.29-28.7,23.29C1150.78,624.87,1141.27,618.8,1135.2,611.58z"/>
		<path d="M1208.02,610.43c0-8.04,6.4-13.78,13.94-13.78c7.38,0,13.78,5.74,13.78,13.78c0,8.2-6.4,13.94-13.78,13.94
			C1214.41,624.38,1208.02,618.63,1208.02,610.43z"/>
	</g>
	<g>
		<g>
			<polygon class="st9" points="353.12,501.49 344.84,495.55 356.77,490.01 375.29,480.65 360,495.33 375.98,496.6 364.27,498.94 
							"/>
			<polygon class="st9" points="358.73,496.41 363.88,491.42 366.97,495.97 			"/>
		</g>
		<polygon class="st9" points="375.29,480.65 356.62,492.96 344.84,495.55 355.1,489.21 		"/>
		<polygon class="st9" points="373.96,496.84 366.97,495.97 364.97,493.02 		"/>
		<polygon class="st9" points="293.29,550.86 329.69,511.7 354.58,505.19 357.12,497.6 345.99,489.94 313.24,487.21 247.24,525.6 		
			"/>
		<polygon class="st9" points="357.12,497.6 331.57,498.31 345.99,489.94 		"/>
	</g>
	<polygon class="st9" points="367.48,493.97 421.79,425.48 359.88,493.06 365.28,494.31 	"/>
	<polygon class="st13" points="412.17,488.7 570.8,419.04 409.48,504.69 406.32,493.72 	"/>
	<polygon class="st9" points="268.03,613.83 256.25,628.42 270.74,633.92 307.29,632.07 291.55,613.83 	"/>
	<g>
		<polygon class="st7" points="387.67,500.02 384,518.88 406.21,516.51 441.61,514.19 404.04,503.87 430.49,477.65 405.28,493.19 		
			"/>
		<polygon class="st7" points="401.08,503.27 413.79,506.81 412.36,495.67 		"/>
	</g>
	<polygon class="st8" points="441.61,514.19 402.47,511.48 384,518.88 405,519.61 	"/>
	<polygon class="st8" points="430.49,477.65 412.36,495.67 413.29,502.9 	"/>
	<g>
		<path class="st9" d="M260.92,713.62l5.44-2.81c0,0,1.45,8.78,4.65,12.54s10.05,4.69,10.05,4.69s-11.04,9.19-16.56,3.24
			C259.63,726.04,260.92,713.62,260.92,713.62z"/>
		<path class="st9" d="M293.08,615.85c-25.44,24.49-35.64,69.1-22.78,99.64c-4.23,4.07-8.47,8.15-12.7,12.22
			c-16.41-38.96-3.4-95.86,29.06-127.11c2.27,1.78,4,3.69,5.13,6.37C292.8,609.38,293.27,612.63,293.08,615.85z"/>
	</g>
	<polygon class="st6" points="250.35,473.88 357.03,523.69 385.12,492.03 397.56,502.81 392.23,527.57 352.81,565.61 220.63,565.06 
			"/>
	<polygon class="st6" points="290.15,471.24 329.36,481.04 293.66,491.47 274.39,582.49 258.25,616.81 212.94,690.49 207.91,672.04 
		215.39,624.54 200.59,502.33 208.59,488.41 198.3,482.98 251.47,411.19 	"/>
	<g>
		<g>
			<g>
				<polygon class="st5" points="699.7,232.11 762.78,165.66 721.39,196.21 723.29,179.1 627.25,269.52 701.19,218.69 				"/>
			</g>
			<g>
				<polygon class="st5" points="621.05,320.72 660.25,286.59 636.31,301.22 639.56,291.21 581.35,336.78 623.59,312.87 				"/>
			</g>
			<g>
				<polygon class="st5" points="543.23,407.27 576.01,382.8 557.01,392.57 560.9,384.55 513.05,416.64 546.28,400.98 				"/>
			</g>
			<g>
				<polygon class="st5" points="727.73,144.48 768.36,86.12 737.83,115.25 734.56,102.87 669.5,184.17 725.17,134.78 				"/>
			</g>
		</g>
		<g>
			<g>
				<polygon class="st5" points="523.28,154.71 535.05,102.97 533.8,132.38 541.64,125.55 529.05,200.59 529.43,149.36 				"/>
			</g>
			<g>
				<polygon class="st5" points="505.76,221.23 509.52,191.57 510.3,207.52 514.17,202.56 511.12,244.82 508.8,217.34 				"/>
			</g>
			<g>
				<polygon class="st5" points="488.97,286.65 490.11,263.27 491.64,275.29 494.31,270.73 494.46,303.6 491.07,283.08 				"/>
			</g>
			<g>
				<polygon class="st5" points="554.91,139.7 570.2,100.96 566.01,124.94 573.24,122.11 554.78,179.92 560.58,137.48 				"/>
			</g>
		</g>
	</g>
	<polygon class="st13" points="242.18,647.26 239.15,621.93 212.98,689.43 	"/>
	<g>
		<polygon class="st15" points="360.92,352.8 281.49,361.19 401.15,462.83 232.5,480.54 144.07,461.36 67.55,386.07 110.45,352.47 
			79.8,307.7 89.54,101.07 150.43,128 187.89,97.26 231.17,108.44 264.08,94.32 329.62,114.41 379.95,59.47 		"/>
		<polygon class="st11" points="329.62,114.41 269.45,256.23 264.08,94.32 		"/>
		<polygon class="st11" points="231.17,108.44 204.42,233.48 187.89,97.26 		"/>
		<polygon class="st11" points="150.43,128 126.7,289.36 89.54,101.07 		"/>
		<polygon class="st11" points="67.55,386.07 170.72,366.17 110.45,352.47 		"/>
		<polygon class="st15" points="446.45,407.42 360.85,428.88 360.92,352.8 		"/>
		<polygon class="st11" points="360.92,352.8 401.15,462.83 172.61,365.77 		"/>
		<polygon class="st11" points="379.95,59.47 469.23,246.91 446.45,407.42 279.72,334.53 		"/>
	</g>
	<g>
		<path class="st9" d="M331.87,711.88l3.87-5.19c0,0,7.21,8.06,13,10.36c5.79,2.3,13.55,0.19,13.55,0.19s-5.58,13.99-15.2,10.55
			C338.58,724.75,331.87,711.88,331.87,711.88z"/>
		<path class="st5" d="M303.99,599.63c-10.7,35.54,7.58,84.24,40.84,108.78c-1.78,5.91-3.56,11.83-5.34,17.74
			c-42.42-31.31-65.74-93.43-52.09-138.77c3.53,0.75,6.57,1.88,9.49,4.03C299.49,593.35,302.09,596.35,303.99,599.63z"/>
	</g>
	<polygon class="st6" points="325.1,517.68 307.29,632.07 286.33,639.52 255.19,698.83 239.77,700.26 238.1,637.11 264.08,533.61 	
		"/>
	<polygon class="st14" points="321.07,557.69 299.14,584.06 297.61,612.81 307.29,632.07 320.57,594.88 	"/>
	<polygon class="st14" points="352.81,565.61 355.11,536.39 270.01,551.57 307.54,571.15 	"/>
	<polygon class="st14" points="397.56,502.81 363.39,527.48 392.23,527.57 	"/>
	<polygon class="st6" points="305.62,499.52 261.8,500.02 357.03,523.69 	"/>
	<polygon class="st14" points="329.36,481.04 321.07,502.51 258.52,500.48 	"/>
	<polygon class="st14" points="286.33,639.52 275.19,624.94 255.19,698.83 	"/>
	<polygon class="st17" points="372.48,497.3 354.98,497.3 356.04,500.82 	"/>
	<polygon class="st13" points="246.02,502.9 236.33,517.68 247.24,527.57 236.33,602.21 222.9,517.68 228.9,515.55 221.35,496.41 
		230.71,504.66 	"/>
</g>
</svg>
