<?xml version="1.0" encoding="utf-8"?>
<!-- Generator: Adobe Illustrator 27.6.1, SVG Export Plug-In . SVG Version: 6.00 Build 0)  -->
<svg version="1.1" id="Layer_1" xmlns="http://www.w3.org/2000/svg" xmlns:xlink="http://www.w3.org/1999/xlink" x="0px" y="0px"
	 viewBox="0 0 300 300" style="enable-background:new 0 0 300 300;" xml:space="preserve">
<style type="text/css">
	.st0{fill:#E8E6E8;}
	.st1{fill:#F2F2F2;}
	.st2{fill:#DBD9D9;}
	.st3{fill:#A7A5AE;}
	.st4{fill:#C4C1CD;}
	.st5{fill:#B9B6C0;}
	.st6{fill:#CDC9D7;}
	.st7{fill:#A6A2B3;}
	.st8{fill:#E2E0E0;}
	.st9{fill:#DDD7D7;}
	.st10{fill:#EFEDED;}
	.st11{fill:#F7F7F7;}
	.st12{fill:#E0DEDE;}
	.st13{fill:#C5B0C6;}
	.st14{fill:#AC9FAD;}
	.st15{fill:#4E4966;}
</style>
<g>
	<path class="st0" d="M156.3,266.69c-1.38,4.1-17.54,2.35-36.08-3.91s-54.1-15.3-52.71-19.4c1.38-4.1,39.18-1.7,57.72,4.56
		S157.68,262.59,156.3,266.69z"/>
	<path class="st1" d="M158.23,271.44c-1.38,4.1-17.54,2.35-36.08-3.91s-54.1-15.3-52.71-19.4c1.38-4.1,39.18-1.7,57.72,4.56
		C145.7,258.95,159.61,267.34,158.23,271.44z"/>
	<path class="st2" d="M173.34,271.51c-1.23,3.64-15.57,2.09-32.04-3.47s-50.46-13.66-49.23-17.3s37.21-1.44,53.68,4.12
		C162.22,260.41,174.57,267.87,173.34,271.51z"/>
</g>
<g>
	<g>
		<polygon class="st3" points="193.05,139.67 107.91,139.67 101.34,169.35 186.47,169.35 		"/>
		<polygon class="st4" points="206.36,275.56 140.33,275.56 125.69,155.31 221,155.31 		"/>
		<polygon class="st5" points="140.33,275.56 130.26,265.8 107.86,139.67 125.69,155.31 		"/>
		<polygon class="st6" points="125.69,155.31 107.86,139.67 95.67,155.85 99.64,162.93 		"/>
		<polygon class="st6" points="221,155.31 193.42,139.67 221.24,151.94 233.99,159.03 		"/>
		<polygon class="st7" points="193.41,139.67 107.86,139.67 125.69,155.31 193.42,155.31 193.42,139.68 		"/>
		<polygon class="st5" points="193.42,139.68 193.42,155.31 221,155.31 		"/>
		<polygon class="st6" points="221,155.31 125.78,155.31 138.46,177.46 233.69,177.46 		"/>
	</g>
</g>
<g>
	<g>
		<polygon class="st8" points="150.34,93.98 191.06,56.93 204.45,53.22 209.99,55.68 213.5,59.27 202.99,63.52 196.31,62.15 
			167.93,93.62 		"/>
		<polygon class="st9" points="162.3,82.82 191.06,56.93 204.45,53.22 209.99,55.68 193.49,59.03 		"/>
	</g>
	<polygon class="st10" points="184.88,155.28 140.72,155.28 144.4,123.61 138.99,99.53 143.17,65.04 158.1,60.32 171.39,78.39 
		179.97,82.23 188.51,96.19 190.75,133.99 	"/>
	<polygon class="st10" points="181.66,41.89 169.28,39.95 157.39,43.33 143.17,65.04 154.87,84.74 175.95,80.9 173.3,63.32 
		201.55,59.88 199.96,52.48 	"/>
	<polygon class="st11" points="183.58,54.8 201.55,59.88 199.96,52.48 181.66,41.89 	"/>
	<polygon class="st8" points="183.58,54.8 165.25,58.11 164.69,87.2 143.17,65.04 157.39,43.33 169.28,39.95 181.66,41.89 	"/>
	<polygon class="st8" points="164.69,84.74 176.75,88.19 176.21,94.75 183.49,107.92 183.45,118.91 177.9,120.25 180.78,136.11 
		178.13,152.9 140.16,152.9 140.72,133.44 135.52,97.86 143.17,65.04 	"/>
	<polygon class="st8" points="197.86,55.94 198.39,58.01 200.22,58.75 199.49,56.59 	"/>
	<g>
		<polygon class="st10" points="171.3,94.65 186.54,69.26 219.42,78.26 197.02,78.41 183.45,118.91 		"/>
		<polygon class="st10" points="186.54,69.26 217.82,74.31 228.24,85.3 228.71,91.1 217.58,89.18 217.07,78.85 196.58,79.33 		"/>
		<polygon class="st11" points="187.84,69.43 219.41,71.92 228.24,85.3 228.71,91.1 217.04,77.72 		"/>
	</g>
	<polygon class="st9" points="144.87,125.65 147.42,107.71 162.15,90.31 161.17,71.76 138.22,91.64 137.38,89.88 135.52,97.86 
		136.4,103.89 139.34,106.85 	"/>
	<g>
		<g>
			<polygon class="st12" points="187.03,45.13 179.87,43.79 180.02,37.09 189.31,34.87 188.2,38.11 			"/>
		</g>
		<polygon class="st10" points="182.14,44.21 189.31,34.87 187.03,45.13 		"/>
		<g>
			<polygon class="st12" points="189.61,40.74 183.58,40.19 184.95,34.23 191.96,32.55 191.12,34.99 			"/>
		</g>
		<polygon class="st10" points="186.33,40.44 191.96,32.55 189.61,40.74 		"/>
		<g>
			<polygon class="st12" points="192.19,37.53 187.06,37.06 188.23,31.98 194.19,30.56 193.48,32.64 			"/>
		</g>
		<polygon class="st10" points="189.98,37.33 194.19,30.56 192.19,37.53 		"/>
		<g>
			<polygon class="st12" points="194.47,34.56 190.2,34.17 191.18,29.95 199.56,25.68 			"/>
		</g>
		<polygon class="st10" points="199.41,25.66 192.45,34.38 194.47,34.56 		"/>
	</g>
	<g>
		<polygon class="st13" points="180.32,46.29 174.95,52.43 165.33,53.69 159.91,82.27 148.37,90.38 143.17,100.82 143.17,108.97 
			136.95,87.2 142.17,65.04 157.39,43.33 169.24,35.32 177.31,35.93 182.33,42.56 		"/>
		<g>
			<polygon class="st14" points="147.99,62.12 149.81,73.47 143.56,83.71 141.33,89.06 143.17,100.82 143.17,108.97 136.95,87.2 
				142.17,65.04 			"/>
		</g>
		<polygon class="st13" points="162.9,39.61 154.69,42.52 147.47,47.54 155.32,47.38 		"/>
		<polygon class="st13" points="181.71,41.77 178.34,33.48 162.17,28.8 174.96,39.12 		"/>
		<polygon class="st13" points="174.95,35.78 169.18,34.81 155.01,39.54 168.45,39.67 		"/>
		<polygon class="st13" points="163.53,46.29 153.7,47.1 140.09,56.07 152.86,52.87 		"/>
		<polygon class="st13" points="159.84,52.43 150.02,53.24 131.5,64.67 144.26,61.47 		"/>
		<polygon class="st13" points="151.5,59.83 144.08,62.3 134.56,75.04 143.23,70.08 		"/>
	</g>
	<polygon class="st14" points="162.9,39.61 154.69,42.52 147.47,47.54 	"/>
	<polygon class="st14" points="181.71,41.77 178.34,33.48 162.17,28.8 	"/>
	<polygon class="st14" points="174.95,35.78 169.18,34.81 155.01,39.54 	"/>
	<polygon class="st14" points="163.53,46.29 153.7,47.1 140.09,56.07 	"/>
	<polygon class="st14" points="159.84,52.43 150.02,53.24 131.5,64.67 	"/>
	<polygon class="st14" points="151.5,59.83 144.08,62.3 134.56,75.04 	"/>
	<polygon class="st13" points="182.34,42.62 182.08,36.77 174.07,23.71 176.78,36.88 	"/>
	<polygon class="st8" points="184.2,47.23 188.2,50.89 189.98,49.02 	"/>
	<polygon class="st8" points="186.54,69.26 183.67,118.89 176.97,120.31 169.5,95.37 175.41,87.81 	"/>
	<polygon class="st10" points="196.58,79.33 193.02,70.31 217.07,78.85 	"/>
</g>
<g>
	<path class="st15" d="M198.11,224.1l-0.17-0.49l-0.08-0.24c-0.01-0.03-1.18-3.54-0.92-6.12c0.38-3.75-1.98-8.13-2.26-8.61
		l-0.72-1.29l-1.44-2.59l-1.26,2.68l-0.63,1.34c0,0-0.69,1.36-2.41,2.44c-1.52,0.96-2.56,2.07-3.21,2.93l-5.97-0.66l-0.46-0.05
		l-0.41,0.22l-4.86,2.56l-4.74-2.55l-0.42-0.22l-0.47,0.05l-5.95,0.66c-0.83-1.19-2.16-2.7-3.87-3.39c-0.92-0.36-1.57-1.49-1.75-1.9
		l-0.47-1.16l-0.96-2.35l-1.61,1.97l-0.81,0.98c-0.33,0.4-3.17,4.03-2.47,9.04c0.46,3.28-0.77,5.67-0.79,5.7l-0.15,0.27l-0.32,0.59
		l0.21,0.63l2.75,8.09l-2.04,2.81l-0.62,0.85l0.58,0.88l0.29,0.44c0.16,0.24,1.61,2.37,3.92,3.61c0.39,0.21,0.79,0.39,1.21,0.55
		l-3.74,5.82l-2.02,3.15l3.64-0.85l5.53-1.29l6.85,2.05l-2,1.93l3.11,0.42l4.21,0.56l2.3,1.11l0.66,0.32l0.66-0.32l2.25-1.09
		l4.25-0.58l3.09-0.42l-1.99-1.92l6.85-2.05l5.53,1.29l3.64,0.85l-2.02-3.15l-3.82-5.95c0.32-0.12,0.64-0.26,0.97-0.4
		c3.15-1.4,4.29-3.66,4.4-3.91l0.19-0.41l0.38-0.81l-0.53-0.72l-1.99-2.75l2.72-8.02L198.11,224.1z M174.05,226.91v-7.71l5.05-2.66
		l7.44,0.82l0.23-0.48c0.01-0.02,0.88-1.77,3-3.11c1.29-0.81,2.17-1.58,2.72-2.14c0.62,1.18,1.55,3.36,1.36,5.3
		c-0.29,2.85,0.69,6.22,0.99,7.16l-3.06,9.02l2.35,3.25c-0.35,0.5-1.15,1.4-2.66,2.06c-1.01,0.45-1.78,0.69-2.34,0.82
		c-0.11,0.03-0.21,0.05-0.31,0.07c-0.19,0.04-0.34,0.06-0.45,0.08c-0.16,0.02-0.25,0.02-0.25,0.02l-0.2-0.01l-0.31-0.01l-0.94-0.03
		l0.29,0.44l0.25,0.4l0.25,0.4l0.15,0.23l0.16,0.24l0.15,0.23l0.1,0.16l0.25,0.4l0.09,0.14l0.45,0.7l0.31,0.48l1.84,2.86l-1.84-0.43
		l-0.76-0.18l-0.76-0.18l-0.34-0.08l-0.89-0.21l-0.89-0.21l-1.06-0.25l-0.88-0.21l-0.89-0.21l-1.05-0.25l-0.89-0.21l-0.88-0.21
		l-1.06-0.25l-0.79-0.18l0.27-0.13l2.36-1.18l6.97-3.48l0.31-0.15l0.45-0.23l0.45-0.23l0.31-0.15v-1.91v-8.79l0.23-0.22l1.29-2.23
		l-1.32-0.74l-1.08,1.94l-1.67,1.56l0.03,0.04l1,1.07l0.01-0.01v1.8v1.51v1.51v1.51v1.05v0.76v0.21l-11.91,5.95l-1.06,0.53
		l-0.97,0.48l-0.09,0.05l-0.3,0.15l-0.3-0.15l-0.09-0.05l-0.97-0.48l-1.06-0.53l-11.91-5.95v-0.21v-0.76v-1.05v-1.51v-1.51v-1.51
		v-1.8l0.01,0.01l1-1.07l0.03-0.04l-1.67-1.56l-1.08-1.94l-1.32,0.74l1.14,2.05l0.38,0.36v8.83v1.91l0.31,0.15l0.45,0.23l0.45,0.23
		l0.31,0.15l6.97,3.48l2.36,1.18l0.27,0.13l-0.79,0.18l-1.06,0.25l-0.88,0.21l-0.89,0.21l-1.05,0.25l-0.89,0.21l-0.88,0.21
		l-1.06,0.25l-0.89,0.21l-0.89,0.21l-0.34,0.08l-0.76,0.18l-0.76,0.18l-1.84,0.43l1.84-2.86l0.31-0.48l0.45-0.7l0.09-0.14l0.25-0.4
		l0.11-0.17l0.15-0.23l0.16-0.25l0.15-0.23l0.25-0.4l0.25-0.4l0.25-0.39h-0.91h-0.31h-0.18c0,0-0.11,0-0.28-0.01
		c-0.12-0.01-0.27-0.02-0.45-0.05c-0.09-0.01-0.2-0.03-0.31-0.04c-0.67-0.11-1.58-0.33-2.46-0.8c-1.16-0.62-2.06-1.62-2.51-2.19
		l2.33-3.2l-3.04-8.96c0.41-0.9,1.47-3.62,0.97-7.25c-0.34-2.46,0.53-4.55,1.18-5.72c0.55,0.82,1.45,1.84,2.77,2.37
		c1.76,0.7,3.13,3.31,3.15,3.34l0.24,0.46l7.42-0.82l5.05,2.72v7.65H174.05z M176.95,250.37l-1.33,0.18l-0.26-0.46l-0.29-0.51
		l-0.39,0.22l-0.39,0.22l0.19,0.33l0.3,0.53l0.08,0.15l0.06,0.1l-1.61,0.78l-1.66-0.8l0.06-0.1l0.1-0.17l0.29-0.51l0.18-0.32
		l-0.39-0.23l-0.39-0.23l-0.29,0.5l-0.28,0.49l-1.27-0.2l0.59-0.57l0.63-0.6l0.43-0.42l2,0.6l2.03-0.61l0.43,0.42l0.62,0.61
		L176.95,250.37z M165.04,245.39l5.76,1.73l0.75,0.22l0.72,0.22l1.02,0.3l0.99-0.3l0.75-0.22l0.75-0.22l5.76-1.73l1.06,0.25
		l-6.38,1.91l-0.83,0.25l-0.8,0.24l-1.29,0.39l-1.3-0.39l-0.79-0.24l-0.83-0.25l-6.38-1.91L165.04,245.39z M167.86,244.73l3.68,1.1
		l0.75,0.22l0.74,0.22l0.26,0.08l0.25-0.08l0.75-0.22l0.75-0.22l3.68-1.1l1.05,0.25l-4.46,1.34l-0.75,0.22l-0.75,0.22l-0.53,0.16
		l-0.54-0.16l-0.73-0.22l-0.75-0.22l-4.46-1.34L167.86,244.73z M170.68,244.07l1.46,0.73l0.68,0.34l0.47,0.23l0.47-0.23l0.68-0.34
		l1.46-0.73l1.05,0.24l-2.38,0.71l-0.75,0.22l-0.53,0.16l-0.53-0.16l-0.75-0.22l-2.38-0.71L170.68,244.07z M177.39,248.69
		l-0.43-0.42l7.41-2.22l1.02,0.24L177.39,248.69z M162.21,246.05l7.41,2.22l-0.43,0.42l-8-2.4L162.21,246.05z"/>
	<polygon class="st15" points="183.05,228.93 184.99,227.11 185.73,226.42 187.43,222.17 186.03,221.61 184.45,225.55 
		182.77,227.11 182.01,227.82 	"/>
	<polygon class="st15" points="178.03,228.93 179.97,227.11 180.71,226.42 182.41,222.17 181,221.61 179.43,225.55 177.75,227.11 
		176.99,227.82 	"/>
	<polygon class="st15" points="164.57,227.82 163.81,227.11 162.13,225.55 160.55,221.61 159.15,222.17 160.85,226.42 
		161.59,227.11 163.53,228.93 	"/>
	<polygon class="st15" points="166.61,227.11 168.56,228.93 169.59,227.82 168.83,227.11 167.15,225.55 165.58,221.61 
		164.17,222.17 165.87,226.42 	"/>
	<polygon class="st15" points="170.23,238.19 168.99,239.96 169.61,240.39 169.61,240.39 170.23,240.83 170.53,240.39 
		171.01,239.71 175.17,239.71 175.65,240.39 175.95,240.83 176.57,240.39 176.57,240.39 177.19,239.96 175.96,238.19 	"/>
	<polygon class="st15" points="173.15,236.31 173.1,236.33 173.05,236.31 171.8,235.83 171.61,236.31 171.25,237.25 173.11,237.95 
		174.93,237.24 174.57,236.31 174.38,235.83 	"/>
	<polygon class="st15" points="169.32,235.82 169.32,234.5 169.32,234.5 169.33,234.5 169.72,234.76 169.89,234.5 170.55,233.49 
		169.79,232.99 167.49,231.48 165.2,229.98 164.81,229.72 164.8,229.98 164.78,231.48 164.75,232.99 164.74,234.11 165.49,234.13 
		165.5,234.13 166.25,234.14 166.25,234.13 166.27,232.99 166.28,232.5 167.03,232.99 168.36,233.87 167.37,233.87 167.37,234.13 
		167.37,234.5 167.37,235.82 	"/>
	<polygon class="st15" points="180.99,229.98 178.69,231.48 176.39,232.99 175.63,233.49 176.05,234.13 176.05,234.13 176.29,234.5 
		176.46,234.76 176.86,234.5 176.86,234.5 176.86,234.5 176.86,235.82 178.82,235.82 178.82,234.5 178.82,234.13 178.82,233.87 
		177.82,233.87 179.16,232.99 179.91,232.5 179.91,232.99 179.93,234.13 179.93,234.14 180.68,234.13 180.69,234.13 181.45,234.11 
		181.43,232.99 181.41,231.48 181.38,229.98 181.38,229.72 	"/>
</g>
<g>
	<path class="st15" d="M145.23,187.64h2.73v10.87h6.01v2.4h-8.74V187.64z"/>
	<path class="st15" d="M155.48,197.4v-4.8h2.63v4.62c0,0.94,0.45,1.48,1.39,1.48c1.05,0,1.64-0.6,1.64-1.66v-4.45h2.63v8.31h-2.63
		l0.06-1.37c-0.51,1-1.46,1.54-2.62,1.54C156.77,201.08,155.48,199.76,155.48,197.4z"/>
	<path class="st15" d="M165.57,196.73c0-2.56,1.72-4.31,3.73-4.31c1.33,0,2.07,0.53,2.6,1.35v-6.95h2.63v14.09h-2.63l0.06-1.21
		c-0.47,0.88-1.35,1.39-2.62,1.39C167.31,201.08,165.57,199.29,165.57,196.73z M171.97,196.73c0-1.23-0.74-1.99-1.87-1.99
		c-1.11,0-1.81,0.76-1.81,1.99c0,1.31,0.7,2.05,1.81,2.05C171.23,198.78,171.97,198.04,171.97,196.73z"/>
	<path class="st15" d="M175.74,192.6h2.91l0.96,2.36c0.29,0.7,0.61,1.85,0.61,1.85s0.31-1.17,0.68-1.85l1.37-2.58h0.2l1.44,2.58
		c0.35,0.64,0.68,1.74,0.72,1.85c0.02-0.06,0.31-1.19,0.61-1.85l0.98-2.36h2.63l-3.88,8.53h-0.23l-1.8-3.34
		c-0.31-0.55-0.55-1.5-0.59-1.64c-0.04,0.1-0.31,1.09-0.62,1.64l-1.91,3.34h-0.21L175.74,192.6z"/>
	<path class="st15" d="M189.79,189.55c0-0.96,0.78-1.64,1.68-1.64c0.9,0,1.66,0.68,1.66,1.64c0,0.98-0.76,1.66-1.66,1.66
		C190.57,191.21,189.79,190.53,189.79,189.55z M190.15,192.6h2.63v8.31h-2.63V192.6z"/>
	<path class="st15" d="M194.73,203.19l1.85-1.44c0.59,0.72,1.27,1.29,2.46,1.29c1.21,0,1.97-0.72,1.97-2.24v-1
		c-0.45,0.76-1.31,1.29-2.58,1.29c-2.03,0-3.77-1.8-3.77-4.35c0-2.56,1.72-4.31,3.73-4.31c1.33,0,2.19,0.59,2.67,1.46l-0.06-1.29
		h2.63v8.29c0,3.16-2.07,4.35-4.49,4.35C196.96,205.24,195.67,204.46,194.73,203.19z M201.07,196.73c0-1.23-0.74-1.99-1.87-1.99
		c-1.11,0-1.81,0.76-1.81,1.99c0,1.31,0.7,2.05,1.81,2.05C200.33,198.78,201.07,198.04,201.07,196.73z"/>
</g>
</svg>
