<?xml version="1.0" encoding="utf-8"?>
<!-- Generator: Adobe Illustrator 27.6.1, SVG Export Plug-In . SVG Version: 6.00 Build 0)  -->
<svg version="1.1" id="Layer_1" xmlns="http://www.w3.org/2000/svg" xmlns:xlink="http://www.w3.org/1999/xlink" x="0px" y="0px"
	 viewBox="0 0 300 300" style="enable-background:new 0 0 300 300;" xml:space="preserve">
<style type="text/css">
	.st0{fill:#E8E6E8;}
	.st1{fill:#F2F2F2;}
	.st2{fill:#DBD9D9;}
	.st3{fill:#C5B0C6;}
	.st4{fill:#AC9FAD;}
	.st5{fill:#D0C3D1;}
	.st6{fill:#9A8F9B;}
	.st7{fill:#EFE4E4;}
	.st8{fill:#E0D3D3;}
	.st9{fill:#EFEDED;}
	.st10{fill:#E2E0E0;}
	.st11{fill:#F7F7F7;}
</style>
<g>
	<path class="st0" d="M172.63,246.89c-2.52,7.48-29.32,5.19-59.85-5.11s-89.23-24.72-86.7-32.2c2.52-7.48,65.31-5.19,95.84,5.11
		S175.15,239.41,172.63,246.89z"/>
	<path class="st1" d="M175.42,261.12c-2.52,7.48-29.32,5.19-59.85-5.11s-89.23-24.72-86.7-32.2s65.31-5.19,95.84,5.11
		S177.95,253.64,175.42,261.12z"/>
	<path class="st2" d="M179.48,256.79c-2.24,6.64-26.03,4.61-53.14-4.54s-83.26-21.95-81.02-28.59c2.24-6.64,62.03-4.61,89.14,4.54
		S181.72,250.15,179.48,256.79z"/>
</g>
<g>
	<polygon class="st3" points="274.89,39.01 263.89,30.78 263.58,30.8 256.99,36.92 257.72,36.46 	"/>
	<polygon class="st3" points="251.7,35.68 241.64,32.12 231.59,40.32 221.39,50.34 208.65,54.25 190.47,90.32 224.56,120.82 
		226.14,91.2 235.34,73.9 241.78,46.53 256.48,37.24 	"/>
	<polygon class="st4" points="263.58,30.8 242.15,32.01 241.46,32.32 256.48,37.24 256.99,36.92 	"/>
	<polygon class="st4" points="221.39,50.34 231.59,52.16 226.99,46.2 243.09,41.06 241.46,32.32 219.25,42.04 194.07,48.54 
		166.85,69.19 190.47,90.32 223.72,54.25 	"/>
	<polygon class="st5" points="257.72,36.46 241.78,46.53 235.34,73.9 222.91,91.2 224.82,115.86 235.71,95.77 238.92,73.77 
		255.45,60 264.67,45.04 275.13,39.18 274.89,39.01 	"/>
	<polygon class="st5" points="236.65,78.12 234.2,72.04 234.06,54.9 242.01,67.69 	"/>
	<polygon class="st6" points="177.74,67.42 194.07,48.54 220.6,45.37 228.4,38.04 224.96,48.03 200.56,54.9 196.62,64.9 	"/>
	<polygon class="st5" points="245.8,38.99 251.83,36.46 257.72,36.46 254.07,38.85 	"/>
	<polygon class="st4" points="214.24,104.93 218.35,55.73 218.35,55.73 194.45,59.43 173.23,66.21 172.94,66.3 150.47,59.66 
		122.56,55.73 150.35,106.54 140.86,129.99 186.02,128.47 235.85,126.79 236.65,126.77 	"/>
	<polygon class="st3" points="214.24,104.93 218.35,55.73 218.35,55.73 194.45,59.43 173.23,66.21 149.06,59.09 122.56,55.73 
		135.69,62.3 151.21,64.83 170.93,70.74 194.07,62.84 214.95,59.81 194.24,67.59 182.62,75.59 170.6,78.62 171.33,86.91 
		179.39,98.6 186.02,128.47 235.85,126.79 236.65,126.77 	"/>
	<polygon class="st5" points="200.56,105.44 211.54,111.5 235.85,126.79 236.65,126.77 214.24,104.93 218.35,55.73 218.35,55.73 
		204.63,97.91 	"/>
	<polygon class="st6" points="123.14,56.8 150.35,106.54 140.86,129.99 156.94,130.17 144.94,126.32 156.37,106.45 147.2,92.58 	"/>
	<polygon class="st3" points="259.05,139.05 190.43,123.4 189.52,123.4 180.85,172.67 193.43,220.89 181.07,267.84 248,234.32 
		249.81,221.9 237.73,209.49 227.36,191.59 248.99,172.52 	"/>
	<polygon class="st4" points="180.85,172.67 189.52,123.4 155.49,123.4 121.13,151.66 110.22,166.3 126.83,185.21 138.8,188.19 
		106.84,232.16 180.16,268.33 181.07,267.84 190.93,239.44 193.43,220.89 	"/>
	<polygon class="st4" points="256.48,140.34 232.48,157.19 225.82,189.95 248,169.93 249.02,156.77 	"/>
	<polygon class="st7" points="255.4,140.91 272.79,141.99 263.44,151.68 265.11,160.77 245.8,147.72 	"/>
	<polygon class="st8" points="254.78,143.84 258.3,148.02 259.1,156.16 254.7,150.42 	"/>
	<polygon class="st7" points="202.07,132.01 156.06,132.01 166.83,107.82 156.06,86 180.26,96.77 202.07,86 191.31,108.6 	"/>
	<polygon class="st4" points="232.48,157.19 259.05,139.05 222.91,148.12 199.14,132.01 203.15,179.3 226.9,185.64 	"/>
	<polygon class="st4" points="190.3,240.03 184.11,250.07 181.07,267.84 186.74,264.82 200.38,246.53 	"/>
	<polygon class="st6" points="208.24,152.15 218.69,147.12 223.99,157.54 219.98,168.83 225.44,180.94 205.56,184.12 	"/>
	<polygon class="st6" points="106.84,232.16 127.43,247.24 180.16,268.33 135.85,243.27 127.71,225.38 148.27,216.07 130.42,216.07 
		153.82,189.95 138.8,188.19 	"/>
	<polygon class="st5" points="227.19,192.01 217.79,186.25 211.69,182.76 192.88,192.95 226.36,207.3 227.1,244.56 241.12,228.16 
		250.23,222.13 230.36,209.29 	"/>
	<polygon class="st6" points="114.52,165.22 128.75,158.12 131.31,169.2 147.46,181.1 131.14,184.13 	"/>
	<polygon class="st8" points="189.07,103.88 180.01,108.45 170.76,104.75 178.86,111 180.09,114.37 181.27,111.17 	"/>
	<polygon class="st6" points="243.37,149.54 241.15,163.92 227.97,185.64 232.48,157.19 	"/>
	<polygon class="st7" points="123.29,171.09 109.2,181.33 111.31,167.91 103.16,161.96 126.36,159.72 	"/>
	<polygon class="st7" points="120.22,153.53 126.97,158.78 124.54,165.85 120.14,160.11 	"/>
	<polygon class="st6" points="146.53,142.47 136.3,148.63 135.25,166.15 146.53,173.19 	"/>
	<polygon class="st6" points="157.7,203.75 171.31,228.36 168.66,243.73 182.24,236.23 190.37,215.79 	"/>
	<g>
		<g>
			<polygon class="st9" points="211.93,143 204,125.37 194.29,120.34 175.5,123.93 166.22,120.34 156.52,125.37 148.59,143 
				146.53,178.76 156.28,207.93 178.9,228.52 179.48,220.85 193.07,206.88 213.99,178.76 			"/>
			<g>
				<polygon class="st10" points="151.14,171.26 161.3,183.02 161.39,199.22 162.64,206.96 173.11,219.16 178.9,228.52 
					156.28,207.93 146.53,178.76 				"/>
			</g>
			<polygon class="st9" points="153.55,166.15 146.78,174.26 144.9,195.66 151.34,183.8 			"/>
			<polygon class="st10" points="153.55,166.15 146.78,174.26 144.9,195.66 			"/>
			<polygon class="st9" points="157.87,151.71 147.16,159.62 134,185.91 152.85,171.02 			"/>
			<polygon class="st10" points="157.87,151.71 147.16,159.62 134,185.91 			"/>
			<polygon class="st9" points="157.74,142.04 147.03,149.95 137.77,169.93 158.77,155.03 			"/>
			<polygon class="st10" points="157.74,142.04 147.03,149.95 137.77,169.93 151.8,153.34 			"/>
			<polygon class="st9" points="152.27,134.81 144.91,143.98 140.19,154.89 154.47,151.28 158.76,143.11 			"/>
			<polygon class="st10" points="166.5,157.19 161.05,160.79 160.5,165.97 165.67,162.4 			"/>
			<polygon class="st10" points="167.59,143.92 163.61,145.29 162.59,148.46 166.38,147.06 			"/>
			<polygon class="st10" points="173.41,182.18 168.27,187.51 166.65,193.51 171.57,188.28 			"/>
			<polygon class="st10" points="172.04,184.13 168.79,193.48 169.74,201.78 172.79,192.67 			"/>
			<polygon class="st10" points="152.27,134.81 144.91,143.98 140.19,154.89 148.46,144.72 			"/>
			<g>
				<polygon class="st11" points="209.38,171.26 199.22,183.02 193.75,201.37 182.81,208.03 176.65,219.16 178.9,228.52 
					182.71,218.7 199.03,211.35 213.99,178.76 				"/>
			</g>
			<polygon class="st9" points="163.41,121.85 156.08,124.84 143.16,140.34 158.7,133.08 			"/>
			<polygon class="st9" points="199.44,166.15 210.51,174.26 217.77,187.05 209.18,183.8 			"/>
			<polygon class="st11" points="206.97,166.15 213.74,172.11 217.77,187.05 212.06,180.23 			"/>
			<polygon class="st10" points="163.41,121.85 156.08,124.84 143.16,140.34 159.54,129.31 			"/>
			<polygon class="st9" points="202.65,151.71 213.36,159.62 222.21,175.15 205.52,171.02 			"/>
			<polygon class="st10" points="175.43,123.92 165.66,116.8 143.76,122.91 165.78,127.83 			"/>
			<polygon class="st11" points="202.65,151.71 213.36,159.62 222.21,175.15 212.76,169 			"/>
			<polygon class="st9" points="175.43,123.92 165.66,116.8 143.76,122.91 			"/>
			<polygon class="st11" points="194.18,156.77 198.64,161.23 204.09,171.07 196.79,165.35 			"/>
			<polygon class="st11" points="194.18,135.24 198.64,139.7 204.09,149.54 196.79,143.82 			"/>
			<polygon class="st11" points="194.5,136.31 196.94,140.48 198.81,148.63 194.42,142.89 			"/>
			<polygon class="st9" points="202.78,142.04 213.49,149.95 220.6,161.32 210.36,157.19 			"/>
			<polygon class="st11" points="202.78,142.04 213.49,149.95 220.6,161.32 210.63,154.92 			"/>
			<polygon class="st9" points="208.24,134.81 215.61,143.98 220.33,154.89 201.74,142.67 			"/>
			<polygon class="st11" points="208.24,134.81 215.61,143.98 220.33,154.89 214.29,148.08 			"/>
			<polygon class="st9" points="197.11,121.85 204.44,124.84 221.67,140.34 201.82,136.31 			"/>
			<polygon class="st11" points="197.11,121.85 204.44,124.84 221.67,140.34 			"/>
			<polygon class="st10" points="176.76,124.45 180.53,128.06 193.82,120.07 153.82,108.6 166.28,121.81 			"/>
			<polygon class="st9" points="185.09,123.92 194.86,116.8 216.76,122.91 194.74,125.68 			"/>
			<polygon class="st11" points="185.09,123.92 194.86,116.8 216.76,122.91 			"/>
			<polygon class="st9" points="182.69,125.53 174.35,119.69 206.7,108.6 194.24,125.04 			"/>
			<polygon class="st9" points="153.82,108.6 175.43,128.3 182.62,116.86 			"/>
			<polygon class="st11" points="205.63,108.6 190.21,119.1 174.35,119.69 			"/>
		</g>
		<g>
			<g>
				<polygon class="st9" points="154.53,76.12 161.16,82.05 176.45,105.6 154.93,94.78 155.96,91.62 146.03,96.16 				"/>
				<polygon class="st9" points="167.48,82.49 171.64,90.09 176.45,105.6 166.21,94.39 				"/>
				<polygon class="st9" points="173.33,88.81 174.24,97 176.45,105.6 170.47,95.63 				"/>
				<polygon class="st9" points="169.81,101.07 160.85,91.42 159.78,78.17 168.06,88.89 				"/>
				<polygon class="st10" points="176.45,105.6 166.48,96.5 164.24,90.08 162.47,93.16 156.18,82.27 146.03,96.16 155.74,95.12 
					158.6,96.62 				"/>
			</g>
			<g>
				<polygon class="st9" points="204.52,75.6 198.92,79.9 185.2,104.62 202.46,94.82 203.47,93.32 214.35,95.97 				"/>
				<polygon class="st9" points="192.15,85.04 188.28,89.52 185.2,104.62 192.33,95.75 				"/>
				<polygon class="st9" points="190.46,100.42 197.34,91.27 199.84,75.99 191.19,88.49 				"/>
				<polygon class="st11" points="185.2,104.62 192,94.59 192.64,96.7 198.02,85.8 200.05,90.32 203.24,78.59 214.35,95.97 
					203.47,93.32 202.46,94.82 				"/>
			</g>
		</g>
	</g>
</g>
</svg>
