<?xml version="1.0" encoding="UTF-8"?>
<svg xmlns="http://www.w3.org/2000/svg" viewBox="0 0 360 360">
  <defs>
    <style>
      .cls-1 {
        fill: #fff;
      }

      .cls-2 {
        fill: #98ef00;
      }

      .cls-3 {
        fill: none;
        stroke: #000;
        stroke-miterlimit: 10;
        stroke-width: .69px;
      }
    </style>
  </defs>
  <g id="Layer_1" data-name="Layer 1">
    <g>
      <path class="cls-1" d="m177.94,312.98c-39.21,0-76.15-12.3-104.03-34.63-28.5-22.83-44.19-53.37-44.19-86s15.69-63.17,44.19-86c27.88-22.33,64.83-34.63,104.03-34.63s76.15,12.3,104.03,34.63c28.5,22.83,44.19,53.37,44.19,86s-15.69,63.17-44.19,86c-27.88,22.33-64.83,34.63-104.03,34.63Z"/>
      <path d="m177.94,81.21c76.62,0,138.73,49.75,138.73,111.13s-62.11,111.13-138.73,111.13S39.21,253.72,39.21,192.35s62.11-111.13,138.73-111.13m0-19c-41.36,0-80.41,13.04-109.97,36.72-14.78,11.84-26.44,25.73-34.65,41.28-8.69,16.46-13.1,34-13.1,52.13s4.41,35.66,13.1,52.13c8.21,15.55,19.87,29.44,34.65,41.28,29.56,23.68,68.62,36.72,109.97,36.72s80.41-13.04,109.97-36.72c14.78-11.84,26.44-25.73,34.65-41.28,8.69-16.46,13.1-34,13.1-52.13s-4.41-35.66-13.1-52.13c-8.21-15.55-19.87-29.44-34.65-41.28-29.56-23.68-68.62-36.72-109.97-36.72h0Z"/>
    </g>
    <g>
      <path class="cls-1" d="m291.76,259.03c1.73,5.68,6.93,9.9,13.2,10.08,7.85.23,14.41-5.96,14.64-13.81.23-7.85-5.96-14.41-13.81-14.64-1.68-.05-3.31.2-4.82.69"/>
      <path d="m296.41,272.48c-4.68-2.38-8.33-6.59-9.93-11.84-.89-2.91.75-5.99,3.67-6.88,2.91-.89,5.99.75,6.88,3.67,1.09,3.59,4.34,6.07,8.09,6.18,4.81.14,8.83-3.65,8.97-8.46.07-2.33-.77-4.54-2.37-6.23-1.6-1.7-3.76-2.66-6.08-2.73-1.01-.03-2,.11-2.95.42-2.89.95-6.01-.63-6.95-3.52-.95-2.89.63-6.01,3.52-6.95,2.16-.71,4.41-1.03,6.7-.96,5.27.15,10.17,2.35,13.78,6.19,3.62,3.84,5.53,8.85,5.37,14.12-.32,10.88-9.43,19.47-20.31,19.16-2.99-.09-5.84-.84-8.38-2.14Z"/>
    </g>
    <g>
      <path class="cls-1" d="m256.05,279.11c.09,3.17,2.17,6.08,5.37,7.06,4.01,1.23,8.26-1.03,9.49-5.04,1.23-4.01-1.03-8.26-5.04-9.49-.86-.26-1.73-.37-2.58-.33"/>
      <path d="m256.54,286.69c-2.07-1.89-3.36-4.57-3.44-7.5-.04-1.63,1.24-2.98,2.86-3.02,1.63-.05,2.98,1.24,3.02,2.86.05,2,1.38,3.74,3.29,4.32,2.45.75,5.06-.63,5.81-3.09.36-1.19.24-2.45-.34-3.54-.58-1.1-1.56-1.9-2.75-2.27-.52-.16-1.05-.22-1.58-.2-1.62.08-3-1.17-3.08-2.8-.08-1.62,1.17-3,2.8-3.08,1.21-.06,2.42.09,3.58.45,2.69.82,4.9,2.65,6.22,5.13,1.32,2.49,1.59,5.34.77,8.03-1.7,5.56-7.61,8.69-13.16,6.99-1.53-.47-2.89-1.26-4.01-2.29Z"/>
    </g>
    <g>
      <path class="cls-1" d="m111.16,170.28c-1.61-2.73-4.84-4.27-8.12-3.57-4.1.87-6.73,4.9-5.86,9,.87,4.1,4.9,6.73,9,5.86.88-.19,1.69-.52,2.42-.96"/>
      <path d="m107.06,163.88c2.73.65,5.15,2.37,6.64,4.9.83,1.4.36,3.2-1.04,4.03-1.4.83-3.21.36-4.03-1.04-1.02-1.72-3.02-2.6-4.97-2.19-2.51.53-4.12,3-3.59,5.51.26,1.22.97,2.26,2.01,2.94,1.04.68,2.28.91,3.5.65.53-.11,1.03-.31,1.48-.59,1.38-.85,3.2-.43,4.05.96.85,1.38.43,3.2-.96,4.05-1.03.64-2.16,1.09-3.35,1.34-2.75.58-5.57.06-7.93-1.48-2.36-1.54-3.98-3.9-4.56-6.65-1.2-5.69,2.45-11.29,8.13-12.49,1.56-.33,3.14-.3,4.62.06Z"/>
    </g>
    <g>
      <path class="cls-1" d="m285.64,135.23c-.36-5.93,3.05-11.69,8.86-14.05,7.28-2.95,15.58.56,18.53,7.84,2.95,7.28-.56,15.58-7.84,18.53-1.56.63-3.17.97-4.76,1.03"/>
      <path d="m285.32,121c1.93-2.1,4.34-3.8,7.11-4.93,10.09-4.09,21.62.79,25.71,10.88,1.98,4.89,1.94,10.25-.12,15.11-2.05,4.86-5.88,8.62-10.76,10.6-2.12.86-4.34,1.34-6.61,1.43-3.04.12-5.61-2.24-5.73-5.28-.13-3.04,2.24-5.61,5.28-5.73,1-.04,1.98-.25,2.91-.63,2.16-.87,3.85-2.53,4.75-4.68.91-2.14.93-4.51.05-6.67-1.8-4.45-6.9-6.61-11.35-4.8-3.48,1.41-5.66,4.87-5.43,8.61.18,3.04-2.13,5.65-5.17,5.83-3.04.18-5.65-2.13-5.83-5.17-.33-5.48,1.63-10.7,5.18-14.56Z"/>
    </g>
    <g>
      <path class="cls-1" d="m87.7,269.64c.81,5.63-1.99,11.38-7.34,14.09-6.71,3.39-14.89.69-18.28-6.02-3.39-6.71-.69-14.89,6.02-18.28,1.44-.72,2.95-1.17,4.46-1.36"/>
      <path d="m89.13,283.18c-1.68,2.16-3.84,3.97-6.39,5.25-9.29,4.69-20.67.94-25.36-8.35-2.27-4.5-2.65-9.62-1.08-14.41,1.58-4.79,4.92-8.68,9.43-10.95,1.95-.98,4.03-1.62,6.19-1.88,2.89-.36,5.52,1.7,5.88,4.59.36,2.89-1.7,5.52-4.59,5.88-.95.12-1.87.4-2.73.83-1.99,1-3.47,2.72-4.16,4.83-.7,2.12-.53,4.37.48,6.36,2.07,4.1,7.09,5.76,11.19,3.68,3.2-1.61,5.01-5.08,4.5-8.63-.41-2.88,1.59-5.55,4.47-5.97,2.88-.41,5.55,1.59,5.97,4.47.74,5.2-.71,10.33-3.79,14.29Z"/>
    </g>
    <g>
      <path class="cls-1" d="m133.04,99.31c13.35-87.25,150.12-62.88,123.6,36.59"/>
      <path d="m140.27,101.3c.93-6.01,2.5-11.92,4.86-17.53l-.76,1.79c1.22-2.88,2.65-5.68,4.29-8.34.8-1.3,1.64-2.56,2.54-3.79.21-.28.41-.56.62-.84.87-1.16-1.33,1.68-.41.53.47-.59.95-1.18,1.44-1.75,1.85-2.15,3.85-4.16,6-6.01.5-.43,1.01-.86,1.53-1.27.16-.12.31-.25.47-.37.44-.35,1.09-.78-1.05.81.32-.24.63-.48.95-.71,1.11-.82,2.26-1.59,3.42-2.32,2.65-1.66,5.44-3.1,8.32-4.32l-1.79.76c5.16-2.17,10.6-3.61,16.15-4.37l-1.99.27c6.04-.8,12.17-.78,18.21.02l-1.99-.27c6.14.83,12.16,2.46,17.88,4.86l-1.79-.76c2.86,1.21,5.65,2.61,8.32,4.2,1.31.78,2.59,1.61,3.85,2.48.6.42,1.19.84,1.78,1.28.16.12.32.24.48.36.84.63-1.71-1.34-.89-.68.31.25.63.5.94.75,2.39,1.94,4.64,4.06,6.72,6.34,1.08,1.18,2.09,2.4,3.08,3.65.51.64-1.35-1.78-.74-.95.12.16.25.33.37.49.25.33.49.66.73.99.48.67.94,1.35,1.4,2.04,2,3.06,3.72,6.3,5.14,9.67l-.76-1.79c2.28,5.41,3.77,11.11,4.56,16.93l-.27-1.99c.93,7.1.8,14.29-.13,21.39l.27-1.99c-.59,4.41-1.49,8.76-2.63,13.06-1,3.79,1.26,8.32,5.24,9.23s8.15-1.18,9.23-5.24c2.49-9.38,3.93-19.21,3.63-28.92-.26-8.32-1.68-16.75-4.67-24.53s-6.99-14.59-12.31-20.88c-4.69-5.54-10.43-10.29-16.6-14.1s-12.85-6.63-19.75-8.5-14.22-2.82-21.39-2.71-14.28,1.19-21.03,3.36-13.33,5.34-19.04,9.62c-6.43,4.82-11.88,10.49-16.27,17.26s-7.61,14.74-9.47,22.71c-.47,2.03-.86,4.07-1.18,6.12s-.34,3.91.76,5.78c.91,1.56,2.69,3.04,4.48,3.45,1.92.44,4.07.34,5.78-.76,1.53-.99,3.16-2.6,3.45-4.48h0Z"/>
    </g>
    <g>
      <g>
        <path class="cls-1" d="m195.23,159.7c-11.62,0-22.76-4.3-31.35-12.1-9.21-8.37-14.6-19.83-15.2-32.29-.6-12.46,3.68-24.38,12.05-33.59,8.81-9.69,21.4-15.25,34.54-15.25,11.62,0,22.75,4.3,31.34,12.1,19.03,17.29,20.45,46.85,3.15,65.88-8.81,9.69-21.39,15.25-34.53,15.25Z"/>
        <path d="m195.26,70.22c10.29,0,20.62,3.67,28.82,11.13,17.5,15.9,18.8,43.08,2.9,60.58-8.45,9.3-20.08,14.02-31.76,14.02-10.29,0-20.62-3.67-28.82-11.13-17.5-15.9-18.8-43.08-2.9-60.58,8.45-9.3,20.09-14.02,31.76-14.03m0-7.5v7.5-7.5h0c-14.19,0-27.79,6.01-37.31,16.48-18.68,20.56-17.16,52.49,3.41,71.18,9.28,8.43,21.31,13.08,33.87,13.08,14.19,0,27.79-6.01,37.31-16.48,18.69-20.56,17.16-52.49-3.41-71.18-9.28-8.43-21.31-13.08-33.86-13.08h0Z"/>
      </g>
      <circle cx="195.25" cy="113.08" r="20.67" transform="translate(-22.78 171.18) rotate(-45)"/>
      <g>
        <circle class="cls-1" cx="191.91" cy="126.74" r="10.82" transform="translate(-22.21 210.69) rotate(-54.85)"/>
        <circle class="cls-1" cx="204.25" cy="118.14" r="6.01"/>
      </g>
    </g>
    <g>
      <path d="m197.74,224.41c-1.93,0-3.81-.45-5.28-1.26-1.16-.64-2.11-1.94-2.61-2.95-.69-1.39-.41-1.84-.3-2.01.16-.26.45-.42.77-.42.21,0,.43.07.68.21,1.03.57,2.34.87,3.79.87,2.26,0,4.57-.75,6.18-2,2.47-1.93,4.13-6.88,2.44-9.31-.8-1.16-1-1.77-.74-2.27.15-.29.45-.47.8-.47.93,0,2.42,1.45,2.95,2.23,2.75,3.97,3.02,8.67.73,12.56-1.75,2.98-5.37,4.83-9.43,4.83h0Z"/>
      <path d="m203.48,205.54c.45,0,1.72,1,2.34,1.91,2.31,3.34,3.06,7.75.71,11.76-1.78,3.03-5.38,4.47-8.79,4.47-1.79,0-3.52-.4-4.92-1.16-.96-.53-1.83-1.68-2.3-2.63-.11-.22-.64-1.36-.19-1.36.08,0,.18.03.32.11,1.18.65,2.64.96,4.14.96,2.35,0,4.84-.76,6.64-2.16,2.77-2.16,4.54-7.51,2.6-10.32-.8-1.15-.85-1.57-.55-1.57m0-1.48c-.62,0-1.18.33-1.46.87-.52.99.11,2.04.79,3.03,1.45,2.1-.11,6.6-2.29,8.31-1.48,1.16-3.62,1.85-5.72,1.85-1.32,0-2.5-.27-3.43-.78-.36-.2-.7-.3-1.04-.3-.58,0-1.1.29-1.4.77-.26.42-.52,1.16.27,2.73.55,1.11,1.6,2.54,2.91,3.27,1.6.88,3.55,1.35,5.63,1.35,4.32,0,8.18-1.99,10.07-5.2,2.44-4.15,2.15-9.14-.76-13.35-.55-.8-2.21-2.54-3.56-2.55h0Z"/>
    </g>
    <path d="m182.61,285.59c-12.22-6.48-26.69-6.93-39.3-1.28-1.12.5-1.39,2.13-.81,3.11.67,1.15,1.98,1.32,3.11.81,11.05-4.95,24.05-4.37,34.72,1.28,2.58,1.37,4.88-2.55,2.29-3.92h0Z"/>
    <g>
      <path class="cls-1" d="m174.46,171.93c10.72,6.05,24.87,5.39,34.98-1.63"/>
      <path d="m172.95,174.52c11.71,6.51,26.92,5.97,38.01-1.63,1.34-.92,1.94-2.64,1.08-4.11-.77-1.32-2.76-2-4.11-1.08-9.39,6.43-21.99,7.17-31.95,1.63-3.38-1.88-6.41,3.3-3.03,5.18h0Z"/>
    </g>
  </g>
  <g id="Layer_2" data-name="Layer 2">
    <g>
      <path d="m136.25,272.77c-2.62-2.62-1.56-11.09,6.06-18.81,7.29-7.61,21.14-14.48,36.63-11.37,15.58,2.45,26.83,13.8,31.64,23.58,5.09,9.99,3.75,18.41.52,19.99-7.2,2.71-20.41-10.74-36.59-12.51-15.87-3.96-32.17,4.22-38.25-.86Z"/>
      <path class="cls-3" d="m136.25,272.77c-2.62-2.62-1.56-11.09,6.06-18.81,7.29-7.61,21.14-14.48,36.63-11.37,15.58,2.45,26.83,13.8,31.64,23.58,5.09,9.99,3.75,18.41.52,19.99-7.2,2.71-20.41-10.74-36.59-12.51-15.87-3.96-32.17,4.22-38.25-.86Z"/>
    </g>
    <g>
      <g>
        <path class="cls-1" d="m168.74,267.78c-.39-.62-.1-2.78,1.23-4.87,1.28-2.05,3.61-4.03,6.07-3.5,2.49.36,4.15,3.05,4.8,5.44.69,2.45.36,4.6-.18,5.06-1.2.81-11-.94-11.92-2.13Z"/>
        <path class="cls-1" d="m168.74,267.78c-.39-.62-.1-2.78,1.23-4.87,1.28-2.05,3.61-4.03,6.07-3.5,2.49.36,4.15,3.05,4.8,5.44.69,2.45.36,4.6-.18,5.06-1.2.81-11-.94-11.92-2.13Z"/>
      </g>
      <g>
        <path class="cls-1" d="m208.01,269.25c-.05.58-1.19,1.68-2.91,2.14-1.67.47-3.92.31-5.11-1.39-1.29-1.61-1.05-4.12-.34-5.88.7-1.81,1.87-2.88,2.39-2.84,1.06.21,5.99,6.77,5.98,7.97Z"/>
        <path class="cls-1" d="m208.01,269.25c-.05.58-1.19,1.68-2.91,2.14-1.67.47-3.92.31-5.11-1.39-1.29-1.61-1.05-4.12-.34-5.88.7-1.81,1.87-2.88,2.39-2.84,1.06.21,5.99,6.77,5.98,7.97Z"/>
      </g>
      <g>
        <path class="cls-1" d="m194.87,255.7c.2.7-.62,2.61-2.4,4.11-1.72,1.49-4.39,2.56-6.53,1.27-2.21-1.14-3.06-4.17-3.04-6.6,0-2.49.86-4.38,1.48-4.63,1.32-.36,9.95,4.45,10.49,5.84Z"/>
        <path class="cls-1" d="m194.87,255.7c.2.7-.62,2.61-2.4,4.11-1.72,1.49-4.39,2.56-6.53,1.27-2.21-1.14-3.06-4.17-3.04-6.6,0-2.49.86-4.38,1.48-4.63,1.32-.36,9.95,4.45,10.49,5.84Z"/>
      </g>
      <g>
        <path class="cls-1" d="m151.94,268.77c-.56-.6-.66-3.11.43-5.78,1.04-2.62,3.27-5.42,6.15-5.43,2.87-.21,5.27,2.41,6.46,4.94,1.25,2.58,1.3,5.09.78,5.73-1.19,1.2-12.56,1.64-13.83.53Z"/>
        <path class="cls-1" d="m151.94,268.77c-.56-.6-.66-3.11.43-5.78,1.04-2.62,3.27-5.42,6.15-5.43,2.87-.21,5.27,2.41,6.46,4.94,1.25,2.58,1.3,5.09.78,5.73-1.19,1.2-12.56,1.64-13.83.53Z"/>
      </g>
    </g>
    <g>
      <path class="cls-2" d="m189.91,275.76c2.21.54,3.26,3.56,2.9,6.05s-1.69,4.66-2.68,6.93c-.45,1.03-.84,2.17-.63,3.28s1.24,2.11,2.21,1.75c.86-.31,1.22-1.42,1.66-2.31s1.42-1.74,2.18-1.17c.54.41.57,1.29.45,2.01-.31,1.87-1.18,3.56-1.68,5.37s-.52,4.01.64,5.39c1.23,1.46,3.43,1.44,4.94.36s2.41-2.96,2.93-4.88.71-3.92,1.16-5.86c1.75.11,2.82-2.05,3.41-3.9.79-2.49,1.46-5.31.46-7.7-.68-1.61-2-2.73-3.28-3.79-3.71-3.06-7.52-6.19-11.96-7.55-1.5-.46-3.11-.71-4.61-.25-1.5.45-2.88,1.73-3.21,3.44s.69,3.7,2.24,3.92"/>
      <path d="m189.3,277.95c1.33.4,1.43,2.75,1.2,3.91-.54,2.74-2.36,5-3.06,7.68s.18,5.83,3.08,6.49c1.31.3,2.62-.22,3.51-1.18.44-.48.74-1.04,1.01-1.61.09-.2.21-.41.29-.61.26-.72.26-.16-.08-.19l-1.15-.31c-.76-.39-.08-.74-.34-.12-.1.24-.13.52-.2.77-.21.77-.49,1.51-.76,2.26-.54,1.49-.99,2.97-1.08,4.56-.16,3,1.38,6.05,4.48,6.75s5.84-1.16,7.37-3.71c1.7-2.83,1.88-6.18,2.58-9.33l-2.19,1.67c4.1-.05,5.61-4.83,6.29-8.14.45-2.21.54-4.49-.35-6.6-.76-1.8-2.12-3.16-3.6-4.39-3.12-2.6-6.32-5.29-10.01-7.03s-8.37-2.95-11.71.11c-3.05,2.79-2.88,9.14,1.82,10.14,2.85.61,4.07-3.77,1.21-4.38-.72-.15-.74-1.17-.45-1.77.6-1.25,2.09-1.49,3.33-1.32,3.3.46,6.37,2.6,8.97,4.54,1.39,1.04,2.75,2.15,4.07,3.28,1.13.96,2.22,1.99,2.47,3.52.27,1.61-.23,3.32-.7,4.85-.17.56-.77,2.65-1.35,2.65-.96.01-1.97.69-2.19,1.67-.48,2.14-.67,4.34-1.33,6.43-.39,1.25-1.21,3.24-2.74,3.41-3.3.37-.08-6.82.22-7.96.52-1.92.69-4.41-1.25-5.63-2.07-1.3-4.39.22-5.35,2.13-.17.34-.39.71-.52,1.07l-.08.14c-.12.16-.12.19,0,.07-.08-.12,1.14-.12,1.04-.01.16-.16-.07.21,0,0-.01.04-.03-1-.05-.57.03-.48.26-1.02.44-1.45.77-1.89,1.83-3.65,2.44-5.61,1.21-3.86.33-9.24-4.09-10.56-2.81-.84-4,3.54-1.21,4.38h0Z"/>
    </g>
  </g>
</svg>