<?xml version="1.0" encoding="utf-8"?>
<!-- Generator: Adobe Illustrator 27.6.1, SVG Export Plug-In . SVG Version: 6.00 Build 0)  -->
<svg version="1.1" id="Layer_1" xmlns="http://www.w3.org/2000/svg" xmlns:xlink="http://www.w3.org/1999/xlink" x="0px" y="0px"
	 viewBox="0 0 360 360" style="enable-background:new 0 0 360 360;" xml:space="preserve">
<style type="text/css">
	.st0{fill:#FFFFFF;}
	.st1{fill:none;stroke:#000000;stroke-width:0.686;stroke-miterlimit:10;}
	.st2{fill:#98EF00;}
</style>
<g>
	<path class="st0" d="M177.9,313c-39.2,0-76.2-12.3-104-34.6c-28.5-22.8-44.2-53.4-44.2-86c0-32.6,15.7-63.2,44.2-86
		c27.9-22.3,64.8-34.6,104-34.6c39.2,0,76.2,12.3,104,34.6c28.5,22.8,44.2,53.4,44.2,86c0,32.6-15.7,63.2-44.2,86
		C254.1,300.7,217.1,313,177.9,313z"/>
	<path d="M177.9,81.2c76.6,0,138.7,49.8,138.7,111.1s-62.1,111.1-138.7,111.1S39.2,253.7,39.2,192.3S101.3,81.2,177.9,81.2
		 M177.9,62.2c-41.4,0-80.4,13-110,36.7c-14.8,11.8-26.4,25.7-34.7,41.3c-8.7,16.5-13.1,34-13.1,52.1s4.4,35.7,13.1,52.1
		c8.2,15.5,19.9,29.4,34.7,41.3c29.6,23.7,68.6,36.7,110,36.7s80.4-13,110-36.7c14.8-11.8,26.4-25.7,34.7-41.3
		c8.7-16.5,13.1-34,13.1-52.1s-4.4-35.7-13.1-52.1c-8.2-15.5-19.9-29.4-34.7-41.3C258.4,75.3,219.3,62.2,177.9,62.2L177.9,62.2z"/>
</g>
<g>
	<path class="st0" d="M291.8,259c1.7,5.7,6.9,9.9,13.2,10.1c7.9,0.2,14.4-6,14.6-13.8c0.2-7.9-6-14.4-13.8-14.6
		c-1.7,0-3.3,0.2-4.8,0.7"/>
	<path d="M296.4,272.5c-4.7-2.4-8.3-6.6-9.9-11.8c-0.9-2.9,0.8-6,3.7-6.9c2.9-0.9,6,0.8,6.9,3.7c1.1,3.6,4.3,6.1,8.1,6.2
		c4.8,0.1,8.8-3.7,9-8.5c0.1-2.3-0.8-4.5-2.4-6.2c-1.6-1.7-3.8-2.7-6.1-2.7c-1,0-2,0.1-2.9,0.4c-2.9,0.9-6-0.6-7-3.5
		c-0.9-2.9,0.6-6,3.5-7c2.2-0.7,4.4-1,6.7-1c5.3,0.2,10.2,2.3,13.8,6.2c3.6,3.8,5.5,8.9,5.4,14.1c-0.3,10.9-9.4,19.5-20.3,19.2
		C301.8,274.5,299,273.8,296.4,272.5z"/>
</g>
<g>
	<path class="st0" d="M256,279.1c0.1,3.2,2.2,6.1,5.4,7.1c4,1.2,8.3-1,9.5-5c1.2-4-1-8.3-5-9.5c-0.9-0.3-1.7-0.4-2.6-0.3"/>
	<path d="M256.5,286.7c-2.1-1.9-3.4-4.6-3.4-7.5c0-1.6,1.2-3,2.9-3c1.6,0,3,1.2,3,2.9c0.1,2,1.4,3.7,3.3,4.3
		c2.5,0.8,5.1-0.6,5.8-3.1c0.4-1.2,0.2-2.4-0.3-3.5c-0.6-1.1-1.6-1.9-2.7-2.3c-0.5-0.2-1-0.2-1.6-0.2c-1.6,0.1-3-1.2-3.1-2.8
		c-0.1-1.6,1.2-3,2.8-3.1c1.2-0.1,2.4,0.1,3.6,0.5c2.7,0.8,4.9,2.6,6.2,5.1c1.3,2.5,1.6,5.3,0.8,8c-1.7,5.6-7.6,8.7-13.2,7
		C259,288.5,257.7,287.7,256.5,286.7z"/>
</g>
<g>
	<path class="st0" d="M111.2,170.3c-1.6-2.7-4.8-4.3-8.1-3.6c-4.1,0.9-6.7,4.9-5.9,9c0.9,4.1,4.9,6.7,9,5.9c0.9-0.2,1.7-0.5,2.4-1"
		/>
	<path d="M107.1,163.9c2.7,0.6,5.1,2.4,6.6,4.9c0.8,1.4,0.4,3.2-1,4c-1.4,0.8-3.2,0.4-4-1c-1-1.7-3-2.6-5-2.2
		c-2.5,0.5-4.1,3-3.6,5.5c0.3,1.2,1,2.3,2,2.9c1,0.7,2.3,0.9,3.5,0.7c0.5-0.1,1-0.3,1.5-0.6c1.4-0.9,3.2-0.4,4.1,1
		c0.9,1.4,0.4,3.2-1,4.1c-1,0.6-2.2,1.1-3.4,1.3c-2.8,0.6-5.6,0.1-7.9-1.5c-2.4-1.5-4-3.9-4.6-6.7c-1.2-5.7,2.4-11.3,8.1-12.5
		C104,163.5,105.6,163.5,107.1,163.9z"/>
</g>
<g>
	<path class="st0" d="M285.6,135.2c-0.4-5.9,3-11.7,8.9-14c7.3-3,15.6,0.6,18.5,7.8c3,7.3-0.6,15.6-7.8,18.5c-1.6,0.6-3.2,1-4.8,1"
		/>
	<path d="M285.3,121c1.9-2.1,4.3-3.8,7.1-4.9c10.1-4.1,21.6,0.8,25.7,10.9c2,4.9,1.9,10.3-0.1,15.1c-2.1,4.9-5.9,8.6-10.8,10.6
		c-2.1,0.9-4.3,1.3-6.6,1.4c-3,0.1-5.6-2.2-5.7-5.3c-0.1-3,2.2-5.6,5.3-5.7c1,0,2-0.3,2.9-0.6c2.2-0.9,3.8-2.5,4.8-4.7
		c0.9-2.1,0.9-4.5,0.1-6.7c-1.8-4.5-6.9-6.6-11.4-4.8c-3.5,1.4-5.7,4.9-5.4,8.6c0.2,3-2.1,5.7-5.2,5.8c-3,0.2-5.7-2.1-5.8-5.2
		C279.8,130.1,281.8,124.9,285.3,121z"/>
</g>
<g>
	<path class="st0" d="M87.7,269.6c0.8,5.6-2,11.4-7.3,14.1c-6.7,3.4-14.9,0.7-18.3-6c-3.4-6.7-0.7-14.9,6-18.3
		c1.4-0.7,2.9-1.2,4.5-1.4"/>
	<path d="M89.1,283.2c-1.7,2.2-3.8,4-6.4,5.3c-9.3,4.7-20.7,0.9-25.4-8.3c-2.3-4.5-2.7-9.6-1.1-14.4c1.6-4.8,4.9-8.7,9.4-11
		c1.9-1,4-1.6,6.2-1.9c2.9-0.4,5.5,1.7,5.9,4.6c0.4,2.9-1.7,5.5-4.6,5.9c-0.9,0.1-1.9,0.4-2.7,0.8c-2,1-3.5,2.7-4.2,4.8
		c-0.7,2.1-0.5,4.4,0.5,6.4c2.1,4.1,7.1,5.8,11.2,3.7c3.2-1.6,5-5.1,4.5-8.6c-0.4-2.9,1.6-5.6,4.5-6c2.9-0.4,5.6,1.6,6,4.5
		C93.7,274.1,92.2,279.2,89.1,283.2z"/>
</g>
<g>
	<path d="M311.5,43.5"/>
</g>
<g>
	<path class="st0" d="M133,99.3c13.3-87.3,150.1-62.9,123.6,36.6"/>
	<g>
		<path d="M140.3,101.3c0.9-6,2.5-11.9,4.9-17.5c-0.3,0.6-0.5,1.2-0.8,1.8c1.2-2.9,2.6-5.7,4.3-8.3c0.8-1.3,1.6-2.6,2.5-3.8
			c0.2-0.3,0.4-0.6,0.6-0.8c0.9-1.2-1.3,1.7-0.4,0.5c0.5-0.6,1-1.2,1.4-1.8c1.8-2.2,3.9-4.2,6-6c0.5-0.4,1-0.9,1.5-1.3
			c0.2-0.1,0.3-0.2,0.5-0.4c0.4-0.4,1.1-0.8-1,0.8c0.3-0.2,0.6-0.5,1-0.7c1.1-0.8,2.3-1.6,3.4-2.3c2.7-1.7,5.4-3.1,8.3-4.3
			c-0.6,0.3-1.2,0.5-1.8,0.8c5.2-2.2,10.6-3.6,16.1-4.4c-0.7,0.1-1.3,0.2-2,0.3c6-0.8,12.2-0.8,18.2,0c-0.7-0.1-1.3-0.2-2-0.3
			c6.1,0.8,12.2,2.5,17.9,4.9c-0.6-0.3-1.2-0.5-1.8-0.8c2.9,1.2,5.6,2.6,8.3,4.2c1.3,0.8,2.6,1.6,3.8,2.5c0.6,0.4,1.2,0.8,1.8,1.3
			c0.2,0.1,0.3,0.2,0.5,0.4c0.8,0.6-1.7-1.3-0.9-0.7c0.3,0.2,0.6,0.5,0.9,0.7c2.4,1.9,4.6,4.1,6.7,6.3c1.1,1.2,2.1,2.4,3.1,3.6
			c0.5,0.6-1.4-1.8-0.7-1c0.1,0.2,0.2,0.3,0.4,0.5c0.2,0.3,0.5,0.7,0.7,1c0.5,0.7,0.9,1.4,1.4,2c2,3.1,3.7,6.3,5.1,9.7
			c-0.3-0.6-0.5-1.2-0.8-1.8c2.3,5.4,3.8,11.1,4.6,16.9c-0.1-0.7-0.2-1.3-0.3-2c0.9,7.1,0.8,14.3-0.1,21.4c0.1-0.7,0.2-1.3,0.3-2
			c-0.6,4.4-1.5,8.8-2.6,13.1c-1,3.8,1.3,8.3,5.2,9.2c3.9,0.9,8.1-1.2,9.2-5.2c2.5-9.4,3.9-19.2,3.6-28.9
			c-0.3-8.3-1.7-16.7-4.7-24.5c-3-7.7-7-14.6-12.3-20.9c-4.7-5.5-10.4-10.3-16.6-14.1c-6.1-3.8-12.8-6.6-19.7-8.5
			c-6.9-1.9-14.2-2.8-21.4-2.7c-7.1,0.1-14.3,1.2-21,3.4c-6.8,2.2-13.3,5.3-19,9.6c-6.4,4.8-11.9,10.5-16.3,17.3
			c-4.5,6.9-7.6,14.7-9.5,22.7c-0.5,2-0.9,4.1-1.2,6.1c-0.3,2.1-0.3,3.9,0.8,5.8c0.9,1.6,2.7,3,4.5,3.4c1.9,0.4,4.1,0.3,5.8-0.8
			C138.4,104.8,140,103.2,140.3,101.3L140.3,101.3z"/>
	</g>
</g>
<g>
	<g>
		<g>
			<g>
				<g>
					<path class="st0" d="M195.2,159.7c-11.6,0-22.8-4.3-31.3-12.1c-19-17.3-20.4-46.8-3.2-65.9c8.8-9.7,21.4-15.3,34.5-15.3
						c11.6,0,22.8,4.3,31.3,12.1c19,17.3,20.4,46.8,3.2,65.9C221,154.1,208.4,159.7,195.2,159.7z"/>
					<path d="M195.3,70.2c10.3,0,20.6,3.7,28.8,11.1c17.5,15.9,18.8,43.1,2.9,60.6c-8.4,9.3-20.1,14-31.8,14
						c-10.3,0-20.6-3.7-28.8-11.1c-17.5-15.9-18.8-43.1-2.9-60.6C172,74.9,183.6,70.2,195.3,70.2 M195.3,62.7v7.5V62.7L195.3,62.7
						c-14.2,0-27.8,6-37.3,16.5c-18.7,20.6-17.2,52.5,3.4,71.2c9.3,8.4,21.3,13.1,33.9,13.1c14.2,0,27.8-6,37.3-16.5
						c9-9.9,13.7-22.8,13-36.3c-0.6-13.5-6.5-25.8-16.4-34.9C219.9,67.4,207.8,62.7,195.3,62.7L195.3,62.7z"/>
				</g>
			</g>
		</g>
		<g>
			<ellipse transform="matrix(0.7071 -0.7071 0.7071 0.7071 -22.775 171.181)" cx="195.2" cy="113.1" rx="20.7" ry="20.7"/>
		</g>
		<g>
			<g>
				
					<ellipse transform="matrix(0.5757 -0.8176 0.8176 0.5757 -22.2069 210.685)" class="st0" cx="191.9" cy="126.7" rx="10.8" ry="10.8"/>
			</g>
			<g>
				<circle class="st0" cx="204.3" cy="118.1" r="6"/>
			</g>
		</g>
	</g>
</g>
<g>
	<g>
		<path d="M197.7,224.4c-1.9,0-3.8-0.4-5.3-1.3c-1.2-0.6-2.1-1.9-2.6-2.9c-0.7-1.4-0.4-1.8-0.3-2c0.2-0.3,0.5-0.4,0.8-0.4
			c0.2,0,0.4,0.1,0.7,0.2c1,0.6,2.3,0.9,3.8,0.9c2.3,0,4.6-0.7,6.2-2c2.5-1.9,4.1-6.9,2.4-9.3c-0.8-1.2-1-1.8-0.7-2.3
			c0.2-0.3,0.5-0.5,0.8-0.5c0.9,0,2.4,1.4,3,2.2c2.7,4,3,8.7,0.7,12.6C205.4,222.6,201.8,224.4,197.7,224.4L197.7,224.4z"/>
		<path d="M203.5,205.5c0.5,0,1.7,1,2.3,1.9c2.3,3.3,3.1,7.8,0.7,11.8c-1.8,3-5.4,4.5-8.8,4.5c-1.8,0-3.5-0.4-4.9-1.2
			c-1-0.5-1.8-1.7-2.3-2.6c-0.1-0.2-0.6-1.4-0.2-1.4c0.1,0,0.2,0,0.3,0.1c1.2,0.7,2.6,1,4.1,1c2.4,0,4.8-0.8,6.6-2.2
			c2.8-2.2,4.5-7.5,2.6-10.3C203.2,206,203.2,205.5,203.5,205.5 M203.5,204.1c-0.6,0-1.2,0.3-1.5,0.9c-0.5,1,0.1,2,0.8,3
			c1.5,2.1-0.1,6.6-2.3,8.3c-1.5,1.2-3.6,1.8-5.7,1.8c-1.3,0-2.5-0.3-3.4-0.8c-0.4-0.2-0.7-0.3-1-0.3c-0.6,0-1.1,0.3-1.4,0.8
			c-0.3,0.4-0.5,1.2,0.3,2.7c0.5,1.1,1.6,2.5,2.9,3.3c1.6,0.9,3.5,1.3,5.6,1.3c4.3,0,8.2-2,10.1-5.2c2.4-4.1,2.2-9.1-0.8-13.4
			C206.5,205.8,204.8,204.1,203.5,204.1L203.5,204.1C203.5,204.1,203.5,204.1,203.5,204.1L203.5,204.1z"/>
	</g>
</g>
<g>
	<g>
		<path d="M182.6,285.6c-12.2-6.5-26.7-6.9-39.3-1.3c-1.1,0.5-1.4,2.1-0.8,3.1c0.7,1.2,2,1.3,3.1,0.8c11.1-4.9,24.1-4.4,34.7,1.3
			C182.9,290.9,185.2,287,182.6,285.6L182.6,285.6z"/>
	</g>
</g>
<g>
	<path class="st0" d="M174.5,171.9c10.7,6.1,24.9,5.4,35-1.6"/>
	<g>
		<path d="M172.9,174.5c11.7,6.5,26.9,6,38-1.6c1.3-0.9,1.9-2.6,1.1-4.1c-0.8-1.3-2.8-2-4.1-1.1c-9.4,6.4-22,7.2-31.9,1.6
			C172.6,167.5,169.6,172.6,172.9,174.5L172.9,174.5z"/>
	</g>
</g>
<g>
	<path d="M136.3,272.8c-2.6-2.6-1.6-11.1,6.1-18.8c7.3-7.6,21.1-14.5,36.6-11.4c15.6,2.4,26.8,13.8,31.6,23.6
		c5.1,10,3.7,18.4,0.5,20c-7.2,2.7-20.4-10.7-36.6-12.5C158.6,269.7,142.3,277.9,136.3,272.8z"/>
	<path class="st1" d="M136.3,272.8c-2.6-2.6-1.6-11.1,6.1-18.8c7.3-7.6,21.1-14.5,36.6-11.4c15.6,2.4,26.8,13.8,31.6,23.6
		c5.1,10,3.7,18.4,0.5,20c-7.2,2.7-20.4-10.7-36.6-12.5C158.6,269.7,142.3,277.9,136.3,272.8z"/>
</g>
<g>
	<g>
		<path class="st0" d="M168.7,267.8c-0.4-0.6-0.1-2.8,1.2-4.9c1.3-2.1,3.6-4,6.1-3.5c2.5,0.4,4.2,3,4.8,5.4c0.7,2.4,0.4,4.6-0.2,5.1
			C179.5,270.7,169.7,269,168.7,267.8z"/>
		<path class="st0" d="M168.7,267.8c-0.4-0.6-0.1-2.8,1.2-4.9c1.3-2.1,3.6-4,6.1-3.5c2.5,0.4,4.2,3,4.8,5.4c0.7,2.4,0.4,4.6-0.2,5.1
			C179.5,270.7,169.7,269,168.7,267.8z"/>
	</g>
	<g>
		<path class="st0" d="M208,269.3c-0.1,0.6-1.2,1.7-2.9,2.1c-1.7,0.5-3.9,0.3-5.1-1.4c-1.3-1.6-1-4.1-0.3-5.9
			c0.7-1.8,1.9-2.9,2.4-2.8C203.1,261.5,208,268,208,269.3z"/>
		<path class="st0" d="M208,269.3c-0.1,0.6-1.2,1.7-2.9,2.1c-1.7,0.5-3.9,0.3-5.1-1.4c-1.3-1.6-1-4.1-0.3-5.9
			c0.7-1.8,1.9-2.9,2.4-2.8C203.1,261.5,208,268,208,269.3z"/>
	</g>
	<g>
		<path class="st0" d="M194.9,255.7c0.2,0.7-0.6,2.6-2.4,4.1c-1.7,1.5-4.4,2.6-6.5,1.3c-2.2-1.1-3.1-4.2-3-6.6
			c0-2.5,0.9-4.4,1.5-4.6C185.7,249.5,194.3,254.3,194.9,255.7z"/>
		<path class="st0" d="M194.9,255.7c0.2,0.7-0.6,2.6-2.4,4.1c-1.7,1.5-4.4,2.6-6.5,1.3c-2.2-1.1-3.1-4.2-3-6.6
			c0-2.5,0.9-4.4,1.5-4.6C185.7,249.5,194.3,254.3,194.9,255.7z"/>
	</g>
	<g>
		<path class="st0" d="M151.9,268.8c-0.6-0.6-0.7-3.1,0.4-5.8c1-2.6,3.3-5.4,6.1-5.4c2.9-0.2,5.3,2.4,6.5,4.9
			c1.3,2.6,1.3,5.1,0.8,5.7C164.6,269.4,153.2,269.9,151.9,268.8z"/>
		<path class="st0" d="M151.9,268.8c-0.6-0.6-0.7-3.1,0.4-5.8c1-2.6,3.3-5.4,6.1-5.4c2.9-0.2,5.3,2.4,6.5,4.9
			c1.3,2.6,1.3,5.1,0.8,5.7C164.6,269.4,153.2,269.9,151.9,268.8z"/>
	</g>
</g>
<g>
	<path class="st2" d="M189.9,275.8c2.2,0.5,3.3,3.6,2.9,6.1c-0.4,2.5-1.7,4.7-2.7,6.9c-0.4,1-0.8,2.2-0.6,3.3
		c0.2,1.1,1.2,2.1,2.2,1.8c0.9-0.3,1.2-1.4,1.7-2.3c0.4-0.9,1.4-1.7,2.2-1.2c0.5,0.4,0.6,1.3,0.4,2c-0.3,1.9-1.2,3.6-1.7,5.4
		c-0.5,1.8-0.5,4,0.6,5.4c1.2,1.5,3.4,1.4,4.9,0.4c1.5-1.1,2.4-3,2.9-4.9c0.5-1.9,0.7-3.9,1.2-5.9c1.7,0.1,2.8-2.1,3.4-3.9
		c0.8-2.5,1.5-5.3,0.5-7.7c-0.7-1.6-2-2.7-3.3-3.8c-3.7-3.1-7.5-6.2-12-7.5c-1.5-0.5-3.1-0.7-4.6-0.3c-1.5,0.5-2.9,1.7-3.2,3.4
		s0.7,3.7,2.2,3.9"/>
	<g>
		<path d="M189.3,277.9c1.3,0.4,1.4,2.7,1.2,3.9c-0.5,2.7-2.4,5-3.1,7.7c-0.7,2.5,0.2,5.8,3.1,6.5c1.3,0.3,2.6-0.2,3.5-1.2
			c0.4-0.5,0.7-1,1-1.6c0.1-0.2,0.2-0.4,0.3-0.6c0.3-0.7,0.3-0.2-0.1-0.2c-0.4-0.1-0.8-0.2-1.1-0.3c-0.8-0.4-0.1-0.7-0.3-0.1
			c-0.1,0.2-0.1,0.5-0.2,0.8c-0.2,0.8-0.5,1.5-0.8,2.3c-0.5,1.5-1,3-1.1,4.6c-0.2,3,1.4,6.1,4.5,6.7c3.1,0.7,5.8-1.2,7.4-3.7
			c1.7-2.8,1.9-6.2,2.6-9.3c-0.7,0.6-1.5,1.1-2.2,1.7c4.1,0,5.6-4.8,6.3-8.1c0.4-2.2,0.5-4.5-0.3-6.6c-0.8-1.8-2.1-3.2-3.6-4.4
			c-3.1-2.6-6.3-5.3-10-7c-3.7-1.7-8.4-2.9-11.7,0.1c-3,2.8-2.9,9.1,1.8,10.1c2.8,0.6,4.1-3.8,1.2-4.4c-0.7-0.2-0.7-1.2-0.5-1.8
			c0.6-1.3,2.1-1.5,3.3-1.3c3.3,0.5,6.4,2.6,9,4.5c1.4,1,2.7,2.2,4.1,3.3c1.1,1,2.2,2,2.5,3.5c0.3,1.6-0.2,3.3-0.7,4.8
			c-0.2,0.6-0.8,2.6-1.3,2.7c-1,0-2,0.7-2.2,1.7c-0.5,2.1-0.7,4.3-1.3,6.4c-0.4,1.3-1.2,3.2-2.7,3.4c-3.3,0.4-0.1-6.8,0.2-8
			c0.5-1.9,0.7-4.4-1.3-5.6c-2.1-1.3-4.4,0.2-5.4,2.1c-0.2,0.3-0.4,0.7-0.5,1.1c0,0-0.1,0.1-0.1,0.1c-0.1,0.2-0.1,0.2,0,0.1
			c-0.1-0.1,1.1-0.1,1,0c0.2-0.2-0.1,0.2,0,0c0,0,0-1-0.1-0.6c0-0.5,0.3-1,0.4-1.5c0.8-1.9,1.8-3.6,2.4-5.6
			c1.2-3.9,0.3-9.2-4.1-10.6C187.7,272.7,186.5,277.1,189.3,277.9L189.3,277.9z"/>
	</g>
</g>
</svg>
