<?xml version="1.0" encoding="UTF-8"?>
<svg xmlns="http://www.w3.org/2000/svg" viewBox="0 0 360 360">
  <defs>
    <style>
      .cls-1 {
        fill: #fff;
      }

      .cls-2 {
        fill: #98ef00;
      }

      .cls-3 {
        stroke-width: .51px;
      }

      .cls-3, .cls-4 {
        fill: none;
        stroke: #000;
        stroke-miterlimit: 10;
      }

      .cls-4 {
        stroke-width: .58px;
      }
    </style>
  </defs>
  <g id="Layer_1" data-name="Layer 1">
    <g>
      <path class="cls-1" d="m133.8,342.42c-41.17,0-82.17-30.19-102.01-75.12-10.76-24.36-14.39-50.16-10.5-74.62,3.6-22.63,13.67-42.43,28.53-56.27,1.7-34.7,22.6-69.98,55.38-92.97,22.89-16.05,49.72-24.9,75.54-24.9,31.6,0,58.93,13.11,74.96,35.98,10.03,14.3,15.02,31.28,14.65,49.57,3.8.68,7.54,1.64,11.2,2.86,24.57,8.23,43.6,27.71,53.57,54.86,9.7,26.4,9.65,57.04-.14,86.27-16.68,49.8-58.75,84.59-102.3,84.59h0c-8.67,0-17.21-1.39-25.37-4.12-6.26-2.1-12.21-4.96-17.78-8.54-6.81,6.56-14.57,11.79-23.18,15.59-10.22,4.51-21.17,6.8-32.55,6.8Z"/>
      <path d="m180.74,28.06c27.45,0,52.37,10.81,67.19,31.94,10.72,15.28,14.56,33.69,12.33,52.47,6.15.35,12.27,1.49,18.28,3.5,45.04,15.09,66.28,72.89,47.44,129.11-15.77,47.07-54.63,78.1-93.29,78.1-7.51,0-15.02-1.17-22.35-3.63-8.15-2.73-15.52-6.87-22.01-12.13-6.98,8.32-15.63,15.01-25.8,19.5-9.2,4.07-18.91,5.99-28.72,5.99-36.5,0-74.44-26.71-93.32-69.45-20.6-46.65-11.79-97.22,18.73-122.66.07-31.98,18.58-66.53,51.44-89.58,22.16-15.55,47.02-23.17,70.09-23.17m0-19c-27.76,0-56.52,9.45-81,26.62-18.17,12.75-33.27,29.23-43.66,47.67-8.8,15.62-14.09,32.33-15.49,48.81-14.89,15.09-24.97,35.73-28.68,59.04-4.18,26.27-.31,53.91,11.19,79.94,10.49,23.75,26.47,43.95,46.21,58.41,19.98,14.63,42.28,22.37,64.5,22.37,12.71,0,24.95-2.56,36.39-7.61,7.41-3.27,14.26-7.49,20.49-12.6,4.36,2.33,8.91,4.29,13.61,5.86,9.14,3.06,18.69,4.61,28.39,4.61,23.31,0,47.22-9.15,67.33-25.75,19.98-16.5,35.19-39.09,43.98-65.32,10.48-31.27,10.49-64.15.05-92.57-5.26-14.32-12.9-26.78-22.7-37.06-10.43-10.94-22.8-18.85-36.77-23.54-1.6-.54-3.22-1.03-4.85-1.47-.98-17.34-6.47-33.48-16.23-47.4-17.84-25.44-48-40.03-82.74-40.03h0Z"/>
    </g>
    <g>
      <path class="cls-1" d="m40.67,241.33c-8.01,3.29-14.21,10.99-16.3,20.77s.07,21.46,5.9,30.48c5.83,9.02,15.26,15.05,24.16,15.12,8.9.07,16.91-5.97,19.82-15.32"/>
      <path d="m39.87,238.44c-7.68,3.22-13.37,9.33-16.55,16.99-3.35,8.05-3.42,17.22-1.29,25.59s6.89,16.67,13.79,22.27c6.41,5.2,14.45,8.44,22.78,7.05,8.98-1.51,15.85-8.7,18.54-17.15.49-1.54-.58-3.28-2.1-3.69-1.62-.45-3.2.55-3.69,2.1-.97,3.05-2.61,5.85-4.85,8.08s-4.67,3.64-7.54,4.44-5.82.76-8.66.08c-3.36-.81-6.29-2.29-9.16-4.33-11.93-8.51-17.38-25.77-13.2-39.6,2.1-6.95,7.08-13.32,13.53-16.03,1.49-.63,2.57-1.99,2.1-3.69-.39-1.41-2.19-2.73-3.69-2.1h0Z"/>
    </g>
    <g>
      <path class="cls-1" d="m84.35,312.96c-5.16,5.83-7.31,13.34-5.47,20.07,1.84,6.73,7.72,12.5,15.55,14.92s17.44,1.35,24.5-2.94c7.06-4.29,11.24-11.72,10.2-18.6"/>
      <path d="m82.23,310.84c-4.6,5.28-7.68,12.28-6.88,19.4.75,6.71,4.4,12.34,9.76,16.35,11.13,8.32,28.28,7.25,38.83-1.51,5.75-4.77,9.12-11.99,8.08-19.47-.22-1.61-2.28-2.49-3.69-2.1-1.73.48-2.32,2.08-2.1,3.69-.07-.5.03.59.03.54.02.34.02.67.02,1.01,0,.22-.01.45-.03.67,0-.06-.1,1.04-.04.55-.16,1.21-.56,2.61-.97,3.62-.91,2.23-2.47,4.35-4.26,6.08-3.93,3.79-9.43,5.91-14.82,6.41s-11.07-.36-15.86-3.23c-4.2-2.51-7.47-6.39-8.63-10.99-1.46-5.84.8-12.19,4.8-16.78,1.06-1.22,1.2-3.04,0-4.25-1.09-1.09-3.18-1.23-4.25,0h0Z"/>
    </g>
    <g>
      <path class="cls-1" d="m301.91,132.77c4.6.13,8.97-2.65,10.64-7.21,2.1-5.71-.83-12.04-6.53-14.13-5.71-2.1-12.04.83-14.13,6.53-.45,1.22-.67,2.48-.68,3.71"/>
      <path d="m312.92,132.66c-2.9,2.85-6.88,4.49-11.13,4.38-2.36-.06-4.21-2.03-4.15-4.38.06-2.36,2.03-4.21,4.38-4.15,2.9.08,5.52-1.7,6.52-4.42,1.28-3.49-.51-7.38-4-8.66-1.69-.62-3.52-.55-5.16.21-1.64.76-2.88,2.1-3.5,3.79-.27.74-.41,1.5-.42,2.27-.02,2.36-1.94,4.25-4.29,4.24-2.36-.02-4.25-1.94-4.24-4.3.01-1.76.33-3.49.94-5.15,1.41-3.83,4.22-6.88,7.93-8.59,3.7-1.71,7.85-1.88,11.68-.47,7.91,2.91,11.97,11.7,9.07,19.61-.8,2.17-2.05,4.08-3.63,5.63Z"/>
    </g>
    <g>
      <path class="cls-1" d="m300.56,179.02c2.35.72,4.99-.1,6.5-2.21,1.89-2.64,1.28-6.31-1.37-8.2-2.64-1.89-6.31-1.28-8.2,1.37-.4.57-.69,1.18-.87,1.81"/>
      <path d="m306.24,180.52c-1.89,1.06-4.18,1.34-6.35.68-1.2-.37-1.88-1.64-1.52-2.84.37-1.2,1.64-1.88,2.84-1.52,1.48.45,3.08-.09,3.98-1.35,1.15-1.62.78-3.87-.84-5.02-.78-.56-1.74-.78-2.68-.62-.95.16-1.78.68-2.34,1.46-.24.34-.42.71-.53,1.11-.34,1.21-1.6,1.92-2.81,1.57-1.21-.34-1.92-1.6-1.57-2.81.25-.9.66-1.75,1.21-2.52,1.27-1.77,3.15-2.95,5.3-3.3,2.15-.36,4.31.14,6.08,1.41,3.66,2.61,4.51,7.72,1.89,11.38-.72,1-1.63,1.81-2.67,2.38Z"/>
    </g>
    <g>
      <path class="cls-1" d="m243.14,324.33c2.13,4.08,1.54,9.22-1.82,12.72-4.21,4.39-11.18,4.53-15.57.32-4.39-4.21-4.53-11.18-.32-15.57.9-.94,1.93-1.69,3.04-2.23"/>
      <path d="m247.87,334.28c-.7,2.1-1.87,4.06-3.47,5.73-5.83,6.08-15.52,6.27-21.6.44-2.94-2.83-4.61-6.63-4.69-10.71-.08-4.08,1.43-7.95,4.25-10.89,1.22-1.27,2.64-2.32,4.22-3.1,2.11-1.05,4.67-.19,5.72,1.92,1.05,2.11.19,4.67-1.92,5.72-.69.34-1.32.8-1.86,1.37-1.25,1.3-1.92,3.01-1.88,4.81.04,1.8.77,3.48,2.07,4.73,2.68,2.58,6.96,2.49,9.54-.19,2.01-2.09,2.46-5.23,1.12-7.8-1.09-2.09-.28-4.67,1.81-5.75,2.09-1.09,4.67-.28,5.75,1.81,1.97,3.77,2.23,8.07.94,11.92Z"/>
    </g>
    <g>
      <g>
        <path class="cls-1" d="m197.41,238.15c-3.99,0-7.95-.65-11.76-1.92-19.4-6.5-29.9-27.57-23.4-46.98,5.07-15.15,19.23-25.33,35.22-25.33,3.99,0,7.95.65,11.76,1.92,19.41,6.5,29.9,27.58,23.4,46.98-5.07,15.15-19.23,25.32-35.22,25.32Z"/>
        <path d="m197.46,168.17c3.45,0,6.96.55,10.41,1.7,17.18,5.76,26.48,24.42,20.72,41.6-4.6,13.73-17.44,22.42-31.19,22.42-3.45,0-6.96-.55-10.41-1.7-17.18-5.76-26.48-24.42-20.72-41.6,4.6-13.73,17.44-22.43,31.19-22.43m0-8.5h0c-17.82,0-33.59,11.34-39.25,28.23-7.24,21.63,4.46,45.11,26.08,52.36,4.25,1.42,8.66,2.15,13.11,2.15,17.82,0,33.59-11.34,39.25-28.23,7.24-21.63-4.46-45.12-26.08-52.36-4.25-1.42-8.66-2.14-13.11-2.14h0Z"/>
      </g>
      <circle cx="197.44" cy="201.03" r="15.84" transform="translate(-62.33 310.19) rotate(-68.31)"/>
      <g>
        <circle class="cls-1" cx="199.31" cy="211.64" r="8.29" transform="translate(-47.58 365.14) rotate(-78.59)"/>
        <circle class="cls-1" cx="205.31" cy="201.8" r="4.61"/>
      </g>
    </g>
    <g>
      <g>
        <path class="cls-1" d="m258.4,167.63c-4.22,0-8.46-.94-12.26-2.72-6-2.81-10.16-7.34-11.42-12.43-.92-3.73-.15-7.47,2.17-10.53,3.26-4.3,9.33-6.87,16.25-6.87,4.22,0,8.46.94,12.26,2.72,6,2.81,10.16,7.34,11.42,12.43.92,3.73.15,7.47-2.17,10.53-3.26,4.3-9.33,6.87-16.25,6.87Z"/>
        <path d="m253.13,137.52c3.72,0,7.63.81,11.23,2.49,9.34,4.37,13.08,13.02,8.34,19.28-2.91,3.85-8.36,5.91-14.3,5.91-3.72,0-7.63-.81-11.23-2.49-9.34-4.37-13.08-13.02-8.34-19.28,2.91-3.85,8.36-5.91,14.3-5.91m0-4.88h0c-7.79,0-14.42,2.86-18.19,7.84-2.77,3.66-3.69,8.13-2.59,12.59,1.43,5.81,6.08,10.93,12.75,14.05,4.13,1.93,8.73,2.95,13.3,2.95,7.79,0,14.42-2.86,18.19-7.84,2.77-3.66,3.69-8.13,2.59-12.59-1.43-5.81-6.08-10.93-12.75-14.05-4.13-1.93-8.72-2.95-13.3-2.95h0Z"/>
      </g>
      <ellipse cx="255.76" cy="151.36" rx="6.54" ry="9.25" transform="translate(55.38 370.83) rotate(-78.22)"/>
      <g>
        <ellipse class="cls-1" cx="261.99" cy="151.86" rx="3.42" ry="4.84" transform="translate(59.83 377.33) rotate(-78.22)"/>
        <ellipse class="cls-1" cx="256.87" cy="148.26" rx="1.9" ry="2.69" transform="translate(59.28 369.45) rotate(-78.22)"/>
      </g>
    </g>
    <g>
      <g>
        <path class="cls-1" d="m201.19,300.71c-1.63,0-3.25-.26-4.81-.79-7.93-2.66-12.22-11.27-9.56-19.2,2.07-6.19,7.86-10.35,14.39-10.35,1.63,0,3.25.26,4.81.79,7.93,2.66,12.22,11.27,9.56,19.2-2.07,6.19-7.86,10.35-14.39,10.35Z"/>
        <path d="m201.21,273.28c1.29,0,2.6.2,3.88.64,6.41,2.15,9.88,9.11,7.73,15.52-1.72,5.12-6.51,8.37-11.64,8.37-1.29,0-2.6-.2-3.89-.64-6.41-2.15-9.88-9.11-7.73-15.52,1.72-5.12,6.51-8.37,11.64-8.37m0-5.81h0c-7.78,0-14.67,4.96-17.14,12.33-1.53,4.57-1.19,9.47.96,13.79,2.15,4.32,5.86,7.55,10.43,9.08,1.86.62,3.78.94,5.73.94,7.78,0,14.67-4.95,17.14-12.33,1.53-4.57,1.19-9.47-.96-13.79-2.15-4.32-5.86-7.55-10.43-9.08-1.86-.62-3.78-.94-5.73-.94h0Z"/>
      </g>
      <circle cx="201.2" cy="285.54" r="5.91"/>
      <g>
        <circle class="cls-1" cx="201.9" cy="289.5" r="3.09"/>
        <circle class="cls-1" cx="204.14" cy="285.83" r="1.72"/>
      </g>
    </g>
    <g>
      <g>
        <path class="cls-1" d="m255.86,306.22c-1.38,0-2.74-.22-4.05-.66-3.23-1.08-5.85-3.36-7.38-6.42-1.52-3.06-1.77-6.53-.68-9.76,1.75-5.22,6.62-8.73,12.13-8.73,1.38,0,2.74.22,4.05.66,6.69,2.24,10.3,9.5,8.06,16.19-1.75,5.22-6.62,8.73-12.13,8.73Z"/>
        <path d="m255.87,283.55c1.04,0,2.09.17,3.13.51,5.17,1.73,7.96,7.34,6.23,12.51-1.38,4.13-5.25,6.74-9.38,6.74-1.04,0-2.09-.16-3.13-.51-5.17-1.73-7.96-7.34-6.23-12.51,1.38-4.13,5.25-6.74,9.38-6.74m0-5.81h0c-6.76,0-12.74,4.3-14.89,10.71-1.33,3.97-1.03,8.22.84,11.98,1.87,3.75,5.09,6.55,9.06,7.88,1.61.54,3.29.81,4.98.81,6.76,0,12.74-4.3,14.89-10.71,2.75-8.2-1.69-17.11-9.89-19.86-1.61-.54-3.29-.81-4.98-.81h0Z"/>
      </g>
      <circle cx="255.86" cy="293.43" r="4.76"/>
      <g>
        <circle class="cls-1" cx="256.43" cy="296.62" r="2.49"/>
        <circle class="cls-1" cx="258.23" cy="293.66" r="1.39"/>
      </g>
    </g>
    <g>
      <path d="m249.84,222.53c-.21,0-.85,0-1.05-.51-.08-.22-.1-.55.31-.93,1.79-1.65,2.52-5.05,1.62-7.59-.76-2.15-3.42-4.19-5.47-4.19-.27,0-.52.04-.76.1-.52.15-.92.23-1.19.23-.71,0-.82-.51-.83-.61-.13-.92,1.83-1.79,2.39-1.95.94-.27,1.89-.41,2.83-.41,2.57,0,4.9,1.05,6.56,2.96,2.93,3.37,1.87,9.04-.99,11.67-.76.7-1.94,1.07-2.8,1.19-.09.01-.35.04-.61.04h0Z"/>
      <path d="m247.69,207.25c2.23,0,4.45.83,6.13,2.76,2.72,3.13,1.69,8.45-.95,10.87-.63.58-1.68.93-2.49,1.04-.08.01-.31.04-.53.04-.38,0-.75-.08-.35-.44,1.97-1.81,2.74-5.48,1.77-8.2-.8-2.27-3.62-4.57-6.01-4.57-.32,0-.62.04-.92.13-.5.14-.83.2-1.03.2-.88,0,.62-1.12,1.72-1.44.87-.25,1.77-.39,2.67-.39m0-1.15c-1,0-2,.15-2.99.43-.03,0-3.03.98-2.8,2.58.08.55.54,1.1,1.4,1.1.34,0,.77-.08,1.35-.25.18-.05.39-.08.6-.08,1.81,0,4.25,1.88,4.93,3.8.81,2.3.14,5.5-1.47,6.98-.71.65-.55,1.31-.46,1.56.16.4.56.87,1.59.87.31,0,.61-.04.69-.05.95-.13,2.26-.55,3.11-1.33,3.05-2.8,4.17-8.86,1.04-12.47-1.77-2.03-4.25-3.15-6.99-3.15h0Z"/>
    </g>
    <g>
      <path class="cls-1" d="m319.72,256.94c24.51-2.55,33.73-53.55,6.78-62.44"/>
      <path d="m319.72,259.7c11.7-1.28,19.38-11.23,23.1-21.67s4.19-23.71-1.21-33.98c-3.06-5.81-8.15-10.13-14.37-12.22-1.41-.47-3.02.55-3.4,1.93-.41,1.51.51,2.92,1.93,3.4.31.1.61.21.92.32.13.05.98.41.45.17.61.27,1.2.56,1.78.88.53.29,1.05.61,1.56.95.22.15.43.3.65.45.12.09.24.18.36.27-.51-.39.08.07.14.12.9.77,1.75,1.58,2.53,2.48.19.22.38.45.57.68.32.4.03.04-.02-.03.09.12.18.24.26.36.37.51.72,1.03,1.05,1.57.65,1.06,1.21,2.16,1.71,3.29-.26-.59.11.28.16.39.11.28.22.57.32.86.22.62.42,1.24.6,1.87.36,1.24.64,2.51.85,3.78.05.31.1.63.15.94-.08-.55.02.14.04.34.08.68.14,1.36.18,2.04.17,2.7.08,5.4-.23,8.09-.02.16-.04.33-.06.49.01-.11.08-.54,0,0-.05.33-.1.65-.15.98-.11.65-.23,1.3-.36,1.95-.28,1.33-.61,2.64-1,3.94s-.83,2.55-1.32,3.8c-.06.15-.12.3-.18.45.04-.1.21-.48,0,0-.13.29-.26.59-.39.88-.28.61-.58,1.22-.89,1.81-.59,1.14-1.24,2.24-1.95,3.31-.32.48-.65.94-.98,1.4-.39.54.16-.18-.26.34-.21.26-.42.52-.64.78-.87,1.03-1.82,1.99-2.84,2.88-.24.21-.49.41-.74.62-.39.32-.02.02.06-.04-.14.11-.28.21-.43.31-.54.39-1.1.76-1.67,1.09-.54.32-1.09.61-1.65.88-.13.06-.25.11-.38.17-.47.23.31-.12,0,0-.29.11-.58.22-.87.33-.62.22-1.26.4-1.9.54-.31.07-.62.13-.92.19-.14.03-.28.04-.42.07.46-.08.21-.03-.11,0-1.48.16-2.76,1.15-2.76,2.76,0,1.37,1.27,2.92,2.76,2.76h0Z"/>
    </g>
    <g>
      <g>
        <path class="cls-1" d="m318.51,240.63c-1.74,0-3.45-.36-5.09-1.07-7.7-3.32-11.79-13.38-9.31-22.9,1.99-7.65,7.79-12.79,14.42-12.79,1.74,0,3.45.36,5.09,1.07,7.7,3.32,11.79,13.38,9.31,22.9-1.99,7.65-7.79,12.79-14.42,12.79Z"/>
        <path d="m318.53,207.66c1.19,0,2.4.24,3.59.76,5.93,2.56,9.14,10.84,7.15,18.48-1.59,6.1-6.02,9.96-10.76,9.96-1.19,0-2.4-.24-3.59-.76-5.93-2.56-9.14-10.84-7.15-18.47,1.59-6.1,6.02-9.96,10.76-9.96m0-7.56h0c-8.38,0-15.65,6.28-18.08,15.62-2.94,11.28,2.1,23.28,11.48,27.32,2.12.91,4.33,1.37,6.59,1.37,8.38,0,15.65-6.28,18.08-15.61,2.94-11.28-2.1-23.28-11.48-27.32-2.12-.91-4.33-1.37-6.59-1.37h0Z"/>
      </g>
      <ellipse cx="318.52" cy="222.26" rx="5.47" ry="7.03"/>
      <g>
        <ellipse class="cls-1" cx="319.16" cy="226.97" rx="2.86" ry="3.68"/>
        <ellipse class="cls-1" cx="321.24" cy="222.6" rx="1.59" ry="2.05"/>
      </g>
    </g>
    <path d="m287.89,153.86c-.19-3.86-.58-7.74-2.65-11.11-1.77-2.88-4.32-5.24-7.05-7.2-5.36-3.85-11.88-6.18-18.39-7.08-3.8-.53-7.58-.55-11.38,0-.88.13-1.34,1.23-1.14,2,.25.94,1.14,1.26,2,1.14,7.47-1.08,15.49.44,22.24,3.76,3.27,1.61,6.32,3.66,8.82,6.33,1.49,1.6,2.73,3.41,3.38,5.52s.8,4.41.92,6.66c.1,2.08,3.36,2.1,3.25,0h0Z"/>
    <path d="m281.51,257.52c9.2-7.76,14.79-19.31,15.37-31.3.12-2.49-3.75-2.48-3.87,0-.53,11.03-5.81,21.47-14.24,28.57-1.91,1.61.84,4.33,2.74,2.74h0Z"/>
    <g>
      <path class="cls-1" d="m91.87,119.47c-1.47-1.97-4.07-2.89-6.54-2.08-3.09,1-4.78,4.32-3.77,7.41,1,3.09,4.32,4.78,7.41,3.77.66-.22,1.26-.54,1.78-.94"/>
      <path d="m88.18,114.89c2.15.28,4.16,1.4,5.51,3.23.75,1.01.54,2.44-.47,3.19-1.01.75-2.44.54-3.19-.47-.92-1.24-2.53-1.76-4.01-1.28-1.89.61-2.93,2.65-2.31,4.54.3.91.93,1.66,1.79,2.09.86.44,1.83.51,2.75.22.4-.13.76-.32,1.09-.57.99-.77,2.42-.59,3.2.4.77.99.59,2.42-.4,3.2-.74.57-1.57,1.02-2.47,1.31-2.07.67-4.28.5-6.22-.49-1.94-.99-3.38-2.67-4.06-4.75-1.39-4.28.96-8.89,5.23-10.28,1.18-.38,2.39-.48,3.56-.33Z"/>
    </g>
    <g>
      <path class="cls-1" d="m224.36,36.66c.71-4.54,4.24-8.34,9.02-9.16,5.99-1.03,11.69,3,12.71,8.99,1.03,5.99-3,11.69-8.99,12.71-1.28.22-2.56.21-3.77,0"/>
      <path d="m226.46,25.85c1.81-1.27,3.91-2.16,6.19-2.55,8.3-1.42,16.22,4.17,17.64,12.47.69,4.02-.23,8.07-2.58,11.4-2.36,3.33-5.87,5.55-9.89,6.24-1.74.3-3.5.29-5.23-.01-2.32-.41-3.87-2.62-3.46-4.94.41-2.32,2.62-3.87,4.94-3.46.76.13,1.54.14,2.31,0,1.77-.3,3.33-1.28,4.37-2.75,1.04-1.47,1.45-3.26,1.14-5.03-.63-3.67-4.12-6.14-7.79-5.51-2.86.49-5.08,2.75-5.53,5.61-.37,2.33-2.55,3.92-4.87,3.56-2.33-.36-3.92-2.55-3.56-4.87.66-4.2,3-7.82,6.32-10.15Z"/>
    </g>
    <g>
      <path class="cls-1" d="m33.25,229.1c-2.39,3.93-7.09,6.09-11.83,5.03-5.93-1.33-9.66-7.22-8.33-13.16,1.33-5.93,7.22-9.66,13.16-8.33,1.27.29,2.44.78,3.48,1.44"/>
      <path d="m27.18,238.29c-2.16.48-4.44.5-6.7,0-8.22-1.85-13.4-10.03-11.56-18.25.89-3.98,3.29-7.38,6.73-9.56,3.45-2.18,7.54-2.89,11.52-2,1.72.39,3.35,1.06,4.83,2,1.99,1.26,2.58,3.9,1.32,5.89-1.26,1.99-3.9,2.58-5.89,1.32-.65-.41-1.37-.71-2.13-.88-1.76-.4-3.56-.08-5.09.88-1.52.96-2.58,2.46-2.97,4.22-.82,3.63,1.47,7.24,5.1,8.06,2.83.64,5.74-.6,7.25-3.08,1.22-2.01,3.85-2.65,5.86-1.43,2.01,1.22,2.65,3.85,1.43,5.86-2.21,3.63-5.75,6.09-9.71,6.98Z"/>
    </g>
    <g>
      <g>
        <path class="cls-1" d="m111.95,180.97c-7.03,0-13.66-2.85-17.74-7.63-3.32-3.89-4.7-8.65-3.87-13.41.88-5.08,4.25-9.65,9.25-12.53,3.64-2.1,7.89-3.2,12.31-3.2,7.03,0,13.66,2.85,17.74,7.63,3.32,3.89,4.69,8.65,3.87,13.41-.88,5.08-4.25,9.65-9.25,12.54-3.64,2.1-7.89,3.2-12.31,3.2Z"/>
        <path d="m111.89,146.83c6.05,0,12.01,2.34,15.74,6.71,6.08,7.12,3.97,16.96-4.69,21.95-3.35,1.93-7.19,2.85-10.99,2.85-6.05,0-12.01-2.34-15.74-6.71-6.08-7.12-3.97-16.97,4.69-21.96,3.35-1.93,7.19-2.85,10.99-2.85m0-5.26h0c-4.87,0-9.58,1.23-13.62,3.55-5.68,3.27-9.52,8.51-10.53,14.37-.96,5.55.63,11.07,4.47,15.57,4.57,5.35,11.95,8.55,19.74,8.55,4.87,0,9.58-1.23,13.62-3.55,5.68-3.27,9.52-8.51,10.53-14.37.96-5.55-.63-11.07-4.47-15.57-4.57-5.35-11.95-8.55-19.74-8.55h0Z"/>
      </g>
      <ellipse cx="111.92" cy="162.58" rx="9.25" ry="7.6"/>
      <g>
        <ellipse class="cls-1" cx="114.72" cy="157.96" rx="4.84" ry="3.98"/>
        <ellipse class="cls-1" cx="108.48" cy="160.04" rx="2.69" ry="2.21"/>
      </g>
    </g>
    <g>
      <g>
        <path class="cls-1" d="m235.08,107.94c-4.95,0-9.6-2.41-12.43-6.45-4.8-6.85-3.14-16.32,3.71-21.12,2.56-1.8,5.57-2.74,8.69-2.74,4.95,0,9.6,2.41,12.43,6.45,2.32,3.31,3.22,7.33,2.52,11.33-.7,3.99-2.91,7.47-6.22,9.79-2.56,1.8-5.56,2.75-8.69,2.75Z"/>
        <path d="m235.05,80.53c3.87,0,7.67,1.82,10.06,5.22,3.88,5.53,2.54,13.2-3,17.08-2.14,1.5-4.59,2.22-7.02,2.22-3.87,0-7.67-1.82-10.06-5.22-3.88-5.53-2.54-13.2,3-17.08,2.14-1.5,4.59-2.22,7.02-2.22m0-5.81h0c-3.72,0-7.31,1.13-10.36,3.27-8.16,5.72-10.14,17.01-4.42,25.17,3.38,4.81,8.91,7.69,14.81,7.69,3.72,0,7.31-1.13,10.36-3.27,3.95-2.77,6.58-6.91,7.42-11.67.83-4.76-.23-9.55-3-13.5-3.38-4.81-8.91-7.69-14.81-7.69h0Z"/>
      </g>
      <circle cx="235.06" cy="92.78" r="5.91"/>
      <g>
        <circle class="cls-1" cx="236.85" cy="89.18" r="3.09"/>
        <circle class="cls-1" cx="232.87" cy="90.81" r="1.72"/>
      </g>
    </g>
    <g>
      <g>
        <path class="cls-1" d="m195.78,66.75c-4.17,0-8.09-2.03-10.48-5.44-1.96-2.79-2.71-6.19-2.12-9.55.59-3.37,2.46-6.3,5.25-8.26,2.16-1.51,4.69-2.31,7.33-2.31,4.17,0,8.09,2.03,10.48,5.44,4.05,5.77,2.65,13.76-3.12,17.81-2.16,1.51-4.69,2.32-7.33,2.32Z"/>
        <path d="m195.75,44.09c3.12,0,6.18,1.47,8.11,4.2,3.13,4.46,2.05,10.64-2.42,13.77-1.72,1.21-3.7,1.79-5.66,1.79-3.12,0-6.18-1.47-8.11-4.2-3.13-4.46-2.05-10.64,2.42-13.77,1.72-1.21,3.7-1.79,5.66-1.79m0-5.81h0c-3.24,0-6.35.98-9,2.84-3.43,2.4-5.71,6-6.44,10.13-.72,4.13.2,8.29,2.6,11.72,2.93,4.18,7.74,6.68,12.86,6.68,3.23,0,6.35-.98,9-2.84,3.43-2.4,5.71-6,6.44-10.13.72-4.13-.2-8.29-2.6-11.72-2.93-4.18-7.74-6.68-12.86-6.68h0Z"/>
      </g>
      <circle cx="195.77" cy="53.97" r="4.76"/>
      <g>
        <circle class="cls-1" cx="197.21" cy="51.07" r="2.49"/>
        <circle class="cls-1" cx="194" cy="52.38" r="1.39"/>
      </g>
    </g>
    <g>
      <path class="cls-1" d="m123.02,43.2c-28.31-17.56-70.23,18.22-46.43,47.42"/>
      <path d="m124.69,40.36c-11.69-7.18-26.31-6.27-38.05.29-11.07,6.2-19.89,17.59-20.36,30.6-.29,8.07,2.99,15.53,7.98,21.71,1.12,1.39,3.5,1.16,4.66,0,1.37-1.37,1.12-3.27,0-4.66-.14-.18-.29-.35-.42-.53.09.12.29.4-.09-.13-.23-.31-.45-.62-.67-.93-.51-.74-1-1.5-1.45-2.28-.36-.62-.7-1.25-1.01-1.89-.18-.36-.34-.72-.51-1.08-.05-.11-.24-.59-.01-.03-.09-.23-.18-.45-.27-.68-.52-1.37-.93-2.77-1.22-4.2-.06-.31-.12-.63-.17-.95-.15-.83.02.37-.07-.47-.08-.71-.13-1.43-.15-2.14-.04-1.37.03-2.74.19-4.1-.1.86.05-.25.08-.42.05-.3.11-.6.17-.9.15-.73.33-1.45.54-2.17.17-.59.36-1.17.57-1.75.12-.33.25-.66.38-.99.05-.14.25-.58-.03.06.07-.16.14-.32.21-.48.59-1.29,1.26-2.55,2.01-3.76.35-.57.73-1.13,1.11-1.68.18-.26.37-.51.55-.77.36-.5.05-.07-.02.02.14-.18.28-.36.42-.53.89-1.1,1.84-2.14,2.84-3.13s2.08-1.94,3.19-2.83c.61-.49-.2.14.43-.33.26-.19.52-.38.79-.57.61-.43,1.22-.84,1.85-1.23,1.26-.79,2.56-1.51,3.89-2.16.29-.14.59-.28.88-.42.13-.06,1.06-.46.76-.34s.47-.19.64-.25c.39-.15.78-.29,1.18-.43,1.36-.47,2.74-.87,4.14-1.19.68-.15,1.36-.29,2.04-.4.32-.05.64-.1.96-.15-.77.11.4-.04.64-.06,1.61-.15,3.23-.2,4.85-.12.83.04,1.67.11,2.5.22-.72-.09.28.05.51.09.41.07.83.15,1.24.24,1.62.35,3.22.83,4.76,1.44.18.07.36.14.54.22-.44-.18-.1-.04.14.07.4.19.8.37,1.19.57.8.4,1.57.85,2.34,1.32,3.62,2.23,6.94-3.47,3.33-5.69h0Z"/>
    </g>
    <g>
      <g>
        <path class="cls-1" d="m102.68,93.41c-6.49,0-12.58-3.16-16.29-8.46-3.04-4.34-4.22-9.61-3.3-14.85.92-5.23,3.82-9.79,8.16-12.84,3.36-2.35,7.29-3.6,11.39-3.6,6.49,0,12.58,3.16,16.29,8.46,6.29,8.97,4.11,21.39-4.86,27.69-3.36,2.35-7.29,3.6-11.39,3.6Z"/>
        <path d="m102.63,58.18c4.84,0,9.61,2.28,12.6,6.54,4.86,6.93,3.18,16.53-3.76,21.4-2.68,1.88-5.75,2.78-8.8,2.78-4.84,0-9.61-2.28-12.6-6.54-4.86-6.93-3.18-16.54,3.76-21.4,2.68-1.88,5.75-2.78,8.8-2.78m0-9.03h0c-5.03,0-9.86,1.53-13.98,4.42-5.33,3.74-8.88,9.33-10.01,15.75-1.13,6.42.31,12.89,4.05,18.22,4.56,6.5,12.03,10.38,19.99,10.38,5.03,0,9.86-1.53,13.98-4.42,11.01-7.72,13.68-22.96,5.96-33.97-4.56-6.5-12.03-10.38-19.99-10.38h0Z"/>
      </g>
      <circle cx="102.66" cy="73.54" r="7.4"/>
      <g>
        <circle class="cls-1" cx="104.9" cy="69.03" r="3.87"/>
        <circle class="cls-1" cx="99.91" cy="71.06" r="2.15"/>
      </g>
    </g>
    <path d="m126.13,138.22c-3.92-1.57-7.85-3.06-12.07-3.56-3.93-.47-8.02.02-11.82,1.1-6.43,1.83-12.38,5.6-16.46,10.94-2.1,2.75-3.65,5.93-4.32,9.33-.43,2.2,2.95,3.15,3.38.93,1.44-7.3,7.1-12.9,13.62-16.05,3.87-1.87,8.23-2.9,12.52-2.92,4.99-.02,9.64,1.78,14.2,3.61.89.35,1.92-.39,2.16-1.22.29-1-.35-1.81-1.22-2.16h0Z"/>
    <g>
      <path class="cls-1" d="m160.08,323.24c4.32,1.58,7.35,5.78,7.23,10.63-.16,6.08-5.21,10.88-11.29,10.72-6.08-.16-10.88-5.21-10.72-11.29.03-1.3.29-2.55.74-3.7"/>
      <path d="m170.27,327.42c.89,2.02,1.36,4.26,1.3,6.57-.22,8.42-7.25,15.09-15.67,14.88-4.08-.11-7.87-1.79-10.68-4.75-2.81-2.96-4.3-6.84-4.19-10.91.05-1.77.39-3.49,1.03-5.13.85-2.2,3.32-3.28,5.52-2.43,2.2.85,3.28,3.32,2.43,5.52-.28.72-.43,1.48-.45,2.26-.05,1.8.61,3.51,1.85,4.82,1.24,1.31,2.92,2.05,4.72,2.1,3.72.1,6.82-2.85,6.92-6.57.08-2.9-1.71-5.52-4.43-6.51-2.21-.81-3.35-3.26-2.54-5.47.81-2.21,3.26-3.35,5.47-2.54,3.99,1.46,7.09,4.46,8.73,8.18Z"/>
    </g>
    <g>
      <g>
        <path class="cls-1" d="m51.55,292.76c-6.6,0-13.16-4.54-16.69-11.55-4.93-9.78-2.56-21.34,5.29-25.75,2.06-1.16,4.32-1.75,6.72-1.75,6.6,0,13.16,4.54,16.69,11.55,4.93,9.78,2.55,21.33-5.29,25.75-2.06,1.16-4.32,1.75-6.72,1.75Z"/>
        <path d="m46.87,255.77c5.65,0,11.55,3.89,14.84,10.41,4.44,8.81,2.44,19.13-4.46,23.02-1.79,1.01-3.73,1.48-5.71,1.48-5.64,0-11.55-3.89-14.84-10.41-4.44-8.81-2.44-19.13,4.45-23.02,1.79-1.01,3.73-1.48,5.71-1.48m0-4.14v4.14-4.14h0c-2.76,0-5.36.68-7.74,2.02-8.79,4.95-11.54,17.73-6.12,28.49,3.88,7.71,11.16,12.69,18.54,12.69,2.76,0,5.36-.68,7.74-2.02,8.79-4.95,11.54-17.73,6.12-28.49-3.88-7.71-11.16-12.69-18.54-12.69h0Z"/>
      </g>
      <ellipse cx="49.21" cy="273.23" rx="6.89" ry="8.64" transform="translate(-98.79 38.34) rotate(-22.01)"/>
      <g>
        <ellipse class="cls-1" cx="53.49" cy="276.73" rx="3.61" ry="4.52" transform="translate(-99.79 40.2) rotate(-22.01)"/>
        <ellipse class="cls-1" cx="51.71" cy="270.71" rx="2.01" ry="2.51" transform="translate(-97.67 39.1) rotate(-22.01)"/>
      </g>
    </g>
    <g>
      <g>
        <path class="cls-1" d="m42.21,207.33c-8.76,0-16.71-5.17-20.24-13.17-2.38-5.39-2.52-11.39-.38-16.9,2.13-5.51,6.28-9.85,11.67-12.24,2.83-1.25,5.82-1.88,8.9-1.88,8.76,0,16.71,5.17,20.24,13.17,2.38,5.39,2.52,11.39.38,16.9-2.13,5.51-6.28,9.85-11.67,12.24-2.83,1.25-5.82,1.88-8.9,1.88Z"/>
        <path d="m42.15,166.05c7.37,0,14.42,4.27,17.58,11.44,4.28,9.68-.12,21.03-9.8,25.31-2.51,1.11-5.14,1.64-7.73,1.64-7.37,0-14.42-4.27-17.58-11.44-4.28-9.68.12-21.04,9.8-25.31,2.51-1.11,5.14-1.64,7.73-1.64m0-5.81h0c-3.48,0-6.87.72-10.07,2.13-12.61,5.57-18.34,20.36-12.77,32.97,4,9.05,12.98,14.9,22.9,14.9,3.48,0,6.87-.72,10.07-2.13,12.61-5.57,18.34-20.36,12.77-32.97-4-9.05-12.99-14.9-22.9-14.9h0Z"/>
      </g>
      <circle cx="42.18" cy="185.24" r="9.25"/>
      <g>
        <circle class="cls-1" cx="47.16" cy="189.08" r="4.84"/>
        <circle class="cls-1" cx="45.88" cy="182.47" r="2.69"/>
      </g>
    </g>
    <g>
      <g>
        <path class="cls-1" d="m104.27,340.71c-2.61,0-5.19-.58-7.45-1.67-3.66-1.77-6.25-4.78-7.09-8.27-.76-3.16-.06-6.39,1.99-9.1,2.73-3.61,7.43-5.77,12.59-5.77,2.61,0,5.19.58,7.45,1.67,3.66,1.77,6.25,4.78,7.09,8.27.76,3.16.06,6.39-1.99,9.1-2.73,3.61-7.43,5.77-12.59,5.77Z"/>
        <path d="m104.31,318.5c2.16,0,4.34.45,6.32,1.41,5.79,2.8,7.65,8.84,4.16,13.47-2.3,3.05-6.36,4.74-10.52,4.74-2.16,0-4.34-.45-6.32-1.41-5.79-2.8-7.65-8.84-4.16-13.47,2.3-3.05,6.36-4.74,10.52-4.74m0-5.19h0c-5.97,0-11.45,2.54-14.66,6.8-2.52,3.34-3.39,7.35-2.44,11.28,1.03,4.24,4.12,7.89,8.48,10,2.61,1.26,5.58,1.93,8.58,1.93,5.97,0,11.45-2.54,14.66-6.8,2.52-3.34,3.39-7.35,2.44-11.28-1.03-4.24-4.12-7.89-8.48-10-2.61-1.26-5.58-1.93-8.58-1.93h0Z"/>
      </g>
      <ellipse cx="104.29" cy="328.31" rx="5.91" ry="4.73"/>
      <g>
        <ellipse class="cls-1" cx="108.3" cy="328.45" rx="3.09" ry="2.47"/>
        <ellipse class="cls-1" cx="105.21" cy="326.06" rx="1.72" ry="1.38"/>
      </g>
    </g>
    <g>
      <g>
        <path class="cls-1" d="m148.68,304.62c-5.07,0-9.67-2.99-11.71-7.62-2.85-6.45.08-14.01,6.53-16.86,1.64-.72,3.37-1.09,5.15-1.09,5.07,0,9.67,2.99,11.71,7.62,2.85,6.45-.08,14.02-6.53,16.86-1.64.72-3.37,1.09-5.15,1.09Z"/>
        <path d="m148.65,281.95c3.8,0,7.43,2.2,9.06,5.89,2.2,4.98-.06,10.83-5.05,13.03-1.29.57-2.65.84-3.98.84-3.8,0-7.42-2.2-9.05-5.89-2.2-4.99.06-10.83,5.05-13.03,1.29-.57,2.65-.84,3.98-.84m0-5.81c-2.19,0-4.32.45-6.32,1.34-7.91,3.5-11.51,12.78-8.01,20.69,2.51,5.68,8.15,9.35,14.37,9.35,2.19,0,4.32-.45,6.32-1.34,3.83-1.69,6.77-4.78,8.29-8.69,1.51-3.91,1.42-8.17-.27-12-2.51-5.68-8.15-9.35-14.37-9.35h0Z"/>
      </g>
      <circle cx="148.66" cy="291.84" r="4.76"/>
      <g>
        <circle class="cls-1" cx="151.23" cy="293.82" r="2.49"/>
        <circle class="cls-1" cx="150.57" cy="290.41" r="1.39"/>
      </g>
    </g>
    <g>
      <path d="m173.53,77.05l-.26-.22c-.24-.26-.21-.62-.2-.74.22-2.42-1.54-5.43-3.92-6.7-.78-.42-1.83-.65-2.96-.65-1.99,0-3.72.72-4.4,1.83-.55.9-.91,1.24-1.33,1.24-.25,0-.47-.13-.6-.35-.35-.63.21-2.19.62-2.85,1.75-2.86,4.53-4.51,7.62-4.51.34,0,.68.02,1.04.06,4.43.52,7.47,5.42,7.13,9.29-.09,1.02-.72,2.1-1.27,2.77-.7.84-1.1.85-1.23.85,0,0-.25,0-.25,0Z"/>
      <path d="m168.12,64.66c.32,0,.64.02.97.06,4.12.48,6.94,5.11,6.62,8.67-.08.85-.62,1.82-1.14,2.45-.1.12-.56.64-.79.64-.1,0-.16-.09-.14-.34.24-2.67-1.67-5.89-4.22-7.26-.89-.48-2.05-.72-3.23-.72-1.99,0-4.02.69-4.89,2.11-.43.7-.69.96-.84.96-.34,0,0-1.49.51-2.34,1.49-2.44,4.01-4.23,7.13-4.23m0-1.15c-3.29,0-6.25,1.74-8.11,4.78-.26.43-1.21,2.4-.63,3.43.23.41.64.65,1.1.65.82,0,1.35-.75,1.82-1.51.57-.93,2.14-1.56,3.91-1.56,1.01,0,1.99.21,2.68.58,2.15,1.15,3.81,3.97,3.62,6.14-.04.49.07.88.34,1.18.24.26.58.41.93.41.22,0,.8,0,1.67-1.05.61-.73,1.3-1.93,1.4-3.08.37-4.13-2.89-9.36-7.63-9.91-.37-.04-.74-.06-1.1-.06h0Z"/>
    </g>
    <g>
      <g>
        <path class="cls-1" d="m183.95,148.21c-4.72,0-8.92-1.8-10.95-4.71-1.29-1.85-1.6-3.98-.88-6,.96-2.67,3.58-4.78,7.2-5.79,1.47-.41,3.02-.62,4.6-.62,4.72,0,8.92,1.81,10.95,4.71,1.29,1.85,1.6,3.98.88,6-.96,2.67-3.58,4.78-7.2,5.79-1.47.41-3.01.62-4.6.62Z"/>
        <path d="m183.93,133.41c3.8,0,7.43,1.39,9.06,3.72,2.2,3.15-.06,6.85-5.05,8.24-1.29.36-2.65.53-3.98.53-3.8,0-7.42-1.39-9.05-3.72-2.2-3.15.06-6.85,5.05-8.24,1.29-.36,2.65-.53,3.98-.53m0-4.62c-1.79,0-3.55.24-5.22.7-4.35,1.21-7.54,3.85-8.75,7.23-.97,2.71-.55,5.66,1.16,8.1,2.45,3.51,7.38,5.7,12.84,5.7,1.79,0,3.55-.24,5.22-.7,4.35-1.21,7.54-3.85,8.75-7.23.97-2.71.55-5.66-1.16-8.1-2.45-3.51-7.38-5.7-12.84-5.7h0Z"/>
      </g>
      <ellipse cx="183.94" cy="139.65" rx="4.76" ry="3.01"/>
      <g>
        <ellipse class="cls-1" cx="186.51" cy="140.91" rx="2.49" ry="1.58"/>
        <ellipse class="cls-1" cx="185.85" cy="138.75" rx="1.39" ry=".88"/>
      </g>
    </g>
    <path d="m68.25,205.07c2.57-3.39,5.1-6.83,6.57-10.86s1.63-8.46,1.01-12.67c-1.03-7.06-4.7-13.76-9.93-18.59-3.01-2.79-6.51-4.92-10.35-6.34-2.34-.87-3.35,2.87-1.03,3.73,12.07,4.48,20.69,18.82,16.99,31.57-1.22,4.21-3.99,7.77-6.6,11.21-.64.84-.13,2.16.69,2.65.99.59,2.02.13,2.65-.69h0Z"/>
    <path d="m85.6,214.91c-5.96,0-11.04,4.64-11.46,10.59-.21,2.92.79,5.89,2.65,8.12s4.74,3.62,7.19,5.28c2.07,1.4,4-1.95,1.95-3.34-1.92-1.3-4.11-2.31-5.76-3.97-1.45-1.45-2.2-3.44-2.18-5.49.03-4.11,3.58-7.33,7.62-7.33,2.49,0,2.49-3.87,0-3.87h0Z"/>
  </g>
  <g id="Layer_2" data-name="Layer 2">
    <g>
      <g>
        <path d="m268.86,191.05c2.47-1.99,9.04.08,14.05,7.88,4.97,7.5,8.37,20.72,3.61,34.09-4.25,13.54-14.94,22.04-23.42,25.03-8.69,3.21-15.18.9-15.96-2.18-1.09-6.76,11.56-16.74,15.36-30.9,5.49-13.6,1.41-29.18,6.35-33.92Z"/>
        <path class="cls-4" d="m268.86,191.05c2.47-1.99,9.04.08,14.05,7.88,4.97,7.5,8.37,20.72,3.61,34.09-4.25,13.54-14.94,22.04-23.42,25.03-8.69,3.21-15.18.9-15.96-2.18-1.09-6.76,11.56-16.74,15.36-30.9,5.49-13.6,1.41-29.18,6.35-33.92Z"/>
      </g>
      <g>
        <g>
          <path class="cls-1" d="m268.01,220.61c.55-.26,2.23.28,3.69,1.74,1.44,1.41,2.66,3.75,1.88,5.87-.65,2.16-3.03,3.29-5.04,3.55-2.05.29-3.71-.29-3.99-.83-.46-1.17,2.38-9.67,3.46-10.32Z"/>
          <path class="cls-1" d="m268.01,220.61c.55-.26,2.23.28,3.69,1.74,1.44,1.41,2.66,3.75,1.88,5.87-.65,2.16-3.03,3.29-5.04,3.55-2.05.29-3.71-.29-3.99-.83-.46-1.17,2.38-9.67,3.46-10.32Z"/>
        </g>
        <g>
          <path class="cls-1" d="m285.19,228.73c-.36.3-1.71.23-3.09-.57-1.35-.77-2.72-2.27-2.55-4,.06-1.74,1.62-3.05,3.06-3.63,1.47-.62,2.82-.51,3.14-.16.58.78.12,7.67-.55,8.37Z"/>
          <path class="cls-1" d="m285.19,228.73c-.36.3-1.71.23-3.09-.57-1.35-.77-2.72-2.27-2.55-4,.06-1.74,1.62-3.05,3.06-3.63,1.47-.62,2.82-.51,3.14-.16.58.78.12,7.67-.55,8.37Z"/>
        </g>
        <g>
          <path class="cls-1" d="m273.73,245.46c-.59.09-1.98-.9-2.91-2.68-.93-1.73-1.38-4.24-.04-5.98,1.23-1.82,3.77-2.17,5.69-1.83,1.98.33,3.35,1.34,3.46,1.93.09,1.22-5.01,8.27-6.2,8.56Z"/>
          <path class="cls-1" d="m273.73,245.46c-.59.09-1.98-.9-2.91-2.68-.93-1.73-1.38-4.24-.04-5.98,1.23-1.82,3.77-2.17,5.69-1.83,1.98.33,3.35,1.34,3.46,1.93.09,1.22-5.01,8.27-6.2,8.56Z"/>
        </g>
        <g>
          <path class="cls-1" d="m269.71,205.53c.56-.42,2.57-.18,4.53,1.15,1.93,1.27,3.82,3.63,3.4,6.19-.26,2.58-2.69,4.37-4.89,5.1-2.24.77-4.24.49-4.67-.06-.78-1.22.56-11.4,1.63-12.37Z"/>
          <path class="cls-1" d="m269.71,205.53c.56-.42,2.57-.18,4.53,1.15,1.93,1.27,3.82,3.63,3.4,6.19-.26,2.58-2.69,4.37-4.89,5.1-2.24.77-4.24.49-4.67-.06-.78-1.22.56-11.4,1.63-12.37Z"/>
        </g>
      </g>
    </g>
    <path d="m164.46,250.14c6.95,5.81,15.73,8.88,24.76,9.07s18.77-2.76,26.87-7.5c3.15-1.84.3-6.74-2.86-4.89-7.15,4.18-15.26,6.82-23.6,6.73-7.59-.08-15.3-2.52-21.17-7.42-1.17-.98-2.86-1.15-4.01,0-1.01,1.01-1.18,3.02,0,4.01h0Z"/>
    <path d="m210.3,309.79c4.51.76,9-1.01,12.03-4.4s4.66-7.98,4.99-12.56c.08-1.04-.94-1.93-1.93-1.93-1.11,0-1.86.89-1.93,1.93-.25,3.44-1.44,7.02-3.7,9.64-2.1,2.43-5.3,4.11-8.43,3.58-1.03-.17-2.08.27-2.38,1.35-.26.93.32,2.2,1.35,2.38h0Z"/>
    <path d="m240.62,310.6c2.51,2.81,6.52,4.37,10.27,3.88.53-.07.97-.17,1.37-.57.34-.34.59-.89.57-1.37-.04-.94-.86-2.07-1.93-1.93-.78.1-1.55.1-2.33.03-.37-.03.28.05.04,0-.09-.02-.18-.03-.27-.05-.18-.03-.36-.07-.54-.11-.4-.09-.8-.21-1.18-.35-.09-.03-.17-.07-.26-.1-.25-.09.32.15.08.04-.19-.09-.37-.17-.56-.27-.35-.18-.68-.38-1-.59-.15-.1-.3-.21-.45-.32-.19-.14.29.24.01,0-.07-.06-.14-.12-.21-.18-.31-.27-.6-.56-.87-.87-.68-.76-2.06-.74-2.74,0-.74.81-.72,1.93,0,2.74h0Z"/>
    <g>
      <path class="cls-2" d="m259.24,255.8c1.54-1.33,4.06-.63,5.47.84s2.08,3.47,3.01,5.28c.42.82.94,1.65,1.77,2.04s2.03.13,2.33-.74c.27-.77-.25-1.57-.59-2.32s-.35-1.86.43-2.13c.56-.19,1.14.21,1.54.65,1.04,1.13,1.65,2.57,2.55,3.81s2.3,2.32,3.82,2.15c1.6-.18,2.78-1.78,2.9-3.38s-.6-3.17-1.56-4.47-2.14-2.41-3.15-3.67c1.02-1.21.21-3.03-.67-4.34-1.18-1.77-2.63-3.62-4.71-4.06-1.4-.29-2.84.12-4.21.53-3.98,1.19-8.06,2.43-11.34,4.98-1.11.86-2.14,1.9-2.66,3.2s-.44,2.92.48,3.98,2.76,1.29,3.73.28"/>
      <path d="m260.22,257.47c1.42-1.08,3,.16,3.82,1.41,1.18,1.82,1.69,4.08,3.17,5.71,1.37,1.52,3.83,2.06,5.48.63.89-.77,1.27-1.88,1.09-3.04-.1-.61-.35-1.12-.59-1.69-.04-.1-.14-.42-.21-.51-.05-.06-.05-.11-.02-.17.14-.3,0-.05-.43.76h-1.03c.83.17,1.49,1.9,1.91,2.57.7,1.13,1.48,2.17,2.55,2.97,2.07,1.55,4.89,1.6,6.78-.29,1.75-1.76,2.08-4.44,1.25-6.72-.97-2.65-3.09-4.51-4.83-6.65l.3,2.34c1.31-1.86.62-4.2-.47-5.99s-2.43-3.54-4.23-4.54c-2.27-1.27-4.69-.88-7.08-.18-2.14.63-4.27,1.29-6.33,2.15-3.66,1.52-8.55,4.06-9.3,8.41-.36,2.06.27,4.4,2.13,5.57s4.01.95,5.59-.45c1.87-1.65-.88-4.38-2.74-2.74-.58.51-1.17-.54-1.23-.98-.13-1.05.56-2.03,1.26-2.73,1.97-1.99,4.73-3.2,7.33-4.12,1.36-.48,2.73-.9,4.11-1.31,1.31-.39,2.81-.97,4.14-.35,1.06.49,1.84,1.52,2.49,2.45.51.73,1.58,2.02.99,2.86-.53.75-.21,1.71.3,2.34,1.37,1.68,3.28,3.2,3.96,5.32.35,1.09.07,3.44-1.63,2.81s-2.58-3.29-3.64-4.65c-1.29-1.65-3.77-2.85-5.35-.8-.6.78-.73,1.75-.58,2.7.08.47.21.85.41,1.29.11.23.22.46.32.69.12-.24.29-.36.51-.36,0,.12-.47-.35-.48-.36-.22-.26-.37-.6-.53-.9-.51-.97-.91-1.98-1.42-2.95-.91-1.74-2.17-3.36-3.99-4.19s-4.06-.94-5.72.33c-.83.63-1.27,1.67-.69,2.65.48.81,1.81,1.34,2.65.69h0Z"/>
    </g>
    <g>
      <g>
        <path d="m143.99,132.52c-3.16-.29-6.45-6.34-4.64-15.43,1.63-8.84,8.37-20.73,21.08-27.03,12.46-6.79,26.06-5.49,34.24-1.75,8.48,3.73,11.55,9.9,9.97,12.65-3.91,5.62-19.94,4.02-32.51,11.56-13.4,5.97-21.28,20.01-28.13,19.99Z"/>
        <path class="cls-4" d="m143.99,132.52c-3.16-.29-6.45-6.34-4.64-15.43,1.63-8.84,8.37-20.73,21.08-27.03,12.46-6.79,26.06-5.49,34.24-1.75,8.48,3.73,11.55,9.9,9.97,12.65-3.91,5.62-19.94,4.02-32.51,11.56-13.4,5.97-21.28,20.01-28.13,19.99Z"/>
      </g>
      <g>
        <g>
          <path class="cls-1" d="m165.13,111.84c-.58-.19-1.41-1.75-1.44-3.81-.06-2.02.69-4.55,2.72-5.53,1.97-1.1,4.47-.26,6.09.94,1.67,1.21,2.47,2.79,2.29,3.37-.48,1.17-8.43,5.3-9.66,5.03Z"/>
          <path class="cls-1" d="m165.13,111.84c-.58-.19-1.41-1.75-1.44-3.81-.06-2.02.69-4.55,2.72-5.53,1.97-1.1,4.47-.26,6.09.94,1.67,1.21,2.47,2.79,2.29,3.37-.48,1.17-8.43,5.3-9.66,5.03Z"/>
        </g>
        <g>
          <path class="cls-1" d="m180.08,88.8c.39.26.7,1.58.32,3.13-.36,1.51-1.42,3.25-3.13,3.57-1.69.43-3.38-.7-4.34-1.92-1-1.24-1.28-2.57-1.03-2.97.59-.77,7.33-2.27,8.19-1.81Z"/>
          <path class="cls-1" d="m180.08,88.8c.39.26.7,1.58.32,3.13-.36,1.51-1.42,3.25-3.13,3.57-1.69.43-3.38-.7-4.34-1.92-1-1.24-1.28-2.57-1.03-2.97.59-.77,7.33-2.27,8.19-1.81Z"/>
        </g>
        <g>
          <path class="cls-1" d="m159.31,94.57c.58.14,1.51,1.58,1.7,3.57.22,1.95-.3,4.45-2.19,5.57-1.82,1.23-4.3.61-5.97-.42-1.72-1.04-2.61-2.5-2.49-3.08.37-1.17,7.73-5.81,8.94-5.64Z"/>
          <path class="cls-1" d="m159.31,94.57c.58.14,1.51,1.58,1.7,3.57.22,1.95-.3,4.45-2.19,5.57-1.82,1.23-4.3.61-5.97-.42-1.72-1.04-2.61-2.5-2.49-3.08.37-1.17,7.73-5.81,8.94-5.64Z"/>
        </g>
        <g>
          <path class="cls-1" d="m153.44,121.5c-.69-.09-1.97-1.65-2.46-3.97-.51-2.26-.23-5.26,1.85-6.81,1.98-1.67,4.97-1.27,7.06-.27,2.15,1,3.39,2.59,3.32,3.29-.29,1.42-8.32,7.81-9.76,7.77Z"/>
          <path class="cls-1" d="m153.44,121.5c-.69-.09-1.97-1.65-2.46-3.97-.51-2.26-.23-5.26,1.85-6.81,1.98-1.67,4.97-1.27,7.06-.27,2.15,1,3.39,2.59,3.32,3.29-.29,1.42-8.32,7.81-9.76,7.77Z"/>
        </g>
      </g>
    </g>
    <path d="m241.99,67.7c-3.14-3.23-7.75-4.25-12.09-3.44s-8.44,3.56-11.33,6.92c-1.62,1.88,1.11,4.63,2.74,2.74,4.17-4.85,12.56-9.03,17.95-3.48,1.74,1.79,4.47-.95,2.74-2.74h0Z"/>
    <path d="m218.25,49.5c-.37-3.99-2.61-7.67-6.15-9.62-.89-.49-2.15-.24-2.65.69s-.25,2.12.69,2.65c.35.19.68.4,1.01.63.06.04.34.25.09.06s.05.05.08.07c.15.13.3.26.44.4.27.26.53.53.78.82.06.08.13.15.19.23.22.27-.18-.26-.05-.06.11.16.23.32.34.49.21.32.4.64.57.98.07.15.14.43.25.54-.1-.1-.16-.38-.04-.08.04.09.07.19.1.28.13.37.24.76.33,1.14.04.17.07.35.1.53.05.32-.02.05,0-.1,0,.11.03.24.04.36.09,1,.82,1.98,1.93,1.93.97-.04,2.03-.86,1.93-1.93h0Z"/>
    <g>
      <path class="cls-2" d="m182.64,104.04c1.52-1.35,4.05-.69,5.48.75s2.14,3.44,3.09,5.24c.43.81.97,1.64,1.8,2.02s2.03.1,2.31-.78c.25-.78-.28-1.56-.62-2.31-.35-.74-.38-1.86.39-2.14.55-.2,1.14.2,1.55.63,1.05,1.11,1.69,2.55,2.61,3.77s2.33,2.28,3.85,2.09c1.6-.2,2.76-1.82,2.85-3.43s-.65-3.16-1.63-4.45c-.97-1.28-2.18-2.38-3.2-3.63,1-1.22.16-3.03-.73-4.33-1.2-1.75-2.68-3.58-4.77-3.98-1.41-.27-2.84.17-4.21.6-3.96,1.25-8.02,2.55-11.26,5.15-1.1.88-2.11,1.93-2.61,3.24-.5,1.31-.4,2.92.54,3.97s2.78,1.25,3.74.22"/>
      <path d="m184.01,105.41c1.29-1.02,3.11,1.06,3.67,1.96,1.09,1.77,1.65,3.95,3.15,5.45s3.99,1.87,5.56.31c.83-.83,1.08-2.03.84-3.16-.13-.58-.46-1.07-.66-1.62-.39-1.07.2.14-.61.27h-1.03c.85.16,1.53,1.84,1.96,2.52.72,1.14,1.53,2.18,2.62,2.98,2.08,1.51,4.89,1.5,6.73-.39,1.74-1.77,2.04-4.47,1.18-6.73-1.01-2.64-3.14-4.46-4.91-6.58l.3,2.34c1.29-1.89.59-4.2-.53-5.98s-2.48-3.5-4.29-4.49c-2.28-1.25-4.7-.84-7.07-.1-2.14.67-4.27,1.37-6.33,2.25-3.65,1.55-8.44,4.19-9.16,8.51-.34,2.06.31,4.4,2.18,5.55s4.03.92,5.59-.5c1.84-1.68-.9-4.41-2.74-2.74-.57.52-1.18-.42-1.26-.91-.17-1.05.5-2.04,1.19-2.76,1.94-2.02,4.67-3.28,7.26-4.24,1.35-.5,2.72-.94,4.09-1.37s2.84-1.02,4.2-.41c1.03.47,1.83,1.48,2.47,2.38.51.7,1.63,2.01,1.06,2.85-.51.75-.23,1.71.3,2.34,1.39,1.65,3.33,3.15,4.06,5.25.37,1.08.15,3.42-1.55,2.88-.92-.3-1.56-1.34-2.05-2.1-.61-.96-1.18-1.95-1.93-2.81-1.36-1.55-3.93-2.33-5.26-.25-.52.81-.6,1.88-.37,2.8.1.41.28.8.47,1.19.09.19.19.38.28.57.11-.12.21-.25.31-.39.15,0,.14-.03-.02-.09-.09-.09-.18-.17-.27-.27-.31-.34-.52-.85-.73-1.26-.5-.97-.93-1.98-1.47-2.92-2.03-3.52-6.32-5.96-9.96-3.09-.83.65-.67,2.05,0,2.74.8.82,1.92.64,2.74,0h0Z"/>
    </g>
    <g>
      <g>
        <path d="m85.3,225.42c.49-2.4,6.74-4.62,15.69-2.79,8.72,1.68,20.15,7.41,25.63,17.44,5.98,9.86,3.81,20.19-.44,26.26-4.27,6.3-10.62,8.35-13.26,7-5.36-3.27-2.73-15.44-9.46-25.43-5.1-10.54-18.61-17.25-18.16-22.49Z"/>
        <path class="cls-3" d="m85.3,225.42c.49-2.4,6.74-4.62,15.69-2.79,8.72,1.68,20.15,7.41,25.63,17.44,5.98,9.86,3.81,20.19-.44,26.26-4.27,6.3-10.62,8.35-13.26,7-5.36-3.27-2.73-15.44-9.46-25.43-5.1-10.54-18.61-17.25-18.16-22.49Z"/>
      </g>
      <g>
        <g>
          <path class="cls-1" d="m104.59,242.6c.23-.43,1.83-.99,3.9-.92,2.02.06,4.49.75,5.34,2.35.98,1.56-.03,3.43-1.33,4.61-1.32,1.22-2.94,1.75-3.51,1.59-1.14-.43-4.75-6.7-4.4-7.63Z"/>
          <path class="cls-1" d="m104.59,242.6c.23-.43,1.83-.99,3.9-.92,2.02.06,4.49.75,5.34,2.35.98,1.56-.03,3.43-1.33,4.61-1.32,1.22-2.94,1.75-3.51,1.59-1.14-.43-4.75-6.7-4.4-7.63Z"/>
        </g>
        <g>
          <path class="cls-1" d="m122.83,265.88c-.42.16-1.72-.13-2.87-.97-1.14-.81-2.13-2.17-1.56-3.43.46-1.29,2.27-1.99,3.81-2.17,1.57-.2,2.86.12,3.09.43.38.69-1.64,5.74-2.46,6.15Z"/>
          <path class="cls-1" d="m122.83,265.88c-.42.16-1.72-.13-2.87-.97-1.14-.81-2.13-2.17-1.56-3.43.46-1.29,2.27-1.99,3.81-2.17,1.57-.2,2.86.12,3.09.43.38.69-1.64,5.74-2.46,6.15Z"/>
        </g>
        <g>
          <path class="cls-1" d="m125.55,253.72c-.38.35-2.07.51-3.96-.01-1.85-.5-3.88-1.69-4.06-3.37-.31-1.66,1.32-3.17,2.98-3.98,1.68-.84,3.38-.97,3.85-.69.89.65,1.87,7.27,1.19,8.05Z"/>
          <path class="cls-1" d="m125.55,253.72c-.38.35-2.07.51-3.96-.01-1.85-.5-3.88-1.69-4.06-3.37-.31-1.66,1.32-3.17,2.98-3.98,1.68-.84,3.38-.97,3.85-.69.89.65,1.87,7.27,1.19,8.05Z"/>
        </g>
        <g>
          <path class="cls-1" d="m95.68,233.19c.13-.53,1.78-1.43,4.12-1.69,2.28-.28,5.27.08,6.68,1.75,1.54,1.59.95,3.86-.18,5.41-1.13,1.59-2.8,2.46-3.49,2.38-1.4-.29-7.26-6.74-7.13-7.85Z"/>
          <path class="cls-1" d="m95.68,233.19c.13-.53,1.78-1.43,4.12-1.69,2.28-.28,5.27.08,6.68,1.75,1.54,1.59.95,3.86-.18,5.41-1.13,1.59-2.8,2.46-3.49,2.38-1.4-.29-7.26-6.74-7.13-7.85Z"/>
        </g>
      </g>
    </g>
    <path d="m149.05,314.8c3.75.39,7.74-1.23,10.18-4.11.65-.77.81-1.99,0-2.74-.72-.66-2.04-.82-2.74,0-.25.29-.51.57-.79.84-.15.14-.3.27-.46.4-.07.06-.15.11-.21.17.28-.3.13-.1.01-.02-.31.22-.64.43-.97.61-.18.1-.36.19-.54.28-.08.04-.16.07-.25.11-.23.12.44-.17.03-.01-.36.14-.72.26-1.09.36-.2.05-.39.1-.59.14-.16.03-.39.03-.53.1.16-.08.36-.04.04,0-.09,0-.18.02-.27.03-.2.02-.4.03-.61.03-.41,0-.81-.01-1.22-.06-1.01-.1-1.98.96-1.93,1.93.05,1.14.85,1.82,1.93,1.93h0Z"/>
    <g>
      <path class="cls-2" d="m115.28,270.58c1.24-.35,2.4,1.02,2.72,2.51s.07,3.1.03,4.65c-.02.7,0,1.46.34,2.02s1.06.81,1.49.32c.38-.43.34-1.15.39-1.78s.38-1.39.88-1.3c.36.07.55.55.64.99.22,1.13.11,2.33.23,3.49s.54,2.39,1.42,2.81c.93.45,2.05-.22,2.61-1.26s.64-2.37.52-3.59-.43-2.4-.59-3.61c.92-.46,1.04-1.98.96-3.19-.1-1.62-.32-3.39-1.32-4.43-.67-.7-1.58-.93-2.45-1.14-2.53-.61-5.12-1.22-7.68-.66-.87.19-1.74.53-2.42,1.23s-1.13,1.82-.95,2.87,1.11,1.86,1.94,1.52"/>
      <path d="m115.63,271.87c.37-.08.74.63.85.88.28.62.33,1.31.33,1.98.02,1.63-.43,3.41.08,5,.44,1.36,1.94,2.48,3.35,1.7.64-.35,1.01-.97,1.18-1.67.09-.38.08-.79.12-1.18-.01-.14,0-.27.05-.4.06-.15.07-.16,0-.01l-.67.18-.55-.31c.02.07.04.13.05.2-.02.19.08.52.1.69.04.48.04.96.05,1.44.03.93.08,1.9.39,2.79.57,1.66,2.04,3.04,3.9,2.49s2.71-2.32,2.95-4.03c.29-2.08-.3-4.1-.59-6.14l-.61,1.51c1.26-.76,1.61-2.2,1.64-3.59s-.11-2.79-.53-4.04c-.46-1.36-1.29-2.45-2.62-3.04-1.47-.65-3.2-.94-4.78-1.19-2.94-.47-6.88-.53-8.77,2.24-.79,1.15-1.11,2.69-.62,4.01.52,1.41,1.93,2.39,3.44,1.95,1.65-.48.95-3.06-.71-2.58-.3.09-.29-.99-.18-1.31.25-.74.83-1.24,1.55-1.51,1.98-.74,4.26-.35,6.26.09.89.2,1.89.33,2.72.71.73.34,1.05.96,1.25,1.71.22.8.29,1.63.32,2.45.01.41.12,1.53-.31,1.79-.56.34-.7.9-.61,1.51.27,1.89,1.08,4.12.3,5.99-.16.39-.64,1.14-1.1.81-.56-.4-.55-1.72-.58-2.3-.06-1.55.21-4.46-1.79-4.97-.96-.24-1.81.37-2.22,1.2-.2.4-.29.82-.33,1.26-.02.22-.02.45-.05.67v.19c-.07.3-.09.34-.06.12l.67-.18c-.24,0-.27.02-.09.07.16.09.17.03.04-.16.02-.23-.08-.6-.08-.84,0-.55.04-1.1.08-1.65.08-1.26.13-2.56-.18-3.8-.5-1.99-2.15-3.77-4.33-3.32-1.68.35-.97,2.92.71,2.58h0Z"/>
    </g>
  </g>
</svg>