<?xml version="1.0" encoding="UTF-8"?>
<svg xmlns="http://www.w3.org/2000/svg" viewBox="0 0 360 360">
  <defs>
    <style>
      .cls-1 {
        fill: #fff;
      }

      .cls-2 {
        fill: #98ef00;
      }

      .cls-3 {
        fill: none;
        stroke: #000;
        stroke-miterlimit: 10;
        stroke-width: .69px;
      }
    </style>
  </defs>
  <g id="Layer_1" data-name="Layer 1">
    <g>
      <path class="cls-1" d="m177.94,312.98c-39.21,0-76.15-12.3-104.03-34.63-28.5-22.83-44.19-53.37-44.19-86s15.69-63.17,44.19-86c27.88-22.33,64.83-34.63,104.03-34.63s76.15,12.3,104.03,34.63c28.5,22.83,44.19,53.37,44.19,86s-15.69,63.17-44.19,86c-27.88,22.33-64.83,34.63-104.03,34.63Z"/>
      <path d="m177.94,81.21c76.62,0,138.73,49.75,138.73,111.13s-62.11,111.13-138.73,111.13S39.21,253.72,39.21,192.35s62.11-111.13,138.73-111.13m0-19c-41.36,0-80.41,13.04-109.97,36.72-14.78,11.84-26.44,25.73-34.65,41.28-8.69,16.46-13.1,34-13.1,52.13s4.41,35.66,13.1,52.13c8.21,15.55,19.87,29.44,34.65,41.28,29.56,23.68,68.62,36.72,109.97,36.72s80.41-13.04,109.97-36.72c14.78-11.84,26.44-25.73,34.65-41.28,8.69-16.46,13.1-34,13.1-52.13s-4.41-35.66-13.1-52.13c-8.21-15.55-19.87-29.44-34.65-41.28-29.56-23.68-68.62-36.72-109.97-36.72h0Z"/>
    </g>
    <g>
      <path class="cls-1" d="m291.76,259.03c1.73,5.68,6.93,9.9,13.2,10.08,7.85.23,14.41-5.96,14.64-13.81.23-7.85-5.96-14.41-13.81-14.64-1.68-.05-3.31.2-4.82.69"/>
      <path d="m296.41,272.48c-4.68-2.38-8.33-6.59-9.93-11.84-.89-2.91.75-5.99,3.67-6.88,2.91-.89,5.99.75,6.88,3.67,1.09,3.59,4.34,6.07,8.09,6.18,4.81.14,8.83-3.65,8.97-8.46.07-2.33-.77-4.54-2.37-6.23-1.6-1.7-3.76-2.66-6.08-2.73-1.01-.03-2,.11-2.95.42-2.89.95-6.01-.63-6.95-3.52-.95-2.89.63-6.01,3.52-6.95,2.16-.71,4.41-1.03,6.7-.96,5.27.15,10.17,2.35,13.78,6.19,3.62,3.84,5.53,8.85,5.37,14.12-.32,10.88-9.43,19.47-20.31,19.16-2.99-.09-5.84-.84-8.38-2.14Z"/>
    </g>
    <g>
      <path class="cls-1" d="m256.05,279.11c.09,3.17,2.17,6.08,5.37,7.06,4.01,1.23,8.26-1.03,9.49-5.04,1.23-4.01-1.03-8.26-5.04-9.49-.86-.26-1.73-.37-2.58-.33"/>
      <path d="m256.54,286.69c-2.07-1.89-3.36-4.57-3.44-7.5-.04-1.63,1.24-2.98,2.86-3.02,1.63-.05,2.98,1.24,3.02,2.86.05,2,1.38,3.74,3.29,4.32,2.45.75,5.06-.63,5.81-3.09.36-1.19.24-2.45-.34-3.54-.58-1.1-1.56-1.9-2.75-2.27-.52-.16-1.05-.22-1.58-.2-1.62.08-3-1.17-3.08-2.8-.08-1.62,1.17-3,2.8-3.08,1.21-.06,2.42.09,3.58.45,2.69.82,4.9,2.65,6.22,5.13,1.32,2.49,1.59,5.34.77,8.03-1.7,5.56-7.61,8.69-13.16,6.99-1.53-.47-2.89-1.26-4.01-2.29Z"/>
    </g>
    <g>
      <path class="cls-1" d="m46.84,234.52c-4.12,4.28-10.67,5.68-16.34,2.99-7.1-3.36-10.14-11.84-6.78-18.95,3.36-7.1,11.84-10.14,18.95-6.78,1.52.72,2.86,1.68,3.98,2.8"/>
      <path d="m36.58,244.39c-2.86,0-5.74-.62-8.44-1.9-9.84-4.65-14.06-16.45-9.41-26.29,2.25-4.77,6.23-8.37,11.19-10.15,4.97-1.78,10.32-1.51,15.09.74,2.06.98,3.92,2.29,5.53,3.9,2.15,2.15,2.15,5.65,0,7.79-2.15,2.15-5.64,2.15-7.8,0-.71-.71-1.53-1.28-2.44-1.72-2.1-1-4.47-1.11-6.66-.33-2.19.78-3.95,2.38-4.94,4.48-2.06,4.34-.19,9.55,4.15,11.6,3.39,1.6,7.41.87,10.01-1.83,2.11-2.19,5.6-2.26,7.79-.15,2.19,2.11,2.26,5.6.15,7.79-3.81,3.96-8.98,6.05-14.22,6.05Z"/>
    </g>
    <g>
      <path class="cls-1" d="m94.78,274.98c1.2,8.35-2.95,16.89-10.89,20.89-9.95,5.02-22.09,1.02-27.11-8.92-5.02-9.95-1.02-22.09,8.93-27.11,2.13-1.07,4.37-1.74,6.61-2.01"/>
      <path d="m96.89,295.06c-2.49,3.2-5.7,5.88-9.48,7.79-13.78,6.95-30.66,1.4-37.61-12.38-3.37-6.68-3.94-14.27-1.6-21.37,2.34-7.11,7.3-12.87,13.98-16.24,2.89-1.46,5.98-2.4,9.18-2.79,4.28-.53,8.19,2.52,8.72,6.8.53,4.28-2.52,8.19-6.8,8.72-1.41.17-2.77.59-4.05,1.23-2.95,1.49-5.14,4.03-6.17,7.17-1.03,3.14-.78,6.49.71,9.44,3.07,6.09,10.52,8.54,16.6,5.47,4.75-2.39,7.43-7.54,6.67-12.8-.61-4.27,2.36-8.24,6.63-8.85,4.27-.61,8.24,2.36,8.85,6.63,1.1,7.71-1.05,15.32-5.63,21.19Z"/>
    </g>
    <g>
      <g>
        <path class="cls-1" d="m156.32,140.97c-8.77,0-16.98-2.81-23.09-7.91-6.12-5.1-9.41-11.88-9.26-19.08.15-7.28,3.78-14.01,10.23-18.95,6-4.6,13.85-7.13,22.11-7.13,8.78,0,16.98,2.81,23.09,7.91,6.12,5.1,9.41,11.87,9.26,19.07-.15,7.28-3.78,14.01-10.23,18.96-6,4.6-13.85,7.13-22.11,7.13Z"/>
        <path d="m156.3,91.26c7.63,0,15.26,2.39,20.94,7.13,11.07,9.23,10.68,23.94-.86,32.79-5.61,4.3-12.85,6.44-20.07,6.44-7.63,0-15.25-2.39-20.94-7.13-11.07-9.23-10.68-23.94.86-32.79,5.61-4.3,12.85-6.44,20.07-6.44m0-6.71h0c-8.99,0-17.57,2.78-24.15,7.83-7.17,5.49-11.37,13.35-11.54,21.55-.17,8.24,3.55,15.95,10.47,21.72,6.72,5.6,15.68,8.69,25.24,8.69,8.99,0,17.57-2.78,24.15-7.83,7.17-5.49,11.37-13.35,11.54-21.55.17-8.24-3.55-15.95-10.46-21.72-6.72-5.6-15.68-8.69-25.24-8.69h0Z"/>
      </g>
      <ellipse cx="156.31" cy="114.43" rx="13.98" ry="11.18"/>
      <g>
        <ellipse class="cls-1" cx="165.37" cy="116.74" rx="7.32" ry="5.85"/>
        <ellipse class="cls-1" cx="160.14" cy="109.76" rx="4.07" ry="3.25"/>
      </g>
    </g>
    <g>
      <path class="cls-1" d="m243.56,106.13c73.55-48.8,147.49,68.81,56.04,116.08"/>
      <path d="m247.35,112.61c3.9-2.58,8.01-4.84,12.32-6.67l-1.79.76c5.12-2.15,10.47-3.68,15.97-4.44l-1.99.27c5-.67,10.06-.69,15.06-.03l-1.99-.27c5.1.69,10.08,2.07,14.82,4.06l-1.79-.76c3.06,1.3,6,2.85,8.81,4.62,1.37.87,2.71,1.79,4.02,2.76.18.13.35.27.53.4.88.66-1.68-1.32-.82-.63.29.23.58.46.87.69.66.54,1.31,1.08,1.95,1.64,2.48,2.18,4.81,4.54,6.95,7.05.53.62,1.05,1.26,1.56,1.9.09.12.18.23.28.35.69.86-1.29-1.7-.63-.81.27.36.54.71.8,1.07,1.01,1.38,1.98,2.81,2.89,4.26,1.98,3.17,3.71,6.5,5.16,9.95l-.76-1.79c2.3,5.48,3.89,11.23,4.69,17.12l-.27-1.99c.74,5.58.76,11.24.01,16.82l.27-1.99c-.73,5.3-2.15,10.48-4.22,15.42l.76-1.79c-1.19,2.81-2.58,5.54-4.16,8.15-.84,1.39-1.74,2.75-2.68,4.07-.43.61-.88,1.2-1.32,1.79-.52.7,1.32-1.69.61-.79-.11.14-.22.28-.33.42-.28.35-.56.69-.84,1.04-2.18,2.64-4.56,5.12-7.08,7.43-1.33,1.22-2.71,2.4-4.12,3.53-.35.28-.71.56-1.06.84,2.1-1.68.69-.53.19-.16-.78.59-1.58,1.16-2.38,1.72-3.77,2.64-7.73,4.99-11.81,7.1-3.49,1.81-4.81,6.98-2.69,10.26,2.29,3.55,6.53,4.63,10.26,2.69,15.9-8.25,30.47-20.55,38.63-36.76,7.06-14.05,9.06-29.73,6.17-45.14-2.65-14.1-9.75-27.39-19.55-37.82s-22.59-18.01-36.5-20.68c-16.2-3.12-32.56.1-46.93,8.07-1.85,1.03-3.66,2.14-5.43,3.3-3.27,2.16-4.97,6.73-2.69,10.26,2.1,3.26,6.76,5,10.26,2.69h0Z"/>
    </g>
    <g>
      <g>
        <path class="cls-1" d="m275.2,208.07c-25.71,0-46.63-20.92-46.63-46.64s20.92-46.64,46.63-46.64,46.64,20.92,46.64,46.64-20.92,46.64-46.64,46.64Z"/>
        <path d="m275.2,118.55c23.65,0,42.88,19.24,42.88,42.88s-19.24,42.89-42.88,42.89-42.88-19.24-42.88-42.89,19.24-42.88,42.88-42.88m0-7.5c-27.78,0-50.39,22.6-50.39,50.39s22.6,50.39,50.39,50.39,50.39-22.6,50.39-50.39-22.6-50.39-50.39-50.39h0Z"/>
      </g>
      <circle cx="275.2" cy="161.43" r="20.67" transform="translate(98.8 427.28) rotate(-86.83)"/>
      <g>
        <circle class="cls-1" cx="262.85" cy="168.14" r="10.82" transform="translate(-18.79 33.83) rotate(-7.11)"/>
        <circle class="cls-1" cx="277.52" cy="171.5" r="6.01"/>
      </g>
    </g>
    <g>
      <g>
        <path class="cls-1" d="m66.11,191.71c-1.52,0-2.98-.29-4.35-.85-7.34-3.02-10.06-13.36-6.07-23.05,3.19-7.74,9.7-12.94,16.19-12.94,1.52,0,2.98.29,4.35.85,3.69,1.52,6.4,4.99,7.45,9.53.97,4.21.48,9.01-1.38,13.52-3.19,7.74-9.69,12.94-16.19,12.94Z"/>
        <path d="m71.88,158.03c1.08,0,2.14.2,3.15.61,5.73,2.36,7.68,10.85,4.35,18.93-2.74,6.65-8.22,10.99-13.27,10.99-1.08,0-2.14-.2-3.15-.61-5.73-2.36-7.68-10.85-4.35-18.93,2.74-6.66,8.22-10.99,13.27-10.99m0-6.32h0c-7.76,0-15.45,5.99-19.12,14.9-2.1,5.11-2.65,10.59-1.53,15.43,1.28,5.55,4.68,9.83,9.32,11.74,1.76.72,3.62,1.09,5.55,1.09,7.76,0,15.45-5.99,19.12-14.9,2.1-5.11,2.65-10.59,1.53-15.43-1.28-5.55-4.68-9.83-9.32-11.75-1.76-.72-3.62-1.09-5.55-1.09h0Z"/>
      </g>
      <ellipse cx="69" cy="173.29" rx="7.64" ry="5.41" transform="translate(-117.51 171.11) rotate(-67.62)"/>
      <g>
        <ellipse class="cls-1" cx="68.89" cy="178.18" rx="4" ry="2.83" transform="translate(-122.1 174.04) rotate(-67.62)"/>
        <ellipse class="cls-1" cx="71.76" cy="173.5" rx="2.22" ry="1.57" transform="translate(-116 173.8) rotate(-67.62)"/>
      </g>
    </g>
    <g>
      <path d="m197.74,224.41c-1.93,0-3.81-.45-5.28-1.26-1.16-.64-2.11-1.94-2.61-2.95-.69-1.39-.4-1.84-.3-2.01.16-.26.45-.42.77-.42.21,0,.43.07.68.21,1.03.57,2.34.87,3.79.87,2.26,0,4.57-.75,6.18-2,2.47-1.93,4.13-6.88,2.44-9.31-.8-1.16-1-1.77-.74-2.27.15-.29.45-.47.8-.47.93,0,2.42,1.45,2.95,2.23,2.75,3.97,3.02,8.67.73,12.56-1.75,2.98-5.37,4.83-9.43,4.83h0Z"/>
      <path d="m203.48,205.54c.45,0,1.72,1,2.34,1.91,2.31,3.34,3.06,7.75.71,11.76-1.78,3.03-5.38,4.47-8.79,4.47-1.79,0-3.52-.4-4.92-1.16-.96-.53-1.83-1.68-2.3-2.63-.11-.22-.64-1.36-.19-1.36.08,0,.18.03.32.11,1.18.65,2.64.96,4.14.96,2.35,0,4.84-.76,6.64-2.16,2.77-2.16,4.54-7.51,2.6-10.32-.8-1.15-.85-1.57-.55-1.57m0-1.48c-.62,0-1.18.33-1.46.87-.52.99.11,2.04.79,3.03,1.45,2.1-.11,6.6-2.29,8.31-1.48,1.16-3.62,1.85-5.72,1.85-1.32,0-2.5-.27-3.43-.78-.36-.2-.7-.3-1.04-.3-.58,0-1.1.29-1.4.77-.26.42-.52,1.16.27,2.73.55,1.1,1.6,2.54,2.91,3.27,1.6.88,3.55,1.35,5.63,1.35,4.32,0,8.18-1.99,10.07-5.2,2.44-4.15,2.15-9.14-.76-13.35-.55-.8-2.21-2.54-3.56-2.55h0Z"/>
    </g>
    <path d="m182.61,285.59c-12.22-6.48-26.69-6.93-39.3-1.28-1.12.5-1.39,2.13-.81,3.11.67,1.15,1.98,1.32,3.11.81,11.05-4.95,24.05-4.37,34.72,1.28,2.58,1.37,4.88-2.55,2.29-3.92h0Z"/>
    <g>
      <path class="cls-1" d="m217.67,185.62c2.73,12,12.74,22.03,24.73,24.79"/>
      <path d="m214.77,186.42c3.04,13.03,13.81,23.81,26.83,26.89,1.58.37,3.25-.49,3.69-2.1s-.51-3.32-2.1-3.69c-11.09-2.62-20.04-11.6-22.63-22.69-.37-1.58-2.17-2.51-3.69-2.1-1.62.44-2.47,2.11-2.1,3.69h0Z"/>
    </g>
  </g>
  <g id="Layer_2" data-name="Layer 2">
    <g>
      <path d="m136.25,272.77c-2.62-2.62-1.56-11.09,6.06-18.81,7.29-7.61,21.14-14.48,36.63-11.37,15.58,2.45,26.83,13.8,31.64,23.58,5.09,9.99,3.75,18.41.52,19.99-7.2,2.71-20.41-10.74-36.59-12.51-15.87-3.96-32.17,4.22-38.25-.86Z"/>
      <path class="cls-3" d="m136.25,272.77c-2.62-2.62-1.56-11.09,6.06-18.81,7.29-7.61,21.14-14.48,36.63-11.37,15.58,2.45,26.83,13.8,31.64,23.58,5.09,9.99,3.75,18.41.52,19.99-7.2,2.71-20.41-10.74-36.59-12.51-15.87-3.96-32.17,4.22-38.25-.86Z"/>
    </g>
    <g>
      <g>
        <path class="cls-1" d="m168.74,267.78c-.39-.62-.1-2.78,1.23-4.87,1.28-2.05,3.61-4.03,6.07-3.5,2.49.36,4.15,3.05,4.8,5.44.69,2.45.36,4.6-.18,5.06-1.2.81-11-.94-11.92-2.13Z"/>
        <path class="cls-1" d="m168.74,267.78c-.39-.62-.1-2.78,1.23-4.87,1.28-2.05,3.61-4.03,6.07-3.5,2.49.36,4.15,3.05,4.8,5.44.69,2.45.36,4.6-.18,5.06-1.2.81-11-.94-11.92-2.13Z"/>
      </g>
      <g>
        <path class="cls-1" d="m208.01,269.25c-.05.58-1.19,1.68-2.91,2.14-1.67.47-3.92.31-5.11-1.39-1.29-1.61-1.05-4.12-.34-5.88.7-1.81,1.87-2.88,2.39-2.84,1.06.21,5.99,6.77,5.98,7.97Z"/>
        <path class="cls-1" d="m208.01,269.25c-.05.58-1.19,1.68-2.91,2.14-1.67.47-3.92.31-5.11-1.39-1.29-1.61-1.05-4.12-.34-5.88.7-1.81,1.87-2.88,2.39-2.84,1.06.21,5.99,6.77,5.98,7.97Z"/>
      </g>
      <g>
        <path class="cls-1" d="m194.87,255.7c.2.7-.62,2.61-2.4,4.11-1.72,1.49-4.39,2.56-6.53,1.27-2.21-1.14-3.06-4.17-3.04-6.6,0-2.49.86-4.38,1.48-4.63,1.32-.36,9.95,4.45,10.49,5.84Z"/>
        <path class="cls-1" d="m194.87,255.7c.2.7-.62,2.61-2.4,4.11-1.72,1.49-4.39,2.56-6.53,1.27-2.21-1.14-3.06-4.17-3.04-6.6,0-2.49.86-4.38,1.48-4.63,1.32-.36,9.95,4.45,10.49,5.84Z"/>
      </g>
      <g>
        <path class="cls-1" d="m151.94,268.77c-.56-.6-.66-3.11.43-5.78,1.04-2.62,3.27-5.42,6.15-5.43,2.87-.21,5.27,2.41,6.46,4.94,1.25,2.58,1.3,5.09.78,5.73-1.19,1.2-12.56,1.64-13.83.53Z"/>
        <path class="cls-1" d="m151.94,268.77c-.56-.6-.66-3.11.43-5.78,1.04-2.62,3.27-5.42,6.15-5.43,2.87-.21,5.27,2.41,6.46,4.94,1.25,2.58,1.3,5.09.78,5.73-1.19,1.2-12.56,1.64-13.83.53Z"/>
      </g>
    </g>
    <path d="m181.03,151.39c6.45-2.13,12.18-6.02,16.3-11.44,4.44-5.83,6.39-13.2,5.99-20.47-.16-2.86-4.63-2.88-4.47,0,.36,6.41-1.25,12.77-5.16,17.93-3.46,4.56-8.45,7.88-13.85,9.67-2.72.9-1.55,5.22,1.19,4.31h0Z"/>
    <path d="m73.25,202.69c5.16.88,9.81-2.4,12.87-6.28,3.36-4.25,5.55-9.39,6.68-14.67.24-1.11-.33-2.28-1.47-2.59-1.05-.29-2.35.35-2.59,1.47-.95,4.45-2.67,8.76-5.34,12.46-1.91,2.64-5.48,6.16-9.03,5.55-1.12-.19-2.27.3-2.59,1.47-.28,1.01.34,2.4,1.47,2.59h0Z"/>
    <g>
      <path class="cls-2" d="m189.91,275.76c2.21.54,3.26,3.56,2.9,6.05s-1.69,4.66-2.68,6.93c-.45,1.03-.84,2.17-.63,3.28s1.24,2.11,2.21,1.75c.86-.31,1.22-1.42,1.66-2.31s1.42-1.74,2.18-1.17c.54.41.57,1.29.45,2.01-.31,1.87-1.18,3.56-1.68,5.37s-.52,4.01.64,5.39c1.23,1.46,3.43,1.44,4.94.36s2.41-2.96,2.93-4.88.71-3.92,1.16-5.86c1.75.11,2.82-2.05,3.41-3.9.79-2.49,1.46-5.31.46-7.7-.68-1.61-2-2.73-3.28-3.79-3.71-3.06-7.52-6.19-11.96-7.55-1.5-.46-3.11-.71-4.61-.25-1.5.45-2.88,1.73-3.21,3.44s.69,3.7,2.24,3.92"/>
      <path d="m189.3,277.95c1.33.4,1.43,2.75,1.2,3.91-.54,2.74-2.36,5-3.06,7.68s.18,5.83,3.08,6.49c1.31.3,2.62-.22,3.51-1.18.44-.48.74-1.04,1.01-1.61.09-.2.21-.41.29-.61.26-.72.26-.16-.08-.19l-1.15-.31c-.76-.39-.08-.74-.34-.12-.1.24-.13.52-.2.77-.21.77-.49,1.51-.76,2.26-.54,1.49-.99,2.97-1.08,4.56-.16,3,1.38,6.05,4.48,6.75s5.84-1.16,7.37-3.71c1.7-2.83,1.88-6.18,2.58-9.33l-2.19,1.67c4.1-.05,5.61-4.83,6.29-8.14.45-2.21.54-4.49-.35-6.6-.76-1.8-2.12-3.16-3.6-4.39-3.12-2.6-6.32-5.29-10.01-7.03s-8.37-2.95-11.71.11c-3.05,2.79-2.88,9.14,1.82,10.14,2.85.61,4.07-3.77,1.21-4.38-.72-.15-.74-1.17-.45-1.77.6-1.25,2.09-1.49,3.33-1.32,3.3.46,6.37,2.6,8.97,4.54,1.39,1.04,2.75,2.15,4.07,3.28,1.13.96,2.22,1.99,2.47,3.52.27,1.61-.23,3.32-.7,4.85-.17.56-.77,2.65-1.35,2.65-.96.01-1.97.69-2.19,1.67-.48,2.14-.67,4.34-1.33,6.43-.39,1.25-1.21,3.24-2.74,3.41-3.3.37-.08-6.82.22-7.96.52-1.92.69-4.41-1.25-5.63-2.07-1.3-4.39.22-5.35,2.13-.17.34-.39.71-.52,1.07l-.08.14c-.12.16-.12.19,0,.07-.08-.12,1.14-.12,1.04-.01.16-.16-.07.21,0,0-.01.04-.03-1-.05-.57.03-.48.26-1.02.44-1.45.77-1.89,1.83-3.65,2.44-5.61,1.21-3.86.33-9.24-4.09-10.56-2.81-.84-4,3.54-1.21,4.38h0Z"/>
    </g>
  </g>
</svg>