<?xml version="1.0" encoding="UTF-8"?>
<svg xmlns="http://www.w3.org/2000/svg" viewBox="0 0 360 360">
  <defs>
    <style>
      .cls-1 {
        fill: none;
        stroke-width: .76px;
      }

      .cls-1, .cls-2 {
        stroke: #000;
        stroke-miterlimit: 10;
      }

      .cls-3, .cls-2 {
        fill: #fff;
      }

      .cls-4 {
        fill: #98ef00;
      }

      .cls-2 {
        stroke-linecap: round;
        stroke-width: 11px;
      }
    </style>
  </defs>
  <g id="Layer_1" data-name="Layer 1">
    <g>
      <path class="cls-3" d="m247.25,313.41c-.85,0-1.71-.03-2.55-.08-12.35-.82-23.44-7.36-31.21-18.22-6.27.77-12.68,1.17-19.12,1.17-17.4,0-34.9-2.78-52.08-8.26-9.61,5.68-21.09,8.66-33.51,8.66-11.1,0-22.57-2.5-33.17-7.22-16.73-7.46-30.18-19.79-37.87-34.71-8.06-15.63-8.93-32.23-2.46-46.74,1.15-2.58,2.52-5.05,4.1-7.4-13.91-30.6-14.79-62.48-2.36-90.37,17.96-40.29,61.42-65.32,113.41-65.32,17.42,0,34.94,2.78,52.14,8.28,8.56-4.72,18.58-7.2,29.29-7.2,17.19,0,34.78,6.33,49.53,17.82,27.86,21.7,38.67,56.32,26.47,82.54,11.46,28.81,11.46,58.68-.09,84.6-3.67,8.23-8.42,15.9-14.17,22.88.17,2.75.16,5.52-.02,8.28-1.9,28.76-22.25,51.3-46.33,51.3,0,0,0,0,0,0Z"/>
      <path d="m150.42,54.42c17.33,0,35.43,2.98,53.32,9.19,7.95-5.4,17.72-8.1,28.1-8.1,14.47,0,30.14,5.26,43.7,15.82,25.85,20.13,34.88,52.39,21.83,74.59,11.7,26.66,13.18,55.46,1.71,81.17-3.91,8.77-9.1,16.66-15.33,23.62.45,3.48.58,7.09.33,10.78-1.58,23.9-17.88,42.42-36.86,42.42-.64,0-1.28-.02-1.93-.06-11.46-.76-21.2-8.15-27.07-19.03-7.73,1.3-15.72,1.96-23.89,1.96-17.36,0-35.49-2.99-53.42-9.22-8.71,6.26-20.02,9.62-32.18,9.62-9.52,0-19.57-2.06-29.3-6.4-30.52-13.61-46.43-44.46-35.53-68.91,1.67-3.75,3.88-7.12,6.52-10.11-14.44-28.42-17.18-59.84-4.78-87.65,17.02-38.17,58.13-59.69,104.74-59.68m0-19h0c-55.8,0-102.58,27.18-122.09,70.95-7.32,16.43-10.45,34.1-9.29,52.53.87,13.79,4.11,27.53,9.65,40.97-.76,1.39-1.47,2.81-2.11,4.26-7.56,16.95-6.58,36.98,2.69,54.97,8.68,16.84,23.76,30.7,42.45,39.04,11.81,5.26,24.62,8.05,37.04,8.05s24.32-2.71,34.56-7.9c16.85,4.98,33.98,7.5,51.03,7.5,5.03,0,10.04-.22,14.99-.67,9.18,10.42,21.5,16.83,34.72,17.7,1.05.07,2.12.1,3.18.1,14.77,0,28.72-6.66,39.27-18.76,9.63-11.05,15.51-25.75,16.54-41.41.13-1.91.18-3.82.16-5.73,5.28-6.86,9.71-14.29,13.23-22.18,12.12-27.17,12.64-58.22,1.65-88.29,11.37-29.62-.82-66.8-30.87-90.21-16.42-12.79-36.08-19.83-55.37-19.83-10.82,0-21.08,2.22-30.17,6.49-16.92-5.02-34.13-7.57-51.26-7.57h0Z"/>
    </g>
    <g>
      <path class="cls-3" d="m50.07,227.52c-4.98-3.25-11.67-3.14-16.59.74-6.17,4.86-7.23,13.81-2.36,19.98,4.86,6.17,13.81,7.23,19.98,2.36,1.32-1.04,2.41-2.28,3.25-3.63"/>
      <path d="m37.86,220.2c5.12-1.18,10.62-.29,15.22,2.71,2.55,1.66,3.27,5.08,1.6,7.63-1.66,2.55-5.08,3.27-7.63,1.6-3.14-2.05-7.23-1.87-10.17.46-3.78,2.98-4.42,8.47-1.45,12.24,1.44,1.83,3.51,2.98,5.82,3.26,2.32.27,4.59-.37,6.42-1.81.79-.63,1.46-1.37,1.99-2.22,1.61-2.58,5.01-3.37,7.59-1.76,2.58,1.61,3.37,5.01,1.76,7.59-1.2,1.92-2.72,3.62-4.52,5.04-4.14,3.26-9.3,4.72-14.54,4.1-5.24-.62-9.92-3.24-13.18-7.38-6.74-8.55-5.27-20.98,3.28-27.72,2.35-1.85,5.02-3.1,7.8-3.74Z"/>
    </g>
    <g>
      <path class="cls-3" d="m82.83,177.51c-2.1-2.38-5.56-3.27-8.65-1.96-3.86,1.63-5.67,6.09-4.04,9.95,1.63,3.86,6.09,5.68,9.95,4.04.83-.35,1.56-.83,2.19-1.41"/>
      <path d="m77.58,172.01c2.8.12,5.51,1.35,7.45,3.55,1.08,1.22.96,3.08-.25,4.15-1.22,1.08-3.08.96-4.16-.25-1.33-1.5-3.46-1.98-5.3-1.2-2.36,1-3.48,3.73-2.48,6.1.48,1.14,1.38,2.03,2.54,2.5,1.15.47,2.42.46,3.56-.02.5-.21.95-.5,1.34-.86,1.19-1.1,3.06-1.03,4.16.17,1.1,1.19,1.03,3.06-.17,4.16-.89.82-1.91,1.48-3.04,1.95-2.59,1.1-5.46,1.12-8.07.06-2.61-1.06-4.65-3.07-5.74-5.66-2.26-5.35.26-11.55,5.61-13.81,1.47-.62,3.02-.89,4.55-.82Z"/>
    </g>
    <g>
      <path class="cls-3" d="m244.32,56.32c.42-5.93,4.54-11.2,10.61-12.78,7.6-1.98,15.38,2.58,17.36,10.18,1.98,7.6-2.58,15.38-10.18,17.36-1.63.42-3.27.55-4.85.41"/>
      <path d="m245.84,42.17c2.19-1.83,4.8-3.21,7.69-3.96,10.53-2.75,21.34,3.59,24.08,14.12,1.33,5.1.59,10.42-2.07,14.97-2.67,4.55-6.95,7.79-12.05,9.12-2.21.57-4.48.76-6.74.56-3.03-.27-5.27-2.95-5-5.98.27-3.03,2.95-5.27,5.98-5,.99.09,1.99,0,2.97-.25,2.25-.59,4.14-2.01,5.32-4.02,1.18-2.01,1.5-4.36.92-6.61-1.21-4.65-5.98-7.45-10.63-6.23-3.63.94-6.24,4.09-6.5,7.83-.21,3.04-2.85,5.33-5.88,5.11-3.04-.21-5.33-2.85-5.11-5.88.39-5.48,3-10.4,7.03-13.77Z"/>
    </g>
    <path class="cls-2" d="m300.18,176.14c6.92-4.81,16.41-4.93,23.56.37,8.95,6.64,10.82,19.29,4.18,28.23-6.64,8.95-19.29,10.82-28.23,4.17-1.92-1.42-3.51-3.13-4.76-5.01"/>
    <g>
      <g>
        <path class="cls-3" d="m215.06,252.6c-9.75,0-18.91-4.27-25.15-11.72-5.61-6.7-8.27-15.2-7.5-23.92.78-8.73,4.89-16.62,11.59-22.23,5.88-4.92,13.33-7.62,21-7.62,9.75,0,18.91,4.27,25.15,11.72,11.59,13.85,9.75,34.56-4.1,46.15-5.88,4.92-13.33,7.62-21,7.62Z"/>
        <path d="m215.01,190.86c8.3,0,16.54,3.53,22.27,10.38,10.26,12.27,8.64,30.6-3.63,40.86-5.42,4.54-12.02,6.75-18.59,6.75-8.3,0-16.54-3.53-22.27-10.38-10.26-12.27-8.64-30.6,3.63-40.86,5.42-4.53,12.02-6.75,18.59-6.75m0-7.5v7.5-7.5h0c-8.55,0-16.86,3.02-23.41,8.5-15.44,12.92-17.49,36-4.57,51.44,6.95,8.3,17.16,13.07,28.03,13.07,8.55,0,16.86-3.02,23.41-8.5,15.44-12.92,17.49-35.99,4.57-51.43-6.95-8.31-17.16-13.07-28.02-13.07h0Z"/>
      </g>
      <circle cx="215.03" cy="219.85" r="13.98" transform="translate(-88.81 172.37) rotate(-36.75)"/>
      <g>
        <circle class="cls-3" cx="218.53" cy="211.01" r="7.32"/>
        <circle class="cls-3" cx="209.46" cy="215.64" r="4.07"/>
      </g>
    </g>
    <g>
      <g>
        <path class="cls-3" d="m115.23,280.69c-8.5,0-16.48-3.72-21.92-10.22-4.89-5.84-7.21-13.25-6.53-20.85.68-7.6,4.26-14.48,10.11-19.37,5.12-4.29,11.62-6.64,18.3-6.64,8.5,0,16.48,3.72,21.92,10.22,10.1,12.07,8.5,30.12-3.57,40.22-5.12,4.29-11.62,6.64-18.3,6.64Z"/>
        <path d="m115.19,227.35c7.1,0,14.14,3.02,19.04,8.87,8.78,10.49,7.38,26.16-3.1,34.94-4.63,3.88-10.28,5.77-15.9,5.77-7.09,0-14.14-3.02-19.04-8.87-8.78-10.49-7.38-26.16,3.1-34.94,4.63-3.88,10.28-5.77,15.9-5.77m0-7.5v7.5-7.5h0c-7.56,0-14.92,2.67-20.71,7.52-13.66,11.43-15.47,31.85-4.04,45.51,6.15,7.35,15.19,11.56,24.8,11.56,7.56,0,14.92-2.67,20.71-7.52,13.66-11.43,15.47-31.85,4.04-45.51-6.15-7.35-15.19-11.56-24.79-11.56h0Z"/>
      </g>
      <circle cx="115.21" cy="252.15" r="11.95" transform="translate(-127.98 119.06) rotate(-36.75)"/>
      <g>
        <circle class="cls-3" cx="118.2" cy="244.58" r="6.25"/>
        <circle class="cls-3" cx="110.45" cy="248.54" r="3.48"/>
      </g>
    </g>
    <g>
      <g>
        <path class="cls-3" d="m264.29,146.99c-5.83,0-11.31-2.56-15.04-7.01-6.93-8.29-5.83-20.67,2.45-27.6,3.51-2.94,7.98-4.56,12.56-4.56,5.83,0,11.31,2.56,15.04,7.01,3.35,4.01,4.95,9.09,4.48,14.31-.46,5.22-2.93,9.94-6.94,13.29-3.51,2.94-7.98,4.56-12.56,4.56Z"/>
        <path d="m264.26,111.57c4.53,0,9.03,1.93,12.16,5.67,5.61,6.7,4.72,16.71-1.98,22.32-2.96,2.48-6.57,3.69-10.16,3.69-4.53,0-9.03-1.93-12.16-5.67-5.61-6.7-4.72-16.71,1.98-22.32,2.96-2.48,6.57-3.69,10.15-3.69m0-7.5h0c-5.47,0-10.78,1.93-14.97,5.44-4.78,4-7.71,9.62-8.26,15.84-.55,6.22,1.35,12.27,5.34,17.05,4.44,5.31,10.98,8.36,17.92,8.36,5.47,0,10.78-1.93,14.97-5.44,9.87-8.26,11.18-23.02,2.92-32.89-4.44-5.31-10.98-8.36-17.92-8.36h0Z"/>
      </g>
      <circle cx="264.27" cy="127.41" r="7.64"/>
      <g>
        <circle class="cls-3" cx="266.18" cy="122.57" r="4"/>
        <circle class="cls-3" cx="261.23" cy="125.1" r="2.22"/>
      </g>
    </g>
    <g>
      <g>
        <path class="cls-3" d="m209.42,98.27c-4.91,0-9.54-2.16-12.68-5.91-5.85-6.99-4.92-17.43,2.07-23.28,2.96-2.48,6.72-3.85,10.59-3.85,4.92,0,9.54,2.16,12.68,5.91,5.85,6.99,4.92,17.43-2.07,23.28-2.96,2.48-6.73,3.85-10.59,3.85Z"/>
        <path d="m209.4,68.98c3.65,0,7.28,1.56,9.81,4.57,4.52,5.4,3.8,13.47-1.6,17.99-2.39,2-5.29,2.97-8.19,2.97-3.65,0-7.28-1.56-9.8-4.57-4.52-5.4-3.8-13.47,1.6-17.99,2.39-2,5.29-2.97,8.19-2.97m0-7.5h0c-4.75,0-9.36,1.68-13,4.72-4.15,3.47-6.7,8.36-7.18,13.76-.48,5.4,1.17,10.66,4.64,14.81,3.86,4.61,9.53,7.26,15.56,7.26,4.75,0,9.36-1.68,13-4.72,4.15-3.47,6.7-8.36,7.18-13.76.48-5.4-1.17-10.66-4.64-14.81-3.86-4.61-9.53-7.26-15.56-7.26h0Z"/>
      </g>
      <circle cx="209.41" cy="81.75" r="6.16"/>
      <g>
        <circle class="cls-3" cx="210.95" cy="77.85" r="3.22"/>
        <circle class="cls-3" cx="206.96" cy="79.89" r="1.79"/>
      </g>
    </g>
    <g>
      <path d="m164.99,184.5c-.66,0-1.32-.08-1.84-.23-4.66-1.28-7.88-4.71-8.62-9.16-.95-5.69,4.05-11.22,8.98-12.18.27-.05.57-.08.88-.08.93,0,2.06.25,3.01.67,1.45.64,1.57,1.21,1.52,1.58-.03.26-.2.72-.98.87-3.08.6-6.19,3.86-6.92,7.26-.66,3.06,1.25,7.93,4.1,8.71,1.1.3,2.16.67,2.04,1.56-.12.88-1.3.99-2.17.99h0Z"/>
      <path d="m164.38,163.6c.93,0,1.95.27,2.71.61.26.12,1.79.83.7,1.04-3.4.66-6.72,4.18-7.5,7.84-.74,3.44,1.34,8.68,4.63,9.58,2.46.68,1.46,1.09.06,1.09-.55,0-1.16-.06-1.65-.2-3.92-1.08-7.32-3.98-8.09-8.57-.88-5.29,3.85-10.45,8.39-11.33.23-.05.48-.07.74-.07m0-1.48c-.36,0-.7.03-1.02.09-5.26,1.02-10.59,6.94-9.57,13.03.79,4.74,4.21,8.39,9.16,9.75.79.22,1.62.25,2.04.25,1.78,0,2.76-.55,2.91-1.63.22-1.61-1.67-2.13-2.57-2.38-2.46-.68-4.15-5.13-3.57-7.84.66-3.09,3.56-6.15,6.33-6.69,1.33-.26,1.54-1.23,1.57-1.52.16-1.41-1.44-2.11-1.96-2.34-1.06-.46-2.26-.73-3.31-.73h0Z"/>
    </g>
    <g>
      <path class="cls-3" d="m103.03,87.04c-24.69-12.55-56.89,20.06-35.11,42.57"/>
      <path d="m104.41,84.68c-10.18-5.1-22.17-3.61-31.49,2.68-8.69,5.87-15.44,15.83-14.93,26.65.32,6.71,3.39,12.74,7.99,17.54,2.44,2.55,6.31-1.33,3.87-3.87-1.83-1.91-3.28-3.86-4.48-6.32-.5-1.01-.74-1.63-1.12-2.9-.17-.57-.32-1.14-.44-1.72-.06-.26-.11-.53-.15-.8-.02-.13-.04-.27-.06-.4-.07-.45.04.39,0-.07-.13-1.14-.17-2.29-.12-3.44.02-.53.07-1.05.12-1.57.03-.33,0,.02-.02.08.02-.13.04-.26.06-.39.05-.3.1-.61.16-.91.22-1.12.52-2.23.9-3.31.45-1.29.57-1.56,1.18-2.78.53-1.04,1.12-2.05,1.77-3.02.74-1.11,1.03-1.49,1.79-2.38s1.6-1.78,2.47-2.6c.4-.38.82-.75,1.24-1.11.25-.21.49-.42.75-.62.11-.09.22-.17.33-.26.36-.29-.26.2.11-.08,1.9-1.42,3.94-2.65,6.09-3.64.88-.41,1.75-.74,2.97-1.14,1.15-.37,2.31-.67,3.5-.89.32-.06.64-.11.96-.17.14-.02.27-.04.41-.06-.3.04-.07.01.1,0,.69-.07,1.38-.13,2.08-.15,1.3-.05,2.61,0,3.91.15.32.04.03,0-.03,0,.23.03.47.07.7.11.33.06.65.12.98.19.65.14,1.3.3,1.94.49,1.52.45,2.45.83,3.72,1.47s2.97.35,3.75-.98c.71-1.22.35-3.08-.98-3.75h0Z"/>
    </g>
    <g>
      <g>
        <path class="cls-3" d="m88.32,130.13c-4.92,0-9.54-2.16-12.68-5.91-5.85-6.99-4.92-17.43,2.07-23.28,2.96-2.48,6.73-3.85,10.59-3.85,4.92,0,9.54,2.16,12.68,5.91,2.83,3.38,4.17,7.67,3.78,12.07-.39,4.4-2.47,8.38-5.85,11.21-2.96,2.48-6.73,3.85-10.59,3.85Z"/>
        <path d="m88.3,100.85c3.65,0,7.28,1.56,9.81,4.57,4.52,5.4,3.8,13.47-1.6,17.99-2.39,2-5.29,2.97-8.19,2.97-3.65,0-7.28-1.56-9.8-4.57-4.52-5.4-3.8-13.47,1.6-17.99,2.39-2,5.29-2.97,8.19-2.97m0-7.5h0c-4.75,0-9.36,1.68-13,4.72-4.15,3.47-6.7,8.36-7.18,13.76-.48,5.4,1.17,10.66,4.64,14.81,3.86,4.61,9.53,7.26,15.56,7.26,4.75,0,9.36-1.68,13-4.72,4.15-3.47,6.7-8.36,7.18-13.76.48-5.4-1.17-10.66-4.64-14.81-3.86-4.61-9.53-7.26-15.56-7.26h0Z"/>
      </g>
      <circle cx="88.31" cy="113.61" r="6.16"/>
      <g>
        <circle class="cls-3" cx="89.84" cy="109.72" r="3.22"/>
        <circle class="cls-3" cx="85.85" cy="111.76" r="1.79"/>
      </g>
    </g>
    <path d="m128.54,210.68c-5.4-2.08-10.9-4.12-16.75-4.33-5.38-.19-10.75,1.23-15.6,3.49-8.26,3.85-15.16,10.79-19.2,18.93-2.34,4.71-3.74,9.75-4.12,14.99-.1,1.35,1.22,2.5,2.5,2.5,1.43,0,2.4-1.15,2.5-2.5,1.19-16.35,15.48-31.95,32.31-32.42,5.94-.17,11.58,2.05,17.03,4.16,1.26.49,2.74-.54,3.08-1.75.39-1.41-.48-2.59-1.75-3.08h0Z"/>
    <path d="m156.8,103.97c-15.36,2.3-29.33,11.3-38.04,24.1-1.82,2.67,2.52,5.17,4.32,2.52,8.02-11.79,20.99-19.7,35.05-21.8,1.34-.2,2.07-1.89,1.75-3.08-.39-1.43-1.73-1.95-3.08-1.75h0Z"/>
    <path d="m144.6,281.01c6.23-5.47,10.89-12.52,13.65-20.33.45-1.27-.51-2.74-1.75-3.08-1.38-.38-2.62.47-3.08,1.75-2.46,6.98-6.79,13.22-12.37,18.12-1.02.89-.91,2.62,0,3.54,1.01,1.01,2.52.89,3.54,0h0Z"/>
    <path d="m214.82,290.54c4.88-.99,9.59-2.62,14.08-4.77,1.18-.57,1.59-2.35.9-3.42-.78-1.22-2.16-1.5-3.42-.9-.53.25-1.06.5-1.59.73-.08.03-.93.4-.55.24-.23.1-.46.19-.69.28-1.08.44-2.18.84-3.29,1.21-2.22.74-4.47,1.33-6.76,1.8-1.28.26-2.14,1.85-1.75,3.08.44,1.36,1.7,2.02,3.08,1.75h0Z"/>
    <path d="m287.99,246.56c-1.38,1.45-2.76,2.91-4.27,4.23-.35.31-.72.61-1.09.91-.42.34.33-.24.07-.05-.11.08-.21.16-.31.23-.19.14-.38.27-.57.41-.84.58-1.72,1.09-2.65,1.52-1.19.56-1.58,2.36-.9,3.42.79,1.22,2.15,1.49,3.42.9,3.87-1.81,6.92-4.96,9.82-8.03.9-.95,1.01-2.61,0-3.54s-2.58-1.01-3.54,0h0Z"/>
  </g>
  <g id="Layer_2" data-name="Layer 2">
    <g>
      <path d="m125.87,185.7c-4.07.52-9.91-6.2-10.15-18.17-.4-11.61,4.79-28.48,19.07-39.98,13.84-12.03,31.36-14.17,42.72-11.73,11.74,2.35,17.33,9.28,16.1,13.19-3.37,8.19-24.05,10.62-37.81,23.64-15.24,11.26-21.28,31.18-29.93,33.05Z"/>
      <path class="cls-1" d="m125.87,185.7c-4.07.52-9.91-6.2-10.15-18.17-.4-11.61,4.79-28.48,19.07-39.98,13.84-12.03,31.36-14.17,42.72-11.73,11.74,2.35,17.33,9.28,16.1,13.19-3.37,8.19-24.05,10.62-37.81,23.64-15.24,11.26-21.28,31.18-29.93,33.05Z"/>
    </g>
    <g>
      <path class="cls-3" d="m146.79,153.72c-.78-.08-2.27-1.81-2.88-4.41-.63-2.53-.4-5.93,1.9-7.73,2.18-1.94,5.57-1.57,7.95-.5,2.45,1.07,3.89,2.83,3.83,3.62-.28,1.61-9.16,9.03-10.79,9.03Z"/>
      <path class="cls-3" d="m146.79,153.72c-.78-.08-2.27-1.81-2.88-4.41-.63-2.53-.4-5.93,1.9-7.73,2.18-1.94,5.57-1.57,7.95-.5,2.45,1.07,3.89,2.83,3.83,3.62-.28,1.61-9.16,9.03-10.79,9.03Z"/>
    </g>
    <g>
      <path class="cls-3" d="m177.98,120.19c.42.44.41,2.2-.54,4.02-.91,1.79-2.76,3.65-5,3.55-2.25.03-4.04-1.89-4.88-3.71-.89-1.86-.84-3.61-.41-4.04.98-.79,9.89-.64,10.84.18Z"/>
      <path class="cls-3" d="m177.98,120.19c.42.44.41,2.2-.54,4.02-.91,1.79-2.76,3.65-5,3.55-2.25.03-4.04-1.89-4.88-3.71-.89-1.86-.84-3.61-.41-4.04.98-.79,9.89-.64,10.84.18Z"/>
    </g>
    <g>
      <path class="cls-3" d="m157.29,122.49c.7.3,1.58,2.33,1.39,4.92-.15,2.53-1.35,5.61-4,6.62-2.58,1.17-5.61-.16-7.51-1.84-1.96-1.7-2.78-3.75-2.5-4.46.73-1.41,11.1-5.72,12.61-5.24Z"/>
      <path class="cls-3" d="m157.29,122.49c.7.3,1.58,2.33,1.39,4.92-.15,2.53-1.35,5.61-4,6.62-2.58,1.17-5.61-.16-7.51-1.84-1.96-1.7-2.78-3.75-2.5-4.46.73-1.41,11.1-5.72,12.61-5.24Z"/>
    </g>
    <g>
      <path class="cls-3" d="m134.73,169.17c-.9.08-2.95-1.54-4.21-4.33-1.27-2.71-1.75-6.58.44-9.11,2.03-2.66,5.92-2.99,8.83-2.31,2.99.66,5,2.33,5.1,3.23.03,1.87-8.32,12.17-10.16,12.52Z"/>
      <path class="cls-3" d="m134.73,169.17c-.9.08-2.95-1.54-4.21-4.33-1.27-2.71-1.75-6.58.44-9.11,2.03-2.66,5.92-2.99,8.83-2.31,2.99.66,5,2.33,5.1,3.23.03,1.87-8.32,12.17-10.16,12.52Z"/>
    </g>
    <path d="m262.51,198.06c-2.48-7.37-7.5-13.56-13.94-17.87-7.11-4.76-15.73-6.9-24.21-7.09-3.22-.07-3.22,4.93,0,5,7.52.17,15.03,2.04,21.36,6.19,5.46,3.57,9.87,8.88,11.96,15.09,1.02,3.03,5.85,1.73,4.82-1.33h0Z"/>
    <path d="m270.59,94.49c-4.43-3.85-10.51-4.87-16.09-3.26s-10.61,5.7-14.09,10.52c-.79,1.1-.19,2.79.9,3.42,1.26.74,2.63.2,3.42-.9,4.65-6.45,15.09-12.54,22.32-6.25,1.02.89,2.53,1,3.54,0,.9-.9,1.02-2.65,0-3.54h0Z"/>
    <path d="m237.79,73.07c-.85-4.78-4.27-9.18-8.71-11.16-.63-.28-1.23-.44-1.93-.25-.58.16-1.21.61-1.49,1.15-.58,1.09-.38,2.85.9,3.42.48.22.95.46,1.4.73.2.12.41.25.6.39.12.08.23.17.35.25.35.25-.34-.28-.11-.09.81.67,1.47,1.41,2.17,2.18-.13-.14-.32-.42-.09-.11.07.1.14.19.21.29.15.22.29.44.43.66.26.43.5.87.71,1.33.09.2.14.56-.02-.07.03.11.09.22.13.33.09.25.18.49.26.75.16.5.27,1.02.37,1.53.23,1.29,1.87,2.14,3.08,1.75,1.39-.45,1.99-1.69,1.75-3.08h0Z"/>
    <g>
      <path class="cls-4" d="m166.53,143.22c2.02-1.68,5.26-.72,7.05,1.2s2.62,4.53,3.77,6.89c.52,1.07,1.18,2.15,2.25,2.68s2.62.21,3.02-.91c.36-.99-.29-2.03-.71-3s-.41-2.42.6-2.75c.72-.24,1.46.3,1.97.87,1.31,1.48,2.07,3.36,3.21,4.98s2.92,3.05,4.89,2.86c2.07-.2,3.64-2.23,3.83-4.31s-.71-4.11-1.91-5.81-2.72-3.16-3.98-4.82c1.34-1.53.33-3.91-.77-5.63-1.48-2.32-3.31-4.74-5.99-5.35-1.8-.41-3.68.1-5.46.6-5.17,1.45-10.47,2.96-14.76,6.18-1.45,1.09-2.81,2.4-3.51,4.08s-.64,3.76.53,5.15,3.54,1.73,4.82.44"/>
      <path d="m167.79,145.38c1.63-1.24,3.61.07,4.65,1.6,1.56,2.32,2.16,5.17,3.87,7.39s5.23,3.33,7.59,1.17c1.17-1.07,1.55-2.73,1.18-4.25-.16-.68-.44-1.55-.85-2.13-.09-.13-.07-.25-.07-.25.23.03-2.16,1.02-.62.78h-1.33c.46.07.2-.13.5.29.22.3.42.53.62.85.42.65.8,1.34,1.19,2.01.8,1.38,1.7,2.76,2.93,3.79,2.67,2.24,6.32,2.67,9.03.24,2.52-2.26,2.96-5.96,1.83-9.02-1.24-3.35-3.88-5.73-6.03-8.49l.39,3.03c2.77-3.63-.72-8.66-3.18-11.42-1.33-1.5-3.09-2.77-5.07-3.22-2.5-.58-4.99.09-7.4.77-4.27,1.2-8.6,2.5-12.46,4.75-3.64,2.12-7.41,5.32-7.49,9.88-.04,2.37,1.09,4.8,3.21,5.97,2.26,1.25,4.94.96,6.85-.75,2.41-2.14-1.14-5.67-3.54-3.54-.43.38-1.25-.22-1.45-.92-.39-1.37.47-2.73,1.38-3.68,2.57-2.66,6.28-4.2,9.72-5.36,1.88-.63,3.79-1.18,5.71-1.71,1.7-.47,3.58-1.1,5.23-.18,1.37.77,2.35,2.17,3.19,3.46.61.94,1.74,2.42.97,3.42-.72.95-.24,2.22.39,3.03,1.36,1.74,3.02,3.28,4.16,5.19.81,1.35,1.58,3.28.55,4.71-2.26,3.14-5.33-3.88-6.28-5.17-1.49-2.03-3.96-3.85-6.42-2.11-1.91,1.34-1.83,3.93-.99,5.86.11.24.25.93.44,1.09l.05.19c-.06-.3.02-.52.23-.69.03-.09.23-.16.24-.19.02-.05.02.18-.18-.08-.22-.29-.43-.49-.62-.82-1.07-1.82-1.69-3.86-2.75-5.69-2.25-3.88-7.68-7.31-11.92-4.1-1.07.81-1.64,2.16-.9,3.42.62,1.06,2.34,1.72,3.42.9h0Z"/>
    </g>
  </g>
</svg>