<?xml version="1.0" encoding="utf-8"?>
<!-- Generator: Adobe Illustrator 27.6.1, SVG Export Plug-In . SVG Version: 6.00 Build 0)  -->
<svg version="1.1" id="Layer_1" xmlns="http://www.w3.org/2000/svg" xmlns:xlink="http://www.w3.org/1999/xlink" x="0px" y="0px"
	 viewBox="0 0 361 361" style="enable-background:new 0 0 361 361;" xml:space="preserve">
<style type="text/css">
	.st0{fill:#FFFFFF;}
	.st1{stroke:#000000;stroke-width:5.7663;stroke-miterlimit:10;}
	.st2{fill:#6D6E71;}
</style>
<g>
	<path class="st0" d="M178.4,335.5c-39.2,0-76.2-12.3-104-34.6c-28.5-22.8-44.2-53.4-44.2-86s15.7-63.2,44.2-86
		c27.9-22.3,64.8-34.6,104-34.6c39.2,0,76.2,12.3,104,34.6c28.5,22.8,44.2,53.4,44.2,86s-15.7,63.2-44.2,86
		C254.6,323.2,217.6,335.5,178.4,335.5z"/>
	<path d="M178.4,103.7c76.6,0,138.7,49.8,138.7,111.1S255.1,326,178.4,326S39.7,276.2,39.7,214.8S101.8,103.7,178.4,103.7
		 M178.4,84.7c-41.4,0-80.4,13-110,36.7c-14.8,11.8-26.4,25.7-34.7,41.3c-8.7,16.5-13.1,34-13.1,52.1s4.4,35.7,13.1,52.1
		c8.2,15.5,19.9,29.4,34.7,41.3c29.6,23.7,68.6,36.7,110,36.7s80.4-13,110-36.7c14.8-11.8,26.4-25.7,34.7-41.3
		c8.7-16.5,13.1-34,13.1-52.1s-4.4-35.7-13.1-52.1c-8.2-15.5-19.9-29.4-34.7-41.3C258.9,97.8,219.8,84.7,178.4,84.7L178.4,84.7z"/>
</g>
<g>
	<g>
		<path class="st0" d="M192.8,304.9c-4.5,2.6-9.7,4-15.3,4c-5.5,0-10.7-1.4-15.2-4"/>
		<path d="M177.5,313.3c-6.1,0-12.1-1.6-17.3-4.5c-2.1-1.2-2.8-3.9-1.7-6c1.2-2.1,3.9-2.9,6-1.7c3.9,2.2,8.4,3.4,13,3.4
			c4.6,0,9.1-1.2,13.1-3.5c2.1-1.2,4.8-0.5,6,1.6c1.2,2.1,0.5,4.8-1.6,6C189.7,311.7,183.6,313.3,177.5,313.3z"/>
	</g>
	<g>
		<g>
			<path class="st0" d="M201.6,311.7c-2.5-2-4.7-4.4-6.5-7.2c-1.7-2.6-3-5.4-3.8-8.3"/>
			<path d="M201.6,316.1c-1,0-1.9-0.3-2.7-1c-2.9-2.3-5.4-5.1-7.4-8.3c-1.9-2.9-3.4-6.1-4.3-9.5c-0.7-2.3,0.7-4.8,3-5.4
				c2.3-0.7,4.8,0.7,5.4,3c0.7,2.5,1.8,4.9,3.3,7.1c1.5,2.4,3.4,4.5,5.6,6.2c1.9,1.5,2.2,4.3,0.7,6.2
				C204.1,315.5,202.8,316.1,201.6,316.1z"/>
		</g>
		<g>
			<path class="st0" d="M153.6,311.7c2.5-2,4.7-4.4,6.5-7.2c1.7-2.6,3-5.4,3.8-8.3"/>
			<path d="M153.6,316.1c-1.3,0-2.5-0.6-3.4-1.6c-1.5-1.9-1.2-4.6,0.7-6.2c2.2-1.8,4.1-3.8,5.6-6.2c1.4-2.2,2.5-4.6,3.3-7.1
				c0.7-2.3,3.1-3.7,5.4-3c2.3,0.7,3.7,3.1,3,5.4c-1,3.3-2.4,6.5-4.3,9.5c-2,3.1-4.5,5.9-7.4,8.3
				C155.5,315.7,154.5,316.1,153.6,316.1z"/>
		</g>
	</g>
</g>
<g>
	<path class="st0" d="M310.3,257c4.1,4.3,10.7,5.7,16.3,3c7.1-3.4,10.1-11.8,6.8-18.9c-3.4-7.1-11.8-10.1-18.9-6.8
		c-1.5,0.7-2.9,1.7-4,2.8"/>
	<path d="M320.6,266.9c-5.2,0-10.4-2.1-14.2-6.1c-2.1-2.2-2-5.7,0.1-7.8c2.2-2.1,5.7-2,7.8,0.1c2.6,2.7,6.6,3.4,10,1.8
		c4.3-2.1,6.2-7.3,4.2-11.6c-1-2.1-2.8-3.7-4.9-4.5c-2.2-0.8-4.6-0.7-6.7,0.3c-0.9,0.4-1.7,1-2.4,1.7c-2.1,2.2-5.6,2.2-7.8,0
		c-2.2-2.1-2.2-5.6,0-7.8c1.6-1.6,3.5-2.9,5.5-3.9c4.8-2.3,10.1-2.5,15.1-0.7c5,1.8,8.9,5.4,11.2,10.1c4.7,9.8,0.4,21.6-9.4,26.3
		C326.3,266.3,323.4,266.9,320.6,266.9z"/>
</g>
<g>
	<path class="st0" d="M46.3,257c-4.1,4.3-10.7,5.7-16.3,3c-7.1-3.4-10.1-11.8-6.8-18.9c3.4-7.1,11.8-10.1,18.9-6.8
		c1.5,0.7,2.9,1.7,4,2.8"/>
	<path d="M36.1,266.9c-2.9,0-5.7-0.6-8.4-1.9c-9.8-4.7-14.1-16.4-9.4-26.3c2.3-4.8,6.2-8.4,11.2-10.1c5-1.8,10.3-1.5,15.1,0.7
		c2.1,1,3.9,2.3,5.5,3.9c2.2,2.2,2.1,5.6,0,7.8c-2.2,2.2-5.6,2.1-7.8,0c-0.7-0.7-1.5-1.3-2.4-1.7c-2.1-1-4.5-1.1-6.7-0.3
		c-2.2,0.8-3.9,2.4-4.9,4.5c-2.1,4.3-0.2,9.6,4.2,11.6c3.4,1.6,7.4,0.9,10-1.8c2.1-2.2,5.6-2.3,7.8-0.1c2.2,2.1,2.3,5.6,0.1,7.8
		C46.5,264.8,41.3,266.9,36.1,266.9z"/>
</g>
<g>
	<path d="M312,66"/>
</g>
<g>
	<g>
		<g>
			<path class="st1" d="M134.1,271.9c2-7.3,3.6-14.3,4.8-20.9c-3.8,0.4-7.7,0.7-11.6,0.9C129.1,259,131.4,265.6,134.1,271.9z"/>
		</g>
		<g>
			<path class="st1" d="M111.3,274.5c5.3-8.2,9.9-15.9,13.7-22.9c-3.7-0.5-7.4-1.1-11-1.9C113.1,258,112.2,266.2,111.3,274.5z"/>
		</g>
		<g>
			<path class="st1" d="M88.8,267.7c9-6.8,17.1-13,24.1-18.5c-2.7-2.2-5.2-4.7-7.5-7.3C100.6,249.9,95.1,258.5,88.8,267.7z"/>
		</g>
		<g>
			<path class="st1" d="M153.4,260.1c-1.5-5.7-3-11.3-4.6-16.9c-3.5,0.9-7.1,1.9-10.7,2.8C142.5,251.5,147.6,256.2,153.4,260.1z"/>
		</g>
	</g>
	<g>
		<path class="st1" d="M57.4,224.5c14.3,6.1,29.6,8.6,44.8,7.6c-3.3-4.7-6.5-9.5-9.7-14.4C81.3,222.1,69.4,224.4,57.4,224.5z"/>
	</g>
	<g>
		<g>
			<path class="st1" d="M82.5,159.9c4.7,11,10.3,21.1,16.5,30.3c1-5.6,2.6-11,4.6-16.2C96.7,170,89.6,165.3,82.5,159.9z"/>
		</g>
		<g>
			<path class="st1" d="M67.9,180.9c7.6,8.8,16.1,16.2,25.1,22.3c-0.5-5.2-0.7-10.5-0.4-15.8C84.7,186,76.4,183.9,67.9,180.9z"/>
		</g>
		<g>
			<path class="st1" d="M62.1,199.2c8.3,8.2,18,14.5,28.5,18.8c-0.9-4.4-1.8-8.9-2.4-13.4C79.5,204,70.8,202.3,62.1,199.2z"/>
		</g>
		<g>
			<path class="st1" d="M159.6,197.6c4.7-4.8,8.6-10.4,11.7-16.6c-5.2,1.3-10.5,2.1-16,2.5C156.7,188.2,158.1,192.9,159.6,197.6z"/>
		</g>
		<g>
			<path class="st1" d="M129.7,177.8c0.8-6.9,2.6-13.7,5.4-20.1c2.1,5.3,4.7,10.4,7.7,15.4C138.4,174.7,134.1,176.2,129.7,177.8z"/>
		</g>
		<g>
			<path class="st1" d="M142.3,183.1c1.7-6.7,4.4-13.1,8-19c1.4,5.6,3.3,11.1,5.6,16.4C151.4,181.4,146.9,182.2,142.3,183.1z"/>
		</g>
		<g>
			<path class="st1" d="M69.6,250c10.3-9.9,22.4-17.2,35.4-21.4c-1.4,5.1-2.8,10.2-4.1,15.3C90.4,244.1,79.8,246.1,69.6,250z"/>
		</g>
		<g>
			<path class="st1" d="M101,152.1c9.2,5.9,17.5,12.3,25,19c-5.7,0.6-11.3,1.8-16.7,3.6C106.9,167.2,104.1,159.7,101,152.1z"/>
		</g>
	</g>
</g>
<g>
	<g>
		<g>
			<g>
				<g>
					<path class="st0" d="M120.7,268.4c-26.5,0-48-21.5-48-48s21.5-48,48-48c26.5,0,48,21.5,48,48S147.2,268.4,120.7,268.4z"/>
					<path d="M120.7,177.9c23.4,0,42.5,19.1,42.5,42.5c0,23.4-19.1,42.5-42.5,42.5c-23.4,0-42.5-19.1-42.5-42.5
						C78.2,197,97.3,177.9,120.7,177.9 M120.7,166.9c-29.5,0-53.5,24-53.5,53.5c0,29.5,24,53.5,53.5,53.5c14.3,0,27.7-5.6,37.8-15.7
						c10.1-10.1,15.7-23.6,15.7-37.8C174.3,190.9,150.3,166.9,120.7,166.9L120.7,166.9z"/>
				</g>
			</g>
		</g>
		<g>
			
				<ellipse transform="matrix(5.530035e-02 -0.9985 0.9985 5.530035e-02 -105.9961 328.7668)" cx="120.7" cy="220.4" rx="20.5" ry="20.5"/>
		</g>
		<g>
			<g>
				
					<ellipse transform="matrix(0.9923 -0.1238 0.1238 0.9923 -27.2694 15.1746)" class="st0" cx="108.5" cy="227.1" rx="10.7" ry="10.7"/>
			</g>
			<g>
				<circle class="st0" cx="123" cy="230.4" r="6"/>
			</g>
		</g>
	</g>
</g>
<g>
	<g>
		<path d="M251.6,107.9c-8.4,12.8-30,29.7-72,29.7c-42,0-67.7-15.1-76.7-28.9c-4.7-7.2-8.7-20.5,3.4-28.4
			c12.1-7.9,69.2,11.4,69.2,11.4s49.7-7.5,69.2-11.4C264.4,76.3,260,95.1,251.6,107.9z"/>
	</g>
	<g>
		<path d="M236.9,96.6c0,0-29.6,17.1-58.4,17.1c-28.9,0-56.9-17.1-56.9-17.1s-8.8-45.2,0-63.6c8.8-18.4,37.7-22.8,57.7-22.8
			c20,0,51.4,6.6,57.7,22.8c6.2,16.2-2.1,36.4-2.1,46.8C234.8,90.2,236.9,96.6,236.9,96.6z"/>
	</g>
</g>
<g>
	<g>
		<g>
			<g>
				<path class="st0" d="M238.6,268.4c-26.5,0-48-21.5-48-48s21.5-48,48-48c26.5,0,48,21.5,48,48S265,268.4,238.6,268.4z"/>
				<path d="M238.6,177.9c23.4,0,42.5,19.1,42.5,42.5c0,23.4-19.1,42.5-42.5,42.5c-23.4,0-42.5-19.1-42.5-42.5
					C196,197,215.1,177.9,238.6,177.9 M238.6,166.9c-29.5,0-53.5,24-53.5,53.5c0,29.5,24,53.5,53.5,53.5c14.3,0,27.7-5.6,37.8-15.7
					c10.1-10.1,15.7-23.6,15.7-37.8C292.1,190.9,268.1,166.9,238.6,166.9L238.6,166.9z"/>
			</g>
		</g>
	</g>
	<g>
		
			<ellipse transform="matrix(5.530033e-02 -0.9985 0.9985 5.530033e-02 5.316 446.4146)" cx="238.6" cy="220.4" rx="20.5" ry="20.5"/>
	</g>
	<g>
		<g>
			
				<ellipse transform="matrix(0.9923 -0.1238 0.1238 0.9923 -26.3633 29.7588)" class="st0" cx="226.3" cy="227.1" rx="10.7" ry="10.7"/>
		</g>
		<g>
			<circle class="st0" cx="240.9" cy="230.4" r="6"/>
		</g>
	</g>
</g>
<g>
	<g>
		<path class="st2" d="M151.7,17.5c-8.1,1-27.7,7.9-20.8,19.5c6.3,10.6,23,13.4,34.1,14.3c3.3,0.2,6.8,0.2,10-0.3
			c0.9-0.1,5.2-0.6,6-1.7c2-3-8.1-3.5-9.1-3.6c-4.9-0.4-12.5-4.8-15.2-9c-1.9-3-1.4-6.7,1-9.4c1-1.1,2.2-1.9,3.4-2.7
			c0.8-0.5,1.7-1,2.6-1.4c1.5-0.4,1.9-0.6,1.1-0.7c1.9-0.2,9.4-1.6,4.7-4C164.8,16.1,156.7,16.8,151.7,17.5L151.7,17.5z"/>
	</g>
</g>
<g>
	<g>
		<path class="st2" d="M122.3,95c3.9,4.4,10.4,6.5,15.8,8.6c6,2.4,12.1,4.5,18.5,5.9c12.9,3,26.5,4.4,39.8,3.5
			c10.9-0.8,22.4-3.7,31.9-9.4c8.9-5.4,11.8-13,9.3-23.2c-0.5-1.9-2.2-9.1-5.4-8.4c-3,0.7-1.6,8.2-1.2,9.9c-0.2-1-0.3-2-0.2-3
			c0.1-0.7,0.1-0.8-0.1-0.2c-0.2,0.1-0.7,1.3-0.8,1.5c-0.9,1.4-2.3,2.6-3.5,3.6c-3.9,3-8.7,5-13.3,6.6c-8.9,3.2-18.1,4.6-27.6,4.6
			c-11.3,0.1-22.8-1.3-33.8-4.2c-5.1-1.3-10.1-3-15-5c-4.6-1.8-11-3.5-14.4-7.4c-2.8-3.2-3.7,2.5-3.8,4.3
			C118.3,86.8,119.5,91.8,122.3,95L122.3,95z"/>
	</g>
</g>
<g>
	<g>
		<path d="M179.6,286.1c-1.9,0-3.8-0.4-5.3-1.3c-1.2-0.6-2.1-1.9-2.6-2.9c-0.7-1.4-0.4-1.8-0.3-2c0.2-0.3,0.5-0.4,0.8-0.4
			c0.2,0,0.4,0.1,0.7,0.2c1,0.6,2.3,0.9,3.8,0.9c2.3,0,4.6-0.7,6.2-2c2.5-1.9,4.1-6.9,2.4-9.3c-0.8-1.2-1-1.8-0.7-2.3
			c0.2-0.3,0.5-0.5,0.8-0.5c0.9,0,2.4,1.4,3,2.2c2.7,4,3,8.7,0.7,12.6C187.3,284.3,183.7,286.1,179.6,286.1L179.6,286.1z"/>
		<path d="M185.4,267.3c0.5,0,1.7,1,2.3,1.9c2.3,3.3,3.1,7.8,0.7,11.8c-1.8,3-5.4,4.5-8.8,4.5c-1.8,0-3.5-0.4-4.9-1.2
			c-1-0.5-1.8-1.7-2.3-2.6c-0.1-0.2-0.6-1.4-0.2-1.4c0.1,0,0.2,0,0.3,0.1c1.2,0.7,2.6,1,4.1,1c2.4,0,4.8-0.8,6.6-2.2
			c2.8-2.2,4.5-7.5,2.6-10.3C185.1,267.7,185.1,267.3,185.4,267.3 M185.4,265.8c-0.6,0-1.2,0.3-1.5,0.9c-0.5,1,0.1,2,0.8,3
			c1.5,2.1-0.1,6.6-2.3,8.3c-1.5,1.2-3.6,1.8-5.7,1.8c-1.3,0-2.5-0.3-3.4-0.8c-0.4-0.2-0.7-0.3-1-0.3c-0.6,0-1.1,0.3-1.4,0.8
			c-0.3,0.4-0.5,1.2,0.3,2.7c0.5,1.1,1.6,2.5,2.9,3.3c1.6,0.9,3.5,1.3,5.6,1.3c4.3,0,8.2-2,10.1-5.2c2.4-4.1,2.2-9.1-0.8-13.4
			C188.4,267.5,186.7,265.8,185.4,265.8L185.4,265.8C185.4,265.8,185.4,265.8,185.4,265.8L185.4,265.8z"/>
	</g>
</g>
</svg>
