<?xml version="1.0" encoding="utf-8"?>
<!-- Generator: Adobe Illustrator 27.6.1, SVG Export Plug-In . SVG Version: 6.00 Build 0)  -->
<svg version="1.1" id="Layer_1" xmlns="http://www.w3.org/2000/svg" xmlns:xlink="http://www.w3.org/1999/xlink" x="0px" y="0px"
	 viewBox="0 0 484.05 407.71" style="enable-background:new 0 0 484.05 407.71;" xml:space="preserve">
<style type="text/css">
	.st0{fill:#E0DEDE;}
	.st1{fill:#EFEFEF;}
	.st2{fill:#666666;}
	.st3{fill:#AAAAAA;}
	.st4{fill:#AC9FAD;}
	.st5{fill:#FFFFFF;}
	.st6{fill:#C5B0C6;}
</style>
<g>
	<g>
		<polygon class="st0" points="384.74,104.02 381.14,115.25 381.08,109.04 378.17,110.71 381.67,94.55 382.46,105.33 		"/>
	</g>
	<g>
		<polygon class="st0" points="388.27,100.39 391.88,107.11 391.18,103.15 393.23,103.88 389.12,94.01 389.88,100.96 		"/>
	</g>
	<g>
		<polygon class="st0" points="384.5,83.36 381.83,78.1 382.3,81.17 380.73,80.58 383.74,88.27 383.27,82.89 		"/>
	</g>
</g>
<g>
	<g>
		<polygon class="st1" points="105.31,101.43 106.16,113.2 107.68,107.17 110.11,109.49 110.53,92.96 107.22,103.25 		"/>
	</g>
	<g>
		<polygon class="st1" points="102.74,97.07 97.65,102.75 99.26,99.07 97.1,99.29 103.42,90.67 101.05,97.24 		"/>
	</g>
	<g>
		<polygon class="st1" points="110.43,81.41 114.27,76.94 113.08,79.81 114.75,79.6 110,86.36 111.73,81.25 		"/>
	</g>
</g>
<g>
	<polygon class="st1" points="64.97,311.06 70.97,294.67 52.86,317.57 62.09,334.15 79.66,342.55 	"/>
	<g>
		<path class="st0" d="M55.21,338.34L86,352.85l25.51-6.72l-0.43-0.53l0.41,0.06l-0.37-0.83l1.1,0.58l6.45-12.13l36.47-7.16
			l31.34-11.36l25.66-15.35l31.65-29.05c-15.13-20.79-41.86-51.2-41.86-51.2l-27.33,23.25l-19.72,39.15l-21.47,11.46l-16.46,13.34
			l-23.33-12.41l-22.52,0.61l-0.08-0.88l-0.49,0.9l-0.28,0.01l0.2,0.14l-7.83,21.67l11.25,22.23L55.21,338.34z M71.16,295.21
			l15.93,11.03l3.06,4.08l-7.58,6.09l-14.7-0.07L71.16,295.21z"/>
		<polygon class="st1" points="79.84,329.22 95.29,321.06 107.65,321.12 117.46,318.37 142.34,302.57 165.44,303.7 162.16,288.82 
			176.84,258.13 192.91,237.18 214.25,229.98 191.64,227.91 174.59,242.41 154.87,281.56 133.41,293.02 116.95,306.36 93.62,293.96 
			70.26,294.59 87.09,306.24 90.15,310.32 82.57,316.41 67.87,316.34 71.03,293.68 58.69,321.33 		"/>
	</g>
	<polygon class="st0" points="85.59,334.84 76.75,323.24 81.88,299.6 62.63,317.39 59.55,326.26 71.91,340.61 	"/>
	<polygon class="st1" points="55.21,338.34 81.39,338.63 93.83,320.85 105.32,317.22 115.61,325.18 94.17,333.74 85.59,345.59 	"/>
</g>
<path class="st1" d="M413.67,134.79l-9.42-18l-18.6,0.16l-0.02-0.18l-0.1,0.18l-0.77,0.01l0.56,0.36l-8.38,14.78v19.93l-14.72,6.23
	l-15.23,10.24l-33.06-0.73l-25.16,9.96c0,0,10.78,28.57,19.26,46.01l30.56-10.79l19.31-11.65l18.66-16.84l17.69-21.75h10.36v-0.94
	l0.42,0.54l0.11-0.29l0.2,0.48l13.51-14.61l1.25-25.64L413.67,134.79z M397.89,125.48l-2.1,7.23l-6.74,2.89l-1.64-3.48l-1.7-14.51
	L397.89,125.48z"/>
<polygon class="st2" points="234.68,361.59 225.32,369.26 232.51,369.83 233.37,373.37 240.63,370.19 241.33,360.28 "/>
<polygon class="st2" points="255.41,361.59 264.77,369.26 257.58,369.83 256.72,373.37 249.46,370.19 248.76,360.28 "/>
<g>
	<polygon class="st0" points="237.7,307.32 236.72,314.24 238.11,314.26 	"/>
	<polygon class="st0" points="238.11,314.26 236.72,314.24 233.47,337.33 236.44,335.1 234.4,353.4 237.19,350.41 235.33,360.46 
		237.39,358.26 236.08,362.75 237.39,365.73 239.26,364.14 242.21,365.43 241.9,361.88 241.93,361.85 243.08,362.83 242.61,357.35 
		243.95,358.49 243.02,351.76 245.47,346.34 247.86,351.75 246.92,358.49 248.27,357.35 247.79,362.83 248.89,361.89 248.96,361.97 
		248.66,365.43 251.2,364.32 252.9,366.11 254.86,362.59 256.91,363.28 257.48,361.36 258.59,362.09 259.03,356.24 260.33,357.75 
		260.84,350.49 261.83,352.37 263.08,342.84 264.42,345.38 265.8,334.93 267.4,337 268.3,325.66 269.59,325.36 274.11,314.81 	"/>
	<g>
		<path class="st3" d="M236.2,358.73c0.62-3.35,1.24-6.7,1.86-10.05c-0.93,0.71-1.86,1.41-2.79,2.12c2.13-6.1,4.25-12.2,6.38-18.29
			c-0.99,0.45-1.98,0.91-2.97,1.36c1.08-2.49,2.17-4.97,3.25-7.46c-8.47-4.15-16.95-8.31-25.42-12.46
			c0.94,3.52,1.89,7.03,2.83,10.55c0.48,0.12,0.96,0.24,1.44,0.36c0.52,4.05,1.04,8.1,1.57,12.15c0.54-0.69,1.07-1.38,1.61-2.07
			c0.46,3.48,0.92,6.97,1.38,10.45c0.45-0.85,0.89-1.7,1.34-2.55c0.42,3.18,0.84,6.36,1.26,9.54c0.33-0.63,0.66-1.26,0.99-1.88
			c0.17,2.42,0.34,4.84,0.51,7.26c0.43-0.5,0.86-1,1.3-1.51c0.15,1.95,0.29,3.9,0.44,5.85c0.44-0.28,0.88-0.57,1.31-0.85
			c0.2,0.68,0.4,1.36,0.61,2.04c1-0.17,2-0.35,3-0.52c0.73-2.08,1.45-4.15,2.18-6.23C237.57,357.26,236.89,357.99,236.2,358.73z"/>
	</g>
</g>
<polygon class="st4" points="231.46,102.07 244.37,189.77 316.05,148.94 354.63,100.9 338.02,55.39 333.06,82.59 318.39,99.28 "/>
<polygon class="st4" points="237.58,87.94 267.28,144.74 306.49,99.79 321.38,57.81 299.2,30.7 302.3,50.44 296.25,65.33 "/>
<polygon class="st4" points="259.66,104.17 243.67,191.37 173.48,148.03 136.61,98.67 154.82,53.77 158.81,81.12 172.89,98.32 "/>
<polygon class="st4" points="257.21,87.94 227.5,144.74 188.3,99.79 173.4,57.81 195.59,30.7 192.49,50.44 198.53,65.33 "/>
<path class="st0" d="M323.6,227.72"/>
<path class="st0" d="M240.46,290.51"/>
<path class="st0" d="M245.87,300.59"/>
<g>
	<g>
		<polygon class="st1" points="246.62,90.42 202.63,101.67 215.08,152.22 246.66,148.42 277.42,152.22 289.87,101.67 		"/>
	</g>
</g>
<g>
	<path class="st1" d="M270.9,322.73l-21.33,3.47h-7.89l-23.66-6.08l-35.25-63.53l-8.59-82.7c0,0,37.21-18.45,72.07-18.45
		c34.86,0,72.07,19.32,72.07,19.32l-6.39,81.43L270.9,322.73z"/>
</g>
<g>
	<path class="st1" d="M288.57,163.03h-84.64c0,0,18.67-18.3,41.71-18.3S288.57,163.03,288.57,163.03z"/>
	<g>
		<g>
			<polygon class="st1" points="278.22,168.36 274.99,155.19 277.42,152.22 246.35,143.46 215.08,152.22 217.55,155.19 
				216.56,168.36 			"/>
		</g>
	</g>
</g>
<path class="st0" d="M228.13,127.43c0-6.42,2.89-12.16,7.43-16.01c-6.9,2.99-11.59,8.83-11.59,15.55c0,6.06,3.82,11.41,9.63,14.59
	C230.2,137.83,228.13,132.87,228.13,127.43z"/>
<g>
	<g>
		<circle class="st5" cx="246.04" cy="126.97" r="14.85"/>
	</g>
	<circle class="st0" cx="246.04" cy="126.97" r="4.92"/>
	<circle class="st5" cx="243.23" cy="124.17" r="2.8"/>
</g>
<polygon class="st4" points="258.22,66.19 210.76,78.62 197.01,92.02 200.45,122.33 213.54,135.15 208.34,108.29 233.83,94.5 
	249.17,100.76 264.43,95.28 284.35,108.29 278.99,136.3 293.63,120.8 295.69,92.02 "/>
<g>
	<polygon class="st1" points="233.15,78.2 251.6,91.99 270.29,78.1 257.58,57.99 250.67,64.36 	"/>
</g>
<polygon class="st0" points="245.22,87.22 257.58,57.99 233.15,78.2 "/>
<g>
	<polygon class="st1" points="240.33,65.25 254.24,75.65 268.32,65.18 258.74,50.02 253.53,54.82 	"/>
</g>
<polygon class="st0" points="247.89,70.91 258.74,50.02 240.33,65.25 "/>
<g>
	<polygon class="st0" points="435.55,223.84 425.44,212.27 447.55,225.37 445.2,241.9 433.42,254.34 	"/>
	<g>
		<path class="st1" d="M436.93,249.3l2.22-21.81l-13.27-15.33l0.12-0.18l-0.23,0.08l-0.69-0.59l0.22,0.75l-18.69,6.61l-15.24,17.55
			l-17.73-5.77l-21.25-2.64l-28.56-25.93l-29.79-10.47c0,0-12.36,33.42-18.23,55.27l35.17,13.87l25.92,4.51l29.32-0.56l32.22-5.63
			l9.13,7.93l0.72-0.83l-0.04,0.8l0.32-0.18l-0.19,0.57l23.08-2.53l20.72-21.64L436.93,249.3z M434.83,229.09l-12.05,4.7l-8.15-2.61
			l1.22-4.32l9.61-14.08L434.83,229.09z"/>
		<polygon class="st0" points="429.06,243.45 413.8,241.63 403.66,245.57 394.73,246.41 369.32,241.29 350.7,249.51 348.7,236.25 
			326.95,215.67 307.14,203.53 287.34,204.36 305.26,195.52 323.83,202.05 352.39,227.98 373.64,230.62 391.37,236.39 
			406.61,218.83 426,211.98 415.85,226.86 414.63,231.18 422.78,233.79 434.83,229.09 425.08,211.48 443.95,230.3 		"/>
	</g>
	<polygon class="st1" points="426.11,249.88 429.71,237.57 418.04,219.77 439.46,228.3 444.79,234.62 439.17,250.3 	"/>
	<polygon class="st0" points="452.17,243.17 430.76,251.67 414.93,240.99 404.34,241.63 398.41,251.42 418.72,251.68 429.51,258.71 
			"/>
</g>
<g>
	<polygon class="st0" points="419.08,311.06 413.08,294.67 431.19,317.57 421.96,334.15 404.39,342.55 	"/>
	<g>
		<path class="st1" d="M410.17,338.63l11.25-22.23l-7.83-21.67l0.2-0.14l-0.28-0.01l-0.49-0.9l-0.08,0.88l-22.52-0.61l-23.33,12.41
			l-16.46-13.34l-21.47-11.46l-19.72-39.15l-27.33-23.25c0,0-26.73,30.41-41.86,51.2l31.65,29.05l25.66,15.35l31.34,11.36
			l36.47,7.16l6.45,12.13l1.1-0.58l-0.37,0.83l0.41-0.06l-0.43,0.53l25.51,6.72l30.79-14.51L410.17,338.63z M416.18,316.34
			l-14.7,0.07l-7.58-6.09l3.06-4.08l15.93-11.03L416.18,316.34z"/>
		<polygon class="st0" points="404.21,329.22 388.76,321.06 376.4,321.12 366.59,318.37 341.71,302.57 318.61,303.7 321.89,288.82 
			307.21,258.13 291.14,237.18 269.8,229.98 292.42,227.91 309.46,242.41 329.18,281.56 350.65,293.02 367.1,306.36 390.43,293.96 
			413.79,294.59 396.96,306.24 393.9,310.32 401.48,316.41 416.18,316.34 413.02,293.68 425.37,321.33 		"/>
	</g>
	<polygon class="st1" points="398.46,334.84 407.3,323.24 402.17,299.6 421.42,317.39 424.5,326.26 412.14,340.61 	"/>
	<polygon class="st0" points="428.84,338.34 402.66,338.63 390.22,320.85 378.73,317.22 368.45,325.18 389.88,333.74 398.46,345.59 
			"/>
</g>
<g>
	<polygon class="st1" points="244.14,56.21 255.99,65.06 267.98,56.15 259.82,43.24 255.39,47.33 	"/>
</g>
<g>
	<g>
		<polygon class="st3" points="237.77,183.85 234.27,180.87 234.3,184.11 236.36,187.2 		"/>
		<polygon class="st3" points="242.89,183.5 236.55,178.12 236.6,183.98 240.34,189.58 		"/>
		<polygon class="st3" points="248.34,183.15 240.63,176.6 240.7,183.73 245.23,190.53 		"/>
	</g>
	<g>
		<polygon class="st3" points="257.68,183.85 261.18,180.87 261.15,184.11 259.1,187.2 		"/>
		<polygon class="st3" points="252.56,183.5 258.91,178.12 258.85,183.98 255.12,189.58 		"/>
		<polygon class="st3" points="247.11,183.15 254.82,176.6 254.76,183.73 250.22,190.53 		"/>
	</g>
	<polygon class="st3" points="242.02,183.6 248,174.83 253.98,183.9 248.11,191.93 	"/>
</g>
<polygon class="st1" points="192.95,125 216.09,133.95 216.36,153.76 "/>
<path class="st0" d="M220.46,166.66l8.02-12.78l7.8-0.12l-0.72-5.1l4.77-3.51l-6.72-3.59c0,0-8.19-6.72-6.28-18.98l-6.86-11.16
	l13.37-16.92l-25.48,13.79l4.69,23.85L192.95,125l22.52,28.09l-11.53,9.07l-14,3.68l-16.58,10.11l0.04,47.08l5.61,52.09l28.37,26.79
	l10.63,18.21l23.66,6.08l4.08-16.05l-0.16-96.91l-14.42-16.49l-12.48-13.64L220.46,166.66z"/>
<polygon class="st3" points="206.43,135.84 214.06,140.86 215.03,146.39 "/>
<polygon class="st1" points="299.71,125 276.57,133.95 276.3,153.76 "/>
<polygon class="st3" points="285.36,135.84 277.73,140.86 276.77,146.39 "/>
<g>
	<polygon class="st0" points="230.93,159.22 246.43,162.82 238.86,169.31 227.33,164.45 	"/>
	<polygon class="st0" points="264.29,159.22 248.79,162.82 256.36,169.31 267.9,164.45 	"/>
</g>
<g>
	<g>
		<polygon class="st0" points="428.7,197.11 419.15,206.3 422.41,200.12 418.64,200.23 430.71,186.11 425.75,197.19 		"/>
	</g>
	<g>
		<polygon class="st0" points="434.13,195.4 434.11,203.98 435.54,199.69 437.17,201.5 438.37,189.54 435.41,196.82 		"/>
	</g>
	<g>
		<polygon class="st0" points="439.48,176.55 439.64,169.92 438.46,173.21 437.23,171.79 436.11,181 438.51,175.43 		"/>
	</g>
</g>
<g>
	<g>
		<polygon class="st1" points="54.04,191.98 64.13,203.7 61.01,196.17 65.38,196.71 52.91,178.99 57.46,192.4 		"/>
	</g>
	<g>
		<polygon class="st1" points="47.92,189.4 47.01,199.36 45.82,194.23 43.72,196.15 43.64,182.14 46.28,190.91 		"/>
	</g>
	<g>
		<polygon class="st1" points="43.77,166.93 44.31,159.22 45.32,163.17 46.9,161.65 47.2,172.47 45.02,165.74 		"/>
	</g>
</g>
<g>
	<g>
		<polygon class="st1" points="61.5,280.65 74.73,285.56 68.92,280.91 72.65,279.41 54.86,270.76 64.42,279.47 		"/>
	</g>
	<g>
		<polygon class="st1" points="55.47,281.29 59.13,289.65 55.92,286.07 55.09,288.53 48.84,277.37 54.82,283.22 		"/>
	</g>
	<g>
		<polygon class="st1" points="42.23,265.15 39.26,258.75 41.8,261.46 42.4,259.55 47.41,268.07 42.7,263.65 		"/>
	</g>
</g>
<g>
	<g>
		<polygon class="st0" points="421.95,282.58 411.54,286.43 416.11,282.78 413.18,281.61 427.16,274.81 419.65,281.65 		"/>
	</g>
	<g>
		<polygon class="st0" points="426.68,283.08 423.8,289.65 426.33,286.84 426.98,288.77 431.89,280 427.19,284.59 		"/>
	</g>
	<g>
		<polygon class="st0" points="437.08,270.4 439.42,265.37 437.42,267.5 436.95,266 433.01,272.69 436.72,269.22 		"/>
	</g>
</g>
<g>
	<path class="st6" d="M285.9,226.6c0.51-0.55,1.01-1.1,1.89-2.07c2.44-6.13-1.19-13.57-7.4-14.78c-2.69-0.53-4.83-0.28-6.95,0.93
		c1.76-0.17,3.8,1.69,3.96,3.18c0.45,3.64-3.95,4.07-5.49,0.72c-3.47-7.55-0.79-12.62-7.49-16.28c-2.6-1.42-6.36-1.37-9.66-0.56
		c2.64,0.57,4.06,1.9,5.19,2.94c2.8,2.74,2.84,6.64,3.21,10.39c0.81,7.19,2.17,14.89,10.42,17.53c4.66,1.49,8.32,0.78,12.11-1.81
		L285.9,226.6z"/>
	<path class="st6" d="M253.25,193.78c0.13-0.32,0.26-0.63,0.49-1.19c2.08-2.21,5.89-2.14,7.6,0.22c0.75,1.02,1.06,1.96,0.96,3.08
		c-0.27-0.77-1.44-1.26-2.09-1.04c-1.61,0.52-0.94,2.44,0.77,2.43c3.82-0.02,5.41-2.12,8.23-0.03c1.09,0.81,1.81,2.39,2.11,3.92
		c-0.75-0.99-1.58-1.33-2.24-1.6c-1.68-0.63-3.32,0.1-4.95,0.68c-3.15,1.06-6.62,1.98-9.32-0.94c-1.53-1.66-1.94-3.32-1.6-5.41
		L253.25,193.78z"/>
	<path class="st6" d="M262.03,201.1c2.82,1.97,4.42,5.81,4.52,9.24c0.11,3.26-0.77,6.32-1.44,9.56c-0.67,3.23-1.55,6.09-1.18,9.42
		c0.36,3.1,1.82,7.03,3.92,8.6c-2.91-1.82-6.15-5.43-8.2-8.76c-1.06-1.85-2.08-4.02-2.25-6.19c-0.29-2.28,0.76-4.46,0.97-6.84
		c0.21-2.38-0.96-6.26-3.08-7.65c-1.32,1.86-4.15,4.44-3.32,7.99c-7.82-7.75,3.86-14.36,2.01-18.61
		C253.96,197.86,259.46,199.31,262.03,201.1z"/>
	<path class="st6" d="M252.73,186c-1.43-0.14-3.09,0.55-3.95,1.41c-2.08,2.1-2.3,5.57-0.26,8.19c-0.16-1.03,0.52-2.17,1.51-2.42
		c2.11-0.46,2.64,2.37,2.24,3.87c-0.4,1.5-1.47,3.02-2.64,3.99c1.27-0.58,3-1.44,4.07-2.31c1.88-1.51,3.14-3.38,3.43-5.81
		c0.33-2.83-0.9-5.27-3.7-6.68L252.73,186z"/>
	<path class="st6" d="M269.49,229.25c0.39,2.29,2.79,3.04,4.97,3.72c1.96,0.69,3.66,1.08,5.16,2.94c1.2,1.5,1.5,3.81,1.27,5.73
		c-0.23,2.31-1.13,4.49-2.35,6.42c-0.37,0.61-1.4,2.01-2.04,2.56c0.96-1.05,1.25-2.92,1.23-3.66c-0.07-2-0.78-3.33-1.67-4.21
		c-2.55-2.54-6.86-3.38-7.67-7.41C267.91,233,268.39,231.24,269.49,229.25z"/>
</g>
<polygon class="st0" points="249.25,60.02 259.82,43.24 244.14,56.21 "/>
<g>
	<polygon class="st1" points="247.89,48.05 257.73,55.41 267.7,48 262.66,26.85 	"/>
</g>
<polygon class="st0" points="263.02,27.09 252.56,51.54 247.89,48.05 "/>
<g>
	<polygon class="st1" points="246.27,285.99 246.55,301.82 235.94,305.3 243.11,298.08 	"/>
	<polygon class="st1" points="246.4,275.12 246.4,290.53 232.59,295.01 241.14,288.38 	"/>
	<polygon class="st1" points="246.55,299.72 246.4,310.15 240.5,312.35 244.33,307.68 	"/>
</g>
<g>
	<polygon class="st0" points="245.9,285.99 245.62,301.82 256.23,305.3 249.06,298.08 	"/>
	<polygon class="st0" points="246.4,275.12 245.76,290.53 259.57,295.01 251.02,288.38 	"/>
	<polygon class="st1" points="246.56,246.82 246.56,269.76 226,276.43 242.2,265.68 	"/>
	<polygon class="st0" points="246.56,246.82 245.61,269.76 266.16,276.43 250.83,266.55 	"/>
	<polygon class="st0" points="245.62,299.72 245.76,310.15 251.67,312.35 247.83,307.68 	"/>
</g>
<polygon class="st3" points="245.47,346.34 247.86,351.75 246.92,358.49 248.27,357.35 247.79,362.83 248.89,361.89 248.66,365.43 
	251.2,364.32 252.9,366.11 255.16,358.48 252.67,360.56 254.16,350.55 251.33,353.2 252.67,343.19 249.63,347.79 248.42,341.72 
	246.56,344.37 244.09,339.8 "/>
<polygon class="st0" points="406.48,141.12 397.02,144.22 390.05,151.07 384.74,156.63 365.41,167.6 357.98,183.38 349.24,175.93 
	323.6,174.83 303.95,178.12 291.61,189.77 298.24,173.98 313.93,167.77 346.98,168.5 362.22,158.27 376.93,152.04 376.93,132.11 
	385.63,116.78 387.42,132.11 389.06,135.59 395.79,132.7 397.89,125.48 384.75,116.97 404.25,116.8 "/>
<path class="st0" d="M63.96,122.25l1.25,25.64l13.51,14.61l0.2-0.48l0.11,0.29l0.42-0.54v0.94h10.36l17.69,21.75l18.66,16.84
	l19.31,11.65l30.56,10.79c8.48-17.44,19.26-46.01,19.26-46.01l-25.16-9.96l-33.06,0.73l-15.23-10.24l-14.72-6.23v-19.93l-8.38-14.78
	l0.56-0.36l-0.77-0.01l-0.1-0.18l-0.02,0.18l-18.6-0.16l-9.42,18L63.96,122.25z M98.33,117.6l-1.7,14.51l-1.64,3.48l-6.74-2.89
	l-2.1-7.23L98.33,117.6z"/>
<g>
	<polygon class="st1" points="48.51,223.84 58.61,212.27 36.5,225.37 38.85,241.9 50.63,254.34 	"/>
	<g>
		<path class="st0" d="M31.88,243.17l20.72,21.64l23.08,2.53l-0.19-0.57l0.32,0.18l-0.04-0.8l0.72,0.83l9.13-7.93l32.22,5.63
			l29.32,0.56l25.92-4.51l35.17-13.87c-5.87-21.85-18.23-55.27-18.23-55.27l-29.79,10.47l-28.56,25.93l-21.25,2.64l-17.73,5.77
			l-15.24-17.55l-18.69-6.61l0.22-0.75l-0.69,0.59l-0.23-0.08l0.12,0.18L44.9,227.49l2.22,21.81L31.88,243.17z M58.59,212.78
			l9.61,14.08l1.22,4.32l-8.15,2.61l-12.05-4.7L58.59,212.78z"/>
		<polygon class="st1" points="54.99,243.45 70.25,241.63 80.39,245.57 89.32,246.41 114.73,241.29 133.35,249.51 135.35,236.25 
			157.1,215.67 176.91,203.53 196.71,204.36 178.79,195.52 160.22,202.05 131.66,227.98 110.41,230.62 92.68,236.39 77.44,218.83 
			58.05,211.98 68.2,226.86 69.42,231.18 61.28,233.79 49.22,229.09 58.97,211.48 40.1,230.3 		"/>
	</g>
	<polygon class="st0" points="57.94,249.88 54.34,237.57 66.01,219.77 44.59,228.3 39.26,234.62 44.88,250.3 	"/>
	<polygon class="st1" points="31.88,243.17 53.29,251.67 69.12,240.99 79.71,241.63 85.64,251.42 65.33,251.68 54.54,258.71 	"/>
</g>
<polygon class="st1" points="77.57,141.12 87.03,144.22 94,151.07 99.31,156.63 118.64,167.6 126.07,183.38 134.82,175.93 
	160.45,174.83 180.1,178.12 192.45,189.77 185.81,173.98 170.13,167.77 137.07,168.5 121.84,158.27 107.12,152.04 107.12,132.11 
	98.42,116.78 96.63,132.11 94.99,135.59 88.26,132.7 86.16,125.48 99.3,116.97 79.8,116.8 "/>
</svg>
