<?xml version="1.0" encoding="utf-8"?>
<!-- Generator: Adobe Illustrator 27.6.1, SVG Export Plug-In . SVG Version: 6.00 Build 0)  -->
<svg version="1.1" id="Layer_1" xmlns="http://www.w3.org/2000/svg" xmlns:xlink="http://www.w3.org/1999/xlink" x="0px" y="0px"
	 viewBox="0 0 300 300" style="enable-background:new 0 0 300 300;" xml:space="preserve">
<style type="text/css">
	.st0{fill:#A7A5AE;}
	.st1{fill:#C4C1CD;}
	.st2{fill:#B9B6C0;}
	.st3{fill:#CDC9D7;}
	.st4{fill:#A6A2B3;}
	.st5{fill:#4E4966;}
	.st6{fill:#E2E0E0;}
	.st7{fill:#DDD7D7;}
	.st8{fill:#EFEDED;}
	.st9{fill:#F7F7F7;}
	.st10{fill:#E0DEDE;}
	.st11{fill:#C5B0C6;}
	.st12{fill:#AC9FAD;}
</style>
<g>
	<g>
		<g>
			<g>
				<polygon class="st0" points="176.75,140.56 96.04,140.56 89.81,168.69 170.52,168.69 				"/>
				<polygon class="st1" points="189.37,269.38 126.77,269.38 112.89,155.39 203.25,155.39 				"/>
				<polygon class="st2" points="126.77,269.38 117.23,260.13 95.99,140.56 112.89,155.39 				"/>
				<polygon class="st3" points="112.89,155.39 95.99,140.56 84.43,155.89 88.2,162.61 				"/>
				<polygon class="st3" points="203.25,155.39 177.1,140.56 203.48,152.19 215.57,158.91 				"/>
				<polygon class="st4" points="177.1,140.56 95.99,140.56 112.89,155.39 177.11,155.39 177.11,140.56 				"/>
				<polygon class="st2" points="177.11,140.56 177.11,155.39 203.25,155.39 				"/>
				<polygon class="st3" points="203.25,155.39 112.98,155.39 125.01,176.38 215.28,176.38 				"/>
			</g>
		</g>
		<g>
			<path class="st5" d="M181.55,220.6l-0.16-0.46l-0.08-0.23c-0.01-0.03-1.12-3.35-0.88-5.81c0.36-3.55-1.88-7.7-2.14-8.17
				l-0.68-1.23l-1.36-2.45l-1.19,2.54l-0.6,1.27c0,0-0.66,1.29-2.29,2.32c-1.44,0.91-2.43,1.97-3.04,2.78l-5.66-0.62l-0.44-0.05
				l-0.39,0.2l-4.61,2.43l-4.49-2.42l-0.39-0.21l-0.45,0.05l-5.64,0.62c-0.79-1.13-2.05-2.56-3.67-3.21
				c-0.87-0.35-1.49-1.42-1.66-1.8l-0.45-1.1l-0.91-2.23l-1.53,1.86l-0.76,0.93c-0.31,0.38-3,3.82-2.35,8.57
				c0.43,3.11-0.73,5.38-0.74,5.4l-0.14,0.26l-0.31,0.56l0.2,0.6l2.6,7.67l-1.93,2.66l-0.58,0.8l0.55,0.83l0.27,0.41
				c0.15,0.23,1.52,2.25,3.72,3.42c0.37,0.2,0.75,0.37,1.15,0.52l-3.55,5.52l-1.92,2.98l3.45-0.81l5.24-1.23l6.49,1.95l-1.9,1.83
				l2.94,0.39l3.99,0.53l2.18,1.05l0.63,0.3l0.62-0.3l2.13-1.03l4.03-0.55l2.93-0.4l-1.89-1.82l6.49-1.95l5.24,1.23l3.45,0.81
				l-1.92-2.98l-3.62-5.64c0.3-0.12,0.61-0.24,0.92-0.38c2.99-1.32,4.06-3.47,4.18-3.71l0.18-0.38l0.36-0.77l-0.5-0.69l-1.89-2.6
				l2.58-7.6L181.55,220.6z M158.74,223.26v-7.31l4.79-2.52l7.05,0.77l0.22-0.46c0.01-0.02,0.83-1.68,2.85-2.95
				c1.22-0.77,2.06-1.5,2.58-2.03c0.58,1.12,1.47,3.18,1.29,5.03c-0.27,2.7,0.66,5.89,0.94,6.79l-2.9,8.55l2.23,3.08
				c-0.33,0.47-1.09,1.32-2.52,1.96c-0.96,0.42-1.69,0.65-2.21,0.78c-0.11,0.03-0.2,0.05-0.29,0.07c-0.18,0.04-0.32,0.06-0.43,0.07
				c-0.15,0.02-0.24,0.02-0.24,0.02l-0.19-0.01l-0.29-0.01l-0.89-0.03l0.27,0.42l0.24,0.38l0.24,0.38l0.14,0.22l0.15,0.23l0.14,0.22
				l0.1,0.15l0.24,0.38l0.09,0.14l0.43,0.67l0.29,0.45l1.74,2.71l-1.74-0.41l-0.72-0.17l-0.72-0.17l-0.32-0.08l-0.84-0.2l-0.84-0.2
				l-1-0.23l-0.84-0.2l-0.84-0.2l-1-0.23l-0.84-0.2l-0.84-0.2l-1-0.23l-0.74-0.17l0.25-0.13l2.24-1.12l6.61-3.3l0.29-0.14l0.43-0.21
				l0.43-0.21l0.29-0.14v-1.81v-8.34l0.22-0.21l1.22-2.12l-1.26-0.7l-1.03,1.84l-1.59,1.48l0.03,0.03l0.95,1.02l0.01-0.01v1.71v1.43
				v1.43v1.43v1v0.72v0.2l-11.29,5.64l-1.01,0.5l-0.92,0.46l-0.09,0.04l-0.28,0.14l-0.28-0.14l-0.09-0.04l-0.92-0.46l-1.01-0.5
				l-11.29-5.64v-0.2v-0.72v-1v-1.43v-1.43v-1.43v-1.71l0.01,0.01l0.95-1.02l0.03-0.03l-1.59-1.48l-1.03-1.84l-1.25,0.7l1.08,1.94
				l0.36,0.34v8.37v1.81l0.29,0.14l0.43,0.21l0.43,0.21l0.29,0.14l6.61,3.3l2.24,1.12l0.25,0.13l-0.74,0.17l-1,0.23l-0.84,0.2
				l-0.84,0.2l-1,0.23l-0.84,0.2l-0.84,0.2l-1,0.23l-0.84,0.2l-0.84,0.2l-0.32,0.08l-0.72,0.17l-0.72,0.17l-1.74,0.41l1.74-2.71
				l0.29-0.45l0.43-0.67l0.09-0.13l0.24-0.38l0.1-0.16l0.14-0.22l0.15-0.23l0.14-0.22l0.24-0.38l0.24-0.38l0.24-0.37h-0.86h-0.29
				h-0.17c0,0-0.1,0-0.26-0.01c-0.11-0.01-0.26-0.02-0.43-0.04c-0.09-0.01-0.19-0.03-0.29-0.04c-0.64-0.1-1.5-0.31-2.33-0.76
				c-1.1-0.59-1.96-1.54-2.38-2.07l2.2-3.04l-2.88-8.5c0.39-0.85,1.39-3.43,0.92-6.87c-0.32-2.33,0.5-4.32,1.12-5.42
				c0.52,0.77,1.38,1.75,2.63,2.25c1.67,0.67,2.97,3.14,2.98,3.16l0.23,0.44l7.03-0.78l4.79,2.58v7.25H158.74z M161.49,245.5
				l-1.26,0.17l-0.25-0.44l-0.27-0.48l-0.37,0.21l-0.37,0.21l0.18,0.31l0.28,0.5l0.08,0.14l0.05,0.09l-1.53,0.74l-1.57-0.76
				l0.05-0.09l0.09-0.16l0.28-0.48l0.17-0.3l-0.37-0.21l-0.37-0.21l-0.27,0.48l-0.27,0.46l-1.2-0.19l0.56-0.54l0.59-0.57l0.41-0.39
				l1.9,0.57l1.92-0.58l0.4,0.4l0.59,0.57L161.49,245.5z M150.2,240.78l5.46,1.64l0.71,0.21l0.69,0.21l0.96,0.29l0.94-0.28
				l0.71-0.21l0.71-0.21l5.46-1.64l1,0.23l-6.05,1.81l-0.79,0.24l-0.76,0.23l-1.22,0.37l-1.23-0.37l-0.75-0.22l-0.79-0.24
				l-6.05-1.81L150.2,240.78z M152.88,240.15l3.49,1.05l0.71,0.21l0.7,0.21l0.24,0.07l0.24-0.07l0.71-0.21l0.71-0.21l3.49-1.05
				l1,0.23l-4.23,1.27l-0.71,0.21l-0.71,0.21l-0.5,0.15l-0.51-0.15l-0.7-0.21l-0.71-0.21l-4.23-1.27L152.88,240.15z M155.55,239.53
				l1.38,0.69l0.64,0.32l0.44,0.22l0.44-0.22l0.64-0.32l1.38-0.69l0.99,0.23l-2.25,0.68l-0.71,0.21l-0.51,0.15l-0.51-0.15
				l-0.71-0.21l-2.25-0.68L155.55,239.53z M161.91,243.91l-0.41-0.39l7.02-2.1l0.97,0.23L161.91,243.91z M147.52,241.41l7.02,2.1
				l-0.41,0.39l-7.58-2.27L147.52,241.41z"/>
			<polygon class="st5" points="167.27,225.18 169.12,223.45 169.81,222.8 171.43,218.77 170.1,218.24 168.6,221.97 167.01,223.45 
				166.29,224.13 			"/>
			<polygon class="st5" points="162.51,225.18 164.36,223.45 165.05,222.8 166.67,218.77 165.34,218.24 163.84,221.97 
				162.25,223.45 161.53,224.13 			"/>
			<polygon class="st5" points="149.75,224.13 149.03,223.45 147.44,221.97 145.95,218.24 144.62,218.77 146.23,222.8 
				146.93,223.45 148.77,225.18 			"/>
			<polygon class="st5" points="151.69,223.45 153.53,225.18 154.52,224.13 153.79,223.45 152.2,221.97 150.71,218.24 
				149.38,218.77 150.99,222.8 			"/>
			<polygon class="st5" points="155.12,233.96 153.94,235.63 154.53,236.04 154.53,236.04 155.12,236.45 155.41,236.04 
				155.86,235.39 159.8,235.39 160.26,236.04 160.55,236.45 161.14,236.04 161.14,236.04 161.72,235.63 160.55,233.96 			"/>
			<polygon class="st5" points="157.89,232.17 157.84,232.19 157.8,232.17 156.61,231.72 156.43,232.17 156.09,233.06 
				157.85,233.73 159.58,233.06 159.24,232.17 159.06,231.72 			"/>
			<polygon class="st5" points="154.26,231.71 154.26,230.46 154.26,230.45 154.26,230.46 154.64,230.7 154.8,230.46 155.43,229.5 
				154.7,229.03 152.53,227.6 150.35,226.17 149.98,225.92 149.97,226.17 149.95,227.6 149.93,229.03 149.91,230.09 150.63,230.1 
				150.64,230.1 151.35,230.11 151.35,230.1 151.37,229.03 151.37,228.56 152.09,229.03 153.35,229.86 152.41,229.86 152.41,230.1 
				152.41,230.46 152.41,231.71 			"/>
			<polygon class="st5" points="165.32,226.17 163.14,227.6 160.97,229.03 160.24,229.5 160.64,230.1 160.64,230.1 160.87,230.46 
				161.03,230.7 161.41,230.46 161.41,230.45 161.41,230.46 161.41,231.71 163.26,231.71 163.26,230.46 163.26,230.1 163.26,229.86 
				162.32,229.86 163.58,229.03 164.29,228.56 164.3,229.03 164.32,230.1 164.32,230.11 165.03,230.1 165.04,230.1 165.76,230.09 
				165.74,229.03 165.72,227.6 165.69,226.17 165.69,225.92 			"/>
		</g>
		<g>
			<path class="st5" d="M131.42,186.03h2.59v10.3h5.7v2.28h-8.29V186.03z"/>
			<path class="st5" d="M141.14,195.28v-4.55h2.5v4.38c0,0.89,0.43,1.41,1.31,1.41c1,0,1.55-0.57,1.55-1.57v-4.22h2.5v7.88h-2.5
				l0.06-1.29c-0.48,0.94-1.39,1.46-2.48,1.46C142.36,198.78,141.14,197.52,141.14,195.28z"/>
			<path class="st5" d="M150.7,194.65c0-2.42,1.63-4.09,3.53-4.09c1.26,0,1.96,0.5,2.46,1.28v-6.59h2.5v13.36h-2.5l0.06-1.15
				c-0.44,0.83-1.28,1.31-2.48,1.31C152.35,198.78,150.7,197.08,150.7,194.65z M156.77,194.65c0-1.17-0.7-1.89-1.78-1.89
				c-1.05,0-1.72,0.72-1.72,1.89c0,1.24,0.67,1.94,1.72,1.94C156.07,196.59,156.77,195.89,156.77,194.65z"/>
			<path class="st5" d="M160.34,190.73h2.76l0.91,2.24c0.28,0.67,0.57,1.76,0.57,1.76s0.3-1.11,0.65-1.76l1.3-2.44h0.19l1.37,2.44
				c0.33,0.61,0.65,1.65,0.68,1.76c0.02-0.06,0.3-1.13,0.57-1.76l0.93-2.24h2.5l-3.68,8.08h-0.22l-1.7-3.16
				c-0.3-0.52-0.52-1.42-0.55-1.55c-0.04,0.09-0.3,1.04-0.59,1.55l-1.81,3.16h-0.2L160.34,190.73z"/>
			<path class="st5" d="M173.67,187.84c0-0.91,0.74-1.55,1.59-1.55c0.85,0,1.57,0.65,1.57,1.55c0,0.92-0.72,1.57-1.57,1.57
				C174.41,189.42,173.67,188.77,173.67,187.84z M174,190.73h2.5v7.88H174V190.73z"/>
			<path class="st5" d="M178.35,200.77l1.76-1.37c0.55,0.68,1.2,1.22,2.33,1.22c1.15,0,1.87-0.68,1.87-2.13v-0.94
				c-0.42,0.72-1.24,1.22-2.44,1.22c-1.92,0-3.57-1.7-3.57-4.13c0-2.42,1.63-4.09,3.53-4.09c1.26,0,2.07,0.55,2.53,1.39l-0.06-1.22
				h2.5v7.86c0,3-1.96,4.13-4.25,4.13C180.46,202.72,179.24,201.98,178.35,200.77z M184.36,194.65c0-1.17-0.7-1.89-1.78-1.89
				c-1.05,0-1.72,0.72-1.72,1.89c0,1.24,0.67,1.94,1.72,1.94C183.66,196.59,184.36,195.89,184.36,194.65z"/>
		</g>
	</g>
	<g>
		<g>
			<polygon class="st6" points="136.27,97.24 174.87,62.12 187.56,58.6 192.81,60.94 196.15,64.34 186.18,68.37 179.85,67.07 
				152.94,96.9 			"/>
			<polygon class="st7" points="147.6,86.66 174.87,62.12 187.56,58.6 192.81,60.94 177.17,64.11 			"/>
		</g>
		<polygon class="st8" points="169.01,155.36 127.14,155.36 130.63,125.33 125.51,102.51 129.47,69.81 143.62,65.33 156.22,82.46 
			164.35,86.11 172.45,99.34 174.57,135.17 		"/>
		<polygon class="st8" points="165.96,47.86 154.22,46.02 142.95,49.23 129.47,69.81 140.56,88.49 160.54,84.84 158.03,68.18 
			184.82,64.91 183.3,57.9 		"/>
		<polygon class="st9" points="167.78,60.1 184.82,64.91 183.3,57.9 165.96,47.86 		"/>
		<polygon class="st6" points="167.78,60.1 150.4,63.24 149.87,90.82 129.47,69.81 142.95,49.23 154.22,46.02 165.96,47.86 		"/>
		<polygon class="st6" points="149.87,88.49 161.3,91.76 160.79,97.97 167.69,110.46 167.66,120.87 162.4,122.15 165.12,137.18 
			162.61,153.1 126.62,153.1 127.14,134.65 122.22,100.92 129.47,69.81 		"/>
		<polygon class="st6" points="181.32,61.18 181.81,63.15 183.55,63.85 182.86,61.79 		"/>
		<g>
			<polygon class="st8" points="156.13,97.88 170.58,73.81 201.76,82.33 180.52,82.48 167.66,120.87 			"/>
			<polygon class="st8" points="170.58,73.81 200.23,78.59 210.12,89.02 210.56,94.52 200,92.69 199.53,82.9 180.1,83.35 			"/>
			<polygon class="st9" points="171.82,73.97 201.75,76.33 210.12,89.02 210.56,94.52 199.5,81.83 			"/>
		</g>
		<polygon class="st7" points="131.08,127.27 133.49,110.26 147.46,93.76 146.53,76.18 124.77,95.03 123.98,93.35 122.22,100.92 
			123.05,106.64 125.84,109.44 		"/>
		<g>
			<g>
				<polygon class="st10" points="171.05,50.93 164.26,49.66 164.4,43.31 173.21,41.21 172.15,44.28 				"/>
			</g>
			<polygon class="st8" points="166.41,50.06 173.21,41.21 171.05,50.93 			"/>
			<g>
				<polygon class="st10" points="173.49,46.77 167.77,46.25 169.08,40.59 175.72,39.01 174.92,41.32 				"/>
			</g>
			<polygon class="st8" points="170.38,46.48 175.72,39.01 173.49,46.77 			"/>
			<g>
				<polygon class="st10" points="175.94,43.73 171.07,43.28 172.18,38.47 177.83,37.12 177.16,39.09 				"/>
			</g>
			<polygon class="st8" points="173.84,43.53 177.83,37.12 175.94,43.73 			"/>
			<g>
				<polygon class="st10" points="178.1,40.91 174.06,40.54 174.98,36.54 182.92,32.5 				"/>
			</g>
			<polygon class="st8" points="182.78,32.48 176.18,40.74 178.1,40.91 			"/>
		</g>
		<g>
			<polygon class="st11" points="164.68,52.03 159.6,57.85 150.48,59.04 145.33,86.14 134.39,93.83 129.47,103.73 129.47,111.45 
				123.57,90.82 128.52,69.81 142.95,49.23 154.19,41.63 161.83,42.21 166.59,48.5 			"/>
			<g>
				<polygon class="st12" points="134.04,67.03 135.76,77.8 129.84,87.5 127.72,92.58 129.47,103.73 129.47,111.45 123.57,90.82 
					128.52,69.81 				"/>
			</g>
			<polygon class="st11" points="148.17,45.7 140.39,48.45 133.55,53.22 140.98,53.07 			"/>
			<polygon class="st11" points="166.01,47.75 162.81,39.89 147.48,35.45 159.6,45.23 			"/>
			<polygon class="st11" points="159.6,42.07 154.12,41.15 140.69,45.63 153.44,45.75 			"/>
			<polygon class="st11" points="148.77,52.03 139.45,52.8 126.55,61.3 138.65,58.27 			"/>
			<polygon class="st11" points="145.27,57.85 135.96,58.62 118.4,69.45 130.5,66.42 			"/>
			<polygon class="st11" points="137.36,64.87 130.33,67.21 121.31,79.29 129.53,74.59 			"/>
		</g>
		<polygon class="st12" points="148.17,45.7 140.39,48.45 133.55,53.22 		"/>
		<polygon class="st12" points="166.01,47.75 162.81,39.89 147.48,35.45 		"/>
		<polygon class="st12" points="159.6,42.07 154.12,41.15 140.69,45.63 		"/>
		<polygon class="st12" points="148.77,52.03 139.45,52.8 126.55,61.3 		"/>
		<polygon class="st12" points="145.27,57.85 135.96,58.62 118.4,69.45 		"/>
		<polygon class="st12" points="137.36,64.87 130.33,67.21 121.31,79.29 		"/>
		<polygon class="st11" points="166.6,48.55 166.35,43 158.76,30.62 161.33,43.11 		"/>
		<polygon class="st6" points="168.36,52.92 172.15,56.39 173.84,54.62 		"/>
		<polygon class="st6" points="170.58,73.81 167.87,120.85 161.51,122.2 154.43,98.56 160.03,91.39 		"/>
		<polygon class="st8" points="180.1,83.35 176.73,74.8 199.53,82.9 		"/>
	</g>
</g>
</svg>
