<?xml version="1.0" encoding="utf-8"?>
<!-- Generator: Adobe Illustrator 27.6.1, SVG Export Plug-In . SVG Version: 6.00 Build 0)  -->
<svg version="1.1" id="Layer_1" xmlns="http://www.w3.org/2000/svg" xmlns:xlink="http://www.w3.org/1999/xlink" x="0px" y="0px"
	 viewBox="0 0 300 300" style="enable-background:new 0 0 300 300;" xml:space="preserve">
<style type="text/css">
	.st0{fill:#C5B0C6;}
	.st1{fill:#AC9FAD;}
	.st2{fill:#D0C3D1;}
	.st3{fill:#9A8F9B;}
	.st4{fill:#EFE4E4;}
	.st5{fill:#E0D3D3;}
	.st6{fill:#EFEDED;}
	.st7{fill:#E2E0E0;}
	.st8{fill:#F7F7F7;}
</style>
<g>
	<polygon class="st0" points="234.89,39.01 223.89,30.78 223.58,30.8 216.99,36.92 217.72,36.46 	"/>
	<polygon class="st0" points="211.7,35.68 201.64,32.12 191.59,40.32 181.39,50.34 168.65,54.25 150.47,90.32 184.56,120.82 
		186.14,91.2 195.34,73.9 201.78,46.53 216.48,37.24 	"/>
	<polygon class="st1" points="223.58,30.8 202.15,32.01 201.46,32.32 216.48,37.24 216.99,36.92 	"/>
	<polygon class="st1" points="181.39,50.34 191.59,52.16 186.99,46.2 203.09,41.06 201.46,32.32 179.25,42.04 154.07,48.54 
		126.85,69.19 150.47,90.32 183.72,54.25 	"/>
	<polygon class="st2" points="217.72,36.46 201.78,46.53 195.34,73.9 182.91,91.2 184.82,115.86 195.71,95.77 198.92,73.77 
		215.45,60 224.67,45.04 235.13,39.18 234.89,39.01 	"/>
	<polygon class="st2" points="196.65,78.12 194.2,72.04 194.06,54.9 202.01,67.69 	"/>
	<polygon class="st3" points="137.74,67.42 154.07,48.54 180.6,45.37 188.4,38.04 184.96,48.03 160.56,54.9 156.62,64.9 	"/>
	<polygon class="st2" points="205.8,38.99 211.83,36.46 217.72,36.46 214.07,38.85 	"/>
	<polygon class="st1" points="174.24,104.93 178.35,55.73 178.35,55.73 154.45,59.43 133.23,66.21 132.94,66.3 110.47,59.66 
		82.56,55.73 110.35,106.54 100.86,129.99 146.02,128.47 195.85,126.79 196.65,126.77 	"/>
	<polygon class="st0" points="174.24,104.93 178.35,55.73 178.35,55.73 154.45,59.43 133.23,66.21 109.06,59.09 82.56,55.73 
		95.69,62.3 111.21,64.83 130.93,70.74 154.07,62.84 174.95,59.81 154.24,67.59 142.62,75.59 130.6,78.62 131.33,86.91 139.39,98.6 
		146.02,128.47 195.85,126.79 196.65,126.77 	"/>
	<polygon class="st2" points="160.56,105.44 171.54,111.5 195.85,126.79 196.65,126.77 174.24,104.93 178.35,55.73 178.35,55.73 
		164.63,97.91 	"/>
	<polygon class="st3" points="83.14,56.8 110.35,106.54 100.86,129.99 116.94,130.17 104.94,126.32 116.37,106.45 107.2,92.58 	"/>
	<polygon class="st0" points="219.05,139.05 150.43,123.4 149.52,123.4 140.85,172.67 153.43,220.89 141.07,267.84 208,234.32 
		209.81,221.9 197.73,209.49 187.36,191.59 208.99,172.52 	"/>
	<polygon class="st1" points="140.85,172.67 149.52,123.4 115.49,123.4 81.13,151.66 70.22,166.3 86.83,185.21 98.8,188.19 
		66.84,232.16 140.16,268.33 141.07,267.84 150.93,239.44 153.43,220.89 	"/>
	<polygon class="st1" points="216.48,140.34 192.48,157.19 185.82,189.95 208,169.93 209.02,156.77 	"/>
	<polygon class="st4" points="215.4,140.91 232.79,141.99 223.44,151.68 225.11,160.77 205.8,147.72 	"/>
	<polygon class="st5" points="214.78,143.84 218.3,148.02 219.1,156.16 214.7,150.42 	"/>
	<polygon class="st4" points="162.07,132.01 116.06,132.01 126.83,107.82 116.06,86 140.26,96.77 162.07,86 151.31,108.6 	"/>
	<polygon class="st1" points="192.48,157.19 219.05,139.05 182.91,148.12 159.14,132.01 163.15,179.3 186.9,185.64 	"/>
	<polygon class="st1" points="150.3,240.03 144.11,250.07 141.07,267.84 146.74,264.82 160.38,246.53 	"/>
	<polygon class="st3" points="168.24,152.15 178.69,147.12 183.99,157.54 179.98,168.83 185.44,180.94 165.56,184.12 	"/>
	<polygon class="st3" points="66.84,232.16 87.43,247.24 140.16,268.33 95.85,243.27 87.71,225.38 108.27,216.07 90.42,216.07 
		113.81,189.95 98.8,188.19 	"/>
	<polygon class="st2" points="187.19,192.01 177.79,186.25 171.69,182.76 152.88,192.95 186.36,207.3 187.1,244.56 201.12,228.16 
		210.23,222.13 190.36,209.29 	"/>
	<polygon class="st3" points="74.52,165.22 88.75,158.12 91.31,169.2 107.46,181.1 91.14,184.13 	"/>
	<polygon class="st5" points="149.07,103.88 140.01,108.45 130.76,104.75 138.86,111 140.09,114.37 141.27,111.17 	"/>
	<polygon class="st3" points="203.37,149.54 201.15,163.92 187.97,185.64 192.48,157.19 	"/>
	<polygon class="st4" points="83.29,171.09 69.2,181.33 71.31,167.91 63.16,161.96 86.36,159.72 	"/>
	<polygon class="st4" points="80.22,153.53 86.97,158.78 84.54,165.85 80.14,160.11 	"/>
	<polygon class="st3" points="106.53,142.47 96.3,148.63 95.25,166.15 106.53,173.19 	"/>
	<polygon class="st3" points="117.7,203.75 131.31,228.36 128.66,243.73 142.24,236.23 150.37,215.79 	"/>
	<g>
		<g>
			<polygon class="st6" points="171.93,143 164,125.37 154.29,120.34 135.5,123.93 126.22,120.34 116.52,125.37 108.59,143 
				106.53,178.76 116.28,207.93 138.9,228.52 139.48,220.85 153.07,206.88 173.99,178.76 			"/>
			<g>
				<polygon class="st7" points="111.14,171.26 121.3,183.02 121.39,199.22 122.64,206.96 133.11,219.16 138.9,228.52 
					116.28,207.93 106.53,178.76 				"/>
			</g>
			<polygon class="st6" points="113.55,166.15 106.78,174.26 104.9,195.66 111.34,183.8 			"/>
			<polygon class="st7" points="113.55,166.15 106.78,174.26 104.9,195.66 			"/>
			<polygon class="st6" points="117.87,151.71 107.16,159.62 94,185.91 112.85,171.02 			"/>
			<polygon class="st7" points="117.87,151.71 107.16,159.62 94,185.91 			"/>
			<polygon class="st6" points="117.74,142.04 107.03,149.95 97.77,169.93 118.77,155.03 			"/>
			<polygon class="st7" points="117.74,142.04 107.03,149.95 97.77,169.93 111.8,153.34 			"/>
			<polygon class="st6" points="112.27,134.81 104.91,143.98 100.19,154.89 114.47,151.28 118.76,143.11 			"/>
			<polygon class="st7" points="126.5,157.19 121.05,160.79 120.5,165.97 125.67,162.4 			"/>
			<polygon class="st7" points="127.59,143.92 123.61,145.29 122.59,148.46 126.38,147.06 			"/>
			<polygon class="st7" points="133.41,182.18 128.27,187.51 126.65,193.51 131.57,188.28 			"/>
			<polygon class="st7" points="132.04,184.13 128.79,193.48 129.74,201.78 132.79,192.67 			"/>
			<polygon class="st7" points="112.27,134.81 104.91,143.98 100.19,154.89 108.46,144.72 			"/>
			<g>
				<polygon class="st8" points="169.38,171.26 159.22,183.02 153.75,201.37 142.81,208.03 136.65,219.16 138.9,228.52 
					142.71,218.7 159.03,211.35 173.99,178.76 				"/>
			</g>
			<polygon class="st6" points="123.41,121.85 116.08,124.84 103.16,140.34 118.7,133.08 			"/>
			<polygon class="st6" points="159.44,166.15 170.51,174.26 177.77,187.05 169.18,183.8 			"/>
			<polygon class="st8" points="166.97,166.15 173.74,172.11 177.77,187.05 172.06,180.23 			"/>
			<polygon class="st7" points="123.41,121.85 116.08,124.84 103.16,140.34 119.54,129.31 			"/>
			<polygon class="st6" points="162.65,151.71 173.36,159.62 182.21,175.15 165.52,171.02 			"/>
			<polygon class="st7" points="135.43,123.92 125.66,116.8 103.76,122.91 125.78,127.83 			"/>
			<polygon class="st8" points="162.65,151.71 173.36,159.62 182.21,175.15 172.76,169 			"/>
			<polygon class="st6" points="135.43,123.92 125.66,116.8 103.76,122.91 			"/>
			<polygon class="st8" points="154.18,156.77 158.64,161.23 164.09,171.07 156.79,165.35 			"/>
			<polygon class="st8" points="154.18,135.24 158.64,139.7 164.09,149.54 156.79,143.82 			"/>
			<polygon class="st8" points="154.5,136.31 156.94,140.48 158.81,148.63 154.42,142.89 			"/>
			<polygon class="st6" points="162.78,142.04 173.49,149.95 180.6,161.32 170.36,157.19 			"/>
			<polygon class="st8" points="162.78,142.04 173.49,149.95 180.6,161.32 170.63,154.92 			"/>
			<polygon class="st6" points="168.24,134.81 175.61,143.98 180.33,154.89 161.74,142.67 			"/>
			<polygon class="st8" points="168.24,134.81 175.61,143.98 180.33,154.89 174.29,148.08 			"/>
			<polygon class="st6" points="157.11,121.85 164.44,124.84 181.67,140.34 161.82,136.31 			"/>
			<polygon class="st8" points="157.11,121.85 164.44,124.84 181.67,140.34 			"/>
			<polygon class="st7" points="136.76,124.45 140.53,128.06 153.82,120.07 113.81,108.6 126.28,121.81 			"/>
			<polygon class="st6" points="145.09,123.92 154.86,116.8 176.76,122.91 154.74,125.68 			"/>
			<polygon class="st8" points="145.09,123.92 154.86,116.8 176.76,122.91 			"/>
			<polygon class="st6" points="142.69,125.53 134.35,119.69 166.7,108.6 154.24,125.04 			"/>
			<polygon class="st6" points="113.81,108.6 135.43,128.3 142.62,116.86 			"/>
			<polygon class="st8" points="165.63,108.6 150.21,119.1 134.35,119.69 			"/>
		</g>
		<g>
			<g>
				<polygon class="st6" points="114.53,76.12 121.16,82.05 136.45,105.6 114.93,94.78 115.96,91.62 106.03,96.16 				"/>
				<polygon class="st6" points="127.48,82.49 131.64,90.09 136.45,105.6 126.21,94.39 				"/>
				<polygon class="st6" points="133.33,88.81 134.24,97 136.45,105.6 130.47,95.63 				"/>
				<polygon class="st6" points="129.81,101.07 120.85,91.42 119.78,78.17 128.06,88.89 				"/>
				<polygon class="st7" points="136.45,105.6 126.48,96.5 124.24,90.08 122.47,93.16 116.18,82.27 106.03,96.16 115.74,95.12 
					118.6,96.62 				"/>
			</g>
			<g>
				<polygon class="st6" points="164.52,75.6 158.92,79.9 145.2,104.62 162.46,94.82 163.47,93.32 174.35,95.97 				"/>
				<polygon class="st6" points="152.15,85.04 148.28,89.52 145.2,104.62 152.33,95.75 				"/>
				<polygon class="st6" points="150.46,100.42 157.34,91.27 159.84,75.99 151.19,88.49 				"/>
				<polygon class="st8" points="145.2,104.62 152,94.59 152.64,96.7 158.02,85.8 160.05,90.32 163.24,78.59 174.35,95.97 
					163.47,93.32 162.46,94.82 				"/>
			</g>
		</g>
	</g>
</g>
</svg>
